<svg xmlns="http://www.w3.org/2000/svg" width="24" height="24" viewBox="0 0 24 24">
  <g id="comment_icon" data-name="comment  icon" transform="translate(0)">
    <circle id="Ellipse_44" data-name="Ellipse 44" cx="12" cy="12" r="12" transform="translate(0)" fill="#fff" opacity="0"/>
    <g id="comment" transform="translate(3.503 4.509)">
      <path id="Vector" d="M8.5,17.041a1.79,1.79,0,0,1-1.423-.759L5.889,14.7a.373.373,0,0,0-.158-.079h-.4C2.039,14.623,0,13.73,0,9.287V5.335C0,1.842,1.842,0,5.335,0h6.323c3.494,0,5.335,1.842,5.335,5.335V9.287c0,3.494-1.842,5.335-5.335,5.335h-.4a.206.206,0,0,0-.158.079L9.92,16.283A1.79,1.79,0,0,1,8.5,17.041ZM5.335,1.186c-2.83,0-4.15,1.32-4.15,4.15V9.287c0,3.573,1.225,4.15,4.15,4.15h.4a1.483,1.483,0,0,1,1.107.553l1.186,1.581a.549.549,0,0,0,.949,0l1.186-1.581a1.385,1.385,0,0,1,1.107-.553h.4c2.83,0,4.15-1.32,4.15-4.15V5.335c0-2.83-1.32-4.15-4.15-4.15Z" fill="#999"/>
      <path id="Vector-2" data-name="Vector" d="M8.5,1.186H.593A.6.6,0,0,1,0,.593.6.6,0,0,1,.593,0H8.5A.6.6,0,0,1,9.09.593.6.6,0,0,1,8.5,1.186Z" transform="translate(3.952 4.743)" fill="#999"/>
      <path id="Vector-3" data-name="Vector" d="M5.335,1.186H.593A.6.6,0,0,1,0,.593.6.6,0,0,1,.593,0H5.335a.6.6,0,0,1,.593.593A.6.6,0,0,1,5.335,1.186Z" transform="translate(3.952 8.695)" fill="#999"/>
    </g>
  </g>
</svg>
