<svg id="c_" data-name="c#" xmlns="http://www.w3.org/2000/svg" xmlns:xlink="http://www.w3.org/1999/xlink" width="309.541" height="386" viewBox="0 0 309.541 386">
  <defs>
    <linearGradient id="linear-gradient" x1="0.5" x2="0.5" y2="1" gradientUnits="objectBoundingBox">
      <stop offset="0" stop-color="#a179dc"/>
      <stop offset="1" stop-color="#280068"/>
    </linearGradient>
  </defs>
  <g id="Group_284" data-name="Group 284" transform="translate(-247.818 -149.631)">
    <path id="Path_171" data-name="Path 171" d="M557.153,254.641v54.5c0,208.063-309.335,208.063-309.335,0V191.99a42.355,42.355,0,0,1,42.359-42.359H452.115l83.052,83.024Z" fill="url(#linear-gradient)"/>
    <g id="Group_15201" data-name="Group 15201" transform="translate(-4 -3)">
      <text id="_" data-name="#" transform="translate(366.359 271.631)" fill="#fff" font-size="68" font-family="Poppins-Bold, Poppins" font-weight="700"><tspan x="-30.736" y="0">#</tspan></text>
      <path id="Path_38555" data-name="Path 38555" d="M913.382,280.853c-2.557,1.277-8.309,2.648-15.8,2.648-21.276,0-32.233-13.239-32.233-30.77,0-21,14.974-32.69,33.6-32.69,7.215,0,12.695,1.461,15.158,2.738l-2.828,11.048a30.112,30.112,0,0,0-11.69-2.283c-11.045,0-19.631,6.668-19.631,20.363,0,12.327,7.307,20.089,19.723,20.089a34.835,34.835,0,0,0,11.6-2.009Z" transform="translate(-585.185 -14.089)" fill="#fff"/>
    </g>
  </g>
  <g id="Group_289" data-name="Group 289" transform="translate(-247.818 -149.631)">
    <path id="Path_176" data-name="Path 176" d="M557.153,254.641H494.447a42.334,42.334,0,0,1-38.112-23.894,40.951,40.951,0,0,1-3.252-9.461,41.441,41.441,0,0,1-.968-9V149.631l83.052,83.024Z" fill="#663ea3"/>
  </g>
  <g id="Group_15102" data-name="Group 15102" transform="translate(-248 -149.631)">
    <path id="Rectangle_4604" data-name="Rectangle 4604" d="M0,0H309a0,0,0,0,1,0,0V174a41,41,0,0,1-41,41H41A41,41,0,0,1,0,174V0A0,0,0,0,1,0,0Z" transform="translate(248.541 320.631)" fill="#eee"/>
    <g id="c-sharp-c-seeklogo.com" transform="translate(327.847 343.62)">
      <path id="Path_38538" data-name="Path 38538" d="M150.379,49.693a14.925,14.925,0,0,0-1.838-7.509,14.358,14.358,0,0,0-5.441-5.3Q113.069,19.567,83.025,2.275c-5.4-3.115-10.627-3-15.983.158-7.969,4.7-47.866,27.558-59.755,34.444a13.886,13.886,0,0,0-7.28,12.81Q0,84.51,0,119.334A14.978,14.978,0,0,0,1.758,126.7a14.308,14.308,0,0,0,5.523,5.445c11.889,6.886,51.792,29.742,59.759,34.443,5.358,3.162,10.59,3.275,15.987.158q30.022-17.335,60.08-34.608a14.314,14.314,0,0,0,5.523-5.444,15,15,0,0,0,1.758-7.366s0-46.419-.008-69.635" transform="translate(0 0)" fill="#a179dc"/>
      <path id="Path_38539" data-name="Path 38539" d="M76.653,143.241,2.988,185.656A14.308,14.308,0,0,0,8.511,191.1C20.4,197.987,60.3,220.843,68.27,225.544c5.358,3.162,10.59,3.275,15.987.158q30.022-17.335,60.08-34.608a14.314,14.314,0,0,0,5.523-5.444L76.653,143.241" transform="translate(-1.23 -58.957)" fill="#280068"/>
      <path id="Path_38540" data-name="Path 38540" d="M203.138,79.2a14.925,14.925,0,0,0-1.838-7.509l-73.117,42.1L201.388,156.2a15.01,15.01,0,0,0,1.758-7.366s0-46.419-.008-69.635" transform="translate(-52.759 -29.508)" fill="#390091"/>
      <path id="Path_38541" data-name="Path 38541" d="M193.574,116.294v7.928H201.5v-7.928h3.964v7.928h7.928v3.964h-7.928v7.928h7.928v3.964h-7.928v7.928H201.5v-7.928h-7.928v7.928H189.61v-7.928h-7.928v-3.964h7.928v-7.928h-7.928v-3.964h7.928v-7.928Zm7.928,11.892h-7.928v7.928H201.5Z" transform="translate(-74.779 -47.866)" fill="#fff"/>
      <path id="Path_38542" data-name="Path 38542" d="M89.356,48.626a55.878,55.878,0,0,1,48.4,27.924l-.095-.161L113.335,90.4A27.821,27.821,0,0,0,89.673,76.692l-.317,0a27.835,27.835,0,1,0,24.255,41.483l-.116.2,24.294,14.074a55.882,55.882,0,0,1-47.81,27.971l-.623,0a55.9,55.9,0,1,1,0-111.8Z" transform="translate(-13.77 -20.014)" fill="#fff"/>
    </g>
  </g>
</svg>
