<svg id="default" xmlns="http://www.w3.org/2000/svg" width="309.253" height="386" viewBox="0 0 309.253 386">
  <g id="Group_15102" data-name="Group 15102" transform="translate(-248.541 -149.631)">
    <path id="Path_38558" data-name="Path 38558" d="M41,0,204.026-1.128,309.253,103.226,309,343a41,41,0,0,1-41,41H41A41,41,0,0,1,0,343V41A41,41,0,0,1,41,0Z" transform="translate(248.541 151.631)" fill="#eee"/>
  </g>
  <g id="Group_289" data-name="Group 289" transform="translate(-248.359 -149.631)">
    <path id="Path_176" data-name="Path 176" d="M557.153,254.641H494.447a42.334,42.334,0,0,1-38.112-23.894,40.951,40.951,0,0,1-3.252-9.461,41.441,41.441,0,0,1-.968-9V149.631l83.052,83.024Z" fill="#b1b1b1"/>
  </g>
  <rect id="Rectangle_4614" data-name="Rectangle 4614" width="246" height="18" rx="9" transform="translate(32 163)" fill="#b1b1b1"/>
  <rect id="Rectangle_4615" data-name="Rectangle 4615" width="246" height="18" rx="9" transform="translate(32 200)" fill="#b1b1b1"/>
  <rect id="Rectangle_4616" data-name="Rectangle 4616" width="246" height="18" rx="9" transform="translate(32 237)" fill="#b1b1b1"/>
  <rect id="Rectangle_4617" data-name="Rectangle 4617" width="246" height="18" rx="9" transform="translate(32 274)" fill="#b1b1b1"/>
</svg>
