<svg id="download" xmlns="http://www.w3.org/2000/svg" width="14.828" height="12.994" viewBox="0 0 14.828 12.994">
  <path id="Path_36851" data-name="Path 36851" d="M113.561,10.936a2.78,2.78,0,0,0,3.932,0h0l1.985-1.985a.927.927,0,0,0-1.288-1.333l-.023.023L116.447,9.36l.017-6.6a.927.927,0,0,0-.927-.927h0a.927.927,0,0,0-.927.927l-.019,6.585L112.887,7.64a.927.927,0,0,0-1.31,1.31Z" transform="translate(-108.092 -1.834)" fill="#999"/>
  <path id="Path_36852" data-name="Path 36852" d="M13.9,309.333a.927.927,0,0,0-.927.927V313.1a.253.253,0,0,1-.253.253H2.106a.253.253,0,0,1-.253-.253V310.26a.927.927,0,0,0-1.854,0V313.1A2.109,2.109,0,0,0,2.106,315.2H12.722a2.109,2.109,0,0,0,2.106-2.106V310.26A.927.927,0,0,0,13.9,309.333Z" transform="translate(0 -302.208)" fill="#999"/>
</svg>
