<svg id="Component_441_1" data-name="Component 441 – 1" xmlns="http://www.w3.org/2000/svg" width="166.465" height="106.411" viewBox="0 0 166.465 106.411">
  <ellipse id="Ellipse_344" data-name="Ellipse 344" cx="83.233" cy="5.103" rx="83.233" ry="5.103" transform="translate(0 96.205)" fill="#f1f1f1"/>
  <g id="Group_15783" data-name="Group 15783" transform="translate(43.749 23.676)">
    <path id="Subtraction_15" data-name="Subtraction 15" d="M45.244,76.145H27.925c-7.9,0-14.143,0-19.027-.687-5.761-.811-9.583-2.6-12.391-5.81S-7.572,62.417-7.614,56.6c-.035-4.94.79-11.123,1.834-18.951l2.1-15.78,0-.012A129.445,129.445,0,0,1-1.189,7.012C.01,2.479,1.728-.578,4.382-2.9s5.909-3.622,10.562-4.213A129.855,129.855,0,0,1,30-7.615H43.171a129.843,129.843,0,0,1,15.054.5c4.652.591,7.909,1.89,10.562,4.213A15.95,15.95,0,0,1,72.72,2.39,8.9,8.9,0,0,1,74.033,5.86c.11.365.219.753.325,1.152A128.914,128.914,0,0,1,76.84,21.823l.006.044,2.1,15.78,0,.021c1.043,7.823,1.867,14,1.831,18.931-.041,5.817-1.312,9.842-4.12,13.05s-6.631,5-12.392,5.81C59.387,76.145,53.145,76.145,45.244,76.145Z" transform="translate(0 0)" fill="#fad9d9"/>
  </g>
  <path id="Path_40993" data-name="Path 40993" d="M270.115,161.307a3.807,3.807,0,0,0-7.615,0v2.539a19.036,19.036,0,0,0,38.073,0v-2.539a3.807,3.807,0,0,0-7.615,0v2.539a11.422,11.422,0,0,1-22.844,0Z" transform="translate(-198.304 -126.209)" fill="#ec5252"/>
  <g id="Group_15785" data-name="Group 15785" transform="translate(37.847)">
    <path id="Path_38726" data-name="Path 38726" d="M398.578,140.554a5.915,5.915,0,0,1,0-2.674,5.16,5.16,0,0,1,.152,1.337A5.291,5.291,0,0,1,398.578,140.554Z" transform="translate(-390.329 -137.88)" fill="#ec5252"/>
    <path id="Path_38727" data-name="Path 38727" d="M407.91,143.966a5.283,5.283,0,0,1,.537-1.234,5.2,5.2,0,0,1,.8-1.082,5.155,5.155,0,0,1-.537,1.234A5.242,5.242,0,0,1,407.91,143.966Z" transform="translate(-396.937 -140.506)" fill="#ec5252"/>
    <path id="Path_38728" data-name="Path 38728" d="M414.4,152.934a5.268,5.268,0,0,1,1.079-.8,5.419,5.419,0,0,1,1.225-.534,5.928,5.928,0,0,1-2.3,1.334Z" transform="translate(-401.459 -147.44)" fill="#ec5252"/>
    <path id="Path_38729" data-name="Path 38729" d="M416.65,164.74a5.394,5.394,0,0,1,1.334-.152,5.154,5.154,0,0,1,1.337.152,5.411,5.411,0,0,1-1.334.152A5.294,5.294,0,0,1,416.65,164.74Z" transform="translate(-403.027 -156.49)" fill="#ec5252"/>
    <path id="Path_38730" data-name="Path 38730" d="M414.06,174.08a5.273,5.273,0,0,1,1.234.534,5.37,5.37,0,0,1,1.082.8A6,6,0,0,1,414.06,174.08Z" transform="translate(-401.222 -163.104)" fill="#ec5252"/>
    <path id="Path_38731" data-name="Path 38731" d="M407.33,180.56a5.4,5.4,0,0,1,.8,1.082,5.263,5.263,0,0,1,.537,1.231A5.915,5.915,0,0,1,407.33,180.56Z" transform="translate(-396.533 -167.619)" fill="#ec5252"/>
    <path id="Path_38732" data-name="Path 38732" d="M397.9,182.81a5.916,5.916,0,0,1,0,2.674,5.157,5.157,0,0,1-.152-1.337A5.29,5.29,0,0,1,397.9,182.81Z" transform="translate(-389.856 -169.187)" fill="#ec5252"/>
    <path id="Path_38733" data-name="Path 38733" d="M386.2,180.22a5.28,5.28,0,0,1-.537,1.234,5.182,5.182,0,0,1-.8,1.085,5.3,5.3,0,0,1,.537-1.237A5.472,5.472,0,0,1,386.2,180.22Z" transform="translate(-380.883 -167.382)" fill="#ec5252"/>
    <path id="Path_38734" data-name="Path 38734" d="M377.467,173.49a5.372,5.372,0,0,1-1.082.8,5.154,5.154,0,0,1-1.234.54A6.012,6.012,0,0,1,377.467,173.49Z" transform="translate(-374.11 -162.693)" fill="#ec5252"/>
    <path id="Path_38735" data-name="Path 38735" d="M374.394,164.071a5.436,5.436,0,0,1-1.337.152,5.292,5.292,0,0,1-1.337-.149,5.3,5.3,0,0,1,1.337-.155A5.437,5.437,0,0,1,374.394,164.071Z" transform="translate(-371.72 -156.023)" fill="#ec5252"/>
    <path id="Path_38736" data-name="Path 38736" d="M377.8,152.374a5.338,5.338,0,0,1-1.234-.537,5.474,5.474,0,0,1-1.082-.8,5.278,5.278,0,0,1,1.234.534A5.206,5.206,0,0,1,377.8,152.374Z" transform="translate(-374.34 -147.05)" fill="#ec5252"/>
    <path id="Path_38737" data-name="Path 38737" d="M386.78,143.683a5.27,5.27,0,0,1-.8-1.079,5.152,5.152,0,0,1-.54-1.234,5.2,5.2,0,0,1,.8,1.082A5.4,5.4,0,0,1,386.78,143.683Z" transform="translate(-381.28 -140.312)" fill="#ec5252"/>
  </g>
  <g id="Group_15892" data-name="Group 15892" transform="translate(37.847)">
    <path id="Path_38726-2" data-name="Path 38726" d="M398.578,140.554a5.915,5.915,0,0,1,0-2.674,5.16,5.16,0,0,1,.152,1.337A5.291,5.291,0,0,1,398.578,140.554Z" transform="translate(-390.329 -137.88)" fill="#ec5252"/>
    <path id="Path_38727-2" data-name="Path 38727" d="M407.91,143.966a5.283,5.283,0,0,1,.537-1.234,5.2,5.2,0,0,1,.8-1.082,5.155,5.155,0,0,1-.537,1.234A5.242,5.242,0,0,1,407.91,143.966Z" transform="translate(-396.937 -140.506)" fill="#ec5252"/>
    <path id="Path_38728-2" data-name="Path 38728" d="M414.4,152.934a5.268,5.268,0,0,1,1.079-.8,5.419,5.419,0,0,1,1.225-.534,5.928,5.928,0,0,1-2.3,1.334Z" transform="translate(-401.459 -147.44)" fill="#ec5252"/>
    <path id="Path_38729-2" data-name="Path 38729" d="M416.65,164.74a5.394,5.394,0,0,1,1.334-.152,5.154,5.154,0,0,1,1.337.152,5.411,5.411,0,0,1-1.334.152A5.294,5.294,0,0,1,416.65,164.74Z" transform="translate(-403.027 -156.49)" fill="#ec5252"/>
    <path id="Path_38730-2" data-name="Path 38730" d="M414.06,174.08a5.273,5.273,0,0,1,1.234.534,5.37,5.37,0,0,1,1.082.8A6,6,0,0,1,414.06,174.08Z" transform="translate(-401.222 -163.104)" fill="#ec5252"/>
    <path id="Path_38731-2" data-name="Path 38731" d="M407.33,180.56a5.4,5.4,0,0,1,.8,1.082,5.263,5.263,0,0,1,.537,1.231A5.915,5.915,0,0,1,407.33,180.56Z" transform="translate(-396.533 -167.619)" fill="#ec5252"/>
    <path id="Path_38732-2" data-name="Path 38732" d="M397.9,182.81a5.916,5.916,0,0,1,0,2.674,5.157,5.157,0,0,1-.152-1.337A5.29,5.29,0,0,1,397.9,182.81Z" transform="translate(-389.856 -169.187)" fill="#ec5252"/>
    <path id="Path_38733-2" data-name="Path 38733" d="M386.2,180.22a5.28,5.28,0,0,1-.537,1.234,5.182,5.182,0,0,1-.8,1.085,5.3,5.3,0,0,1,.537-1.237A5.472,5.472,0,0,1,386.2,180.22Z" transform="translate(-380.883 -167.382)" fill="#ec5252"/>
    <path id="Path_38734-2" data-name="Path 38734" d="M377.467,173.49a5.372,5.372,0,0,1-1.082.8,5.154,5.154,0,0,1-1.234.54A6.012,6.012,0,0,1,377.467,173.49Z" transform="translate(-374.11 -162.693)" fill="#ec5252"/>
    <path id="Path_38735-2" data-name="Path 38735" d="M374.394,164.071a5.436,5.436,0,0,1-1.337.152,5.292,5.292,0,0,1-1.337-.149,5.3,5.3,0,0,1,1.337-.155A5.437,5.437,0,0,1,374.394,164.071Z" transform="translate(-371.72 -156.023)" fill="#ec5252"/>
    <path id="Path_38736-2" data-name="Path 38736" d="M377.8,152.374a5.338,5.338,0,0,1-1.234-.537,5.474,5.474,0,0,1-1.082-.8,5.278,5.278,0,0,1,1.234.534A5.206,5.206,0,0,1,377.8,152.374Z" transform="translate(-374.34 -147.05)" fill="#ec5252"/>
    <path id="Path_38737-2" data-name="Path 38737" d="M386.78,143.683a5.27,5.27,0,0,1-.8-1.079,5.152,5.152,0,0,1-.54-1.234,5.2,5.2,0,0,1,.8,1.082A5.4,5.4,0,0,1,386.78,143.683Z" transform="translate(-381.28 -140.312)" fill="#ec5252"/>
  </g>
  <g id="Group_15893" data-name="Group 15893" transform="translate(37.847)">
    <path id="Path_38726-3" data-name="Path 38726" d="M398.578,140.554a5.915,5.915,0,0,1,0-2.674,5.16,5.16,0,0,1,.152,1.337A5.291,5.291,0,0,1,398.578,140.554Z" transform="translate(-390.329 -137.88)" fill="#ec5252"/>
    <path id="Path_38727-3" data-name="Path 38727" d="M407.91,143.966a5.283,5.283,0,0,1,.537-1.234,5.2,5.2,0,0,1,.8-1.082,5.155,5.155,0,0,1-.537,1.234A5.242,5.242,0,0,1,407.91,143.966Z" transform="translate(-396.937 -140.506)" fill="#ec5252"/>
    <path id="Path_38728-3" data-name="Path 38728" d="M414.4,152.934a5.268,5.268,0,0,1,1.079-.8,5.419,5.419,0,0,1,1.225-.534,5.928,5.928,0,0,1-2.3,1.334Z" transform="translate(-401.459 -147.44)" fill="#ec5252"/>
    <path id="Path_38729-3" data-name="Path 38729" d="M416.65,164.74a5.394,5.394,0,0,1,1.334-.152,5.154,5.154,0,0,1,1.337.152,5.411,5.411,0,0,1-1.334.152A5.294,5.294,0,0,1,416.65,164.74Z" transform="translate(-403.027 -156.49)" fill="#ec5252"/>
    <path id="Path_38730-3" data-name="Path 38730" d="M414.06,174.08a5.273,5.273,0,0,1,1.234.534,5.37,5.37,0,0,1,1.082.8A6,6,0,0,1,414.06,174.08Z" transform="translate(-401.222 -163.104)" fill="#ec5252"/>
    <path id="Path_38731-3" data-name="Path 38731" d="M407.33,180.56a5.4,5.4,0,0,1,.8,1.082,5.263,5.263,0,0,1,.537,1.231A5.915,5.915,0,0,1,407.33,180.56Z" transform="translate(-396.533 -167.619)" fill="#ec5252"/>
    <path id="Path_38732-3" data-name="Path 38732" d="M397.9,182.81a5.916,5.916,0,0,1,0,2.674,5.157,5.157,0,0,1-.152-1.337A5.29,5.29,0,0,1,397.9,182.81Z" transform="translate(-389.856 -169.187)" fill="#ec5252"/>
    <path id="Path_38733-3" data-name="Path 38733" d="M386.2,180.22a5.28,5.28,0,0,1-.537,1.234,5.182,5.182,0,0,1-.8,1.085,5.3,5.3,0,0,1,.537-1.237A5.472,5.472,0,0,1,386.2,180.22Z" transform="translate(-380.883 -167.382)" fill="#ec5252"/>
    <path id="Path_38734-3" data-name="Path 38734" d="M377.467,173.49a5.372,5.372,0,0,1-1.082.8,5.154,5.154,0,0,1-1.234.54A6.012,6.012,0,0,1,377.467,173.49Z" transform="translate(-374.11 -162.693)" fill="#ec5252"/>
    <path id="Path_38735-3" data-name="Path 38735" d="M374.394,164.071a5.436,5.436,0,0,1-1.337.152,5.292,5.292,0,0,1-1.337-.149,5.3,5.3,0,0,1,1.337-.155A5.437,5.437,0,0,1,374.394,164.071Z" transform="translate(-371.72 -156.023)" fill="#ec5252"/>
    <path id="Path_38736-3" data-name="Path 38736" d="M377.8,152.374a5.338,5.338,0,0,1-1.234-.537,5.474,5.474,0,0,1-1.082-.8,5.278,5.278,0,0,1,1.234.534A5.206,5.206,0,0,1,377.8,152.374Z" transform="translate(-374.34 -147.05)" fill="#ec5252"/>
    <path id="Path_38737-3" data-name="Path 38737" d="M386.78,143.683a5.27,5.27,0,0,1-.8-1.079,5.152,5.152,0,0,1-.54-1.234,5.2,5.2,0,0,1,.8,1.082A5.4,5.4,0,0,1,386.78,143.683Z" transform="translate(-381.28 -140.312)" fill="#ec5252"/>
  </g>
  <g id="Group_15894" data-name="Group 15894" transform="translate(37.847)">
    <path id="Path_38726-4" data-name="Path 38726" d="M398.578,140.554a5.915,5.915,0,0,1,0-2.674,5.16,5.16,0,0,1,.152,1.337A5.291,5.291,0,0,1,398.578,140.554Z" transform="translate(-390.329 -137.88)" fill="#ec5252"/>
    <path id="Path_38727-4" data-name="Path 38727" d="M407.91,143.966a5.283,5.283,0,0,1,.537-1.234,5.2,5.2,0,0,1,.8-1.082,5.155,5.155,0,0,1-.537,1.234A5.242,5.242,0,0,1,407.91,143.966Z" transform="translate(-396.937 -140.506)" fill="#ec5252"/>
    <path id="Path_38728-4" data-name="Path 38728" d="M414.4,152.934a5.268,5.268,0,0,1,1.079-.8,5.419,5.419,0,0,1,1.225-.534,5.928,5.928,0,0,1-2.3,1.334Z" transform="translate(-401.459 -147.44)" fill="#ec5252"/>
    <path id="Path_38729-4" data-name="Path 38729" d="M416.65,164.74a5.394,5.394,0,0,1,1.334-.152,5.154,5.154,0,0,1,1.337.152,5.411,5.411,0,0,1-1.334.152A5.294,5.294,0,0,1,416.65,164.74Z" transform="translate(-403.027 -156.49)" fill="#ec5252"/>
    <path id="Path_38730-4" data-name="Path 38730" d="M414.06,174.08a5.273,5.273,0,0,1,1.234.534,5.37,5.37,0,0,1,1.082.8A6,6,0,0,1,414.06,174.08Z" transform="translate(-401.222 -163.104)" fill="#ec5252"/>
    <path id="Path_38731-4" data-name="Path 38731" d="M407.33,180.56a5.4,5.4,0,0,1,.8,1.082,5.263,5.263,0,0,1,.537,1.231A5.915,5.915,0,0,1,407.33,180.56Z" transform="translate(-396.533 -167.619)" fill="#ec5252"/>
    <path id="Path_38732-4" data-name="Path 38732" d="M397.9,182.81a5.916,5.916,0,0,1,0,2.674,5.157,5.157,0,0,1-.152-1.337A5.29,5.29,0,0,1,397.9,182.81Z" transform="translate(-389.856 -169.187)" fill="#ec5252"/>
    <path id="Path_38733-4" data-name="Path 38733" d="M386.2,180.22a5.28,5.28,0,0,1-.537,1.234,5.182,5.182,0,0,1-.8,1.085,5.3,5.3,0,0,1,.537-1.237A5.472,5.472,0,0,1,386.2,180.22Z" transform="translate(-380.883 -167.382)" fill="#ec5252"/>
    <path id="Path_38734-4" data-name="Path 38734" d="M377.467,173.49a5.372,5.372,0,0,1-1.082.8,5.154,5.154,0,0,1-1.234.54A6.012,6.012,0,0,1,377.467,173.49Z" transform="translate(-374.11 -162.693)" fill="#ec5252"/>
    <path id="Path_38735-4" data-name="Path 38735" d="M374.394,164.071a5.436,5.436,0,0,1-1.337.152,5.292,5.292,0,0,1-1.337-.149,5.3,5.3,0,0,1,1.337-.155A5.437,5.437,0,0,1,374.394,164.071Z" transform="translate(-371.72 -156.023)" fill="#ec5252"/>
    <path id="Path_38736-4" data-name="Path 38736" d="M377.8,152.374a5.338,5.338,0,0,1-1.234-.537,5.474,5.474,0,0,1-1.082-.8,5.278,5.278,0,0,1,1.234.534A5.206,5.206,0,0,1,377.8,152.374Z" transform="translate(-374.34 -147.05)" fill="#ec5252"/>
    <path id="Path_38737-4" data-name="Path 38737" d="M386.78,143.683a5.27,5.27,0,0,1-.8-1.079,5.152,5.152,0,0,1-.54-1.234,5.2,5.2,0,0,1,.8,1.082A5.4,5.4,0,0,1,386.78,143.683Z" transform="translate(-381.28 -140.312)" fill="#ec5252"/>
  </g>
  <g id="Group_15895" data-name="Group 15895" transform="translate(37.847)">
    <path id="Path_38726-5" data-name="Path 38726" d="M398.578,140.554a5.915,5.915,0,0,1,0-2.674,5.16,5.16,0,0,1,.152,1.337A5.291,5.291,0,0,1,398.578,140.554Z" transform="translate(-390.329 -137.88)" fill="#ec5252"/>
    <path id="Path_38727-5" data-name="Path 38727" d="M407.91,143.966a5.283,5.283,0,0,1,.537-1.234,5.2,5.2,0,0,1,.8-1.082,5.155,5.155,0,0,1-.537,1.234A5.242,5.242,0,0,1,407.91,143.966Z" transform="translate(-396.937 -140.506)" fill="#ec5252"/>
    <path id="Path_38728-5" data-name="Path 38728" d="M414.4,152.934a5.268,5.268,0,0,1,1.079-.8,5.419,5.419,0,0,1,1.225-.534,5.928,5.928,0,0,1-2.3,1.334Z" transform="translate(-401.459 -147.44)" fill="#ec5252"/>
    <path id="Path_38729-5" data-name="Path 38729" d="M416.65,164.74a5.394,5.394,0,0,1,1.334-.152,5.154,5.154,0,0,1,1.337.152,5.411,5.411,0,0,1-1.334.152A5.294,5.294,0,0,1,416.65,164.74Z" transform="translate(-403.027 -156.49)" fill="#ec5252"/>
    <path id="Path_38730-5" data-name="Path 38730" d="M414.06,174.08a5.273,5.273,0,0,1,1.234.534,5.37,5.37,0,0,1,1.082.8A6,6,0,0,1,414.06,174.08Z" transform="translate(-401.222 -163.104)" fill="#ec5252"/>
    <path id="Path_38731-5" data-name="Path 38731" d="M407.33,180.56a5.4,5.4,0,0,1,.8,1.082,5.263,5.263,0,0,1,.537,1.231A5.915,5.915,0,0,1,407.33,180.56Z" transform="translate(-396.533 -167.619)" fill="#ec5252"/>
    <path id="Path_38732-5" data-name="Path 38732" d="M397.9,182.81a5.916,5.916,0,0,1,0,2.674,5.157,5.157,0,0,1-.152-1.337A5.29,5.29,0,0,1,397.9,182.81Z" transform="translate(-389.856 -169.187)" fill="#ec5252"/>
    <path id="Path_38733-5" data-name="Path 38733" d="M386.2,180.22a5.28,5.28,0,0,1-.537,1.234,5.182,5.182,0,0,1-.8,1.085,5.3,5.3,0,0,1,.537-1.237A5.472,5.472,0,0,1,386.2,180.22Z" transform="translate(-380.883 -167.382)" fill="#ec5252"/>
    <path id="Path_38734-5" data-name="Path 38734" d="M377.467,173.49a5.372,5.372,0,0,1-1.082.8,5.154,5.154,0,0,1-1.234.54A6.012,6.012,0,0,1,377.467,173.49Z" transform="translate(-374.11 -162.693)" fill="#ec5252"/>
    <path id="Path_38735-5" data-name="Path 38735" d="M374.394,164.071a5.436,5.436,0,0,1-1.337.152,5.292,5.292,0,0,1-1.337-.149,5.3,5.3,0,0,1,1.337-.155A5.437,5.437,0,0,1,374.394,164.071Z" transform="translate(-371.72 -156.023)" fill="#ec5252"/>
    <path id="Path_38736-5" data-name="Path 38736" d="M377.8,152.374a5.338,5.338,0,0,1-1.234-.537,5.474,5.474,0,0,1-1.082-.8,5.278,5.278,0,0,1,1.234.534A5.206,5.206,0,0,1,377.8,152.374Z" transform="translate(-374.34 -147.05)" fill="#ec5252"/>
    <path id="Path_38737-5" data-name="Path 38737" d="M386.78,143.683a5.27,5.27,0,0,1-.8-1.079,5.152,5.152,0,0,1-.54-1.234,5.2,5.2,0,0,1,.8,1.082A5.4,5.4,0,0,1,386.78,143.683Z" transform="translate(-381.28 -140.312)" fill="#ec5252"/>
  </g>
  <g id="Group_15896" data-name="Group 15896" transform="translate(37.847)">
    <path id="Path_38726-6" data-name="Path 38726" d="M398.578,140.554a5.915,5.915,0,0,1,0-2.674,5.16,5.16,0,0,1,.152,1.337A5.291,5.291,0,0,1,398.578,140.554Z" transform="translate(-390.329 -137.88)" fill="#ec5252"/>
    <path id="Path_38727-6" data-name="Path 38727" d="M407.91,143.966a5.283,5.283,0,0,1,.537-1.234,5.2,5.2,0,0,1,.8-1.082,5.155,5.155,0,0,1-.537,1.234A5.242,5.242,0,0,1,407.91,143.966Z" transform="translate(-396.937 -140.506)" fill="#ec5252"/>
    <path id="Path_38728-6" data-name="Path 38728" d="M414.4,152.934a5.268,5.268,0,0,1,1.079-.8,5.419,5.419,0,0,1,1.225-.534,5.928,5.928,0,0,1-2.3,1.334Z" transform="translate(-401.459 -147.44)" fill="#ec5252"/>
    <path id="Path_38729-6" data-name="Path 38729" d="M416.65,164.74a5.394,5.394,0,0,1,1.334-.152,5.154,5.154,0,0,1,1.337.152,5.411,5.411,0,0,1-1.334.152A5.294,5.294,0,0,1,416.65,164.74Z" transform="translate(-403.027 -156.49)" fill="#ec5252"/>
    <path id="Path_38730-6" data-name="Path 38730" d="M414.06,174.08a5.273,5.273,0,0,1,1.234.534,5.37,5.37,0,0,1,1.082.8A6,6,0,0,1,414.06,174.08Z" transform="translate(-401.222 -163.104)" fill="#ec5252"/>
    <path id="Path_38731-6" data-name="Path 38731" d="M407.33,180.56a5.4,5.4,0,0,1,.8,1.082,5.263,5.263,0,0,1,.537,1.231A5.915,5.915,0,0,1,407.33,180.56Z" transform="translate(-396.533 -167.619)" fill="#ec5252"/>
    <path id="Path_38732-6" data-name="Path 38732" d="M397.9,182.81a5.916,5.916,0,0,1,0,2.674,5.157,5.157,0,0,1-.152-1.337A5.29,5.29,0,0,1,397.9,182.81Z" transform="translate(-389.856 -169.187)" fill="#ec5252"/>
    <path id="Path_38733-6" data-name="Path 38733" d="M386.2,180.22a5.28,5.28,0,0,1-.537,1.234,5.182,5.182,0,0,1-.8,1.085,5.3,5.3,0,0,1,.537-1.237A5.472,5.472,0,0,1,386.2,180.22Z" transform="translate(-380.883 -167.382)" fill="#ec5252"/>
    <path id="Path_38734-6" data-name="Path 38734" d="M377.467,173.49a5.372,5.372,0,0,1-1.082.8,5.154,5.154,0,0,1-1.234.54A6.012,6.012,0,0,1,377.467,173.49Z" transform="translate(-374.11 -162.693)" fill="#ec5252"/>
    <path id="Path_38735-6" data-name="Path 38735" d="M374.394,164.071a5.436,5.436,0,0,1-1.337.152,5.292,5.292,0,0,1-1.337-.149,5.3,5.3,0,0,1,1.337-.155A5.437,5.437,0,0,1,374.394,164.071Z" transform="translate(-371.72 -156.023)" fill="#ec5252"/>
    <path id="Path_38736-6" data-name="Path 38736" d="M377.8,152.374a5.338,5.338,0,0,1-1.234-.537,5.474,5.474,0,0,1-1.082-.8,5.278,5.278,0,0,1,1.234.534A5.206,5.206,0,0,1,377.8,152.374Z" transform="translate(-374.34 -147.05)" fill="#ec5252"/>
    <path id="Path_38737-6" data-name="Path 38737" d="M386.78,143.683a5.27,5.27,0,0,1-.8-1.079,5.152,5.152,0,0,1-.54-1.234,5.2,5.2,0,0,1,.8,1.082A5.4,5.4,0,0,1,386.78,143.683Z" transform="translate(-381.28 -140.312)" fill="#ec5252"/>
  </g>
  <g id="Group_15897" data-name="Group 15897" transform="translate(37.847)">
    <path id="Path_38726-7" data-name="Path 38726" d="M398.578,140.554a5.915,5.915,0,0,1,0-2.674,5.16,5.16,0,0,1,.152,1.337A5.291,5.291,0,0,1,398.578,140.554Z" transform="translate(-390.329 -137.88)" fill="#ec5252"/>
    <path id="Path_38727-7" data-name="Path 38727" d="M407.91,143.966a5.283,5.283,0,0,1,.537-1.234,5.2,5.2,0,0,1,.8-1.082,5.155,5.155,0,0,1-.537,1.234A5.242,5.242,0,0,1,407.91,143.966Z" transform="translate(-396.937 -140.506)" fill="#ec5252"/>
    <path id="Path_38728-7" data-name="Path 38728" d="M414.4,152.934a5.268,5.268,0,0,1,1.079-.8,5.419,5.419,0,0,1,1.225-.534,5.928,5.928,0,0,1-2.3,1.334Z" transform="translate(-401.459 -147.44)" fill="#ec5252"/>
    <path id="Path_38729-7" data-name="Path 38729" d="M416.65,164.74a5.394,5.394,0,0,1,1.334-.152,5.154,5.154,0,0,1,1.337.152,5.411,5.411,0,0,1-1.334.152A5.294,5.294,0,0,1,416.65,164.74Z" transform="translate(-403.027 -156.49)" fill="#ec5252"/>
    <path id="Path_38730-7" data-name="Path 38730" d="M414.06,174.08a5.273,5.273,0,0,1,1.234.534,5.37,5.37,0,0,1,1.082.8A6,6,0,0,1,414.06,174.08Z" transform="translate(-401.222 -163.104)" fill="#ec5252"/>
    <path id="Path_38731-7" data-name="Path 38731" d="M407.33,180.56a5.4,5.4,0,0,1,.8,1.082,5.263,5.263,0,0,1,.537,1.231A5.915,5.915,0,0,1,407.33,180.56Z" transform="translate(-396.533 -167.619)" fill="#ec5252"/>
    <path id="Path_38732-7" data-name="Path 38732" d="M397.9,182.81a5.916,5.916,0,0,1,0,2.674,5.157,5.157,0,0,1-.152-1.337A5.29,5.29,0,0,1,397.9,182.81Z" transform="translate(-389.856 -169.187)" fill="#ec5252"/>
    <path id="Path_38733-7" data-name="Path 38733" d="M386.2,180.22a5.28,5.28,0,0,1-.537,1.234,5.182,5.182,0,0,1-.8,1.085,5.3,5.3,0,0,1,.537-1.237A5.472,5.472,0,0,1,386.2,180.22Z" transform="translate(-380.883 -167.382)" fill="#ec5252"/>
    <path id="Path_38734-7" data-name="Path 38734" d="M377.467,173.49a5.372,5.372,0,0,1-1.082.8,5.154,5.154,0,0,1-1.234.54A6.012,6.012,0,0,1,377.467,173.49Z" transform="translate(-374.11 -162.693)" fill="#ec5252"/>
    <path id="Path_38735-7" data-name="Path 38735" d="M374.394,164.071a5.436,5.436,0,0,1-1.337.152,5.292,5.292,0,0,1-1.337-.149,5.3,5.3,0,0,1,1.337-.155A5.437,5.437,0,0,1,374.394,164.071Z" transform="translate(-371.72 -156.023)" fill="#ec5252"/>
    <path id="Path_38736-7" data-name="Path 38736" d="M377.8,152.374a5.338,5.338,0,0,1-1.234-.537,5.474,5.474,0,0,1-1.082-.8,5.278,5.278,0,0,1,1.234.534A5.206,5.206,0,0,1,377.8,152.374Z" transform="translate(-374.34 -147.05)" fill="#ec5252"/>
    <path id="Path_38737-7" data-name="Path 38737" d="M386.78,143.683a5.27,5.27,0,0,1-.8-1.079,5.152,5.152,0,0,1-.54-1.234,5.2,5.2,0,0,1,.8,1.082A5.4,5.4,0,0,1,386.78,143.683Z" transform="translate(-381.28 -140.312)" fill="#ec5252"/>
  </g>
  <g id="Group_15898" data-name="Group 15898" transform="translate(37.847)">
    <path id="Path_38726-8" data-name="Path 38726" d="M398.578,140.554a5.915,5.915,0,0,1,0-2.674,5.16,5.16,0,0,1,.152,1.337A5.291,5.291,0,0,1,398.578,140.554Z" transform="translate(-390.329 -137.88)" fill="#ec5252"/>
    <path id="Path_38727-8" data-name="Path 38727" d="M407.91,143.966a5.283,5.283,0,0,1,.537-1.234,5.2,5.2,0,0,1,.8-1.082,5.155,5.155,0,0,1-.537,1.234A5.242,5.242,0,0,1,407.91,143.966Z" transform="translate(-396.937 -140.506)" fill="#ec5252"/>
    <path id="Path_38728-8" data-name="Path 38728" d="M414.4,152.934a5.268,5.268,0,0,1,1.079-.8,5.419,5.419,0,0,1,1.225-.534,5.928,5.928,0,0,1-2.3,1.334Z" transform="translate(-401.459 -147.44)" fill="#ec5252"/>
    <path id="Path_38729-8" data-name="Path 38729" d="M416.65,164.74a5.394,5.394,0,0,1,1.334-.152,5.154,5.154,0,0,1,1.337.152,5.411,5.411,0,0,1-1.334.152A5.294,5.294,0,0,1,416.65,164.74Z" transform="translate(-403.027 -156.49)" fill="#ec5252"/>
    <path id="Path_38730-8" data-name="Path 38730" d="M414.06,174.08a5.273,5.273,0,0,1,1.234.534,5.37,5.37,0,0,1,1.082.8A6,6,0,0,1,414.06,174.08Z" transform="translate(-401.222 -163.104)" fill="#ec5252"/>
    <path id="Path_38731-8" data-name="Path 38731" d="M407.33,180.56a5.4,5.4,0,0,1,.8,1.082,5.263,5.263,0,0,1,.537,1.231A5.915,5.915,0,0,1,407.33,180.56Z" transform="translate(-396.533 -167.619)" fill="#ec5252"/>
    <path id="Path_38732-8" data-name="Path 38732" d="M397.9,182.81a5.916,5.916,0,0,1,0,2.674,5.157,5.157,0,0,1-.152-1.337A5.29,5.29,0,0,1,397.9,182.81Z" transform="translate(-389.856 -169.187)" fill="#ec5252"/>
    <path id="Path_38733-8" data-name="Path 38733" d="M386.2,180.22a5.28,5.28,0,0,1-.537,1.234,5.182,5.182,0,0,1-.8,1.085,5.3,5.3,0,0,1,.537-1.237A5.472,5.472,0,0,1,386.2,180.22Z" transform="translate(-380.883 -167.382)" fill="#ec5252"/>
    <path id="Path_38734-8" data-name="Path 38734" d="M377.467,173.49a5.372,5.372,0,0,1-1.082.8,5.154,5.154,0,0,1-1.234.54A6.012,6.012,0,0,1,377.467,173.49Z" transform="translate(-374.11 -162.693)" fill="#ec5252"/>
    <path id="Path_38735-8" data-name="Path 38735" d="M374.394,164.071a5.436,5.436,0,0,1-1.337.152,5.292,5.292,0,0,1-1.337-.149,5.3,5.3,0,0,1,1.337-.155A5.437,5.437,0,0,1,374.394,164.071Z" transform="translate(-371.72 -156.023)" fill="#ec5252"/>
    <path id="Path_38736-8" data-name="Path 38736" d="M377.8,152.374a5.338,5.338,0,0,1-1.234-.537,5.474,5.474,0,0,1-1.082-.8,5.278,5.278,0,0,1,1.234.534A5.206,5.206,0,0,1,377.8,152.374Z" transform="translate(-374.34 -147.05)" fill="#ec5252"/>
    <path id="Path_38737-8" data-name="Path 38737" d="M386.78,143.683a5.27,5.27,0,0,1-.8-1.079,5.152,5.152,0,0,1-.54-1.234,5.2,5.2,0,0,1,.8,1.082A5.4,5.4,0,0,1,386.78,143.683Z" transform="translate(-381.28 -140.312)" fill="#ec5252"/>
  </g>
  <g id="Group_15899" data-name="Group 15899" transform="translate(37.847)">
    <path id="Path_38726-9" data-name="Path 38726" d="M398.578,140.554a5.915,5.915,0,0,1,0-2.674,5.16,5.16,0,0,1,.152,1.337A5.291,5.291,0,0,1,398.578,140.554Z" transform="translate(-390.329 -137.88)" fill="#ec5252"/>
    <path id="Path_38727-9" data-name="Path 38727" d="M407.91,143.966a5.283,5.283,0,0,1,.537-1.234,5.2,5.2,0,0,1,.8-1.082,5.155,5.155,0,0,1-.537,1.234A5.242,5.242,0,0,1,407.91,143.966Z" transform="translate(-396.937 -140.506)" fill="#ec5252"/>
    <path id="Path_38728-9" data-name="Path 38728" d="M414.4,152.934a5.268,5.268,0,0,1,1.079-.8,5.419,5.419,0,0,1,1.225-.534,5.928,5.928,0,0,1-2.3,1.334Z" transform="translate(-401.459 -147.44)" fill="#ec5252"/>
    <path id="Path_38729-9" data-name="Path 38729" d="M416.65,164.74a5.394,5.394,0,0,1,1.334-.152,5.154,5.154,0,0,1,1.337.152,5.411,5.411,0,0,1-1.334.152A5.294,5.294,0,0,1,416.65,164.74Z" transform="translate(-403.027 -156.49)" fill="#ec5252"/>
    <path id="Path_38730-9" data-name="Path 38730" d="M414.06,174.08a5.273,5.273,0,0,1,1.234.534,5.37,5.37,0,0,1,1.082.8A6,6,0,0,1,414.06,174.08Z" transform="translate(-401.222 -163.104)" fill="#ec5252"/>
    <path id="Path_38731-9" data-name="Path 38731" d="M407.33,180.56a5.4,5.4,0,0,1,.8,1.082,5.263,5.263,0,0,1,.537,1.231A5.915,5.915,0,0,1,407.33,180.56Z" transform="translate(-396.533 -167.619)" fill="#ec5252"/>
    <path id="Path_38732-9" data-name="Path 38732" d="M397.9,182.81a5.916,5.916,0,0,1,0,2.674,5.157,5.157,0,0,1-.152-1.337A5.29,5.29,0,0,1,397.9,182.81Z" transform="translate(-389.856 -169.187)" fill="#ec5252"/>
    <path id="Path_38733-9" data-name="Path 38733" d="M386.2,180.22a5.28,5.28,0,0,1-.537,1.234,5.182,5.182,0,0,1-.8,1.085,5.3,5.3,0,0,1,.537-1.237A5.472,5.472,0,0,1,386.2,180.22Z" transform="translate(-380.883 -167.382)" fill="#ec5252"/>
    <path id="Path_38734-9" data-name="Path 38734" d="M377.467,173.49a5.372,5.372,0,0,1-1.082.8,5.154,5.154,0,0,1-1.234.54A6.012,6.012,0,0,1,377.467,173.49Z" transform="translate(-374.11 -162.693)" fill="#ec5252"/>
    <path id="Path_38735-9" data-name="Path 38735" d="M374.394,164.071a5.436,5.436,0,0,1-1.337.152,5.292,5.292,0,0,1-1.337-.149,5.3,5.3,0,0,1,1.337-.155A5.437,5.437,0,0,1,374.394,164.071Z" transform="translate(-371.72 -156.023)" fill="#ec5252"/>
    <path id="Path_38736-9" data-name="Path 38736" d="M377.8,152.374a5.338,5.338,0,0,1-1.234-.537,5.474,5.474,0,0,1-1.082-.8,5.278,5.278,0,0,1,1.234.534A5.206,5.206,0,0,1,377.8,152.374Z" transform="translate(-374.34 -147.05)" fill="#ec5252"/>
    <path id="Path_38737-9" data-name="Path 38737" d="M386.78,143.683a5.27,5.27,0,0,1-.8-1.079,5.152,5.152,0,0,1-.54-1.234,5.2,5.2,0,0,1,.8,1.082A5.4,5.4,0,0,1,386.78,143.683Z" transform="translate(-381.28 -140.312)" fill="#ec5252"/>
  </g>
  <g id="Group_15900" data-name="Group 15900" transform="translate(37.847)">
    <path id="Path_38726-10" data-name="Path 38726" d="M398.578,140.554a5.915,5.915,0,0,1,0-2.674,5.16,5.16,0,0,1,.152,1.337A5.291,5.291,0,0,1,398.578,140.554Z" transform="translate(-390.329 -137.88)" fill="#ec5252"/>
    <path id="Path_38727-10" data-name="Path 38727" d="M407.91,143.966a5.283,5.283,0,0,1,.537-1.234,5.2,5.2,0,0,1,.8-1.082,5.155,5.155,0,0,1-.537,1.234A5.242,5.242,0,0,1,407.91,143.966Z" transform="translate(-396.937 -140.506)" fill="#ec5252"/>
    <path id="Path_38728-10" data-name="Path 38728" d="M414.4,152.934a5.268,5.268,0,0,1,1.079-.8,5.419,5.419,0,0,1,1.225-.534,5.928,5.928,0,0,1-2.3,1.334Z" transform="translate(-401.459 -147.44)" fill="#ec5252"/>
    <path id="Path_38729-10" data-name="Path 38729" d="M416.65,164.74a5.394,5.394,0,0,1,1.334-.152,5.154,5.154,0,0,1,1.337.152,5.411,5.411,0,0,1-1.334.152A5.294,5.294,0,0,1,416.65,164.74Z" transform="translate(-403.027 -156.49)" fill="#ec5252"/>
    <path id="Path_38730-10" data-name="Path 38730" d="M414.06,174.08a5.273,5.273,0,0,1,1.234.534,5.37,5.37,0,0,1,1.082.8A6,6,0,0,1,414.06,174.08Z" transform="translate(-401.222 -163.104)" fill="#ec5252"/>
    <path id="Path_38731-10" data-name="Path 38731" d="M407.33,180.56a5.4,5.4,0,0,1,.8,1.082,5.263,5.263,0,0,1,.537,1.231A5.915,5.915,0,0,1,407.33,180.56Z" transform="translate(-396.533 -167.619)" fill="#ec5252"/>
    <path id="Path_38732-10" data-name="Path 38732" d="M397.9,182.81a5.916,5.916,0,0,1,0,2.674,5.157,5.157,0,0,1-.152-1.337A5.29,5.29,0,0,1,397.9,182.81Z" transform="translate(-389.856 -169.187)" fill="#ec5252"/>
    <path id="Path_38733-10" data-name="Path 38733" d="M386.2,180.22a5.28,5.28,0,0,1-.537,1.234,5.182,5.182,0,0,1-.8,1.085,5.3,5.3,0,0,1,.537-1.237A5.472,5.472,0,0,1,386.2,180.22Z" transform="translate(-380.883 -167.382)" fill="#ec5252"/>
    <path id="Path_38734-10" data-name="Path 38734" d="M377.467,173.49a5.372,5.372,0,0,1-1.082.8,5.154,5.154,0,0,1-1.234.54A6.012,6.012,0,0,1,377.467,173.49Z" transform="translate(-374.11 -162.693)" fill="#ec5252"/>
    <path id="Path_38735-10" data-name="Path 38735" d="M374.394,164.071a5.436,5.436,0,0,1-1.337.152,5.292,5.292,0,0,1-1.337-.149,5.3,5.3,0,0,1,1.337-.155A5.437,5.437,0,0,1,374.394,164.071Z" transform="translate(-371.72 -156.023)" fill="#ec5252"/>
    <path id="Path_38736-10" data-name="Path 38736" d="M377.8,152.374a5.338,5.338,0,0,1-1.234-.537,5.474,5.474,0,0,1-1.082-.8,5.278,5.278,0,0,1,1.234.534A5.206,5.206,0,0,1,377.8,152.374Z" transform="translate(-374.34 -147.05)" fill="#ec5252"/>
    <path id="Path_38737-10" data-name="Path 38737" d="M386.78,143.683a5.27,5.27,0,0,1-.8-1.079,5.152,5.152,0,0,1-.54-1.234,5.2,5.2,0,0,1,.8,1.082A5.4,5.4,0,0,1,386.78,143.683Z" transform="translate(-381.28 -140.312)" fill="#ec5252"/>
  </g>
  <g id="Group_15901" data-name="Group 15901" transform="translate(37.847)">
    <path id="Path_38726-11" data-name="Path 38726" d="M398.578,140.554a5.915,5.915,0,0,1,0-2.674,5.16,5.16,0,0,1,.152,1.337A5.291,5.291,0,0,1,398.578,140.554Z" transform="translate(-390.329 -137.88)" fill="#ec5252"/>
    <path id="Path_38727-11" data-name="Path 38727" d="M407.91,143.966a5.283,5.283,0,0,1,.537-1.234,5.2,5.2,0,0,1,.8-1.082,5.155,5.155,0,0,1-.537,1.234A5.242,5.242,0,0,1,407.91,143.966Z" transform="translate(-396.937 -140.506)" fill="#ec5252"/>
    <path id="Path_38728-11" data-name="Path 38728" d="M414.4,152.934a5.268,5.268,0,0,1,1.079-.8,5.419,5.419,0,0,1,1.225-.534,5.928,5.928,0,0,1-2.3,1.334Z" transform="translate(-401.459 -147.44)" fill="#ec5252"/>
    <path id="Path_38729-11" data-name="Path 38729" d="M416.65,164.74a5.394,5.394,0,0,1,1.334-.152,5.154,5.154,0,0,1,1.337.152,5.411,5.411,0,0,1-1.334.152A5.294,5.294,0,0,1,416.65,164.74Z" transform="translate(-403.027 -156.49)" fill="#ec5252"/>
    <path id="Path_38730-11" data-name="Path 38730" d="M414.06,174.08a5.273,5.273,0,0,1,1.234.534,5.37,5.37,0,0,1,1.082.8A6,6,0,0,1,414.06,174.08Z" transform="translate(-401.222 -163.104)" fill="#ec5252"/>
    <path id="Path_38731-11" data-name="Path 38731" d="M407.33,180.56a5.4,5.4,0,0,1,.8,1.082,5.263,5.263,0,0,1,.537,1.231A5.915,5.915,0,0,1,407.33,180.56Z" transform="translate(-396.533 -167.619)" fill="#ec5252"/>
    <path id="Path_38732-11" data-name="Path 38732" d="M397.9,182.81a5.916,5.916,0,0,1,0,2.674,5.157,5.157,0,0,1-.152-1.337A5.29,5.29,0,0,1,397.9,182.81Z" transform="translate(-389.856 -169.187)" fill="#ec5252"/>
    <path id="Path_38733-11" data-name="Path 38733" d="M386.2,180.22a5.28,5.28,0,0,1-.537,1.234,5.182,5.182,0,0,1-.8,1.085,5.3,5.3,0,0,1,.537-1.237A5.472,5.472,0,0,1,386.2,180.22Z" transform="translate(-380.883 -167.382)" fill="#ec5252"/>
    <path id="Path_38734-11" data-name="Path 38734" d="M377.467,173.49a5.372,5.372,0,0,1-1.082.8,5.154,5.154,0,0,1-1.234.54A6.012,6.012,0,0,1,377.467,173.49Z" transform="translate(-374.11 -162.693)" fill="#ec5252"/>
    <path id="Path_38735-11" data-name="Path 38735" d="M374.394,164.071a5.436,5.436,0,0,1-1.337.152,5.292,5.292,0,0,1-1.337-.149,5.3,5.3,0,0,1,1.337-.155A5.437,5.437,0,0,1,374.394,164.071Z" transform="translate(-371.72 -156.023)" fill="#ec5252"/>
    <path id="Path_38736-11" data-name="Path 38736" d="M377.8,152.374a5.338,5.338,0,0,1-1.234-.537,5.474,5.474,0,0,1-1.082-.8,5.278,5.278,0,0,1,1.234.534A5.206,5.206,0,0,1,377.8,152.374Z" transform="translate(-374.34 -147.05)" fill="#ec5252"/>
    <path id="Path_38737-11" data-name="Path 38737" d="M386.78,143.683a5.27,5.27,0,0,1-.8-1.079,5.152,5.152,0,0,1-.54-1.234,5.2,5.2,0,0,1,.8,1.082A5.4,5.4,0,0,1,386.78,143.683Z" transform="translate(-381.28 -140.312)" fill="#ec5252"/>
  </g>
  <g id="Group_15902" data-name="Group 15902" transform="translate(37.847)">
    <path id="Path_38726-12" data-name="Path 38726" d="M398.578,140.554a5.915,5.915,0,0,1,0-2.674,5.16,5.16,0,0,1,.152,1.337A5.291,5.291,0,0,1,398.578,140.554Z" transform="translate(-390.329 -137.88)" fill="#ec5252"/>
    <path id="Path_38727-12" data-name="Path 38727" d="M407.91,143.966a5.283,5.283,0,0,1,.537-1.234,5.2,5.2,0,0,1,.8-1.082,5.155,5.155,0,0,1-.537,1.234A5.242,5.242,0,0,1,407.91,143.966Z" transform="translate(-396.937 -140.506)" fill="#ec5252"/>
    <path id="Path_38728-12" data-name="Path 38728" d="M414.4,152.934a5.268,5.268,0,0,1,1.079-.8,5.419,5.419,0,0,1,1.225-.534,5.928,5.928,0,0,1-2.3,1.334Z" transform="translate(-401.459 -147.44)" fill="#ec5252"/>
    <path id="Path_38729-12" data-name="Path 38729" d="M416.65,164.74a5.394,5.394,0,0,1,1.334-.152,5.154,5.154,0,0,1,1.337.152,5.411,5.411,0,0,1-1.334.152A5.294,5.294,0,0,1,416.65,164.74Z" transform="translate(-403.027 -156.49)" fill="#ec5252"/>
    <path id="Path_38730-12" data-name="Path 38730" d="M414.06,174.08a5.273,5.273,0,0,1,1.234.534,5.37,5.37,0,0,1,1.082.8A6,6,0,0,1,414.06,174.08Z" transform="translate(-401.222 -163.104)" fill="#ec5252"/>
    <path id="Path_38731-12" data-name="Path 38731" d="M407.33,180.56a5.4,5.4,0,0,1,.8,1.082,5.263,5.263,0,0,1,.537,1.231A5.915,5.915,0,0,1,407.33,180.56Z" transform="translate(-396.533 -167.619)" fill="#ec5252"/>
    <path id="Path_38732-12" data-name="Path 38732" d="M397.9,182.81a5.916,5.916,0,0,1,0,2.674,5.157,5.157,0,0,1-.152-1.337A5.29,5.29,0,0,1,397.9,182.81Z" transform="translate(-389.856 -169.187)" fill="#ec5252"/>
    <path id="Path_38733-12" data-name="Path 38733" d="M386.2,180.22a5.28,5.28,0,0,1-.537,1.234,5.182,5.182,0,0,1-.8,1.085,5.3,5.3,0,0,1,.537-1.237A5.472,5.472,0,0,1,386.2,180.22Z" transform="translate(-380.883 -167.382)" fill="#ec5252"/>
    <path id="Path_38734-12" data-name="Path 38734" d="M377.467,173.49a5.372,5.372,0,0,1-1.082.8,5.154,5.154,0,0,1-1.234.54A6.012,6.012,0,0,1,377.467,173.49Z" transform="translate(-374.11 -162.693)" fill="#ec5252"/>
    <path id="Path_38735-12" data-name="Path 38735" d="M374.394,164.071a5.436,5.436,0,0,1-1.337.152,5.292,5.292,0,0,1-1.337-.149,5.3,5.3,0,0,1,1.337-.155A5.437,5.437,0,0,1,374.394,164.071Z" transform="translate(-371.72 -156.023)" fill="#ec5252"/>
    <path id="Path_38736-12" data-name="Path 38736" d="M377.8,152.374a5.338,5.338,0,0,1-1.234-.537,5.474,5.474,0,0,1-1.082-.8,5.278,5.278,0,0,1,1.234.534A5.206,5.206,0,0,1,377.8,152.374Z" transform="translate(-374.34 -147.05)" fill="#ec5252"/>
    <path id="Path_38737-12" data-name="Path 38737" d="M386.78,143.683a5.27,5.27,0,0,1-.8-1.079,5.152,5.152,0,0,1-.54-1.234,5.2,5.2,0,0,1,.8,1.082A5.4,5.4,0,0,1,386.78,143.683Z" transform="translate(-381.28 -140.312)" fill="#ec5252"/>
  </g>
  <g id="Group_15903" data-name="Group 15903" transform="translate(37.847)">
    <path id="Path_38726-13" data-name="Path 38726" d="M398.578,140.554a5.915,5.915,0,0,1,0-2.674,5.16,5.16,0,0,1,.152,1.337A5.291,5.291,0,0,1,398.578,140.554Z" transform="translate(-390.329 -137.88)" fill="#ec5252"/>
    <path id="Path_38727-13" data-name="Path 38727" d="M407.91,143.966a5.283,5.283,0,0,1,.537-1.234,5.2,5.2,0,0,1,.8-1.082,5.155,5.155,0,0,1-.537,1.234A5.242,5.242,0,0,1,407.91,143.966Z" transform="translate(-396.937 -140.506)" fill="#ec5252"/>
    <path id="Path_38728-13" data-name="Path 38728" d="M414.4,152.934a5.268,5.268,0,0,1,1.079-.8,5.419,5.419,0,0,1,1.225-.534,5.928,5.928,0,0,1-2.3,1.334Z" transform="translate(-401.459 -147.44)" fill="#ec5252"/>
    <path id="Path_38729-13" data-name="Path 38729" d="M416.65,164.74a5.394,5.394,0,0,1,1.334-.152,5.154,5.154,0,0,1,1.337.152,5.411,5.411,0,0,1-1.334.152A5.294,5.294,0,0,1,416.65,164.74Z" transform="translate(-403.027 -156.49)" fill="#ec5252"/>
    <path id="Path_38730-13" data-name="Path 38730" d="M414.06,174.08a5.273,5.273,0,0,1,1.234.534,5.37,5.37,0,0,1,1.082.8A6,6,0,0,1,414.06,174.08Z" transform="translate(-401.222 -163.104)" fill="#ec5252"/>
    <path id="Path_38731-13" data-name="Path 38731" d="M407.33,180.56a5.4,5.4,0,0,1,.8,1.082,5.263,5.263,0,0,1,.537,1.231A5.915,5.915,0,0,1,407.33,180.56Z" transform="translate(-396.533 -167.619)" fill="#ec5252"/>
    <path id="Path_38732-13" data-name="Path 38732" d="M397.9,182.81a5.916,5.916,0,0,1,0,2.674,5.157,5.157,0,0,1-.152-1.337A5.29,5.29,0,0,1,397.9,182.81Z" transform="translate(-389.856 -169.187)" fill="#ec5252"/>
    <path id="Path_38733-13" data-name="Path 38733" d="M386.2,180.22a5.28,5.28,0,0,1-.537,1.234,5.182,5.182,0,0,1-.8,1.085,5.3,5.3,0,0,1,.537-1.237A5.472,5.472,0,0,1,386.2,180.22Z" transform="translate(-380.883 -167.382)" fill="#ec5252"/>
    <path id="Path_38734-13" data-name="Path 38734" d="M377.467,173.49a5.372,5.372,0,0,1-1.082.8,5.154,5.154,0,0,1-1.234.54A6.012,6.012,0,0,1,377.467,173.49Z" transform="translate(-374.11 -162.693)" fill="#ec5252"/>
    <path id="Path_38735-13" data-name="Path 38735" d="M374.394,164.071a5.436,5.436,0,0,1-1.337.152,5.292,5.292,0,0,1-1.337-.149,5.3,5.3,0,0,1,1.337-.155A5.437,5.437,0,0,1,374.394,164.071Z" transform="translate(-371.72 -156.023)" fill="#ec5252"/>
    <path id="Path_38736-13" data-name="Path 38736" d="M377.8,152.374a5.338,5.338,0,0,1-1.234-.537,5.474,5.474,0,0,1-1.082-.8,5.278,5.278,0,0,1,1.234.534A5.206,5.206,0,0,1,377.8,152.374Z" transform="translate(-374.34 -147.05)" fill="#ec5252"/>
    <path id="Path_38737-13" data-name="Path 38737" d="M386.78,143.683a5.27,5.27,0,0,1-.8-1.079,5.152,5.152,0,0,1-.54-1.234,5.2,5.2,0,0,1,.8,1.082A5.4,5.4,0,0,1,386.78,143.683Z" transform="translate(-381.28 -140.312)" fill="#ec5252"/>
  </g>
  <g id="Group_15792" data-name="Group 15792" transform="translate(127.112 23.229)">
    <path id="Path_38726-14" data-name="Path 38726" d="M398.527,139.665a3.947,3.947,0,0,1,0-1.784,3.444,3.444,0,0,1,.1.892A3.531,3.531,0,0,1,398.527,139.665Z" transform="translate(-393.022 -137.88)" fill="#ec5252"/>
    <path id="Path_38727-14" data-name="Path 38727" d="M407.91,143.2a3.525,3.525,0,0,1,.358-.823,3.469,3.469,0,0,1,.532-.722,3.441,3.441,0,0,1-.358.823A3.5,3.5,0,0,1,407.91,143.2Z" transform="translate(-400.588 -140.887)" fill="#ec5252"/>
    <path id="Path_38728-14" data-name="Path 38728" d="M414.4,152.49a3.515,3.515,0,0,1,.72-.534,3.616,3.616,0,0,1,.817-.356,3.956,3.956,0,0,1-1.538.89Z" transform="translate(-405.765 -148.824)" fill="#ec5252"/>
    <path id="Path_38729-14" data-name="Path 38729" d="M416.65,164.689a3.6,3.6,0,0,1,.89-.1,3.439,3.439,0,0,1,.892.1,3.611,3.611,0,0,1-.89.1A3.533,3.533,0,0,1,416.65,164.689Z" transform="translate(-407.559 -159.184)" fill="#ec5252"/>
    <path id="Path_38730-14" data-name="Path 38730" d="M414.06,174.08a3.518,3.518,0,0,1,.823.356,3.583,3.583,0,0,1,.722.534A4,4,0,0,1,414.06,174.08Z" transform="translate(-405.494 -166.756)" fill="#ec5252"/>
    <path id="Path_38731-14" data-name="Path 38731" d="M407.33,180.56a3.607,3.607,0,0,1,.534.722,3.513,3.513,0,0,1,.358.821A3.947,3.947,0,0,1,407.33,180.56Z" transform="translate(-400.125 -171.925)" fill="#ec5252"/>
    <path id="Path_38732-14" data-name="Path 38732" d="M397.849,182.81a3.948,3.948,0,0,1,0,1.784,3.441,3.441,0,0,1-.1-.892A3.529,3.529,0,0,1,397.849,182.81Z" transform="translate(-392.481 -173.72)" fill="#ec5252"/>
    <path id="Path_38733-14" data-name="Path 38733" d="M385.76,180.22a3.523,3.523,0,0,1-.358.823,3.457,3.457,0,0,1-.532.724,3.538,3.538,0,0,1,.358-.825A3.653,3.653,0,0,1,385.76,180.22Z" transform="translate(-382.21 -171.654)" fill="#ec5252"/>
    <path id="Path_38734-14" data-name="Path 38734" d="M376.7,173.49a3.586,3.586,0,0,1-.722.534,3.44,3.44,0,0,1-.823.36A4.012,4.012,0,0,1,376.7,173.49Z" transform="translate(-374.456 -166.285)" fill="#ec5252"/>
    <path id="Path_38735-14" data-name="Path 38735" d="M373.5,164.02a3.628,3.628,0,0,1-.892.1,3.531,3.531,0,0,1-.892-.1,3.535,3.535,0,0,1,.892-.1A3.628,3.628,0,0,1,373.5,164.02Z" transform="translate(-371.72 -158.65)" fill="#ec5252"/>
    <path id="Path_38736-14" data-name="Path 38736" d="M377.026,151.93a3.562,3.562,0,0,1-.823-.358,3.652,3.652,0,0,1-.722-.532,3.521,3.521,0,0,1,.823.356A3.474,3.474,0,0,1,377.026,151.93Z" transform="translate(-374.719 -148.377)" fill="#ec5252"/>
    <path id="Path_38737-14" data-name="Path 38737" d="M386.334,142.914a3.516,3.516,0,0,1-.534-.72,3.437,3.437,0,0,1-.36-.823,3.473,3.473,0,0,1,.534.722A3.6,3.6,0,0,1,386.334,142.914Z" transform="translate(-382.664 -140.664)" fill="#ec5252"/>
  </g>
  <g id="Group_15904" data-name="Group 15904" transform="translate(127.112 23.229)">
    <path id="Path_38726-15" data-name="Path 38726" d="M398.527,139.665a3.947,3.947,0,0,1,0-1.784,3.444,3.444,0,0,1,.1.892A3.531,3.531,0,0,1,398.527,139.665Z" transform="translate(-393.022 -137.88)" fill="#ec5252"/>
    <path id="Path_38727-15" data-name="Path 38727" d="M407.91,143.2a3.525,3.525,0,0,1,.358-.823,3.469,3.469,0,0,1,.532-.722,3.441,3.441,0,0,1-.358.823A3.5,3.5,0,0,1,407.91,143.2Z" transform="translate(-400.588 -140.887)" fill="#ec5252"/>
    <path id="Path_38728-15" data-name="Path 38728" d="M414.4,152.49a3.515,3.515,0,0,1,.72-.534,3.616,3.616,0,0,1,.817-.356,3.956,3.956,0,0,1-1.538.89Z" transform="translate(-405.765 -148.824)" fill="#ec5252"/>
    <path id="Path_38729-15" data-name="Path 38729" d="M416.65,164.689a3.6,3.6,0,0,1,.89-.1,3.439,3.439,0,0,1,.892.1,3.611,3.611,0,0,1-.89.1A3.533,3.533,0,0,1,416.65,164.689Z" transform="translate(-407.559 -159.184)" fill="#ec5252"/>
    <path id="Path_38730-15" data-name="Path 38730" d="M414.06,174.08a3.518,3.518,0,0,1,.823.356,3.583,3.583,0,0,1,.722.534A4,4,0,0,1,414.06,174.08Z" transform="translate(-405.494 -166.756)" fill="#ec5252"/>
    <path id="Path_38731-15" data-name="Path 38731" d="M407.33,180.56a3.607,3.607,0,0,1,.534.722,3.513,3.513,0,0,1,.358.821A3.947,3.947,0,0,1,407.33,180.56Z" transform="translate(-400.125 -171.925)" fill="#ec5252"/>
    <path id="Path_38732-15" data-name="Path 38732" d="M397.849,182.81a3.948,3.948,0,0,1,0,1.784,3.441,3.441,0,0,1-.1-.892A3.529,3.529,0,0,1,397.849,182.81Z" transform="translate(-392.481 -173.72)" fill="#ec5252"/>
    <path id="Path_38733-15" data-name="Path 38733" d="M385.76,180.22a3.523,3.523,0,0,1-.358.823,3.457,3.457,0,0,1-.532.724,3.538,3.538,0,0,1,.358-.825A3.653,3.653,0,0,1,385.76,180.22Z" transform="translate(-382.21 -171.654)" fill="#ec5252"/>
    <path id="Path_38734-15" data-name="Path 38734" d="M376.7,173.49a3.586,3.586,0,0,1-.722.534,3.44,3.44,0,0,1-.823.36A4.012,4.012,0,0,1,376.7,173.49Z" transform="translate(-374.456 -166.285)" fill="#ec5252"/>
    <path id="Path_38735-15" data-name="Path 38735" d="M373.5,164.02a3.628,3.628,0,0,1-.892.1,3.531,3.531,0,0,1-.892-.1,3.535,3.535,0,0,1,.892-.1A3.628,3.628,0,0,1,373.5,164.02Z" transform="translate(-371.72 -158.65)" fill="#ec5252"/>
    <path id="Path_38736-15" data-name="Path 38736" d="M377.026,151.93a3.562,3.562,0,0,1-.823-.358,3.652,3.652,0,0,1-.722-.532,3.521,3.521,0,0,1,.823.356A3.474,3.474,0,0,1,377.026,151.93Z" transform="translate(-374.719 -148.377)" fill="#ec5252"/>
    <path id="Path_38737-15" data-name="Path 38737" d="M386.334,142.914a3.516,3.516,0,0,1-.534-.72,3.437,3.437,0,0,1-.36-.823,3.473,3.473,0,0,1,.534.722A3.6,3.6,0,0,1,386.334,142.914Z" transform="translate(-382.664 -140.664)" fill="#ec5252"/>
  </g>
  <g id="Group_15905" data-name="Group 15905" transform="translate(127.112 23.229)">
    <path id="Path_38726-16" data-name="Path 38726" d="M398.527,139.665a3.947,3.947,0,0,1,0-1.784,3.444,3.444,0,0,1,.1.892A3.531,3.531,0,0,1,398.527,139.665Z" transform="translate(-393.022 -137.88)" fill="#ec5252"/>
    <path id="Path_38727-16" data-name="Path 38727" d="M407.91,143.2a3.525,3.525,0,0,1,.358-.823,3.469,3.469,0,0,1,.532-.722,3.441,3.441,0,0,1-.358.823A3.5,3.5,0,0,1,407.91,143.2Z" transform="translate(-400.588 -140.887)" fill="#ec5252"/>
    <path id="Path_38728-16" data-name="Path 38728" d="M414.4,152.49a3.515,3.515,0,0,1,.72-.534,3.616,3.616,0,0,1,.817-.356,3.956,3.956,0,0,1-1.538.89Z" transform="translate(-405.765 -148.824)" fill="#ec5252"/>
    <path id="Path_38729-16" data-name="Path 38729" d="M416.65,164.689a3.6,3.6,0,0,1,.89-.1,3.439,3.439,0,0,1,.892.1,3.611,3.611,0,0,1-.89.1A3.533,3.533,0,0,1,416.65,164.689Z" transform="translate(-407.559 -159.184)" fill="#ec5252"/>
    <path id="Path_38730-16" data-name="Path 38730" d="M414.06,174.08a3.518,3.518,0,0,1,.823.356,3.583,3.583,0,0,1,.722.534A4,4,0,0,1,414.06,174.08Z" transform="translate(-405.494 -166.756)" fill="#ec5252"/>
    <path id="Path_38731-16" data-name="Path 38731" d="M407.33,180.56a3.607,3.607,0,0,1,.534.722,3.513,3.513,0,0,1,.358.821A3.947,3.947,0,0,1,407.33,180.56Z" transform="translate(-400.125 -171.925)" fill="#ec5252"/>
    <path id="Path_38732-16" data-name="Path 38732" d="M397.849,182.81a3.948,3.948,0,0,1,0,1.784,3.441,3.441,0,0,1-.1-.892A3.529,3.529,0,0,1,397.849,182.81Z" transform="translate(-392.481 -173.72)" fill="#ec5252"/>
    <path id="Path_38733-16" data-name="Path 38733" d="M385.76,180.22a3.523,3.523,0,0,1-.358.823,3.457,3.457,0,0,1-.532.724,3.538,3.538,0,0,1,.358-.825A3.653,3.653,0,0,1,385.76,180.22Z" transform="translate(-382.21 -171.654)" fill="#ec5252"/>
    <path id="Path_38734-16" data-name="Path 38734" d="M376.7,173.49a3.586,3.586,0,0,1-.722.534,3.44,3.44,0,0,1-.823.36A4.012,4.012,0,0,1,376.7,173.49Z" transform="translate(-374.456 -166.285)" fill="#ec5252"/>
    <path id="Path_38735-16" data-name="Path 38735" d="M373.5,164.02a3.628,3.628,0,0,1-.892.1,3.531,3.531,0,0,1-.892-.1,3.535,3.535,0,0,1,.892-.1A3.628,3.628,0,0,1,373.5,164.02Z" transform="translate(-371.72 -158.65)" fill="#ec5252"/>
    <path id="Path_38736-16" data-name="Path 38736" d="M377.026,151.93a3.562,3.562,0,0,1-.823-.358,3.652,3.652,0,0,1-.722-.532,3.521,3.521,0,0,1,.823.356A3.474,3.474,0,0,1,377.026,151.93Z" transform="translate(-374.719 -148.377)" fill="#ec5252"/>
    <path id="Path_38737-16" data-name="Path 38737" d="M386.334,142.914a3.516,3.516,0,0,1-.534-.72,3.437,3.437,0,0,1-.36-.823,3.473,3.473,0,0,1,.534.722A3.6,3.6,0,0,1,386.334,142.914Z" transform="translate(-382.664 -140.664)" fill="#ec5252"/>
  </g>
  <g id="Group_15906" data-name="Group 15906" transform="translate(127.112 23.229)">
    <path id="Path_38726-17" data-name="Path 38726" d="M398.527,139.665a3.947,3.947,0,0,1,0-1.784,3.444,3.444,0,0,1,.1.892A3.531,3.531,0,0,1,398.527,139.665Z" transform="translate(-393.022 -137.88)" fill="#ec5252"/>
    <path id="Path_38727-17" data-name="Path 38727" d="M407.91,143.2a3.525,3.525,0,0,1,.358-.823,3.469,3.469,0,0,1,.532-.722,3.441,3.441,0,0,1-.358.823A3.5,3.5,0,0,1,407.91,143.2Z" transform="translate(-400.588 -140.887)" fill="#ec5252"/>
    <path id="Path_38728-17" data-name="Path 38728" d="M414.4,152.49a3.515,3.515,0,0,1,.72-.534,3.616,3.616,0,0,1,.817-.356,3.956,3.956,0,0,1-1.538.89Z" transform="translate(-405.765 -148.824)" fill="#ec5252"/>
    <path id="Path_38729-17" data-name="Path 38729" d="M416.65,164.689a3.6,3.6,0,0,1,.89-.1,3.439,3.439,0,0,1,.892.1,3.611,3.611,0,0,1-.89.1A3.533,3.533,0,0,1,416.65,164.689Z" transform="translate(-407.559 -159.184)" fill="#ec5252"/>
    <path id="Path_38730-17" data-name="Path 38730" d="M414.06,174.08a3.518,3.518,0,0,1,.823.356,3.583,3.583,0,0,1,.722.534A4,4,0,0,1,414.06,174.08Z" transform="translate(-405.494 -166.756)" fill="#ec5252"/>
    <path id="Path_38731-17" data-name="Path 38731" d="M407.33,180.56a3.607,3.607,0,0,1,.534.722,3.513,3.513,0,0,1,.358.821A3.947,3.947,0,0,1,407.33,180.56Z" transform="translate(-400.125 -171.925)" fill="#ec5252"/>
    <path id="Path_38732-17" data-name="Path 38732" d="M397.849,182.81a3.948,3.948,0,0,1,0,1.784,3.441,3.441,0,0,1-.1-.892A3.529,3.529,0,0,1,397.849,182.81Z" transform="translate(-392.481 -173.72)" fill="#ec5252"/>
    <path id="Path_38733-17" data-name="Path 38733" d="M385.76,180.22a3.523,3.523,0,0,1-.358.823,3.457,3.457,0,0,1-.532.724,3.538,3.538,0,0,1,.358-.825A3.653,3.653,0,0,1,385.76,180.22Z" transform="translate(-382.21 -171.654)" fill="#ec5252"/>
    <path id="Path_38734-17" data-name="Path 38734" d="M376.7,173.49a3.586,3.586,0,0,1-.722.534,3.44,3.44,0,0,1-.823.36A4.012,4.012,0,0,1,376.7,173.49Z" transform="translate(-374.456 -166.285)" fill="#ec5252"/>
    <path id="Path_38735-17" data-name="Path 38735" d="M373.5,164.02a3.628,3.628,0,0,1-.892.1,3.531,3.531,0,0,1-.892-.1,3.535,3.535,0,0,1,.892-.1A3.628,3.628,0,0,1,373.5,164.02Z" transform="translate(-371.72 -158.65)" fill="#ec5252"/>
    <path id="Path_38736-17" data-name="Path 38736" d="M377.026,151.93a3.562,3.562,0,0,1-.823-.358,3.652,3.652,0,0,1-.722-.532,3.521,3.521,0,0,1,.823.356A3.474,3.474,0,0,1,377.026,151.93Z" transform="translate(-374.719 -148.377)" fill="#ec5252"/>
    <path id="Path_38737-17" data-name="Path 38737" d="M386.334,142.914a3.516,3.516,0,0,1-.534-.72,3.437,3.437,0,0,1-.36-.823,3.473,3.473,0,0,1,.534.722A3.6,3.6,0,0,1,386.334,142.914Z" transform="translate(-382.664 -140.664)" fill="#ec5252"/>
  </g>
  <g id="Group_15907" data-name="Group 15907" transform="translate(127.112 23.229)">
    <path id="Path_38726-18" data-name="Path 38726" d="M398.527,139.665a3.947,3.947,0,0,1,0-1.784,3.444,3.444,0,0,1,.1.892A3.531,3.531,0,0,1,398.527,139.665Z" transform="translate(-393.022 -137.88)" fill="#ec5252"/>
    <path id="Path_38727-18" data-name="Path 38727" d="M407.91,143.2a3.525,3.525,0,0,1,.358-.823,3.469,3.469,0,0,1,.532-.722,3.441,3.441,0,0,1-.358.823A3.5,3.5,0,0,1,407.91,143.2Z" transform="translate(-400.588 -140.887)" fill="#ec5252"/>
    <path id="Path_38728-18" data-name="Path 38728" d="M414.4,152.49a3.515,3.515,0,0,1,.72-.534,3.616,3.616,0,0,1,.817-.356,3.956,3.956,0,0,1-1.538.89Z" transform="translate(-405.765 -148.824)" fill="#ec5252"/>
    <path id="Path_38729-18" data-name="Path 38729" d="M416.65,164.689a3.6,3.6,0,0,1,.89-.1,3.439,3.439,0,0,1,.892.1,3.611,3.611,0,0,1-.89.1A3.533,3.533,0,0,1,416.65,164.689Z" transform="translate(-407.559 -159.184)" fill="#ec5252"/>
    <path id="Path_38730-18" data-name="Path 38730" d="M414.06,174.08a3.518,3.518,0,0,1,.823.356,3.583,3.583,0,0,1,.722.534A4,4,0,0,1,414.06,174.08Z" transform="translate(-405.494 -166.756)" fill="#ec5252"/>
    <path id="Path_38731-18" data-name="Path 38731" d="M407.33,180.56a3.607,3.607,0,0,1,.534.722,3.513,3.513,0,0,1,.358.821A3.947,3.947,0,0,1,407.33,180.56Z" transform="translate(-400.125 -171.925)" fill="#ec5252"/>
    <path id="Path_38732-18" data-name="Path 38732" d="M397.849,182.81a3.948,3.948,0,0,1,0,1.784,3.441,3.441,0,0,1-.1-.892A3.529,3.529,0,0,1,397.849,182.81Z" transform="translate(-392.481 -173.72)" fill="#ec5252"/>
    <path id="Path_38733-18" data-name="Path 38733" d="M385.76,180.22a3.523,3.523,0,0,1-.358.823,3.457,3.457,0,0,1-.532.724,3.538,3.538,0,0,1,.358-.825A3.653,3.653,0,0,1,385.76,180.22Z" transform="translate(-382.21 -171.654)" fill="#ec5252"/>
    <path id="Path_38734-18" data-name="Path 38734" d="M376.7,173.49a3.586,3.586,0,0,1-.722.534,3.44,3.44,0,0,1-.823.36A4.012,4.012,0,0,1,376.7,173.49Z" transform="translate(-374.456 -166.285)" fill="#ec5252"/>
    <path id="Path_38735-18" data-name="Path 38735" d="M373.5,164.02a3.628,3.628,0,0,1-.892.1,3.531,3.531,0,0,1-.892-.1,3.535,3.535,0,0,1,.892-.1A3.628,3.628,0,0,1,373.5,164.02Z" transform="translate(-371.72 -158.65)" fill="#ec5252"/>
    <path id="Path_38736-18" data-name="Path 38736" d="M377.026,151.93a3.562,3.562,0,0,1-.823-.358,3.652,3.652,0,0,1-.722-.532,3.521,3.521,0,0,1,.823.356A3.474,3.474,0,0,1,377.026,151.93Z" transform="translate(-374.719 -148.377)" fill="#ec5252"/>
    <path id="Path_38737-18" data-name="Path 38737" d="M386.334,142.914a3.516,3.516,0,0,1-.534-.72,3.437,3.437,0,0,1-.36-.823,3.473,3.473,0,0,1,.534.722A3.6,3.6,0,0,1,386.334,142.914Z" transform="translate(-382.664 -140.664)" fill="#ec5252"/>
  </g>
  <g id="Group_15908" data-name="Group 15908" transform="translate(127.112 23.229)">
    <path id="Path_38726-19" data-name="Path 38726" d="M398.527,139.665a3.947,3.947,0,0,1,0-1.784,3.444,3.444,0,0,1,.1.892A3.531,3.531,0,0,1,398.527,139.665Z" transform="translate(-393.022 -137.88)" fill="#ec5252"/>
    <path id="Path_38727-19" data-name="Path 38727" d="M407.91,143.2a3.525,3.525,0,0,1,.358-.823,3.469,3.469,0,0,1,.532-.722,3.441,3.441,0,0,1-.358.823A3.5,3.5,0,0,1,407.91,143.2Z" transform="translate(-400.588 -140.887)" fill="#ec5252"/>
    <path id="Path_38728-19" data-name="Path 38728" d="M414.4,152.49a3.515,3.515,0,0,1,.72-.534,3.616,3.616,0,0,1,.817-.356,3.956,3.956,0,0,1-1.538.89Z" transform="translate(-405.765 -148.824)" fill="#ec5252"/>
    <path id="Path_38729-19" data-name="Path 38729" d="M416.65,164.689a3.6,3.6,0,0,1,.89-.1,3.439,3.439,0,0,1,.892.1,3.611,3.611,0,0,1-.89.1A3.533,3.533,0,0,1,416.65,164.689Z" transform="translate(-407.559 -159.184)" fill="#ec5252"/>
    <path id="Path_38730-19" data-name="Path 38730" d="M414.06,174.08a3.518,3.518,0,0,1,.823.356,3.583,3.583,0,0,1,.722.534A4,4,0,0,1,414.06,174.08Z" transform="translate(-405.494 -166.756)" fill="#ec5252"/>
    <path id="Path_38731-19" data-name="Path 38731" d="M407.33,180.56a3.607,3.607,0,0,1,.534.722,3.513,3.513,0,0,1,.358.821A3.947,3.947,0,0,1,407.33,180.56Z" transform="translate(-400.125 -171.925)" fill="#ec5252"/>
    <path id="Path_38732-19" data-name="Path 38732" d="M397.849,182.81a3.948,3.948,0,0,1,0,1.784,3.441,3.441,0,0,1-.1-.892A3.529,3.529,0,0,1,397.849,182.81Z" transform="translate(-392.481 -173.72)" fill="#ec5252"/>
    <path id="Path_38733-19" data-name="Path 38733" d="M385.76,180.22a3.523,3.523,0,0,1-.358.823,3.457,3.457,0,0,1-.532.724,3.538,3.538,0,0,1,.358-.825A3.653,3.653,0,0,1,385.76,180.22Z" transform="translate(-382.21 -171.654)" fill="#ec5252"/>
    <path id="Path_38734-19" data-name="Path 38734" d="M376.7,173.49a3.586,3.586,0,0,1-.722.534,3.44,3.44,0,0,1-.823.36A4.012,4.012,0,0,1,376.7,173.49Z" transform="translate(-374.456 -166.285)" fill="#ec5252"/>
    <path id="Path_38735-19" data-name="Path 38735" d="M373.5,164.02a3.628,3.628,0,0,1-.892.1,3.531,3.531,0,0,1-.892-.1,3.535,3.535,0,0,1,.892-.1A3.628,3.628,0,0,1,373.5,164.02Z" transform="translate(-371.72 -158.65)" fill="#ec5252"/>
    <path id="Path_38736-19" data-name="Path 38736" d="M377.026,151.93a3.562,3.562,0,0,1-.823-.358,3.652,3.652,0,0,1-.722-.532,3.521,3.521,0,0,1,.823.356A3.474,3.474,0,0,1,377.026,151.93Z" transform="translate(-374.719 -148.377)" fill="#ec5252"/>
    <path id="Path_38737-19" data-name="Path 38737" d="M386.334,142.914a3.516,3.516,0,0,1-.534-.72,3.437,3.437,0,0,1-.36-.823,3.473,3.473,0,0,1,.534.722A3.6,3.6,0,0,1,386.334,142.914Z" transform="translate(-382.664 -140.664)" fill="#ec5252"/>
  </g>
  <g id="Group_15909" data-name="Group 15909" transform="translate(127.112 23.229)">
    <path id="Path_38726-20" data-name="Path 38726" d="M398.527,139.665a3.947,3.947,0,0,1,0-1.784,3.444,3.444,0,0,1,.1.892A3.531,3.531,0,0,1,398.527,139.665Z" transform="translate(-393.022 -137.88)" fill="#ec5252"/>
    <path id="Path_38727-20" data-name="Path 38727" d="M407.91,143.2a3.525,3.525,0,0,1,.358-.823,3.469,3.469,0,0,1,.532-.722,3.441,3.441,0,0,1-.358.823A3.5,3.5,0,0,1,407.91,143.2Z" transform="translate(-400.588 -140.887)" fill="#ec5252"/>
    <path id="Path_38728-20" data-name="Path 38728" d="M414.4,152.49a3.515,3.515,0,0,1,.72-.534,3.616,3.616,0,0,1,.817-.356,3.956,3.956,0,0,1-1.538.89Z" transform="translate(-405.765 -148.824)" fill="#ec5252"/>
    <path id="Path_38729-20" data-name="Path 38729" d="M416.65,164.689a3.6,3.6,0,0,1,.89-.1,3.439,3.439,0,0,1,.892.1,3.611,3.611,0,0,1-.89.1A3.533,3.533,0,0,1,416.65,164.689Z" transform="translate(-407.559 -159.184)" fill="#ec5252"/>
    <path id="Path_38730-20" data-name="Path 38730" d="M414.06,174.08a3.518,3.518,0,0,1,.823.356,3.583,3.583,0,0,1,.722.534A4,4,0,0,1,414.06,174.08Z" transform="translate(-405.494 -166.756)" fill="#ec5252"/>
    <path id="Path_38731-20" data-name="Path 38731" d="M407.33,180.56a3.607,3.607,0,0,1,.534.722,3.513,3.513,0,0,1,.358.821A3.947,3.947,0,0,1,407.33,180.56Z" transform="translate(-400.125 -171.925)" fill="#ec5252"/>
    <path id="Path_38732-20" data-name="Path 38732" d="M397.849,182.81a3.948,3.948,0,0,1,0,1.784,3.441,3.441,0,0,1-.1-.892A3.529,3.529,0,0,1,397.849,182.81Z" transform="translate(-392.481 -173.72)" fill="#ec5252"/>
    <path id="Path_38733-20" data-name="Path 38733" d="M385.76,180.22a3.523,3.523,0,0,1-.358.823,3.457,3.457,0,0,1-.532.724,3.538,3.538,0,0,1,.358-.825A3.653,3.653,0,0,1,385.76,180.22Z" transform="translate(-382.21 -171.654)" fill="#ec5252"/>
    <path id="Path_38734-20" data-name="Path 38734" d="M376.7,173.49a3.586,3.586,0,0,1-.722.534,3.44,3.44,0,0,1-.823.36A4.012,4.012,0,0,1,376.7,173.49Z" transform="translate(-374.456 -166.285)" fill="#ec5252"/>
    <path id="Path_38735-20" data-name="Path 38735" d="M373.5,164.02a3.628,3.628,0,0,1-.892.1,3.531,3.531,0,0,1-.892-.1,3.535,3.535,0,0,1,.892-.1A3.628,3.628,0,0,1,373.5,164.02Z" transform="translate(-371.72 -158.65)" fill="#ec5252"/>
    <path id="Path_38736-20" data-name="Path 38736" d="M377.026,151.93a3.562,3.562,0,0,1-.823-.358,3.652,3.652,0,0,1-.722-.532,3.521,3.521,0,0,1,.823.356A3.474,3.474,0,0,1,377.026,151.93Z" transform="translate(-374.719 -148.377)" fill="#ec5252"/>
    <path id="Path_38737-20" data-name="Path 38737" d="M386.334,142.914a3.516,3.516,0,0,1-.534-.72,3.437,3.437,0,0,1-.36-.823,3.473,3.473,0,0,1,.534.722A3.6,3.6,0,0,1,386.334,142.914Z" transform="translate(-382.664 -140.664)" fill="#ec5252"/>
  </g>
  <g id="Group_15910" data-name="Group 15910" transform="translate(127.112 23.229)">
    <path id="Path_38726-21" data-name="Path 38726" d="M398.527,139.665a3.947,3.947,0,0,1,0-1.784,3.444,3.444,0,0,1,.1.892A3.531,3.531,0,0,1,398.527,139.665Z" transform="translate(-393.022 -137.88)" fill="#ec5252"/>
    <path id="Path_38727-21" data-name="Path 38727" d="M407.91,143.2a3.525,3.525,0,0,1,.358-.823,3.469,3.469,0,0,1,.532-.722,3.441,3.441,0,0,1-.358.823A3.5,3.5,0,0,1,407.91,143.2Z" transform="translate(-400.588 -140.887)" fill="#ec5252"/>
    <path id="Path_38728-21" data-name="Path 38728" d="M414.4,152.49a3.515,3.515,0,0,1,.72-.534,3.616,3.616,0,0,1,.817-.356,3.956,3.956,0,0,1-1.538.89Z" transform="translate(-405.765 -148.824)" fill="#ec5252"/>
    <path id="Path_38729-21" data-name="Path 38729" d="M416.65,164.689a3.6,3.6,0,0,1,.89-.1,3.439,3.439,0,0,1,.892.1,3.611,3.611,0,0,1-.89.1A3.533,3.533,0,0,1,416.65,164.689Z" transform="translate(-407.559 -159.184)" fill="#ec5252"/>
    <path id="Path_38730-21" data-name="Path 38730" d="M414.06,174.08a3.518,3.518,0,0,1,.823.356,3.583,3.583,0,0,1,.722.534A4,4,0,0,1,414.06,174.08Z" transform="translate(-405.494 -166.756)" fill="#ec5252"/>
    <path id="Path_38731-21" data-name="Path 38731" d="M407.33,180.56a3.607,3.607,0,0,1,.534.722,3.513,3.513,0,0,1,.358.821A3.947,3.947,0,0,1,407.33,180.56Z" transform="translate(-400.125 -171.925)" fill="#ec5252"/>
    <path id="Path_38732-21" data-name="Path 38732" d="M397.849,182.81a3.948,3.948,0,0,1,0,1.784,3.441,3.441,0,0,1-.1-.892A3.529,3.529,0,0,1,397.849,182.81Z" transform="translate(-392.481 -173.72)" fill="#ec5252"/>
    <path id="Path_38733-21" data-name="Path 38733" d="M385.76,180.22a3.523,3.523,0,0,1-.358.823,3.457,3.457,0,0,1-.532.724,3.538,3.538,0,0,1,.358-.825A3.653,3.653,0,0,1,385.76,180.22Z" transform="translate(-382.21 -171.654)" fill="#ec5252"/>
    <path id="Path_38734-21" data-name="Path 38734" d="M376.7,173.49a3.586,3.586,0,0,1-.722.534,3.44,3.44,0,0,1-.823.36A4.012,4.012,0,0,1,376.7,173.49Z" transform="translate(-374.456 -166.285)" fill="#ec5252"/>
    <path id="Path_38735-21" data-name="Path 38735" d="M373.5,164.02a3.628,3.628,0,0,1-.892.1,3.531,3.531,0,0,1-.892-.1,3.535,3.535,0,0,1,.892-.1A3.628,3.628,0,0,1,373.5,164.02Z" transform="translate(-371.72 -158.65)" fill="#ec5252"/>
    <path id="Path_38736-21" data-name="Path 38736" d="M377.026,151.93a3.562,3.562,0,0,1-.823-.358,3.652,3.652,0,0,1-.722-.532,3.521,3.521,0,0,1,.823.356A3.474,3.474,0,0,1,377.026,151.93Z" transform="translate(-374.719 -148.377)" fill="#ec5252"/>
    <path id="Path_38737-21" data-name="Path 38737" d="M386.334,142.914a3.516,3.516,0,0,1-.534-.72,3.437,3.437,0,0,1-.36-.823,3.473,3.473,0,0,1,.534.722A3.6,3.6,0,0,1,386.334,142.914Z" transform="translate(-382.664 -140.664)" fill="#ec5252"/>
  </g>
  <g id="Group_15911" data-name="Group 15911" transform="translate(127.112 23.229)">
    <path id="Path_38726-22" data-name="Path 38726" d="M398.527,139.665a3.947,3.947,0,0,1,0-1.784,3.444,3.444,0,0,1,.1.892A3.531,3.531,0,0,1,398.527,139.665Z" transform="translate(-393.022 -137.88)" fill="#ec5252"/>
    <path id="Path_38727-22" data-name="Path 38727" d="M407.91,143.2a3.525,3.525,0,0,1,.358-.823,3.469,3.469,0,0,1,.532-.722,3.441,3.441,0,0,1-.358.823A3.5,3.5,0,0,1,407.91,143.2Z" transform="translate(-400.588 -140.887)" fill="#ec5252"/>
    <path id="Path_38728-22" data-name="Path 38728" d="M414.4,152.49a3.515,3.515,0,0,1,.72-.534,3.616,3.616,0,0,1,.817-.356,3.956,3.956,0,0,1-1.538.89Z" transform="translate(-405.765 -148.824)" fill="#ec5252"/>
    <path id="Path_38729-22" data-name="Path 38729" d="M416.65,164.689a3.6,3.6,0,0,1,.89-.1,3.439,3.439,0,0,1,.892.1,3.611,3.611,0,0,1-.89.1A3.533,3.533,0,0,1,416.65,164.689Z" transform="translate(-407.559 -159.184)" fill="#ec5252"/>
    <path id="Path_38730-22" data-name="Path 38730" d="M414.06,174.08a3.518,3.518,0,0,1,.823.356,3.583,3.583,0,0,1,.722.534A4,4,0,0,1,414.06,174.08Z" transform="translate(-405.494 -166.756)" fill="#ec5252"/>
    <path id="Path_38731-22" data-name="Path 38731" d="M407.33,180.56a3.607,3.607,0,0,1,.534.722,3.513,3.513,0,0,1,.358.821A3.947,3.947,0,0,1,407.33,180.56Z" transform="translate(-400.125 -171.925)" fill="#ec5252"/>
    <path id="Path_38732-22" data-name="Path 38732" d="M397.849,182.81a3.948,3.948,0,0,1,0,1.784,3.441,3.441,0,0,1-.1-.892A3.529,3.529,0,0,1,397.849,182.81Z" transform="translate(-392.481 -173.72)" fill="#ec5252"/>
    <path id="Path_38733-22" data-name="Path 38733" d="M385.76,180.22a3.523,3.523,0,0,1-.358.823,3.457,3.457,0,0,1-.532.724,3.538,3.538,0,0,1,.358-.825A3.653,3.653,0,0,1,385.76,180.22Z" transform="translate(-382.21 -171.654)" fill="#ec5252"/>
    <path id="Path_38734-22" data-name="Path 38734" d="M376.7,173.49a3.586,3.586,0,0,1-.722.534,3.44,3.44,0,0,1-.823.36A4.012,4.012,0,0,1,376.7,173.49Z" transform="translate(-374.456 -166.285)" fill="#ec5252"/>
    <path id="Path_38735-22" data-name="Path 38735" d="M373.5,164.02a3.628,3.628,0,0,1-.892.1,3.531,3.531,0,0,1-.892-.1,3.535,3.535,0,0,1,.892-.1A3.628,3.628,0,0,1,373.5,164.02Z" transform="translate(-371.72 -158.65)" fill="#ec5252"/>
    <path id="Path_38736-22" data-name="Path 38736" d="M377.026,151.93a3.562,3.562,0,0,1-.823-.358,3.652,3.652,0,0,1-.722-.532,3.521,3.521,0,0,1,.823.356A3.474,3.474,0,0,1,377.026,151.93Z" transform="translate(-374.719 -148.377)" fill="#ec5252"/>
    <path id="Path_38737-22" data-name="Path 38737" d="M386.334,142.914a3.516,3.516,0,0,1-.534-.72,3.437,3.437,0,0,1-.36-.823,3.473,3.473,0,0,1,.534.722A3.6,3.6,0,0,1,386.334,142.914Z" transform="translate(-382.664 -140.664)" fill="#ec5252"/>
  </g>
  <g id="Group_15912" data-name="Group 15912" transform="translate(127.112 23.229)">
    <path id="Path_38726-23" data-name="Path 38726" d="M398.527,139.665a3.947,3.947,0,0,1,0-1.784,3.444,3.444,0,0,1,.1.892A3.531,3.531,0,0,1,398.527,139.665Z" transform="translate(-393.022 -137.88)" fill="#ec5252"/>
    <path id="Path_38727-23" data-name="Path 38727" d="M407.91,143.2a3.525,3.525,0,0,1,.358-.823,3.469,3.469,0,0,1,.532-.722,3.441,3.441,0,0,1-.358.823A3.5,3.5,0,0,1,407.91,143.2Z" transform="translate(-400.588 -140.887)" fill="#ec5252"/>
    <path id="Path_38728-23" data-name="Path 38728" d="M414.4,152.49a3.515,3.515,0,0,1,.72-.534,3.616,3.616,0,0,1,.817-.356,3.956,3.956,0,0,1-1.538.89Z" transform="translate(-405.765 -148.824)" fill="#ec5252"/>
    <path id="Path_38729-23" data-name="Path 38729" d="M416.65,164.689a3.6,3.6,0,0,1,.89-.1,3.439,3.439,0,0,1,.892.1,3.611,3.611,0,0,1-.89.1A3.533,3.533,0,0,1,416.65,164.689Z" transform="translate(-407.559 -159.184)" fill="#ec5252"/>
    <path id="Path_38730-23" data-name="Path 38730" d="M414.06,174.08a3.518,3.518,0,0,1,.823.356,3.583,3.583,0,0,1,.722.534A4,4,0,0,1,414.06,174.08Z" transform="translate(-405.494 -166.756)" fill="#ec5252"/>
    <path id="Path_38731-23" data-name="Path 38731" d="M407.33,180.56a3.607,3.607,0,0,1,.534.722,3.513,3.513,0,0,1,.358.821A3.947,3.947,0,0,1,407.33,180.56Z" transform="translate(-400.125 -171.925)" fill="#ec5252"/>
    <path id="Path_38732-23" data-name="Path 38732" d="M397.849,182.81a3.948,3.948,0,0,1,0,1.784,3.441,3.441,0,0,1-.1-.892A3.529,3.529,0,0,1,397.849,182.81Z" transform="translate(-392.481 -173.72)" fill="#ec5252"/>
    <path id="Path_38733-23" data-name="Path 38733" d="M385.76,180.22a3.523,3.523,0,0,1-.358.823,3.457,3.457,0,0,1-.532.724,3.538,3.538,0,0,1,.358-.825A3.653,3.653,0,0,1,385.76,180.22Z" transform="translate(-382.21 -171.654)" fill="#ec5252"/>
    <path id="Path_38734-23" data-name="Path 38734" d="M376.7,173.49a3.586,3.586,0,0,1-.722.534,3.44,3.44,0,0,1-.823.36A4.012,4.012,0,0,1,376.7,173.49Z" transform="translate(-374.456 -166.285)" fill="#ec5252"/>
    <path id="Path_38735-23" data-name="Path 38735" d="M373.5,164.02a3.628,3.628,0,0,1-.892.1,3.531,3.531,0,0,1-.892-.1,3.535,3.535,0,0,1,.892-.1A3.628,3.628,0,0,1,373.5,164.02Z" transform="translate(-371.72 -158.65)" fill="#ec5252"/>
    <path id="Path_38736-23" data-name="Path 38736" d="M377.026,151.93a3.562,3.562,0,0,1-.823-.358,3.652,3.652,0,0,1-.722-.532,3.521,3.521,0,0,1,.823.356A3.474,3.474,0,0,1,377.026,151.93Z" transform="translate(-374.719 -148.377)" fill="#ec5252"/>
    <path id="Path_38737-23" data-name="Path 38737" d="M386.334,142.914a3.516,3.516,0,0,1-.534-.72,3.437,3.437,0,0,1-.36-.823,3.473,3.473,0,0,1,.534.722A3.6,3.6,0,0,1,386.334,142.914Z" transform="translate(-382.664 -140.664)" fill="#ec5252"/>
  </g>
  <g id="Group_15913" data-name="Group 15913" transform="translate(127.112 23.229)">
    <path id="Path_38726-24" data-name="Path 38726" d="M398.527,139.665a3.947,3.947,0,0,1,0-1.784,3.444,3.444,0,0,1,.1.892A3.531,3.531,0,0,1,398.527,139.665Z" transform="translate(-393.022 -137.88)" fill="#ec5252"/>
    <path id="Path_38727-24" data-name="Path 38727" d="M407.91,143.2a3.525,3.525,0,0,1,.358-.823,3.469,3.469,0,0,1,.532-.722,3.441,3.441,0,0,1-.358.823A3.5,3.5,0,0,1,407.91,143.2Z" transform="translate(-400.588 -140.887)" fill="#ec5252"/>
    <path id="Path_38728-24" data-name="Path 38728" d="M414.4,152.49a3.515,3.515,0,0,1,.72-.534,3.616,3.616,0,0,1,.817-.356,3.956,3.956,0,0,1-1.538.89Z" transform="translate(-405.765 -148.824)" fill="#ec5252"/>
    <path id="Path_38729-24" data-name="Path 38729" d="M416.65,164.689a3.6,3.6,0,0,1,.89-.1,3.439,3.439,0,0,1,.892.1,3.611,3.611,0,0,1-.89.1A3.533,3.533,0,0,1,416.65,164.689Z" transform="translate(-407.559 -159.184)" fill="#ec5252"/>
    <path id="Path_38730-24" data-name="Path 38730" d="M414.06,174.08a3.518,3.518,0,0,1,.823.356,3.583,3.583,0,0,1,.722.534A4,4,0,0,1,414.06,174.08Z" transform="translate(-405.494 -166.756)" fill="#ec5252"/>
    <path id="Path_38731-24" data-name="Path 38731" d="M407.33,180.56a3.607,3.607,0,0,1,.534.722,3.513,3.513,0,0,1,.358.821A3.947,3.947,0,0,1,407.33,180.56Z" transform="translate(-400.125 -171.925)" fill="#ec5252"/>
    <path id="Path_38732-24" data-name="Path 38732" d="M397.849,182.81a3.948,3.948,0,0,1,0,1.784,3.441,3.441,0,0,1-.1-.892A3.529,3.529,0,0,1,397.849,182.81Z" transform="translate(-392.481 -173.72)" fill="#ec5252"/>
    <path id="Path_38733-24" data-name="Path 38733" d="M385.76,180.22a3.523,3.523,0,0,1-.358.823,3.457,3.457,0,0,1-.532.724,3.538,3.538,0,0,1,.358-.825A3.653,3.653,0,0,1,385.76,180.22Z" transform="translate(-382.21 -171.654)" fill="#ec5252"/>
    <path id="Path_38734-24" data-name="Path 38734" d="M376.7,173.49a3.586,3.586,0,0,1-.722.534,3.44,3.44,0,0,1-.823.36A4.012,4.012,0,0,1,376.7,173.49Z" transform="translate(-374.456 -166.285)" fill="#ec5252"/>
    <path id="Path_38735-24" data-name="Path 38735" d="M373.5,164.02a3.628,3.628,0,0,1-.892.1,3.531,3.531,0,0,1-.892-.1,3.535,3.535,0,0,1,.892-.1A3.628,3.628,0,0,1,373.5,164.02Z" transform="translate(-371.72 -158.65)" fill="#ec5252"/>
    <path id="Path_38736-24" data-name="Path 38736" d="M377.026,151.93a3.562,3.562,0,0,1-.823-.358,3.652,3.652,0,0,1-.722-.532,3.521,3.521,0,0,1,.823.356A3.474,3.474,0,0,1,377.026,151.93Z" transform="translate(-374.719 -148.377)" fill="#ec5252"/>
    <path id="Path_38737-24" data-name="Path 38737" d="M386.334,142.914a3.516,3.516,0,0,1-.534-.72,3.437,3.437,0,0,1-.36-.823,3.473,3.473,0,0,1,.534.722A3.6,3.6,0,0,1,386.334,142.914Z" transform="translate(-382.664 -140.664)" fill="#ec5252"/>
  </g>
  <g id="Group_15914" data-name="Group 15914" transform="translate(127.112 23.229)">
    <path id="Path_38726-25" data-name="Path 38726" d="M398.527,139.665a3.947,3.947,0,0,1,0-1.784,3.444,3.444,0,0,1,.1.892A3.531,3.531,0,0,1,398.527,139.665Z" transform="translate(-393.022 -137.88)" fill="#ec5252"/>
    <path id="Path_38727-25" data-name="Path 38727" d="M407.91,143.2a3.525,3.525,0,0,1,.358-.823,3.469,3.469,0,0,1,.532-.722,3.441,3.441,0,0,1-.358.823A3.5,3.5,0,0,1,407.91,143.2Z" transform="translate(-400.588 -140.887)" fill="#ec5252"/>
    <path id="Path_38728-25" data-name="Path 38728" d="M414.4,152.49a3.515,3.515,0,0,1,.72-.534,3.616,3.616,0,0,1,.817-.356,3.956,3.956,0,0,1-1.538.89Z" transform="translate(-405.765 -148.824)" fill="#ec5252"/>
    <path id="Path_38729-25" data-name="Path 38729" d="M416.65,164.689a3.6,3.6,0,0,1,.89-.1,3.439,3.439,0,0,1,.892.1,3.611,3.611,0,0,1-.89.1A3.533,3.533,0,0,1,416.65,164.689Z" transform="translate(-407.559 -159.184)" fill="#ec5252"/>
    <path id="Path_38730-25" data-name="Path 38730" d="M414.06,174.08a3.518,3.518,0,0,1,.823.356,3.583,3.583,0,0,1,.722.534A4,4,0,0,1,414.06,174.08Z" transform="translate(-405.494 -166.756)" fill="#ec5252"/>
    <path id="Path_38731-25" data-name="Path 38731" d="M407.33,180.56a3.607,3.607,0,0,1,.534.722,3.513,3.513,0,0,1,.358.821A3.947,3.947,0,0,1,407.33,180.56Z" transform="translate(-400.125 -171.925)" fill="#ec5252"/>
    <path id="Path_38732-25" data-name="Path 38732" d="M397.849,182.81a3.948,3.948,0,0,1,0,1.784,3.441,3.441,0,0,1-.1-.892A3.529,3.529,0,0,1,397.849,182.81Z" transform="translate(-392.481 -173.72)" fill="#ec5252"/>
    <path id="Path_38733-25" data-name="Path 38733" d="M385.76,180.22a3.523,3.523,0,0,1-.358.823,3.457,3.457,0,0,1-.532.724,3.538,3.538,0,0,1,.358-.825A3.653,3.653,0,0,1,385.76,180.22Z" transform="translate(-382.21 -171.654)" fill="#ec5252"/>
    <path id="Path_38734-25" data-name="Path 38734" d="M376.7,173.49a3.586,3.586,0,0,1-.722.534,3.44,3.44,0,0,1-.823.36A4.012,4.012,0,0,1,376.7,173.49Z" transform="translate(-374.456 -166.285)" fill="#ec5252"/>
    <path id="Path_38735-25" data-name="Path 38735" d="M373.5,164.02a3.628,3.628,0,0,1-.892.1,3.531,3.531,0,0,1-.892-.1,3.535,3.535,0,0,1,.892-.1A3.628,3.628,0,0,1,373.5,164.02Z" transform="translate(-371.72 -158.65)" fill="#ec5252"/>
    <path id="Path_38736-25" data-name="Path 38736" d="M377.026,151.93a3.562,3.562,0,0,1-.823-.358,3.652,3.652,0,0,1-.722-.532,3.521,3.521,0,0,1,.823.356A3.474,3.474,0,0,1,377.026,151.93Z" transform="translate(-374.719 -148.377)" fill="#ec5252"/>
    <path id="Path_38737-25" data-name="Path 38737" d="M386.334,142.914a3.516,3.516,0,0,1-.534-.72,3.437,3.437,0,0,1-.36-.823,3.473,3.473,0,0,1,.534.722A3.6,3.6,0,0,1,386.334,142.914Z" transform="translate(-382.664 -140.664)" fill="#ec5252"/>
  </g>
  <g id="Group_15915" data-name="Group 15915" transform="translate(127.112 23.229)">
    <path id="Path_38726-26" data-name="Path 38726" d="M398.527,139.665a3.947,3.947,0,0,1,0-1.784,3.444,3.444,0,0,1,.1.892A3.531,3.531,0,0,1,398.527,139.665Z" transform="translate(-393.022 -137.88)" fill="#ec5252"/>
    <path id="Path_38727-26" data-name="Path 38727" d="M407.91,143.2a3.525,3.525,0,0,1,.358-.823,3.469,3.469,0,0,1,.532-.722,3.441,3.441,0,0,1-.358.823A3.5,3.5,0,0,1,407.91,143.2Z" transform="translate(-400.588 -140.887)" fill="#ec5252"/>
    <path id="Path_38728-26" data-name="Path 38728" d="M414.4,152.49a3.515,3.515,0,0,1,.72-.534,3.616,3.616,0,0,1,.817-.356,3.956,3.956,0,0,1-1.538.89Z" transform="translate(-405.765 -148.824)" fill="#ec5252"/>
    <path id="Path_38729-26" data-name="Path 38729" d="M416.65,164.689a3.6,3.6,0,0,1,.89-.1,3.439,3.439,0,0,1,.892.1,3.611,3.611,0,0,1-.89.1A3.533,3.533,0,0,1,416.65,164.689Z" transform="translate(-407.559 -159.184)" fill="#ec5252"/>
    <path id="Path_38730-26" data-name="Path 38730" d="M414.06,174.08a3.518,3.518,0,0,1,.823.356,3.583,3.583,0,0,1,.722.534A4,4,0,0,1,414.06,174.08Z" transform="translate(-405.494 -166.756)" fill="#ec5252"/>
    <path id="Path_38731-26" data-name="Path 38731" d="M407.33,180.56a3.607,3.607,0,0,1,.534.722,3.513,3.513,0,0,1,.358.821A3.947,3.947,0,0,1,407.33,180.56Z" transform="translate(-400.125 -171.925)" fill="#ec5252"/>
    <path id="Path_38732-26" data-name="Path 38732" d="M397.849,182.81a3.948,3.948,0,0,1,0,1.784,3.441,3.441,0,0,1-.1-.892A3.529,3.529,0,0,1,397.849,182.81Z" transform="translate(-392.481 -173.72)" fill="#ec5252"/>
    <path id="Path_38733-26" data-name="Path 38733" d="M385.76,180.22a3.523,3.523,0,0,1-.358.823,3.457,3.457,0,0,1-.532.724,3.538,3.538,0,0,1,.358-.825A3.653,3.653,0,0,1,385.76,180.22Z" transform="translate(-382.21 -171.654)" fill="#ec5252"/>
    <path id="Path_38734-26" data-name="Path 38734" d="M376.7,173.49a3.586,3.586,0,0,1-.722.534,3.44,3.44,0,0,1-.823.36A4.012,4.012,0,0,1,376.7,173.49Z" transform="translate(-374.456 -166.285)" fill="#ec5252"/>
    <path id="Path_38735-26" data-name="Path 38735" d="M373.5,164.02a3.628,3.628,0,0,1-.892.1,3.531,3.531,0,0,1-.892-.1,3.535,3.535,0,0,1,.892-.1A3.628,3.628,0,0,1,373.5,164.02Z" transform="translate(-371.72 -158.65)" fill="#ec5252"/>
    <path id="Path_38736-26" data-name="Path 38736" d="M377.026,151.93a3.562,3.562,0,0,1-.823-.358,3.652,3.652,0,0,1-.722-.532,3.521,3.521,0,0,1,.823.356A3.474,3.474,0,0,1,377.026,151.93Z" transform="translate(-374.719 -148.377)" fill="#ec5252"/>
    <path id="Path_38737-26" data-name="Path 38737" d="M386.334,142.914a3.516,3.516,0,0,1-.534-.72,3.437,3.437,0,0,1-.36-.823,3.473,3.473,0,0,1,.534.722A3.6,3.6,0,0,1,386.334,142.914Z" transform="translate(-382.664 -140.664)" fill="#ec5252"/>
  </g>
  <g id="Group_15916" data-name="Group 15916" transform="translate(127.112 23.229)">
    <path id="Path_38726-27" data-name="Path 38726" d="M398.527,139.665a3.947,3.947,0,0,1,0-1.784,3.444,3.444,0,0,1,.1.892A3.531,3.531,0,0,1,398.527,139.665Z" transform="translate(-393.022 -137.88)" fill="#ec5252"/>
    <path id="Path_38727-27" data-name="Path 38727" d="M407.91,143.2a3.525,3.525,0,0,1,.358-.823,3.469,3.469,0,0,1,.532-.722,3.441,3.441,0,0,1-.358.823A3.5,3.5,0,0,1,407.91,143.2Z" transform="translate(-400.588 -140.887)" fill="#ec5252"/>
    <path id="Path_38728-27" data-name="Path 38728" d="M414.4,152.49a3.515,3.515,0,0,1,.72-.534,3.616,3.616,0,0,1,.817-.356,3.956,3.956,0,0,1-1.538.89Z" transform="translate(-405.765 -148.824)" fill="#ec5252"/>
    <path id="Path_38729-27" data-name="Path 38729" d="M416.65,164.689a3.6,3.6,0,0,1,.89-.1,3.439,3.439,0,0,1,.892.1,3.611,3.611,0,0,1-.89.1A3.533,3.533,0,0,1,416.65,164.689Z" transform="translate(-407.559 -159.184)" fill="#ec5252"/>
    <path id="Path_38730-27" data-name="Path 38730" d="M414.06,174.08a3.518,3.518,0,0,1,.823.356,3.583,3.583,0,0,1,.722.534A4,4,0,0,1,414.06,174.08Z" transform="translate(-405.494 -166.756)" fill="#ec5252"/>
    <path id="Path_38731-27" data-name="Path 38731" d="M407.33,180.56a3.607,3.607,0,0,1,.534.722,3.513,3.513,0,0,1,.358.821A3.947,3.947,0,0,1,407.33,180.56Z" transform="translate(-400.125 -171.925)" fill="#ec5252"/>
    <path id="Path_38732-27" data-name="Path 38732" d="M397.849,182.81a3.948,3.948,0,0,1,0,1.784,3.441,3.441,0,0,1-.1-.892A3.529,3.529,0,0,1,397.849,182.81Z" transform="translate(-392.481 -173.72)" fill="#ec5252"/>
    <path id="Path_38733-27" data-name="Path 38733" d="M385.76,180.22a3.523,3.523,0,0,1-.358.823,3.457,3.457,0,0,1-.532.724,3.538,3.538,0,0,1,.358-.825A3.653,3.653,0,0,1,385.76,180.22Z" transform="translate(-382.21 -171.654)" fill="#ec5252"/>
    <path id="Path_38734-27" data-name="Path 38734" d="M376.7,173.49a3.586,3.586,0,0,1-.722.534,3.44,3.44,0,0,1-.823.36A4.012,4.012,0,0,1,376.7,173.49Z" transform="translate(-374.456 -166.285)" fill="#ec5252"/>
    <path id="Path_38735-27" data-name="Path 38735" d="M373.5,164.02a3.628,3.628,0,0,1-.892.1,3.531,3.531,0,0,1-.892-.1,3.535,3.535,0,0,1,.892-.1A3.628,3.628,0,0,1,373.5,164.02Z" transform="translate(-371.72 -158.65)" fill="#ec5252"/>
    <path id="Path_38736-27" data-name="Path 38736" d="M377.026,151.93a3.562,3.562,0,0,1-.823-.358,3.652,3.652,0,0,1-.722-.532,3.521,3.521,0,0,1,.823.356A3.474,3.474,0,0,1,377.026,151.93Z" transform="translate(-374.719 -148.377)" fill="#ec5252"/>
    <path id="Path_38737-27" data-name="Path 38737" d="M386.334,142.914a3.516,3.516,0,0,1-.534-.72,3.437,3.437,0,0,1-.36-.823,3.473,3.473,0,0,1,.534.722A3.6,3.6,0,0,1,386.334,142.914Z" transform="translate(-382.664 -140.664)" fill="#ec5252"/>
  </g>
  <g id="Group_15917" data-name="Group 15917" transform="translate(127.112 23.229)">
    <path id="Path_38726-28" data-name="Path 38726" d="M398.527,139.665a3.947,3.947,0,0,1,0-1.784,3.444,3.444,0,0,1,.1.892A3.531,3.531,0,0,1,398.527,139.665Z" transform="translate(-393.022 -137.88)" fill="#ec5252"/>
    <path id="Path_38727-28" data-name="Path 38727" d="M407.91,143.2a3.525,3.525,0,0,1,.358-.823,3.469,3.469,0,0,1,.532-.722,3.441,3.441,0,0,1-.358.823A3.5,3.5,0,0,1,407.91,143.2Z" transform="translate(-400.588 -140.887)" fill="#ec5252"/>
    <path id="Path_38728-28" data-name="Path 38728" d="M414.4,152.49a3.515,3.515,0,0,1,.72-.534,3.616,3.616,0,0,1,.817-.356,3.956,3.956,0,0,1-1.538.89Z" transform="translate(-405.765 -148.824)" fill="#ec5252"/>
    <path id="Path_38729-28" data-name="Path 38729" d="M416.65,164.689a3.6,3.6,0,0,1,.89-.1,3.439,3.439,0,0,1,.892.1,3.611,3.611,0,0,1-.89.1A3.533,3.533,0,0,1,416.65,164.689Z" transform="translate(-407.559 -159.184)" fill="#ec5252"/>
    <path id="Path_38730-28" data-name="Path 38730" d="M414.06,174.08a3.518,3.518,0,0,1,.823.356,3.583,3.583,0,0,1,.722.534A4,4,0,0,1,414.06,174.08Z" transform="translate(-405.494 -166.756)" fill="#ec5252"/>
    <path id="Path_38731-28" data-name="Path 38731" d="M407.33,180.56a3.607,3.607,0,0,1,.534.722,3.513,3.513,0,0,1,.358.821A3.947,3.947,0,0,1,407.33,180.56Z" transform="translate(-400.125 -171.925)" fill="#ec5252"/>
    <path id="Path_38732-28" data-name="Path 38732" d="M397.849,182.81a3.948,3.948,0,0,1,0,1.784,3.441,3.441,0,0,1-.1-.892A3.529,3.529,0,0,1,397.849,182.81Z" transform="translate(-392.481 -173.72)" fill="#ec5252"/>
    <path id="Path_38733-28" data-name="Path 38733" d="M385.76,180.22a3.523,3.523,0,0,1-.358.823,3.457,3.457,0,0,1-.532.724,3.538,3.538,0,0,1,.358-.825A3.653,3.653,0,0,1,385.76,180.22Z" transform="translate(-382.21 -171.654)" fill="#ec5252"/>
    <path id="Path_38734-28" data-name="Path 38734" d="M376.7,173.49a3.586,3.586,0,0,1-.722.534,3.44,3.44,0,0,1-.823.36A4.012,4.012,0,0,1,376.7,173.49Z" transform="translate(-374.456 -166.285)" fill="#ec5252"/>
    <path id="Path_38735-28" data-name="Path 38735" d="M373.5,164.02a3.628,3.628,0,0,1-.892.1,3.531,3.531,0,0,1-.892-.1,3.535,3.535,0,0,1,.892-.1A3.628,3.628,0,0,1,373.5,164.02Z" transform="translate(-371.72 -158.65)" fill="#ec5252"/>
    <path id="Path_38736-28" data-name="Path 38736" d="M377.026,151.93a3.562,3.562,0,0,1-.823-.358,3.652,3.652,0,0,1-.722-.532,3.521,3.521,0,0,1,.823.356A3.474,3.474,0,0,1,377.026,151.93Z" transform="translate(-374.719 -148.377)" fill="#ec5252"/>
    <path id="Path_38737-28" data-name="Path 38737" d="M386.334,142.914a3.516,3.516,0,0,1-.534-.72,3.437,3.437,0,0,1-.36-.823,3.473,3.473,0,0,1,.534.722A3.6,3.6,0,0,1,386.334,142.914Z" transform="translate(-382.664 -140.664)" fill="#ec5252"/>
  </g>
  <g id="Group_15918" data-name="Group 15918" transform="translate(127.112 23.229)">
    <path id="Path_38726-29" data-name="Path 38726" d="M398.527,139.665a3.947,3.947,0,0,1,0-1.784,3.444,3.444,0,0,1,.1.892A3.531,3.531,0,0,1,398.527,139.665Z" transform="translate(-393.022 -137.88)" fill="#ec5252"/>
    <path id="Path_38727-29" data-name="Path 38727" d="M407.91,143.2a3.525,3.525,0,0,1,.358-.823,3.469,3.469,0,0,1,.532-.722,3.441,3.441,0,0,1-.358.823A3.5,3.5,0,0,1,407.91,143.2Z" transform="translate(-400.588 -140.887)" fill="#ec5252"/>
    <path id="Path_38728-29" data-name="Path 38728" d="M414.4,152.49a3.515,3.515,0,0,1,.72-.534,3.616,3.616,0,0,1,.817-.356,3.956,3.956,0,0,1-1.538.89Z" transform="translate(-405.765 -148.824)" fill="#ec5252"/>
    <path id="Path_38729-29" data-name="Path 38729" d="M416.65,164.689a3.6,3.6,0,0,1,.89-.1,3.439,3.439,0,0,1,.892.1,3.611,3.611,0,0,1-.89.1A3.533,3.533,0,0,1,416.65,164.689Z" transform="translate(-407.559 -159.184)" fill="#ec5252"/>
    <path id="Path_38730-29" data-name="Path 38730" d="M414.06,174.08a3.518,3.518,0,0,1,.823.356,3.583,3.583,0,0,1,.722.534A4,4,0,0,1,414.06,174.08Z" transform="translate(-405.494 -166.756)" fill="#ec5252"/>
    <path id="Path_38731-29" data-name="Path 38731" d="M407.33,180.56a3.607,3.607,0,0,1,.534.722,3.513,3.513,0,0,1,.358.821A3.947,3.947,0,0,1,407.33,180.56Z" transform="translate(-400.125 -171.925)" fill="#ec5252"/>
    <path id="Path_38732-29" data-name="Path 38732" d="M397.849,182.81a3.948,3.948,0,0,1,0,1.784,3.441,3.441,0,0,1-.1-.892A3.529,3.529,0,0,1,397.849,182.81Z" transform="translate(-392.481 -173.72)" fill="#ec5252"/>
    <path id="Path_38733-29" data-name="Path 38733" d="M385.76,180.22a3.523,3.523,0,0,1-.358.823,3.457,3.457,0,0,1-.532.724,3.538,3.538,0,0,1,.358-.825A3.653,3.653,0,0,1,385.76,180.22Z" transform="translate(-382.21 -171.654)" fill="#ec5252"/>
    <path id="Path_38734-29" data-name="Path 38734" d="M376.7,173.49a3.586,3.586,0,0,1-.722.534,3.44,3.44,0,0,1-.823.36A4.012,4.012,0,0,1,376.7,173.49Z" transform="translate(-374.456 -166.285)" fill="#ec5252"/>
    <path id="Path_38735-29" data-name="Path 38735" d="M373.5,164.02a3.628,3.628,0,0,1-.892.1,3.531,3.531,0,0,1-.892-.1,3.535,3.535,0,0,1,.892-.1A3.628,3.628,0,0,1,373.5,164.02Z" transform="translate(-371.72 -158.65)" fill="#ec5252"/>
    <path id="Path_38736-29" data-name="Path 38736" d="M377.026,151.93a3.562,3.562,0,0,1-.823-.358,3.652,3.652,0,0,1-.722-.532,3.521,3.521,0,0,1,.823.356A3.474,3.474,0,0,1,377.026,151.93Z" transform="translate(-374.719 -148.377)" fill="#ec5252"/>
    <path id="Path_38737-29" data-name="Path 38737" d="M386.334,142.914a3.516,3.516,0,0,1-.534-.72,3.437,3.437,0,0,1-.36-.823,3.473,3.473,0,0,1,.534.722A3.6,3.6,0,0,1,386.334,142.914Z" transform="translate(-382.664 -140.664)" fill="#ec5252"/>
  </g>
  <g id="Group_15919" data-name="Group 15919" transform="translate(127.112 23.229)">
    <path id="Path_38726-30" data-name="Path 38726" d="M398.527,139.665a3.947,3.947,0,0,1,0-1.784,3.444,3.444,0,0,1,.1.892A3.531,3.531,0,0,1,398.527,139.665Z" transform="translate(-393.022 -137.88)" fill="#ec5252"/>
    <path id="Path_38727-30" data-name="Path 38727" d="M407.91,143.2a3.525,3.525,0,0,1,.358-.823,3.469,3.469,0,0,1,.532-.722,3.441,3.441,0,0,1-.358.823A3.5,3.5,0,0,1,407.91,143.2Z" transform="translate(-400.588 -140.887)" fill="#ec5252"/>
    <path id="Path_38728-30" data-name="Path 38728" d="M414.4,152.49a3.515,3.515,0,0,1,.72-.534,3.616,3.616,0,0,1,.817-.356,3.956,3.956,0,0,1-1.538.89Z" transform="translate(-405.765 -148.824)" fill="#ec5252"/>
    <path id="Path_38729-30" data-name="Path 38729" d="M416.65,164.689a3.6,3.6,0,0,1,.89-.1,3.439,3.439,0,0,1,.892.1,3.611,3.611,0,0,1-.89.1A3.533,3.533,0,0,1,416.65,164.689Z" transform="translate(-407.559 -159.184)" fill="#ec5252"/>
    <path id="Path_38730-30" data-name="Path 38730" d="M414.06,174.08a3.518,3.518,0,0,1,.823.356,3.583,3.583,0,0,1,.722.534A4,4,0,0,1,414.06,174.08Z" transform="translate(-405.494 -166.756)" fill="#ec5252"/>
    <path id="Path_38731-30" data-name="Path 38731" d="M407.33,180.56a3.607,3.607,0,0,1,.534.722,3.513,3.513,0,0,1,.358.821A3.947,3.947,0,0,1,407.33,180.56Z" transform="translate(-400.125 -171.925)" fill="#ec5252"/>
    <path id="Path_38732-30" data-name="Path 38732" d="M397.849,182.81a3.948,3.948,0,0,1,0,1.784,3.441,3.441,0,0,1-.1-.892A3.529,3.529,0,0,1,397.849,182.81Z" transform="translate(-392.481 -173.72)" fill="#ec5252"/>
    <path id="Path_38733-30" data-name="Path 38733" d="M385.76,180.22a3.523,3.523,0,0,1-.358.823,3.457,3.457,0,0,1-.532.724,3.538,3.538,0,0,1,.358-.825A3.653,3.653,0,0,1,385.76,180.22Z" transform="translate(-382.21 -171.654)" fill="#ec5252"/>
    <path id="Path_38734-30" data-name="Path 38734" d="M376.7,173.49a3.586,3.586,0,0,1-.722.534,3.44,3.44,0,0,1-.823.36A4.012,4.012,0,0,1,376.7,173.49Z" transform="translate(-374.456 -166.285)" fill="#ec5252"/>
    <path id="Path_38735-30" data-name="Path 38735" d="M373.5,164.02a3.628,3.628,0,0,1-.892.1,3.531,3.531,0,0,1-.892-.1,3.535,3.535,0,0,1,.892-.1A3.628,3.628,0,0,1,373.5,164.02Z" transform="translate(-371.72 -158.65)" fill="#ec5252"/>
    <path id="Path_38736-30" data-name="Path 38736" d="M377.026,151.93a3.562,3.562,0,0,1-.823-.358,3.652,3.652,0,0,1-.722-.532,3.521,3.521,0,0,1,.823.356A3.474,3.474,0,0,1,377.026,151.93Z" transform="translate(-374.719 -148.377)" fill="#ec5252"/>
    <path id="Path_38737-30" data-name="Path 38737" d="M386.334,142.914a3.516,3.516,0,0,1-.534-.72,3.437,3.437,0,0,1-.36-.823,3.473,3.473,0,0,1,.534.722A3.6,3.6,0,0,1,386.334,142.914Z" transform="translate(-382.664 -140.664)" fill="#ec5252"/>
  </g>
  <g id="Group_15787" data-name="Group 15787" transform="translate(112.436 6.814)">
    <rect id="Rectangle_4668" data-name="Rectangle 4668" width="1.441" height="8.67" transform="translate(3.615 0)" fill="#ec5252"/>
    <rect id="Rectangle_4669" data-name="Rectangle 4669" width="1.441" height="8.67" transform="translate(8.67 3.616) rotate(90)" fill="#ec5252"/>
  </g>
  <g id="Group_15791" data-name="Group 15791" transform="translate(26.436 36.814)">
    <rect id="Rectangle_4668-2" data-name="Rectangle 4668" width="1.441" height="8.67" transform="translate(3.615 0)" fill="#ec5252"/>
    <rect id="Rectangle_4669-2" data-name="Rectangle 4669" width="1.441" height="8.67" transform="translate(8.67 3.616) rotate(90)" fill="#ec5252"/>
  </g>
</svg>
