<svg id="error" xmlns="http://www.w3.org/2000/svg" width="277.794" height="200.515" viewBox="0 0 277.794 200.515">
  <path id="bg" d="M285.238,62.347c-30.9-4.024-48.439,13.11-89.975,14.976C154.01,74.113,138.28,56.4,107.015,59.4c-33.64,3.223-59.7,47.056-52.282,90.906s53.363,68.36,76.852,68.21c18.776-.121,35.359-7.755,56.767-9.59,21.176,2.533,36.931,10.706,55.659,11.447,23.433.931,71.872-22.024,83.875-65.551S318.481,66.673,285.238,62.347Z" transform="translate(-53.463 -59.06)" fill="#fafafa" opacity="0"/>
  <g id="Group_16003" data-name="Group 16003" transform="translate(-164.78 -159.093) rotate(-14)">
    <rect id="Rectangle_5023" data-name="Rectangle 5023" width="49" height="49" transform="translate(140.964 233.964)" fill="#fafafa"/>
    <rect id="Rectangle_5024" data-name="Rectangle 5024" width="29" height="11" transform="translate(150.964 239.964)" fill="#fff"/>
    <rect id="Rectangle_5025" data-name="Rectangle 5025" width="37" height="7" transform="translate(146.964 256.964)" fill="#e1e1e1"/>
  </g>
  <g id="Group_16001" data-name="Group 16001" transform="translate(-54.864 -46.478)">
    <g id="note" transform="matrix(0.982, 0.191, -0.191, 0.982, 244.781, 56.411)">
      <g id="Group_15998" data-name="Group 15998" transform="translate(0 0)">
        <rect id="Rectangle_4940" data-name="Rectangle 4940" width="72.689" height="53.819" transform="translate(0 71.527) rotate(-79.74)" fill="#fafafa"/>
        <g id="Group_15997" data-name="Group 15997" transform="translate(6.921 7.559)">
          <rect id="Rectangle_4941" data-name="Rectangle 4941" width="22.851" height="19.907" transform="translate(10.499 0) rotate(10.26)" fill="#e1e1e1"/>
          <rect id="Rectangle_4942" data-name="Rectangle 4942" width="14.629" height="2.598" transform="translate(36.523 4.711) rotate(10.26)" fill="#e1e1e1"/>
          <rect id="Rectangle_4943" data-name="Rectangle 4943" width="41.754" height="2.598" transform="translate(6.512 23.632) rotate(10.26)" fill="#e1e1e1"/>
          <rect id="Rectangle_4944" data-name="Rectangle 4944" width="41.754" height="2.598" transform="translate(5.701 28.132) rotate(10.26)" fill="#e1e1e1"/>
          <rect id="Rectangle_4945" data-name="Rectangle 4945" width="41.754" height="2.598" transform="translate(4.887 32.631) rotate(10.26)" fill="#e1e1e1"/>
          <rect id="Rectangle_4947" data-name="Rectangle 4947" width="41.754" height="2.598" transform="translate(3.255 41.626) rotate(10.26)" fill="#e1e1e1"/>
          <rect id="Rectangle_4948" data-name="Rectangle 4948" width="41.754" height="2.598" transform="translate(0.463 57.054) rotate(10.26)" fill="#e1e1e1"/>
          <rect id="Rectangle_4949" data-name="Rectangle 4949" width="22.921" height="2.598" transform="translate(2.443 46.128) rotate(10.26)" fill="#e1e1e1"/>
          <rect id="Rectangle_4950" data-name="Rectangle 4950" width="14.629" height="2.598" transform="translate(35.776 8.849) rotate(10.26)" fill="#e1e1e1"/>
          <rect id="Rectangle_4951" data-name="Rectangle 4951" width="14.576" height="2.589" transform="matrix(0.984, 0.181, -0.181, 0.984, 34.54, 13.011)" fill="#e1e1e1"/>
          <rect id="Rectangle_4952" data-name="Rectangle 4952" width="9.021" height="2.598" transform="translate(34.277 17.118) rotate(10.26)" fill="#e1e1e1"/>
        </g>
      </g>
    </g>
    <g id="Character" transform="translate(137.593 96.978)">
      <path id="Path_41356" data-name="Path 41356" d="M225.237,388.149a2.793,2.793,0,0,1-2.482-1.508,70.98,70.98,0,0,0-11.263-16.588,2.762,2.762,0,0,1-.621-2.656c2.091-7.267,5.38-17.2,5.411-17.3a2.786,2.786,0,1,1,5.287,1.75c-.031.093-2.867,8.651-4.921,15.607a78.527,78.527,0,0,1,11.059,16.631,2.793,2.793,0,0,1-2.482,4.065Z" transform="translate(-159.879 -240.867)" fill="#c9c9c9"/>
      <path id="Path_41357" data-name="Path 41357" d="M228.36,412.271H206.77l11.443-6.491,9.588.372Z" transform="translate(-158.366 -262.756)" fill="#464646"/>
      <ellipse id="Ellipse_361" data-name="Ellipse 361" cx="18.642" cy="15.452" rx="18.642" ry="15.452" transform="translate(40.918 99.426) rotate(-17.36)" fill="#464646"/>
      <path id="Path_41358" data-name="Path 41358" d="M149.953,312.092a2.786,2.786,0,0,1-1.067-5.356,3.1,3.1,0,0,0,1.862-2.34,2.78,2.78,0,0,1,2.278-2.482,20.824,20.824,0,0,0,2.048-.527c3.773-1.1,8.446-2.482,23.154,1.651,14.509-8.111,14.677-23.327,14.677-23.985a2.793,2.793,0,0,1,2.774-2.793h0a2.786,2.786,0,0,1,2.786,2.762c0,.813-.087,19.914-18.617,29.477a2.762,2.762,0,0,1-2.048.2c-14.025-4.046-18-2.892-21.143-1.967l-.856.248a8.583,8.583,0,0,1-4.741,4.9A2.8,2.8,0,0,1,149.953,312.092Z" transform="translate(-135.755 -213.613)" fill="#464646"/>
      <path id="Path_41359" data-name="Path 41359" d="M200.235,253.862c-5.281-20.988-19.35-75.127,25.735-78.434,40.449-2.973,51.545,50.887,54.244,69.5a218.23,218.23,0,0,1,2.2,28.435,20.659,20.659,0,0,1-16.607,20.479c-22.037,4.481-42.888,5.114-56.938-.428a9.222,9.222,0,0,1-5.728-9.439C203.68,277.971,203.692,267.583,200.235,253.862Z" transform="translate(-153.501 -175.309)" fill="#ff6555"/>
      <path id="Path_41360" data-name="Path 41360" d="M297.162,244.993c-2.544-17.575-12.548-66.4-47.573-69.5a10.171,10.171,0,0,0-9.973,5.281c-1.564,3.028-1.514,6.7.825,10.326,7.7,12,26.108,53.369,23.327,75.915-1.241,10.258-7.7,18.45-2.1,29.98a180.681,180.681,0,0,0,21.062-3.1,20.659,20.659,0,0,0,16.607-20.479A218.221,218.221,0,0,0,297.162,244.993Z" transform="translate(-170.423 -175.357)" fill="#fff" opacity="0.06"/>
      <path id="Path_41361" data-name="Path 41361" d="M289.638,274.43a.279.279,0,0,1-.279-.273,216.32,216.32,0,0,0-2.191-28.4c-6.7-46.332-24.742-69.759-52.19-67.736a.279.279,0,0,1-.3-.261.285.285,0,0,1,.261-.3c27.771-2.048,46.028,21.546,52.749,68.214a218.532,218.532,0,0,1,2.2,28.472.279.279,0,0,1-.279.279Z" transform="translate(-168.956 -176.081)" fill="#263238"/>
      <ellipse id="Ellipse_362" data-name="Ellipse 362" cx="18.642" cy="15.452" rx="18.642" ry="15.452" transform="translate(93.246 100.905) rotate(-17.36)" fill="#464646"/>
      <path id="Path_41362" data-name="Path 41362" d="M316.446,388.207a2.786,2.786,0,0,1-2.482-1.508,70.838,70.838,0,0,0-11.27-16.588,2.793,2.793,0,0,1-.621-2.656c2.1-7.267,5.38-17.2,5.418-17.3a2.782,2.782,0,1,1,5.281,1.75c-.031.093-2.861,8.651-4.915,15.607a78.235,78.235,0,0,1,11.052,16.631,2.793,2.793,0,0,1-2.482,4.065Z" transform="translate(-194.485 -240.926)" fill="#c9c9c9"/>
      <path id="Path_41363" data-name="Path 41363" d="M308.052,240.494a2.786,2.786,0,0,1-1.3-5.25h0A34.834,34.834,0,0,0,322.8,212.426c-8.067-3.376-22.6-11-25.779-14.838a2.867,2.867,0,0,1-.621-1.291,13.883,13.883,0,0,1,.621-6.826l-1.465-2.83a2.792,2.792,0,1,1,4.965-2.557l2.1,4.071a2.768,2.768,0,0,1-.087,2.749,6.827,6.827,0,0,0-.7,3.668c3.581,3.233,18,10.885,25.09,13.51a2.78,2.78,0,0,1,1.781,3.035,40.609,40.609,0,0,1-19.362,29.062A2.78,2.78,0,0,1,308.052,240.494Z" transform="translate(-191.938 -178.064)" fill="#464646"/>
      <path id="Path_41364" data-name="Path 41364" d="M300.72,202.019a1.4,1.4,0,0,1-1.167-2.153c.1-.149,2.4-3.618,5.9-4.555a1.391,1.391,0,0,1,.72,2.687c-2.439.658-4.27,3.364-4.282,3.388a1.39,1.39,0,0,1-1.167.633Z" transform="translate(-193.486 -182.88)" fill="#263238"/>
      <path id="Path_41365" data-name="Path 41365" d="M319.57,412.271H297.98l11.443-6.491,9.588.372Z" transform="translate(-192.973 -262.756)" fill="#464646"/>
      <ellipse id="Ellipse_363" data-name="Ellipse 363" cx="14.844" cy="13.361" rx="14.844" ry="13.361" transform="matrix(0.996, -0.088, 0.088, 0.996, 64.242, 41.058)" fill="#fff"/>
      <ellipse id="Ellipse_364" data-name="Ellipse 364" cx="4.077" cy="7.422" rx="4.077" ry="7.422" transform="translate(70.624 48.362) rotate(-15.9)" fill="#464646"/>
      <path id="Path_41366" data-name="Path 41366" d="M230.718,253.066c9.371-1.2,27.926-6.5,30.985-8.632-2.408-7.05-13.653-13.082-23.656-9.681C228.981,237.813,230.718,253.066,230.718,253.066Z" transform="translate(-167.402 -197.494)" fill="#464646"/>
      <path id="Path_41367" data-name="Path 41367" d="M233.73,267.087c11.636-2.209,26.759-5.92,31.085-8.3-.267,7.583-2.482,15.272-14.348,17.873C240.761,278.779,233.73,267.087,233.73,267.087Z" transform="translate(-168.595 -206.984)" fill="#464646"/>
      <ellipse id="Ellipse_365" data-name="Ellipse 365" cx="9.135" cy="11.561" rx="9.135" ry="11.561" transform="matrix(0.834, -0.552, 0.552, 0.834, 35.172, 53.149)" fill="#fff"/>
      <path id="Path_41368" data-name="Path 41368" d="M204.931,265.1c.7,3.326.093,6.1-1.365,6.206s-3.208-2.52-3.916-5.846-.093-6.094,1.359-6.206S204.224,261.777,204.931,265.1Z" transform="translate(-155.553 -207.16)" fill="#464646"/>
      <path id="Path_41369" data-name="Path 41369" d="M189.715,258.529c6.286.738,18.772-.087,20.845-1.241-1.533-5.976-8.967-12.8-15.725-11.934C188.741,246.136,189.715,258.529,189.715,258.529Z" transform="translate(-151.873 -201.858)" fill="#464646"/>
      <path id="Path_41370" data-name="Path 41370" d="M191.63,272.363c7.813.354,18,.155,20.9-.943-.267,5.964-1.831,11.648-9.811,11.555C196.2,282.9,191.63,272.363,191.63,272.363Z" transform="translate(-152.622 -211.776)" fill="#464646"/>
      <path id="Path_41371" data-name="Path 41371" d="M251.24,222.524a35.019,35.019,0,0,1-19.914-6.082,2.782,2.782,0,1,1,3.357-4.437,30.408,30.408,0,0,0,22.241,4.412,2.782,2.782,0,0,1,1.036,5.467A36.246,36.246,0,0,1,251.24,222.524Z" transform="translate(-167.264 -189.019)" fill="#464646"/>
      <path id="Path_41372" data-name="Path 41372" d="M182.181,214.083a2.793,2.793,0,0,1-2.619-3.723c1.471-4.108,3.922-6.77,7.273-7.925,6.069-2.091,12.61,1.973,12.889,2.147a2.786,2.786,0,1,1-2.967,4.717c-1.241-.789-5.194-2.613-8.129-1.6-1.688.59-2.942,2.073-3.829,4.543A2.786,2.786,0,0,1,182.181,214.083Z" transform="translate(-147.982 -185.375)" fill="#464646"/>
      <path id="Path_41373" data-name="Path 41373" d="M218.722,294.109a.739.739,0,0,1-.23-.037.825.825,0,0,1-.571-1.018,5.424,5.424,0,0,1,2.83-3.059c3.19-1.645,8.067-1.3,14.466,1.012a.835.835,0,1,1-.571,1.57c-7.341-2.656-11.17-2.085-13.032-1.129a3.879,3.879,0,0,0-2.06,2.067A.838.838,0,0,1,218.722,294.109Z" transform="translate(-162.585 -218.436)" fill="#464646"/>
      <path id="Path_41374" data-name="Path 41374" d="M159.889,292.32a73.985,73.985,0,0,0-27.789,8.161c4.791-.906,21.937,20.311,26.343,36.67,8.136-3.01,17.618-5.064,27.727-6.671C180.046,313.618,168.844,294.511,159.889,292.32Z" transform="translate(-130.034 -219.706)" fill="#e9e9e9"/>
      <path id="Path_41376" data-name="Path 41376" d="M158.626,292.252c-10.6-1.2-27.808,7.677-27.808,7.677-3.047,1.942-2.222,5.585-.559,7.13,1.595-2.29,19.381-8.247,26.064-9.048C153,294.933,156.094,292.674,158.626,292.252Z" transform="translate(-128.771 -219.638)" fill="#e1e1e1"/>
      <path id="Path_41378" data-name="Path 41378" d="M149.543,326.749a2.8,2.8,0,0,1-2.34-1.241c-2.017-3.1-.757-7.813-.484-8.732a2.786,2.786,0,0,1,5.337,1.589c-.453,1.558-.546,3.55-.186,4.1a2.786,2.786,0,0,1-.813,3.854A2.718,2.718,0,0,1,149.543,326.749Z" transform="translate(-135.339 -228.27)" fill="#464646"/>
    </g>
    <g id="Group_15984" data-name="Group 15984" transform="translate(70.396 109.07)">
      <rect id="Rectangle_4953" data-name="Rectangle 4953" width="36.775" height="29.403" transform="translate(0 11.651) rotate(-18.47)" fill="none" stroke="#e1e1e1" stroke-width="1"/>
      <rect id="Rectangle_4954" data-name="Rectangle 4954" width="34.187" height="25.698" transform="translate(1.782 13.003) rotate(-18.47)" fill="#fff"/>
      <path id="Path_41213" data-name="Path 41213" d="M351.06,173.094l6.268-18.934,10.177,7.137,3.066-6.659,12.914,7.627Z" transform="translate(-341.134 -135.704)" fill="rgba(225,225,225,0.57)"/>
      <path id="Path_41214" data-name="Path 41214" d="M373.051,144.665a2.687,2.687,0,1,1-1.35-1.558,2.693,2.693,0,0,1,1.35,1.558Z" transform="translate(-347.487 -131.403)" fill="rgba(225,225,225,0.57)"/>
    </g>
  </g>
  <g id="Group_16002" data-name="Group 16002" transform="translate(-67.507 82.522)">
    <g id="Rectangle_5022" data-name="Rectangle 5022" transform="translate(93.404 69.443)" fill="#fff" stroke="#ff6555" stroke-width="0.5">
      <rect width="42" height="28" rx="2" stroke="none"/>
      <rect x="0.25" y="0.25" width="41.5" height="27.5" rx="1.75" fill="none"/>
    </g>
    <path id="Path_41984" data-name="Path 41984" d="M332.763,63.892l5.059,3.037-5.141,3.053L327.54,73.03l.077-6.09.082-6.09Z" transform="translate(-217.625 16.185)" fill="#ff725e"/>
  </g>
  <line id="Line_230" data-name="Line 230" x2="188.876" transform="translate(42.365 200.015)" fill="none" stroke="#263238" stroke-linecap="round" stroke-linejoin="round" stroke-width="1"/>
</svg>
