<svg id="Component_444_1" data-name="Component 444 – 1" xmlns="http://www.w3.org/2000/svg" width="184" height="184" viewBox="0 0 184 184">
  <g id="Glossary">
    <circle id="Ellipse_252" data-name="Ellipse 252" cx="84" cy="84" r="84" transform="translate(8 8)" fill="#f1f1f1"/>
    <g id="Ellipse_253" data-name="Ellipse 253" fill="none" stroke="#f1f1f1" stroke-width="1">
      <circle cx="92" cy="92" r="92" stroke="none"/>
      <circle cx="92" cy="92" r="91.5" fill="none"/>
    </g>
    <g id="Group_15197" data-name="Group 15197" transform="translate(4.141 21.297)">
      <g id="Group_15196" data-name="Group 15196" transform="translate(0.364 154.333)">
        <path id="Path_38477" data-name="Path 38477" d="M1143.3,1253.494c48.178,0,87.475-1.812,87.475-4.036s-39.3-4.039-87.475-4.039-87.477,1.815-87.477,4.039S1095.122,1253.494,1143.3,1253.494Z" transform="translate(-1055.825 -1245.419)" fill="#f1f1f1" fill-rule="evenodd"/>
      </g>
    </g>
    <g id="Group_15283" data-name="Group 15283" transform="translate(-1005.756 18.039)">
      <g id="Group_15216" data-name="Group 15216" transform="translate(1025.718 37.225)">
        <g id="Group_15198" data-name="Group 15198" transform="translate(0)">
          <path id="Path_38478" data-name="Path 38478" d="M1289.57,279.754V394.588h-94.993a9.562,9.562,0,0,1-2.235-6.071V279.754a3.1,3.1,0,0,1,3.1-3.1h91.029A3.1,3.1,0,0,1,1289.57,279.754Z" transform="translate(-1192.341 -276.651)" fill="#ffb8b8" fill-rule="evenodd"/>
        </g>
        <g id="Group_15199" data-name="Group 15199" transform="translate(0)">
          <path id="Path_38479" data-name="Path 38479" d="M1194.588,394.588h-.011a9.562,9.562,0,0,1-2.235-6.071V279.754a3.1,3.1,0,0,1,3.1-3.1h3c-.074,9.664-.257,19.323-.453,28.982-.252,12.492-.383,24.987-.592,37.481-.192,11.42-.733,22.83-.943,34.249a.185.185,0,0,0,.192.188.189.189,0,0,0,.162-.09c1.715-2.844,4.913-4.083,8.032-4.692a33.43,33.43,0,0,1,6.374-.55c1.668,0,3.333.088,4.979.2,3.49.242,6.957.709,10.434,1.091a90.568,90.568,0,0,0,10.02.491c1.544,0,3.085-.026,4.627-.065,6.087-.16,12.167-.572,18.257-.669q1.811-.028,3.621-.025c4.877,0,9.759.133,14.633.228,3.924.075,7.856.144,11.785.156v3.993H1204.49v.034c-6.793.412-12.15,5.113-12.15,10.849a9.569,9.569,0,0,0,2.235,6.073A.172.172,0,0,0,1194.588,394.588Z" transform="translate(-1192.341 -276.651)" fill="#ec5252" fill-rule="evenodd"/>
        </g>
        <g id="Group_15200" data-name="Group 15200" transform="translate(0 100.967)">
          <path id="Path_38480" data-name="Path 38480" d="M1289.57,1089.3v21.762H1204.49v-.03a13.851,13.851,0,0,1-9.914-4.775,9.569,9.569,0,0,1-2.235-6.073c0-5.736,5.357-10.437,12.15-10.849v-.034Z" transform="translate(-1192.341 -1089.298)" fill="#ffb8b8" fill-rule="evenodd"/>
        </g>
        <g id="Group_15201" data-name="Group 15201" transform="translate(59.831 3.766)">
          <path id="Path_38481" data-name="Path 38481" d="M1673.971,307.706s.764-.063,2.1-.14,3.248-.192,5.539-.275,4.965-.176,7.829-.228c1.434-.023,2.914-.065,4.417-.068s3.031-.025,4.559-.033q1.147.007,2.29.009a7.121,7.121,0,0,1,2.5.428,5.966,5.966,0,0,1,2.171,1.337,6.142,6.142,0,0,1,1.37,2.078,10.669,10.669,0,0,1,.49,4.354c-.041,1.314-.079,2.553-.115,3.7-.075,2.292-.2,4.2-.257,5.537s-.131,2.1-.131,2.1a.166.166,0,0,1-.331,0s-.061-.764-.134-2.1c-.056-1.337-.18-3.245-.256-5.537-.034-1.147-.072-2.387-.113-3.7-.009-.329-.018-.661-.027-1s-.049-.631-.074-.953a8.973,8.973,0,0,0-.165-.933,9.081,9.081,0,0,0-.286-.9,4.635,4.635,0,0,0-1.058-1.508,4.881,4.881,0,0,0-1.624-.956,5.475,5.475,0,0,0-1.957-.316l-2.29.007c-1.528-.011-3.056-.023-4.559-.032s-2.984-.047-4.417-.068c-2.865-.054-5.539-.135-7.829-.23s-4.2-.212-5.539-.275-2.1-.139-2.1-.139a.082.082,0,0,1,0-.164Z" transform="translate(-1673.894 -306.962)" fill="#dfedfa" fill-rule="evenodd"/>
        </g>
        <g id="Group_15202" data-name="Group 15202" transform="translate(2.468 102.864)">
          <path id="Path_38482" data-name="Path 38482" d="M1306.965,1104.566v18.476h-82.922v-.031a14.612,14.612,0,0,1-9.215-3.605c-.07-.061-.135-.125-.2-.189a8.674,8.674,0,0,1-1.8-2.563c-.029-.063-.059-.126-.083-.191a6.911,6.911,0,0,1-.539-2.565v-.189a6.917,6.917,0,0,1,.539-2.564c.024-.06.054-.126.083-.187a8.622,8.622,0,0,1,1.8-2.564c.063-.063.131-.124.2-.187a14.638,14.638,0,0,1,9.219-3.613v-.026Z" transform="translate(-1212.204 -1104.566)" fill="#eff9fc" fill-rule="evenodd"/>
        </g>
        <g id="Group_15203" data-name="Group 15203" transform="translate(4.89 106.501)">
          <path id="Path_38483" data-name="Path 38483" d="M1324.039,1133.832v.189H1231.7c.063-.063.131-.125.2-.187Z" transform="translate(-1231.701 -1133.832)" fill="#ffb8b8" fill-rule="evenodd"/>
        </g>
        <g id="Group_15204" data-name="Group 15204" transform="translate(3.006 109.255)">
          <path id="Path_38484" data-name="Path 38484" d="M1310.761,1156v.187h-94.222c.024-.061.054-.126.083-.187Z" transform="translate(-1216.539 -1155.997)" fill="#ffb8b8" fill-rule="evenodd"/>
        </g>
        <g id="Group_15205" data-name="Group 15205" transform="translate(2.468 112.006)">
          <rect id="Rectangle_4614" data-name="Rectangle 4614" width="94.761" height="0.189" fill="#ffb8b8"/>
        </g>
        <g id="Group_15206" data-name="Group 15206" transform="translate(3.006 114.761)">
          <path id="Path_38485" data-name="Path 38485" d="M1310.761,1200.313v.191h-94.139c-.029-.063-.059-.126-.083-.191Z" transform="translate(-1216.539 -1200.313)" fill="#ffb8b8" fill-rule="evenodd"/>
        </g>
        <g id="Group_15207" data-name="Group 15207" transform="translate(4.893 117.514)">
          <path id="Path_38486" data-name="Path 38486" d="M1324.059,1222.478v.189h-92.137c-.07-.061-.135-.125-.2-.189Z" transform="translate(-1231.723 -1222.478)" fill="#ffb8b8" fill-rule="evenodd"/>
        </g>
        <g id="Group_15208" data-name="Group 15208" transform="translate(14.306 121.341)">
          <path id="Path_38487" data-name="Path 38487" d="M1390.407,1253.7l-2.425-.011-23.564-.119-38.038-.2q-9.445-.05-18.9-.1h82.922v.423Z" transform="translate(-1307.485 -1253.276)" fill="#ec5252" fill-rule="evenodd"/>
        </g>
        <g id="Group_15209" data-name="Group 15209" transform="translate(2.468 102.864)">
          <path id="Path_38488" data-name="Path 38488" d="M1306.965,1123.042h-82.922v-.031a14.612,14.612,0,0,1-9.215-3.605h6.605a12.151,12.151,0,0,0,2.19.88,27.854,27.854,0,0,0,7.856.942c1.717,0,3.437-.081,5.118-.155,1.3-.059,2.6-.079,3.908-.079,2.118,0,4.237.059,6.358.115s4.239.115,6.36.115c.272,0,.545,0,.818,0,8.278-.063,16.533-.842,24.813-.842h.6c3.295.016,6.593.158,9.888.158,1.435,0,2.871-.028,4.306-.1.251-.011.5-.027.748-.047,2.648-.2,5.279-.671,7.919-.98h4.652v.125c-.047,1.159-.009,2.351,0,3.512Zm0-3.826h-2.711c.773-.059,1.551-.093,2.326-.093.128,0,.256,0,.385,0v.09Zm-85.888,0h-6.448a8.674,8.674,0,0,1-1.8-2.563h5.05a11.9,11.9,0,0,0,3.2,2.563Zm-3.361-2.754h-4.973a6.911,6.911,0,0,1-.539-2.565h4.412a4.7,4.7,0,0,0,1.1,2.563s0,0,0,0Zm-1.113-2.755h-4.4a6.917,6.917,0,0,1,.539-2.564h4.5a4.782,4.782,0,0,0-.642,2.564Zm.752-2.751h-4.53a8.622,8.622,0,0,1,1.8-2.564h5.553c-.09.047-.182.1-.273.148a7.1,7.1,0,0,0-2.551,2.416Zm3.2-2.754h-5.733a14.647,14.647,0,0,1,9.219-3.611v-.026h82.922v2.158a11.4,11.4,0,0,1-1.15.063c-.095,0-.189-.005-.286-.007-4.131-.128-8.26-.171-12.391-.171q-1.936,0-3.874.013-6.911.034-13.818.126c-8.435.1-16.873.219-25.311.25h-.459c-2.752,0-5.526-.083-8.3-.167s-5.556-.167-8.326-.167c-2.441,0-4.875.066-7.291.253A15.134,15.134,0,0,0,1220.556,1108.2Z" transform="translate(-1212.204 -1104.566)" fill="rgba(255,184,184,0.28)" fill-rule="evenodd"/>
        </g>
        <g id="Group_15210" data-name="Group 15210" transform="translate(4.89 106.501)">
          <path id="Path_38489" data-name="Path 38489" d="M1237.254,1134.021H1231.7c.063-.063.131-.125.2-.187v0h5.733C1237.5,1133.9,1237.378,1133.956,1237.254,1134.021Z" transform="translate(-1231.701 -1133.832)" fill="#ec5252" fill-rule="evenodd"/>
        </g>
        <g id="Group_15211" data-name="Group 15211" transform="translate(3.006 109.255)">
          <path id="Path_38490" data-name="Path 38490" d="M1221.042,1156.184h-4.5c.024-.061.054-.126.083-.187h4.53C1221.113,1156.06,1221.077,1156.123,1221.042,1156.184Z" transform="translate(-1216.539 -1155.997)" fill="#ec5252" fill-rule="evenodd"/>
        </g>
        <g id="Group_15212" data-name="Group 15212" transform="translate(2.468 112.006)">
          <path id="Path_38491" data-name="Path 38491" d="M1216.616,1178.33H1212.2v-.189h4.4C1216.6,1178.2,1216.61,1178.267,1216.616,1178.33Z" transform="translate(-1212.204 -1178.141)" fill="#ec5252" fill-rule="evenodd"/>
        </g>
        <g id="Group_15213" data-name="Group 15213" transform="translate(3.006 114.761)">
          <path id="Path_38492" data-name="Path 38492" d="M1221.672,1200.5h-5.05c-.029-.063-.059-.126-.083-.191h4.974C1221.564,1200.378,1221.619,1200.441,1221.672,1200.5Z" transform="translate(-1216.539 -1200.313)" fill="#ec5252" fill-rule="evenodd"/>
        </g>
        <g id="Group_15214" data-name="Group 15214" transform="translate(4.893 117.514)">
          <path id="Path_38493" data-name="Path 38493" d="M1324.059,1222.667h-4.652c.644-.075,1.292-.14,1.941-.189h2.711v.189Zm-85.532,0h-6.605c-.07-.061-.135-.125-.2-.189h6.447C1238.29,1222.543,1238.407,1222.606,1238.526,1222.667Z" transform="translate(-1231.723 -1222.478)" fill="#ec5252" fill-rule="evenodd"/>
        </g>
        <g id="Group_15215" data-name="Group 15215" transform="translate(10.702 8.158)">
          <path id="Path_38494" data-name="Path 38494" d="M1350.536,425.608c-2.921,0-5.853-.07-8.747-.105-10.951-.133-21.9-.505-32.906-.505-5.558,0-10.994-.253-16.445-.507-2.533-.118-5.3-.589-7.964-.589a12.258,12.258,0,0,0-5.912,1.26,103.468,103.468,0,0,1,.769-15.611c.766-8.109.958-16.336.958-24.543,0-11.025-.523-22.319.234-33.317.228-3.284,1.12-5.837,4.557-6.709,4.442-1.127,9.617-1.551,14.2-2.182a61.9,61.9,0,0,1,8.477-.489c3.707,0,7.448.178,11.068.178,7.158,0,14.115.53,21.142,1.028,4.586.322,11.821.854,14.737,5.048,1.665,2.4.741,4.926.757,7.592.02,3.394.253,6.9.253,10.376,0,7.827-.507,15.456-.507,23.285v19.542a43.551,43.551,0,0,0,.5,8.562c.487,2.44,1.339,4.994.985,7.541C1354.652,425.575,1352.595,425.608,1350.536,425.608Z" transform="translate(-1278.477 -342.312)" fill="#ec5252" fill-rule="evenodd"/>
        </g>
      </g>
      <g id="Group_15219" data-name="Group 15219" transform="translate(1038.199 63.553)">
        <g id="Group_15217" data-name="Group 15217" transform="translate(11.75)">
          <path id="Path_38495" data-name="Path 38495" d="M1400.215,488.551H1394.3L1387.371,513h4.769l1.686-6.455h6.549l1.747,6.455h4.929l-6.835-24.448Zm-5.723,14.432,1.463-5.6c.349-1.429.764-3.432,1.08-4.96h.1c.318,1.495.73,3.466,1.111,4.992l1.465,5.564Zm14.433,1.94h8.71v-3.243h-8.71v3.243Zm27.118-16.373h-15.611v3.941h9.761v.128l-10.715,17.739V513h16.659v-3.974h-10.585V508.9l10.491-17.421Z" transform="translate(-1387.371 -488.551)" fill="#fff" fill-rule="evenodd"/>
        </g>
        <g id="Group_15218" data-name="Group 15218" transform="translate(0 33.866)">
          <path id="Path_38496" data-name="Path 38496" d="M1301.619,766.352h-3.743v1.737h1.65v2.792a3.024,3.024,0,0,1-1.129.164c-1.886,0-3.3-1.338-3.3-3.982,0-2.763,1.544-4.01,3.579-4.01a5.039,5.039,0,0,1,2.184.416l.459-1.812a6.543,6.543,0,0,0-2.673-.476,5.522,5.522,0,0,0-5.852,5.928,6.041,6.041,0,0,0,1.546,4.336,5.438,5.438,0,0,0,4.023,1.4,10.122,10.122,0,0,0,3.254-.565v-5.925Zm8.246,4.514h-4.086V761.3h-2.2v11.423h6.285v-1.859Zm5.776-9.743c-2.986,0-4.873,2.508-4.873,5.925,0,3.315,1.71,5.839,4.726,5.839,2.835,0,4.857-2.035,4.857-6.015,0-3.047-1.544-5.75-4.71-5.75Zm-.059,1.8c1.679,0,2.465,1.944,2.465,4.039,0,2.3-.845,4.129-2.479,4.129s-2.5-1.842-2.5-4.084c0-2.1.787-4.083,2.511-4.083Zm12.479-1.264a5.518,5.518,0,0,0-2.452-.521c-2.465,0-3.934,1.442-3.934,3.313,0,1.485,1.068,2.556,2.792,3.3,1.262.548,1.812,1.039,1.812,1.855,0,.847-.64,1.426-1.857,1.426a5.1,5.1,0,0,1-2.465-.639l-.433,1.844a6.125,6.125,0,0,0,2.808.639c2.66,0,4.161-1.456,4.161-3.448,0-1.5-.818-2.553-2.646-3.371-1.395-.638-1.958-1.01-1.958-1.825,0-.64.518-1.265,1.679-1.265a4.355,4.355,0,0,1,2.032.491l.462-1.8Zm8.141,0a5.528,5.528,0,0,0-2.452-.521c-2.465,0-3.935,1.442-3.935,3.313,0,1.485,1.068,2.556,2.79,3.3,1.264.548,1.814,1.039,1.814,1.855,0,.847-.64,1.426-1.857,1.426a5.1,5.1,0,0,1-2.468-.639l-.428,1.844a6.1,6.1,0,0,0,2.806.639c2.659,0,4.16-1.456,4.16-3.448,0-1.5-.816-2.553-2.643-3.371-1.4-.638-1.963-1.01-1.963-1.825,0-.64.521-1.265,1.681-1.265a4.378,4.378,0,0,1,2.035.491l.46-1.8Zm7.277-.356h-2.76l-3.239,11.423h2.229l.784-3.018h3.06l.818,3.018h2.3l-3.194-11.423Zm-2.672,6.742.682-2.614c.162-.667.356-1.6.505-2.316h.045c.149.7.343,1.617.521,2.332l.683,2.6Zm12.686-.758a3.022,3.022,0,0,0,1.961-2.837c0-3.06-2.912-3.239-4.354-3.239a17.91,17.91,0,0,0-2.938.237v11.278h2.184v-4.636h.741c1.041,0,1.5.46,1.8,1.932a14.334,14.334,0,0,0,.712,2.7h2.257a24.6,24.6,0,0,1-.847-3.151,2.8,2.8,0,0,0-1.515-2.242v-.045Zm-3.148-.832V762.98a3.773,3.773,0,0,1,1.009-.09,1.665,1.665,0,0,1,1.9,1.751,1.791,1.791,0,0,1-2.008,1.814Zm12.3-5.153-1.1,2.791c-.324.832-.609,1.576-.831,2.333h-.029c-.269-.788-.534-1.5-.861-2.317l-1.131-2.807h-2.449l3.238,6.771v4.652h2.2V768l3.387-6.7Z" transform="translate(-1292.796 -761.123)" fill="#fff" fill-rule="evenodd"/>
        </g>
      </g>
      <g id="Group_15274" data-name="Group 15274" transform="translate(1128.388 41.367)">
        <g id="Group_15270" data-name="Group 15270" transform="translate(0)">
          <path id="Path_38543" data-name="Path 38543" d="M1987.327,437.763a1.817,1.817,0,0,0,0-1.679,1.842,1.842,0,0,0-.5-.594,1.786,1.786,0,0,0-.249-.161,1.9,1.9,0,0,0-.249-.112,1.954,1.954,0,0,0-.249-.069,1.675,1.675,0,0,0-.249-.033c-.037,0-.075,0-.113,0s-.091,0-.136.005a1.8,1.8,0,0,0-.248.036,2.048,2.048,0,0,0-.249.073,1.693,1.693,0,0,0-.249.115,1.8,1.8,0,0,0-.5.409,1.826,1.826,0,0,0-.248.38,1.812,1.812,0,0,0,0,1.586,1.828,1.828,0,0,0,.746.789,1.7,1.7,0,0,0,.249.116,1.76,1.76,0,0,0,.5.109c.045,0,.091.005.136.005s.076,0,.113,0a1.819,1.819,0,0,0,.249-.032,1.782,1.782,0,0,0,.5-.181,1.735,1.735,0,0,0,.249-.162,1.826,1.826,0,0,0,.5-.593Z" transform="translate(-1983.91 -435.112)" fill="#2660a4" fill-rule="evenodd"/>
        </g>
        <g id="Group_15271" data-name="Group 15271" transform="translate(2.554 6.565)">
          <path id="Path_38544" data-name="Path 38544" d="M2025.275,534.285a1.886,1.886,0,0,0,.024-.3,1.857,1.857,0,0,0-.024-.3,1.818,1.818,0,0,0-.249-.657,1.8,1.8,0,0,0-.5-.526,1.894,1.894,0,0,0-.248-.147,2.014,2.014,0,0,0-.249-.1,1.893,1.893,0,0,0-.249-.059,1.867,1.867,0,0,0-.248-.023h-.046a1.85,1.85,0,0,0-.2.011,1.819,1.819,0,0,0-.248.045,1.763,1.763,0,0,0-.5.212,1.827,1.827,0,0,0-.249.184,1.722,1.722,0,0,0-.248.27,1.769,1.769,0,0,0-.249.451,1.807,1.807,0,0,0,.249,1.726,1.761,1.761,0,0,0,.248.269,2.078,2.078,0,0,0,.249.185,1.9,1.9,0,0,0,.249.128,1.845,1.845,0,0,0,.249.083,1.642,1.642,0,0,0,.248.045,1.85,1.85,0,0,0,.2.011h.046a1.834,1.834,0,0,0,.248-.023,1.894,1.894,0,0,0,.249-.059,2.015,2.015,0,0,0,.249-.1,1.645,1.645,0,0,0,.248-.147,1.775,1.775,0,0,0,.249-.21,1.808,1.808,0,0,0,.5-.973Z" transform="translate(-2021.675 -532.175)" fill="#2660a4" fill-rule="evenodd"/>
        </g>
        <g id="Group_15272" data-name="Group 15272" transform="translate(5.253)">
          <path id="Path_38545" data-name="Path 38545" d="M2075.92,437.661a1.813,1.813,0,0,0,0-1.477,1.858,1.858,0,0,0-.5-.655,1.844,1.844,0,0,0-.249-.173,1.591,1.591,0,0,0-.249-.12,1.892,1.892,0,0,0-.248-.077,1.853,1.853,0,0,0-.249-.039c-.054-.005-.107-.007-.162-.007H2063.4a1.965,1.965,0,0,0-.413.048,1.628,1.628,0,0,0-.249.077,1.858,1.858,0,0,0-.249.12,1.953,1.953,0,0,0-.249.175,1.871,1.871,0,0,0-.25.253,1.849,1.849,0,0,0-.249.407,1.808,1.808,0,0,0,.249,1.867,1.968,1.968,0,0,0,.25.254,1.922,1.922,0,0,0,.249.174,1.559,1.559,0,0,0,.249.12,1.759,1.759,0,0,0,.249.079,1.829,1.829,0,0,0,.248.039c.056,0,.11.009.166.009h10.868c.055,0,.108,0,.162-.007a1.815,1.815,0,0,0,1.244-.662A1.8,1.8,0,0,0,2075.92,437.661Z" transform="translate(-2061.586 -435.112)" fill="#2660a4" fill-rule="evenodd"/>
        </g>
        <g id="Group_15273" data-name="Group 15273" transform="translate(8.478 6.565)">
          <path id="Path_38546" data-name="Path 38546" d="M2135.8,534.36a1.844,1.844,0,0,0,0-.741,1.811,1.811,0,0,0-.5-.916,2,2,0,0,0-.249-.207,1.818,1.818,0,0,0-.249-.145,1.891,1.891,0,0,0-.249-.1,1.838,1.838,0,0,0-.248-.058,1.9,1.9,0,0,0-.25-.021h-18.054c-.036,0-.071,0-.107.007l-.06.008h-3.2a1.513,1.513,0,0,0-.168-.015.469.469,0,0,0-.058,0c-.028,0-.056.009-.084.011h-1.267c-.046,0-.093,0-.141,0a1.815,1.815,0,0,0-.248.037,1.682,1.682,0,0,0-.249.076,1.859,1.859,0,0,0-.249.118,2.051,2.051,0,0,0-.249.17,1.939,1.939,0,0,0-.248.249,1.756,1.756,0,0,0-.249.4,1.79,1.79,0,0,0,0,1.494,1.792,1.792,0,0,0,.249.4,1.858,1.858,0,0,0,.248.248,1.917,1.917,0,0,0,.249.172,1.979,1.979,0,0,0,.249.118,1.664,1.664,0,0,0,.249.075,1.845,1.845,0,0,0,.248.038c.048,0,.094,0,.141,0h1.281c.024,0,.048.006.071.009a.469.469,0,0,0,.058,0c.052,0,.1-.009.151-.012h3.23l.044,0a.755.755,0,0,0,.107.009h18.054a1.686,1.686,0,0,0,.25-.022,1.644,1.644,0,0,0,.248-.056,1.728,1.728,0,0,0,.249-.1,1.615,1.615,0,0,0,.249-.143,1.825,1.825,0,0,0,.249-.206,1.828,1.828,0,0,0,.5-.912Z" transform="translate(-2109.268 -532.175)" fill="#2660a4" fill-rule="evenodd"/>
        </g>
      </g>
    </g>
    <g id="Group_15275" data-name="Group 15275" transform="translate(103.492 98.777)">
      <path id="Path_38547" data-name="Path 38547" d="M1645.693,95.657c-.4,5.456-1.2,6.209-6.4,6.628,5.2.421,6.006,1.174,6.4,6.628.4-5.454,1.2-6.207,6.4-6.628C1646.894,101.866,1646.089,101.113,1645.693,95.657Z" transform="translate(-1639.288 -95.657)" fill="#fff" fill-rule="evenodd"/>
    </g>
    <g id="Group_15287" data-name="Group 15287" transform="translate(121.395 15.777)">
      <path id="Path_38547-2" data-name="Path 38547" d="M1645.693,95.657c-.4,5.456-1.2,6.209-6.4,6.628,5.2.421,6.006,1.174,6.4,6.628.4-5.454,1.2-6.207,6.4-6.628C1646.894,101.866,1646.089,101.113,1645.693,95.657Z" transform="translate(-1639.288 -95.657)" fill="#fff" fill-rule="evenodd"/>
    </g>
    <g id="Group_15276" data-name="Group 15276" transform="translate(121.395 79.912)">
      <path id="Path_38548" data-name="Path 38548" d="M1081.494,660.146c-.4,5.456-1.2,6.208-6.405,6.63,5.2.419,6.008,1.172,6.405,6.628.4-5.456,1.2-6.208,6.4-6.628C1082.7,666.354,1081.893,665.6,1081.494,660.146Z" transform="translate(-1075.089 -660.146)" fill="#fff" fill-rule="evenodd"/>
    </g>
    <g id="Group_15277" data-name="Group 15277" transform="translate(58.215 51.5)">
      <path id="Path_38549" data-name="Path 38549" d="M1505.317,246.34c-.315,4.327-.953,4.924-5.082,5.258,4.128.333,4.766.93,5.082,5.26.316-4.329.953-4.927,5.08-5.26C1506.27,251.264,1505.632,250.667,1505.317,246.34Z" transform="translate(-1500.235 -246.34)" fill="#fff" fill-rule="evenodd"/>
    </g>
    <g id="girl" transform="translate(123.045 75.295)">
      <path id="Path_38593" data-name="Path 38593" d="M388.632,491.871l1.378-4.181-1.468-13.748a1.793,1.793,0,0,0-.477-1.043,1.813,1.813,0,0,0-2.74.1,1.87,1.87,0,0,0-.2.3,1.8,1.8,0,0,0-.195,1.031l1.471,13.767Z" transform="translate(-384.695 -433.181)" fill="#ec5252"/>
      <g id="Group_15286" data-name="Group 15286" transform="translate(0.509 39.225)">
        <path id="Path_38594" data-name="Path 38594" d="M386.53,473.043l1.594,14.924.572-.061-1.542-14.434A1.719,1.719,0,0,0,386.53,473.043Z" transform="translate(-384.357 -472.919)" fill="#fafafa"/>
        <path id="Path_38595" data-name="Path 38595" d="M394.233,474.361l1.533,14.355.572-.061-1.591-14.893a1.729,1.729,0,0,0-.327.311,1.778,1.778,0,0,0-.188.288Z" transform="translate(-394.233 -473.429)" fill="#fafafa"/>
        <path id="Path_38596" data-name="Path 38596" d="M390.482,472.7l1.612,15.089.572-.061-1.614-15.108a1.675,1.675,0,0,0-.23.009A1.766,1.766,0,0,0,390.482,472.7Z" transform="translate(-389.472 -472.618)" fill="#fafafa"/>
        <path id="Path_38597" data-name="Path 38597" d="M388.169,534.866l.448.759.459-1.384A1.363,1.363,0,0,0,388.169,534.866Z" transform="translate(-385.212 -516.368)" fill="#fafafa"/>
      </g>
      <path id="Path_38598" data-name="Path 38598" d="M213.739,455.61h-3.516l-1.673-13.563h5.19Z" transform="translate(-201.936 -353.789)" fill="#ffd1a6"/>
      <path id="Path_38599" data-name="Path 38599" d="M370.8,684.475h-6.925a4.413,4.413,0,0,0-4.413,4.413v.144H370.8Z" transform="translate(-358.097 -583.802)" fill="#131313"/>
      <path id="Path_38600" data-name="Path 38600" d="M121.314,450.735l-3.477.526-3.681-13.16,4.558-.776Z" transform="translate(-82.132 -350.436)" fill="#ffd1a6"/>
      <path id="Path_38601" data-name="Path 38601" d="M273.944,678.81l-6.847,1.035h0a4.413,4.413,0,0,0-3.7,5.023l.021.142,11.21-1.694Z" transform="translate(-234.046 -579.78)" fill="#131313"/>
      <path id="Path_38602" data-name="Path 38602" d="M307.922,456.695l-3.9,1.023.26,6.33.032,11.525a2.31,2.31,0,1,0,3.057.384l1.2-11.567Z" transform="translate(-279.582 -422.088)" fill="#ffd1a6"/>
      <path id="Path_38603" data-name="Path 38603" d="M307.912,424.124a3.187,3.187,0,0,0-1.97-2.834,2.98,2.98,0,0,0-3.225.519,2.841,2.841,0,0,0-.947,2.2,73.612,73.612,0,0,0,.835,9.167l.013.086,5.707,1.922Z" transform="translate(-278.892 -396.767)" fill="#2660a4"/>
      <path id="Path_38604" data-name="Path 38604" d="M277.114,462.459l-8.728-2.259-4.035,13.588-.143,50.622,6.675-.042,2.79-40.972,17.782,37.859,7.17-.86-15.631-40.584s.86-7.17-1.864-10.755l.574-3.728Z" transform="translate(-258.298 -424.575)" fill="#131313"/>
      <path id="Path_38605" data-name="Path 38605" d="M317.945,424.612a1.338,1.338,0,0,0,.285-1.076l3.981-11.944a3.039,3.039,0,0,0-.838-3.207l-1.728-1.571-1.171-4.685-6.732,1.646.555,2.219-3.047-.554-6.417,14.292,13.413,5.361.661.01A1.337,1.337,0,0,0,317.945,424.612Z" transform="translate(-293.243 -383.347)" fill="#2660a4"/>
      <path id="Path_38606" data-name="Path 38606" d="M365.653,441.884l-3.846-1.222-3.164,5.488-6.133,9.757a2.31,2.31,0,1,0,2.378,1.958l7.2-9.134Z" transform="translate(-350.295 -410.704)" fill="#ffd1a6"/>
      <path id="Path_38607" data-name="Path 38607" d="M342.809,413.3a3.187,3.187,0,0,0-.15-3.448,2.981,2.981,0,0,0-3-1.286,2.841,2.841,0,0,0-1.975,1.351,73.653,73.653,0,0,0-4.194,8.194l-.035.08,3.8,4.674Z" transform="translate(-323.001 -387.887)" fill="#2660a4"/>
      <ellipse id="Ellipse_250" data-name="Ellipse 250" cx="5.349" cy="5.349" rx="5.349" ry="5.349" transform="translate(14.901 7.212)" fill="#ffd1a6"/>
      <ellipse id="Ellipse_251" data-name="Ellipse 251" cx="5.152" cy="5.152" rx="5.152" ry="5.152" transform="translate(24.55 0)" fill="#131313"/>
      <path id="Path_38608" data-name="Path 38608" d="M285.514,358.054a5.152,5.152,0,0,1-7.956-2.705,5.152,5.152,0,1,0,10.051-2.113A5.151,5.151,0,0,1,285.514,358.054Z" transform="translate(-251.368 -348.636)" fill="#2f2e41"/>
      <path id="Path_38609" data-name="Path 38609" d="M306.6,359.925a9.443,9.443,0,0,1,2.4-3.262,2.5,2.5,0,0,1,3.3-.3,6.129,6.129,0,1,1-3.635,4.9C307.789,361.143,307.485,360.049,306.6,359.925Z" transform="translate(-292.787 -350.501)" fill="#131313"/>
    </g>
  </g>
</svg>
