<svg xmlns="http://www.w3.org/2000/svg" width="18.883" height="18.883" viewBox="0 0 18.883 18.883">
  <path id="Icon_awesome-linkedin" data-name="Icon awesome-linkedin" d="M17.534,2.25H1.345A1.355,1.355,0,0,0,0,3.611v16.16a1.355,1.355,0,0,0,1.345,1.361H17.534a1.358,1.358,0,0,0,1.349-1.361V3.611A1.358,1.358,0,0,0,17.534,2.25ZM5.707,18.435h-2.8V9.424h2.8v9.011ZM4.308,8.193A1.623,1.623,0,1,1,5.93,6.57,1.623,1.623,0,0,1,4.308,8.193ZM16.2,18.435H13.4V14.052c0-1.045-.021-2.39-1.454-2.39-1.458,0-1.682,1.138-1.682,2.314v4.459h-2.8V9.424H10.15v1.231h.038A2.948,2.948,0,0,1,12.839,9.2c2.832,0,3.359,1.867,3.359,4.295Z" transform="translate(0 -2.25)" fill="#797979"/>
</svg>
