<svg xmlns="http://www.w3.org/2000/svg" width="215.887" height="135.883" viewBox="0 0 215.887 135.883">
  <g id="learning" transform="translate(-60.17 -64.984)">
    <ellipse id="Ellipse_119" data-name="Ellipse 119" cx="106.253" cy="6.125" rx="106.253" ry="6.125" transform="translate(60.17 188.616)" fill="#f1f1f1"/>
    <g id="vector" transform="translate(68.96 64.984)">
      <path id="Path_37369" data-name="Path 37369" d="M646.2,521.7H467.072a2.868,2.868,0,0,0,0,5.736h5.074v68.606a2.868,2.868,0,0,0,5.736,0l.044-68.606H634.947v68.606a2.868,2.868,0,0,0,5.736,0V528.95l.834-1.512H646.2a2.868,2.868,0,0,0,0-5.735Z" transform="translate(-455.018 -471.724)" fill="#ccc"/>
      <g id="laptop" transform="translate(50.702 13.682)">
        <path id="Path_37370" data-name="Path 37370" d="M622.052,477.231H567.793a3.967,3.967,0,0,1-3.963-3.963V443.395a3.967,3.967,0,0,1,3.963-3.963h54.259a3.967,3.967,0,0,1,3.963,3.963v29.873A3.967,3.967,0,0,1,622.052,477.231Z" transform="translate(-561.392 -439.432)" fill="#797979"/>
        <path id="Path_37371" data-name="Path 37371" d="M625.915,446.345H571.656a.915.915,0,0,0-.913.913v29.874a.915.915,0,0,0,.913.913h54.259a.915.915,0,0,0,.913-.913V447.258a.915.915,0,0,0-.913-.913Z" transform="translate(-565.255 -443.295)" fill="#fff"/>
        <path id="Path_37372" data-name="Path 37372" d="M630.89,493.767s-6.5-1.5-10.068,1.247,4.547,8.98,4.547,8.98Z" transform="translate(-592.731 -469.566)" fill="#131313"/>
        <circle id="Ellipse_103" data-name="Ellipse 103" cx="6.127" cy="6.127" r="6.127" transform="translate(27.721 9.118)" fill="#ffd1a6"/>
        <path id="Path_37373" data-name="Path 37373" d="M619.944,451.768a4.367,4.367,0,0,1,4.026-2.142,8.56,8.56,0,0,1,2.434.681l4.005,1.563a3.246,3.246,0,0,1,2.412,4.935l-1.5,4.674a14.223,14.223,0,0,0-.849-3.087,4.78,4.78,0,0,0-2.076-2.367,6.767,6.767,0,0,0-3.435-.466c-1.654.08-3.452.29-4.628,1.457a4.809,4.809,0,0,0-1.22,2.382,14.347,14.347,0,0,0-.256,2.7,22.338,22.338,0,0,1-1.707-3.66,9.049,9.049,0,0,1-.634-2.963,4.167,4.167,0,0,1,.955-2.818,2.734,2.734,0,0,1,2.749-.865Z" transform="translate(-590.832 -445.124)" fill="#2f2e41"/>
        <path id="Path_37374" data-name="Path 37374" d="M632,498.611a1.091,1.091,0,0,0-.913-.79.383.383,0,0,0-.044-.026l-9.146-5.126a1.163,1.163,0,0,0-1.557.4l-2.5,4.05-3.768-3.768-.06-.06a1.163,1.163,0,0,0-1.49-.13L605,498.426c-.013,0-.026,0-.04,0a1.6,1.6,0,0,0-1.337,1.5l-.194,3.922h30.019Z" transform="translate(-583.522 -469.098)" fill="#ec5252"/>
        <path id="Path_37375" data-name="Path 37375" d="M623.536,516.042h-5.792a.61.61,0,0,0-.609-.61h-1.829a.61.61,0,0,0-.61.61h-1.829a.61.61,0,0,0-.609-.61h-1.829a.61.61,0,0,0-.609.61H607.99a.61.61,0,0,0-.61-.61h-1.829a.61.61,0,0,0-.61.61h-1.829a.609.609,0,0,0-.61-.61h-1.829a.61.61,0,0,0-.61.609h-1.829a.61.61,0,0,0-.61-.609H595.8a.609.609,0,0,0-.61.609h-1.829a.61.61,0,0,0-.61-.609H590.92a.609.609,0,0,0-.609.609h-1.829a.61.61,0,0,0-.61-.609h-1.829a.609.609,0,0,0-.61.609H583.6a.61.61,0,0,0-.61-.609h-1.829a.61.61,0,0,0-.61.609h-1.829a.61.61,0,0,0-.61-.609h-1.829a.61.61,0,0,0-.61.609H573.85a.61.61,0,0,0-.61-.609h-1.829a.609.609,0,0,0-.61.609h-1.829a.61.61,0,0,0-.61-.609h-1.829a.61.61,0,0,0-.61.609h-5.792a1.829,1.829,0,1,0,0,3.658h63.4a1.829,1.829,0,1,0,0-3.658Z" transform="translate(-558.303 -481.901)" fill="#797979"/>
      </g>
      <path id="Path_37376" data-name="Path 37376" d="M494.58,492.735V504.88H464.154a6.076,6.076,0,1,1,0-12.144Z" transform="translate(-451.476 -455.535)" fill="#fff"/>
      <g id="Group_13750" data-name="Group 13750" transform="translate(5.736 36.921)">
        <path id="Path_37377" data-name="Path 37377" d="M494.5,504.436a.467.467,0,0,1-.467.467H462.784a6.4,6.4,0,0,1,0-12.8h31.248a.467.467,0,0,1,0,.934H462.784a5.465,5.465,0,1,0,0,10.93h31.248A.467.467,0,0,1,494.5,504.436Z" transform="translate(-456.385 -492.105)" fill="#ec5252"/>
        <g id="Group_13625" data-name="Group 13625" transform="translate(4.578 2.895)">
          <path id="Path_37378" data-name="Path 37378" d="M499.549,498.855h-32.7a.093.093,0,1,1,0-.187h32.7a.093.093,0,0,1,0,.187Z" transform="translate(-466.759 -498.669)" fill="#ccc"/>
          <path id="Path_37379" data-name="Path 37379" d="M499.549,503.937h-32.7a.093.093,0,1,1,0-.187h32.7a.093.093,0,1,1,0,.187Z" transform="translate(-466.759 -501.508)" fill="#ccc"/>
          <path id="Path_37380" data-name="Path 37380" d="M499.549,509.018h-32.7a.093.093,0,0,1,0-.187h32.7a.093.093,0,0,1,0,.187Z" transform="translate(-466.759 -504.348)" fill="#ccc"/>
          <path id="Path_37381" data-name="Path 37381" d="M499.549,514.1h-32.7a.093.093,0,1,1,0-.187h32.7a.093.093,0,0,1,0,.187Z" transform="translate(-466.759 -507.187)" fill="#ccc"/>
        </g>
      </g>
      <path id="Path_37382" data-name="Path 37382" d="M481.579,463.735V475.88H451.154a6.076,6.076,0,1,1,0-12.144Z" transform="translate(-444.212 -439.329)" fill="#fff"/>
      <g id="Group_13749" data-name="Group 13749" transform="translate(0 24.126)">
        <path id="Path_37383" data-name="Path 37383" d="M481.5,475.436a.467.467,0,0,1-.467.467H449.784a6.4,6.4,0,0,1,0-12.8h31.248a.467.467,0,1,1,0,.934H449.784a5.465,5.465,0,1,0,0,10.93h31.248A.467.467,0,0,1,481.5,475.436Z" transform="translate(-443.385 -463.105)" fill="#2660a4"/>
        <path id="Path_37384" data-name="Path 37384" d="M486.549,469.855h-32.7a.093.093,0,0,1,0-.187h32.7a.093.093,0,0,1,0,.187Z" transform="translate(-449.182 -466.773)" fill="#d8d8d8"/>
        <path id="Path_37385" data-name="Path 37385" d="M486.549,474.937h-32.7a.093.093,0,0,1,0-.187h32.7a.093.093,0,0,1,0,.187Z" transform="translate(-449.182 -469.613)" fill="#d8d8d8"/>
        <path id="Path_37386" data-name="Path 37386" d="M486.549,480.018h-32.7a.093.093,0,1,1,0-.187h32.7a.093.093,0,1,1,0,.187Z" transform="translate(-449.182 -472.452)" fill="#d8d8d8"/>
        <path id="Path_37387" data-name="Path 37387" d="M486.549,485.1h-32.7a.093.093,0,0,1,0-.187h32.7a.093.093,0,0,1,0,.187Z" transform="translate(-449.182 -475.292)" fill="#d8d8d8"/>
      </g>
      <path id="Path_37388" data-name="Path 37388" d="M552.982,602.458V591.87a1.765,1.765,0,0,0-1.765-1.765H511.068a1.765,1.765,0,0,0-1.765,1.765v10.589Z" transform="translate(-480.219 -509.947)" fill="#ec5252"/>
      <rect id="Rectangle_4385" data-name="Rectangle 4385" width="43.679" height="13.677" transform="translate(29.084 96.482)" fill="#2660a4"/>
      <path id="Path_37389" data-name="Path 37389" d="M509.3,667.1v10.589a1.765,1.765,0,0,0,1.765,1.765h40.149a1.765,1.765,0,0,0,1.765-1.765V667.1Z" transform="translate(-480.219 -552.975)" fill="#797979"/>
      <circle id="Ellipse_104" data-name="Ellipse 104" cx="1.324" cy="1.324" r="1.324" transform="translate(49.379 85.452)" fill="#fff"/>
      <circle id="Ellipse_105" data-name="Ellipse 105" cx="1.324" cy="1.324" r="1.324" transform="translate(49.379 103.1)" fill="#fff"/>
      <circle id="Ellipse_106" data-name="Ellipse 106" cx="1.324" cy="1.324" r="1.324" transform="translate(49.45 120.374)" fill="#fff"/>
      <path id="Path_37390" data-name="Path 37390" d="M550.579,562.735V574.88H520.154a6.076,6.076,0,1,1,0-12.144Z" transform="translate(-482.77 -494.65)" fill="#fff"/>
      <path id="Path_37391" data-name="Path 37391" d="M550.5,574.436a.467.467,0,0,1-.467.467H518.784a6.4,6.4,0,0,1,0-12.8h31.248a.467.467,0,0,1,0,.934H518.784a5.465,5.465,0,1,0,0,10.93h31.248a.467.467,0,0,1,.467.467Z" transform="translate(-481.941 -494.301)" fill="#131313"/>
      <g id="Group_13626" data-name="Group 13626" transform="translate(35.02 70.701)">
        <path id="Path_37392" data-name="Path 37392" d="M555.549,568.855h-32.7a.093.093,0,0,1,0-.187h32.7a.093.093,0,1,1,0,.187Z" transform="translate(-522.759 -568.668)" fill="#d8d8d8"/>
        <path id="Path_37393" data-name="Path 37393" d="M555.549,573.937h-32.7a.093.093,0,0,1,0-.187h32.7a.093.093,0,1,1,0,.187Z" transform="translate(-522.759 -571.51)" fill="#d8d8d8"/>
        <path id="Path_37394" data-name="Path 37394" d="M555.549,579.018h-32.7a.093.093,0,1,1,0-.187h32.7a.093.093,0,1,1,0,.187Z" transform="translate(-522.759 -574.348)" fill="#d8d8d8"/>
        <path id="Path_37395" data-name="Path 37395" d="M555.549,584.1h-32.7a.093.093,0,1,1,0-.187h32.7a.093.093,0,1,1,0,.187Z" transform="translate(-522.759 -577.189)" fill="#d8d8d8"/>
      </g>
      <path id="Path_37400" data-name="Path 37400" d="M736.6,513.1H722.739a.859.859,0,0,0-.379.088l-3.5,1.752a.637.637,0,0,0,0,1.173l3.5,1.752a.859.859,0,0,0,.379.088H736.6a.727.727,0,0,0,.768-.675v-3.5A.728.728,0,0,0,736.6,513.1Z" transform="translate(-597.104 -466.918)" fill="#ec5252"/>
      <path id="Path_37401" data-name="Path 37401" d="M756.832,513.778v3.5a.728.728,0,0,1-.768.675H753.3V513.1h2.762A.728.728,0,0,1,756.832,513.778Z" transform="translate(-616.568 -466.918)" fill="#2f2e41"/>
      <path id="Path_37403" data-name="Path 37403" d="M793.564,587.853H772.382c0,.609-21.83,1.1-21.83,1.1a5.676,5.676,0,0,0-.931.882,5.475,5.475,0,0,0-1.28,3.529v.883a5.517,5.517,0,0,0,5.515,5.515h39.708a5.52,5.52,0,0,0,5.515-5.515v-.883A5.523,5.523,0,0,0,793.564,587.853Z" transform="translate(-613.794 -508.688)" fill="#464646"/>
      <rect id="Rectangle_4386" data-name="Rectangle 4386" width="5.736" height="37.061" transform="translate(162.464 127.918) rotate(180)" fill="#464646"/>
      <path id="Path_37404" data-name="Path 37404" d="M761.617,690.891c0,.62,8.691.24,19.413.24s19.413.38,19.413-.24-8.692-5.534-19.413-5.534S761.617,690.271,761.617,690.891Z" transform="translate(-621.214 -563.173)" fill="#464646"/>
      <g id="note" transform="translate(124.481 11.485)">
        <path id="Path_37411" data-name="Path 37411" d="M736.252,465.1a73.9,73.9,0,0,1-10.622-19.824,1.9,1.9,0,0,1,.9-2.285l15.506-8.308a1.873,1.873,0,0,1,1.644-.067,1.906,1.906,0,0,1,1.086,1.272,45.145,45.145,0,0,0,9.9,18.482,1.9,1.9,0,0,1,.458,1.609,1.873,1.873,0,0,1-.966,1.332l-15.506,8.308A1.9,1.9,0,0,1,736.252,465.1Z" transform="translate(-725.528 -434.453)" fill="#ccc"/>
        <path id="Path_37412" data-name="Path 37412" d="M738.986,465.977a.573.573,0,0,0,.716.148l15.506-8.309a.55.55,0,0,0,.288-.4.582.582,0,0,0-.143-.5A46.476,46.476,0,0,1,745.157,437.9a.582.582,0,0,0-.335-.395.55.55,0,0,0-.49.02l-15.506,8.308a.573.573,0,0,0-.273.678,72.577,72.577,0,0,0,10.432,19.469Z" transform="translate(-727.202 -436.13)" fill="#fff"/>
        <path id="Path_37415" data-name="Path 37415" d="M751.929,458.029l-8.445,3.728a1.325,1.325,0,0,1-1.745-.676l-.209-.473a1.325,1.325,0,0,1,.676-1.745l8.445-3.728a1.325,1.325,0,0,1,1.745.676l.209.473A1.325,1.325,0,0,1,751.929,458.029Z" transform="translate(-734.406 -445.947)" fill="#ccc"/>
        <path id="Path_37416" data-name="Path 37416" d="M758.929,471.029l-8.445,3.728a1.325,1.325,0,0,1-1.745-.676l-.209-.473a1.325,1.325,0,0,1,.676-1.745l8.445-3.728a1.325,1.325,0,0,1,1.745.676l.209.473a1.325,1.325,0,0,1-.676,1.745Z" transform="translate(-738.318 -453.211)" fill="#ccc"/>
      </g>
      <g id="girl" transform="translate(125.952)">
        <path id="Path_37413" data-name="Path 37413" d="M847.087,485.942l-12.144,4.615-2.965-8.236a4.927,4.927,0,0,1,2.207-5.956h0a4.927,4.927,0,0,1,6.293,1.229Z" transform="translate(-786.32 -446.031)" fill="#ec5252"/>
        <path id="Path_37402" data-name="Path 37402" d="M755.614,453.2a4.855,4.855,0,0,1,6.57,3.051,4.666,4.666,0,0,1,.141.633L781.71,466.5l4.486-2.973,5.582,6.426-6.85,5.563a4.919,4.919,0,0,1-5.868.226l-19.668-13.6a4.628,4.628,0,0,1-.448.163,4.854,4.854,0,0,1-6.181-3.777,4.738,4.738,0,0,1-.072-.591A4.869,4.869,0,0,1,755.614,453.2Z" transform="translate(-742.173 -433.222)" fill="#ffd1a6"/>
        <path id="Path_37405" data-name="Path 37405" d="M509.243,470.224h-5.409L501.261,456.2h7.983Z" transform="translate(-489.613 -346.851)" fill="#ffd1a6"/>
        <path id="Path_37406" data-name="Path 37406" d="M754.39,691.06H736.949v-.22a6.788,6.788,0,0,1,6.789-6.789h10.652Z" transform="translate(-733.38 -562.444)" fill="#464646"/>
        <path id="Path_37407" data-name="Path 37407" d="M740.4,605.133l-10.783-24.181a8.862,8.862,0,0,1,3.891-11.376L756.9,557.034l10.673-.908,9.845-.895.071.12a9.965,9.965,0,0,1,.777,7.819c-1.085,3.041-3.908,5.416-8.391,7.06-10.463,3.836-22.549,7.115-27.26,8.346a1.522,1.522,0,0,0-.976.776,1.543,1.543,0,0,0-.087,1.235L751.568,603.1a1.985,1.985,0,0,1-1.681,2.66l-7.486.545q-.1.009-.19.009A1.984,1.984,0,0,1,740.4,605.133Z" transform="translate(-728.86 -490.459)" fill="#2660a4"/>
        <path id="Path_37408" data-name="Path 37408" d="M515.243,470.224h-5.409L507.261,456.2h7.983Z" transform="translate(-492.966 -346.851)" fill="#ffd1a6"/>
        <path id="Path_37409" data-name="Path 37409" d="M760.39,691.06H742.949v-.22a6.789,6.789,0,0,1,6.789-6.789h10.653Z" transform="translate(-736.734 -562.444)" fill="#464646"/>
        <path id="Path_37410" data-name="Path 37410" d="M747.4,608.133l-10.783-24.181a8.862,8.862,0,0,1,3.891-11.376L763.9,560.034l10.673-.908,9.845-.895.071.12a9.965,9.965,0,0,1,.777,7.819c-1.085,3.041-3.908,5.416-8.391,7.06-10.463,3.836-22.549,7.115-27.26,8.347a1.523,1.523,0,0,0-.976.776,1.544,1.544,0,0,0-.086,1.235L758.568,606.1a1.985,1.985,0,0,1-1.681,2.66l-7.486.545q-.1.009-.19.009A1.984,1.984,0,0,1,747.4,608.133Z" transform="translate(-732.773 -492.135)" fill="#2660a4"/>
        <path id="Path_37414" data-name="Path 37414" d="M794.55,518.311a2.2,2.2,0,0,1-.919-1.566c-1.555-14.52-.472-25.882,3.312-34.738a11.026,11.026,0,0,1,7.309-6.256l9.817-.5.051.025a11.473,11.473,0,0,1,6.273,12.172c-3.157,8.322-5.8,16.987-3.785,23.977a2.26,2.26,0,0,1-.213,1.757,2.155,2.155,0,0,1-1.375,1.019l-18.7,4.448a2.19,2.19,0,0,1-1.772-.343Z" transform="translate(-764.671 -445.768)" fill="#ec5252"/>
        <circle id="Ellipse_107" data-name="Ellipse 107" cx="10.836" cy="10.836" r="10.836" transform="translate(35.284 4.149)" fill="#ffd1a6"/>
        <path id="Path_37417" data-name="Path 37417" d="M755.025,494.842,736.2,479.989a4.633,4.633,0,0,1-.457.135,4.865,4.865,0,0,1-3.89-.746,4.815,4.815,0,0,1-2.041-3.412,4.854,4.854,0,0,1,9.545-1.677,4.649,4.649,0,0,1,.1.641L758.2,485.742l4.664-2.685,5.167,6.764-7.242,5.162a4.828,4.828,0,0,1-5.762-.14Z" transform="translate(-729.373 -443.137)" fill="#ffd1a6"/>
        <path id="Path_37418" data-name="Path 37418" d="M808.08,498.058l-10.742-7.305,5.048-7.15A4.927,4.927,0,0,1,808.531,482h0a4.927,4.927,0,0,1,2.6,5.86Z" transform="translate(-767.126 -449.268)" fill="#ec5252"/>
        <path id="Path_37419" data-name="Path 37419" d="M810.07,421.792c-2.785,1.906-6.442,3.866-9.287,1.836a5.176,5.176,0,0,1-1.7-5.967c1.362-3.9,5.1-5.61,8.683-6.924,4.652-1.709,9.718-3.068,14.521-1.845s9.047,5.874,8.18,10.753c-.7,3.924-4.4,7.189-3.873,11.14.529,3.976,5,6.069,8.948,6.78s8.365.939,11.2,3.775c3.619,3.617,2.715,10.083-.69,13.9s-8.545,5.55-13.524,6.727c-6.6,1.559-13.734,2.379-20-.209s-11.142-9.554-9.327-16.086c.767-2.759,2.573-5.091,4.319-7.361s3.513-4.644,4.179-7.429a7.724,7.724,0,0,0-1.4-6.757,1.958,1.958,0,0,1-.262-2.288Z" transform="translate(-767.922 -408.422)" fill="#464646"/>
      </g>
    </g>
  </g>
</svg>
