<svg id="live-line" xmlns="http://www.w3.org/2000/svg" width="17.652" height="17.652" viewBox="0 0 17.652 17.652">
  <g id="Group_15721" data-name="Group 15721">
    <path id="Path_40864" data-name="Path 40864" d="M0,0H17.652V17.652H0Z" fill="none"/>
    <path id="Path_40865" data-name="Path 40865" d="M12.033,4a.736.736,0,0,1,.736.736V7.825L16.6,5.14a.368.368,0,0,1,.579.3v8.885a.368.368,0,0,1-.579.3l-3.834-2.685v3.089a.736.736,0,0,1-.736.736H1.736A.736.736,0,0,1,1,15.033V4.736A.736.736,0,0,1,1.736,4ZM11.3,5.471H2.471V14.3H11.3ZM15.71,7.56,12.768,9.619v.528l2.942,2.059Z" transform="translate(-0.264 -1.058)" fill="#999"/>
    <path id="Path_40869" data-name="Path 40869" d="M5.707,7.552a.294.294,0,0,1,.158.046l3.2,2.039a.294.294,0,0,1,0,.5l-3.2,2.04a.294.294,0,0,1-.452-.25V7.847a.294.294,0,0,1,.294-.294Z" transform="translate(-0.378 -1.06)" fill="#999"/>
  </g>
</svg>
