<svg xmlns="http://www.w3.org/2000/svg" width="39.887" height="28.663" viewBox="0 0 39.887 28.663">
  <defs>
    <style>
      .cls-1 {
        fill: #fff;
      }
    </style>
  </defs>
  <g id="marketing" transform="translate(-70.754 -79.518)">
    <path id="Path_36634" data-name="Path 36634" class="cls-1" d="M101.667,85.732a10.46,10.46,0,0,0-10.343-.16,5.7,5.7,0,0,0-1-2.686c0-.04-.04-.04-.04-.08a13.387,13.387,0,0,1,13.51.8ZM98.3,96.716a2.749,2.749,0,0,0,.6-2.967l7.857-7.9,1.323.16,3.488-3.488-2.646-.361-.361-2.646-3.488,3.528.16,1.323-7.857,7.857a2.745,2.745,0,0,0-2.967,4.49,2.809,2.809,0,0,0,3.888,0Zm-1.6,5.973a7.716,7.716,0,0,0,5.251-2.325,7.986,7.986,0,0,0,1.563-9.06l-2.085,2.085a5.265,5.265,0,0,1-1.363,5.091A5.34,5.34,0,0,1,95.694,100a6.875,6.875,0,0,1,.762,1.644,4.4,4.4,0,0,1,.24,1.042Zm9.14,1.563a13.39,13.39,0,0,0,1.684-16.917L105.4,89.46a10.479,10.479,0,0,1-1.644,12.748,10.355,10.355,0,0,1-6.815,3.047c0,.641.04,1.283.04,2v.922a13.586,13.586,0,0,0,8.859-3.928ZM97.7,89.66l2.085-2.085A7.936,7.936,0,0,0,91.2,88.7a5.089,5.089,0,0,1,.24.721,5.483,5.483,0,0,1-.24,2.445,6.821,6.821,0,0,1-.842,2,2.372,2.372,0,0,1-.681.721,9.558,9.558,0,0,1-.6,1.483,28.155,28.155,0,0,0,2.646,1.283,5.289,5.289,0,0,1,5.973-7.7Zm-20.4,1.363c.4,1.4.762,1.764,1.042,1.8.321,2,1.4,4.57,4.851,4.851,3.408-.12,4.45-2.646,4.81-4.61.08.04.12.08.2.08.281,0,.641-.361,1.042-1.8.4-1.483.16-1.964-.2-2.085,1.162-5.652-1.523-5.813-1.523-5.813a3.814,3.814,0,0,0-1.483-1.363,4.852,4.852,0,0,0-2.526-.681,2.474,2.474,0,0,0-.521.04,5.32,5.32,0,0,0-1.2.24,5.17,5.17,0,0,0-1.323.681A7.251,7.251,0,0,0,79.1,83.487a5.576,5.576,0,0,0-1.483,2.606,4.765,4.765,0,0,0,.12,2.886h-.08c-.4-.08-.881.281-.36,2.044ZM91.926,99.6a26.247,26.247,0,0,1-4.57-2.2l-2.165,6.935-.281.922-1-2.766c2.245-3.167-.16-3.287-.6-3.287-.4,0-2.846.16-.6,3.287l-1,2.766-.281-.922-2.2-6.935a26.247,26.247,0,0,1-4.57,2.2c-3.087,1.162-2.926,3.728-2.966,8.579H94.972c-.08-4.851.121-7.416-3.046-8.579Z" transform="translate(-0.927)"/>
  </g>
</svg>
