<svg id="notes" xmlns="http://www.w3.org/2000/svg" width="221.165" height="177.839" viewBox="0 0 221.165 177.839">
  <ellipse id="Ellipse_121" data-name="Ellipse 121" cx="39.78" cy="4.219" rx="39.78" ry="4.219" transform="translate(0 169.4)" fill="#f1f1f1"/>
  <g id="Group_13671" data-name="Group 13671" transform="translate(1.824 34.977)">
    <g id="Group_13672" data-name="Group 13672" transform="translate(0 9.245)">
      <path id="Path_37654" data-name="Path 37654" d="M375.795,411.137l-54,11.382a6.021,6.021,0,0,1-7.125-4.644L305.4,373.914a6.021,6.021,0,0,1,4.644-7.125l54-11.382a6.021,6.021,0,0,1,7.125,4.644l9.266,43.961A6.02,6.02,0,0,1,375.795,411.137Zm-65.6-43.655a5.312,5.312,0,0,0-4.1,6.287l9.266,43.96a5.312,5.312,0,0,0,6.287,4.1l54-11.382a5.312,5.312,0,0,0,4.1-6.287L370.48,360.2a5.312,5.312,0,0,0-6.287-4.1Z" transform="translate(-305.276 -355.278)" fill="#999"/>
      <g id="Group_13675" data-name="Group 13675" transform="translate(12.205 12.711)" opacity="0.07">
        <path id="Path_411" data-name="Path 411" d="M410,393.123l-27.252,5.745a.966.966,0,0,1-1.142-.659.931.931,0,0,1,.707-1.151l27.742-5.848c1.083.611.741,1.746-.054,1.913Z" transform="translate(-366.788 -391.21)" fill="#ec5252"/>
        <path id="Path_412" data-name="Path 412" d="M412.848,406.636,385.6,412.38a.966.966,0,0,1-1.142-.659.931.931,0,0,1,.707-1.151l27.741-5.847c1.083.61.741,1.746-.054,1.913Z" transform="translate(-368.629 -399.942)" fill="#ec5252"/>
        <path id="Path_413" data-name="Path 413" d="M351.428,415.86l-8.317,1.753a1.048,1.048,0,0,1-1.24-.808L339.8,406.99a1.048,1.048,0,0,1,.808-1.24L348.927,404a1.048,1.048,0,0,1,1.24.808l2.069,9.815a1.048,1.048,0,0,1-.808,1.24Z" transform="translate(-339.779 -399.459)" fill="#ec5252"/>
        <path id="Path_414" data-name="Path 414" d="M392.26,434.351l-41.593,8.767a.966.966,0,0,1-1.142-.659.931.931,0,0,1,.707-1.151l42.082-8.87c1.083.61.741,1.746-.054,1.913Z" transform="translate(-346.057 -417.853)" fill="#ec5252"/>
        <path id="Path_416" data-name="Path 416" d="M397.956,461.377l-41.592,8.767a.966.966,0,0,1-1.142-.659.931.931,0,0,1,.707-1.151l42.082-8.87c1.083.61.741,1.746-.054,1.913Z" transform="translate(-349.738 -435.319)" fill="#ec5252"/>
        <path id="Path_417" data-name="Path 417" d="M400.8,474.893l-41.592,8.767A.966.966,0,0,1,358.07,483a.931.931,0,0,1,.707-1.151l42.082-8.87c1.083.61.741,1.746-.054,1.913Z" transform="translate(-351.579 -444.053)" fill="#ec5252"/>
        <path id="Path_418" data-name="Path 418" d="M403.652,488.4l-41.592,8.767a.966.966,0,0,1-1.142-.659.931.931,0,0,1,.707-1.151l42.082-8.87c1.083.61.741,1.746-.054,1.913Z" transform="translate(-353.419 -452.784)" fill="#ec5252"/>
      </g>
    </g>
    <g id="Group_13728" data-name="Group 13728" transform="translate(5.979 0)">
      <path id="Path_37655" data-name="Path 37655" d="M454.059,426.56a3.723,3.723,0,0,0-.242.534L436.79,431.32l-2.962-3.064-5.209,3.866,4.717,5.934a2.83,2.83,0,0,0,3.286.859l18.476-7.55a3.713,3.713,0,1,0-1.039-4.8Z" transform="translate(-390.966 -390.871)" fill="#ffd1a6"/>
      <path id="Path_37656" data-name="Path 37656" d="M327.153,464.375A3.8,3.8,0,0,0,329.409,459l11.718-32.569-8.138-1.442-8.959,32.468a3.821,3.821,0,0,0,3.123,6.916Z" transform="translate(-322.181 -391.084)" fill="#ffd1a6"/>
      <path id="Path_37657" data-name="Path 37657" d="M354.858,416.164l-8.035-3.084a1.7,1.7,0,0,1-.874-2.428l4.215-7.473a4.732,4.732,0,1,1,8.826,3.417l-1.859,8.348a1.7,1.7,0,0,1-2.274,1.22Z" transform="translate(-337.399 -375.034)" fill="#ec5252"/>
      <path id="Path_37658" data-name="Path 37658" d="M191.492,500.615h4.337l2.063-16.728h-6.4Z" transform="translate(-155.897 -366.177)" fill="#ffd1a6"/>
      <path id="Path_37659" data-name="Path 37659" d="M419.671,705.172h8.541a5.443,5.443,0,0,1,5.443,5.443v.177H419.671Z" transform="translate(-385.183 -572.15)" fill="#131313"/>
      <path id="Path_37660" data-name="Path 37660" d="M122.492,500.615h4.337l2.063-16.728h-6.4Z" transform="translate(-111.306 -366.177)" fill="#ffd1a6"/>
      <path id="Path_37661" data-name="Path 37661" d="M350.671,705.172h8.541a5.443,5.443,0,0,1,5.443,5.443v.177H350.671Z" transform="translate(-340.592 -572.15)" fill="#131313"/>
      <path id="Path_37662" data-name="Path 37662" d="M353.716,583.5h-5.488a1.592,1.592,0,0,1-1.59-1.668l2.607-56.01.164,0,26.5-.691,5.186,56.043a1.592,1.592,0,0,1-1.458,1.737l-6.165.493a1.593,1.593,0,0,1-1.686-1.267L363.9,542.241a.514.514,0,0,0-.52-.424h0a.514.514,0,0,0-.519.428l-7.585,39.974A1.6,1.6,0,0,1,353.716,583.5Z" transform="translate(-337.984 -455.799)" fill="#131313"/>
      <circle id="Ellipse_133" data-name="Ellipse 133" cx="8.689" cy="8.689" r="8.689" transform="translate(17.097 2.696)" fill="#ffd1a6"/>
      <path id="Path_37663" data-name="Path 37663" d="M364.091,447.451a17.142,17.142,0,0,1-11.921-4.307,1.61,1.61,0,0,1-.52-1.362c.377-3.391,2.208-20.9,1.177-32.6a14.157,14.157,0,0,1,4.583-11.782,14.008,14.008,0,0,1,12.014-3.479h0l.325.06a14.074,14.074,0,0,1,11.242,14.975c-.8,10.492-1.513,24.685-.39,32.711a1.589,1.589,0,0,1-.854,1.64C377.192,444.6,370.789,447.451,364.091,447.451Z" transform="translate(-341.218 -370.861)" fill="#ec5252"/>
      <path id="Path_37664" data-name="Path 37664" d="M415.262,418.481a1.7,1.7,0,0,1-.746-1.207l-1.059-8.486a4.732,4.732,0,0,1,9.111-2.564l3.487,7.84a1.7,1.7,0,0,1-1.1,2.334l-8.291,2.307A1.7,1.7,0,0,1,415.262,418.481Z" transform="translate(-381.052 -376.727)" fill="#ec5252"/>
      <path id="Path_37665" data-name="Path 37665" d="M371.115,349.093a6.225,6.225,0,0,1-2.4-.435c-.337-.13-.686-.236-1.022-.366a8.289,8.289,0,0,1-4.991-7.486,10.78,10.78,0,0,1,4.022-8.3,15.564,15.564,0,0,1,8.784-3.32c3.416-.26,7.263.606,9.171,3.451a3,3,0,0,1,.562,2.59,1.658,1.658,0,0,1-.467.717c-.852.758-1.7.188-2.571.138a2.843,2.843,0,0,0-2.653,2.03,6.118,6.118,0,0,0,.1,3.535,8.826,8.826,0,0,1,.445,2.149,2.161,2.161,0,0,1-.9,1.9,2.466,2.466,0,0,1-2.473-.26,17.18,17.18,0,0,0-2.2-1.408,1.944,1.944,0,0,0-2.36.477,2.611,2.611,0,0,0-.3.861c-.421,1.918-.324,1.8-.745,3.723Z" transform="translate(-348.362 -329.143)" fill="#131313"/>
    </g>
  </g>
  <g id="Group_13669" data-name="Group 13669" transform="translate(82.295)">
    <path id="Path_37666" data-name="Path 37666" d="M614.894,247.954H559.709a6.021,6.021,0,0,1-6.014-6.014V197.014A6.021,6.021,0,0,1,559.709,191h55.185a6.021,6.021,0,0,1,6.014,6.014V241.94A6.021,6.021,0,0,1,614.894,247.954Zm-55.185-56.247a5.312,5.312,0,0,0-5.306,5.306V241.94a5.312,5.312,0,0,0,5.306,5.306h55.185a5.312,5.312,0,0,0,5.306-5.306V197.014a5.312,5.312,0,0,0-5.306-5.306Z" transform="translate(-553.695 -186.401)" fill="#999"/>
    <path id="Path_413-2" data-name="Path 413" d="M595.772,228.662h-8.5a1.048,1.048,0,0,1-1.047-1.047V217.585a1.048,1.048,0,0,1,1.047-1.047h8.5a1.048,1.048,0,0,1,1.047,1.047v10.031a1.048,1.048,0,0,1-1.047,1.047Z" transform="translate(-574.718 -202.905)" fill="#ccc"/>
    <g id="Group_13673" data-name="Group 13673" transform="translate(11.356 16.229)" opacity="0.08">
      <path id="Path_411-2" data-name="Path 411" d="M656.287,225.738H628.436a.966.966,0,0,1-.982-.88.931.931,0,0,1,.929-.981h28.351c.934.821.365,1.861-.447,1.861Z" transform="translate(-612.717 -223.877)" fill="#ec5252"/>
      <path id="Path_412-2" data-name="Path 412" d="M656.287,239.548H628.436a.966.966,0,0,1-.982-.88.93.93,0,0,1,.929-.981h28.351c.934.821.365,1.861-.447,1.861Z" transform="translate(-612.717 -232.802)" fill="#ec5252"/>
      <path id="Path_414-2" data-name="Path 414" d="M629.286,267.824H586.78a.966.966,0,0,1-.982-.88.93.93,0,0,1,.929-.981h43.006c.934.821.365,1.861-.447,1.861Z" transform="translate(-585.797 -251.075)" fill="#ec5252"/>
      <path id="Path_415" data-name="Path 415" d="M629.286,281.638H586.78a.966.966,0,0,1-.982-.88.93.93,0,0,1,.929-.981h43.006c.934.821.365,1.861-.447,1.861Z" transform="translate(-585.797 -260.002)" fill="#ec5252"/>
      <path id="Path_416-2" data-name="Path 416" d="M629.286,295.443H586.78a.966.966,0,0,1-.982-.88.931.931,0,0,1,.929-.981h43.006c.934.821.365,1.861-.447,1.861Z" transform="translate(-585.797 -268.923)" fill="#ec5252"/>
      <path id="Path_417-2" data-name="Path 417" d="M629.286,309.256H586.78a.966.966,0,0,1-.982-.88.931.931,0,0,1,.929-.981h43.006c.934.821.365,1.861-.447,1.861Z" transform="translate(-585.797 -277.85)" fill="#ec5252"/>
      <path id="Path_418-2" data-name="Path 418" d="M629.286,323.062H586.78a.966.966,0,0,1-.982-.881.931.931,0,0,1,.929-.981h43.006c.934.821.365,1.861-.447,1.861Z" transform="translate(-585.797 -286.772)" fill="#ec5252"/>
    </g>
    <path id="Path_37667" data-name="Path 37667" d="M632.594,178a1.771,1.771,0,0,1,1.769,1.769v5.66a1.771,1.771,0,0,1-1.769,1.769h-31.13a1.771,1.771,0,0,1-1.769-1.769v-5.66A1.771,1.771,0,0,1,601.464,178" transform="translate(-583.423 -178)" fill="#ec5252"/>
  </g>
  <g id="Group_13670" data-name="Group 13670" transform="translate(153.952 61.554)">
    <path id="Path_37668" data-name="Path 37668" d="M839.894,404.954H784.709a6.021,6.021,0,0,1-6.014-6.014V354.014A6.021,6.021,0,0,1,784.709,348h55.185a6.021,6.021,0,0,1,6.014,6.014V398.94A6.021,6.021,0,0,1,839.894,404.954Zm-55.185-56.247a5.312,5.312,0,0,0-5.306,5.306V398.94a5.312,5.312,0,0,0,5.306,5.306h55.185a5.312,5.312,0,0,0,5.306-5.306V354.014a5.312,5.312,0,0,0-5.306-5.306Z" transform="translate(-778.695 -343.401)" fill="#999"/>
    <path id="Path_411-3" data-name="Path 411" d="M881.287,382.738H853.436a.966.966,0,0,1-.982-.881.931.931,0,0,1,.929-.981h28.351c.934.821.365,1.861-.447,1.861Z" transform="translate(-826.36 -364.648)" fill="#999"/>
    <path id="Path_412-3" data-name="Path 412" d="M881.287,396.548H853.436a.966.966,0,0,1-.982-.88.931.931,0,0,1,.929-.981h28.351c.934.821.365,1.861-.447,1.861Z" transform="translate(-826.36 -373.573)" fill="#999"/>
    <path id="Path_413-3" data-name="Path 413" d="M915.772,470.417h-8.5a1.048,1.048,0,0,1-1.047-1.047v-5.786a1.048,1.048,0,0,1,1.047-1.047h8.5a1.048,1.048,0,0,1,1.047,1.047v5.786A1.048,1.048,0,0,1,915.772,470.417Z" transform="translate(-861.111 -417.421)" fill="#ccc"/>
    <g id="Group_13674" data-name="Group 13674" transform="translate(11.356 13.633)" opacity="0.08">
      <path id="Path_413-4" data-name="Path 413" d="M820.772,385.662h-8.5a1.048,1.048,0,0,1-1.047-1.047V374.585a1.048,1.048,0,0,1,1.047-1.047h8.5a1.048,1.048,0,0,1,1.047,1.047v10.031a1.048,1.048,0,0,1-1.047,1.047Z" transform="translate(-811.073 -373.538)" fill="#ec5252"/>
      <path id="Path_414-3" data-name="Path 414" d="M854.286,424.824H811.78a.966.966,0,0,1-.982-.88.931.931,0,0,1,.929-.981h43.006c.934.821.365,1.861-.447,1.861Z" transform="translate(-810.796 -405.479)" fill="#ec5252"/>
      <path id="Path_415-2" data-name="Path 415" d="M854.286,438.638H811.78a.966.966,0,0,1-.982-.881.93.93,0,0,1,.929-.98h43.006c.934.821.365,1.861-.447,1.861Z" transform="translate(-810.796 -414.406)" fill="#ec5252"/>
      <path id="Path_416-3" data-name="Path 416" d="M854.286,452.443H811.78a.966.966,0,0,1-.982-.88.931.931,0,0,1,.929-.981h43.006c.934.821.365,1.861-.447,1.861Z" transform="translate(-810.797 -423.328)" fill="#ec5252"/>
      <path id="Path_417-3" data-name="Path 417" d="M832,466.256H811.78a.966.966,0,0,1-.982-.88.931.931,0,0,1,.929-.981h20.72c.934.821.365,1.861-.447,1.861Z" transform="translate(-810.797 -432.255)" fill="#ec5252"/>
      <path id="Path_418-3" data-name="Path 418" d="M832,480.062H811.78a.966.966,0,0,1-.982-.881.931.931,0,0,1,.929-.981h20.72c.934.821.365,1.861-.447,1.861Z" transform="translate(-810.797 -441.176)" fill="#ec5252"/>
    </g>
    <path id="Path_37669" data-name="Path 37669" d="M857.594,344.2h-31.13a1.771,1.771,0,0,1-1.769-1.769v-5.66A1.771,1.771,0,0,1,826.464,335h31.13a1.771,1.771,0,0,1,1.769,1.769v5.66a1.771,1.771,0,0,1-1.769,1.769Z" transform="translate(-808.422 -335)" fill="#ec5252"/>
  </g>
  <g id="Group_13677" data-name="Group 13677" transform="translate(8.128 3.049)" opacity="0.08">
    <circle id="Ellipse_134" data-name="Ellipse 134" cx="2.288" cy="2.288" r="2.288" transform="translate(0 0)" fill="#ec5252"/>
    <circle id="Ellipse_135" data-name="Ellipse 135" cx="2.288" cy="2.288" r="2.288" transform="translate(0 9.118)" fill="#ec5252"/>
    <circle id="Ellipse_136" data-name="Ellipse 136" cx="2.288" cy="2.288" r="2.288" transform="translate(0 18.235)" fill="#ec5252"/>
    <circle id="Ellipse_137" data-name="Ellipse 137" cx="2.288" cy="2.288" r="2.288" transform="translate(0 27.352)" fill="#ec5252"/>
    <circle id="Ellipse_138" data-name="Ellipse 138" cx="2.288" cy="2.288" r="2.288" transform="translate(9.552 0)" fill="#ec5252"/>
    <circle id="Ellipse_139" data-name="Ellipse 139" cx="2.288" cy="2.288" r="2.288" transform="translate(9.552 9.118)" fill="#ec5252"/>
    <circle id="Ellipse_140" data-name="Ellipse 140" cx="2.288" cy="2.288" r="2.288" transform="translate(9.552 18.235)" fill="#ec5252"/>
    <circle id="Ellipse_141" data-name="Ellipse 141" cx="2.288" cy="2.288" r="2.288" transform="translate(9.552 27.352)" fill="#ec5252"/>
    <circle id="Ellipse_142" data-name="Ellipse 142" cx="2.288" cy="2.288" r="2.288" transform="translate(19.102 0)" fill="#ec5252"/>
    <circle id="Ellipse_143" data-name="Ellipse 143" cx="2.288" cy="2.288" r="2.288" transform="translate(19.102 9.118)" fill="#ec5252"/>
    <circle id="Ellipse_144" data-name="Ellipse 144" cx="2.288" cy="2.288" r="2.288" transform="translate(19.102 18.235)" fill="#ec5252"/>
    <circle id="Ellipse_145" data-name="Ellipse 145" cx="2.288" cy="2.288" r="2.288" transform="translate(19.102 27.352)" fill="#ec5252"/>
    <circle id="Ellipse_146" data-name="Ellipse 146" cx="2.288" cy="2.288" r="2.288" transform="translate(28.654 0)" fill="#ec5252"/>
    <circle id="Ellipse_147" data-name="Ellipse 147" cx="2.288" cy="2.288" r="2.288" transform="translate(28.654 9.118)" fill="#ec5252"/>
    <circle id="Ellipse_148" data-name="Ellipse 148" cx="2.288" cy="2.288" r="2.288" transform="translate(28.654 18.235)" fill="#ec5252"/>
    <circle id="Ellipse_149" data-name="Ellipse 149" cx="2.288" cy="2.288" r="2.288" transform="translate(28.654 27.352)" fill="#ec5252"/>
    <circle id="Ellipse_150" data-name="Ellipse 150" cx="2.288" cy="2.288" r="2.288" transform="translate(38.206 0)" fill="#ec5252"/>
    <circle id="Ellipse_151" data-name="Ellipse 151" cx="2.288" cy="2.288" r="2.288" transform="translate(38.206 9.118)" fill="#ec5252"/>
    <circle id="Ellipse_152" data-name="Ellipse 152" cx="2.288" cy="2.288" r="2.288" transform="translate(38.206 18.235)" fill="#ec5252"/>
    <circle id="Ellipse_153" data-name="Ellipse 153" cx="2.288" cy="2.288" r="2.288" transform="translate(38.206 27.352)" fill="#ec5252"/>
    <circle id="Ellipse_154" data-name="Ellipse 154" cx="2.288" cy="2.288" r="2.288" transform="translate(47.756 0)" fill="#ec5252"/>
    <circle id="Ellipse_155" data-name="Ellipse 155" cx="2.288" cy="2.288" r="2.288" transform="translate(47.756 9.118)" fill="#ec5252"/>
    <circle id="Ellipse_156" data-name="Ellipse 156" cx="2.288" cy="2.288" r="2.288" transform="translate(47.756 18.235)" fill="#ec5252"/>
    <circle id="Ellipse_157" data-name="Ellipse 157" cx="2.288" cy="2.288" r="2.288" transform="translate(47.756 27.352)" fill="#ec5252"/>
  </g>
  <g id="Group_13676" data-name="Group 13676" transform="translate(186.772 129.692)" opacity="0.08">
    <circle id="Ellipse_158" data-name="Ellipse 158" cx="2.288" cy="2.288" r="2.288" fill="#ec5252"/>
    <circle id="Ellipse_159" data-name="Ellipse 159" cx="2.288" cy="2.288" r="2.288" transform="translate(0 9.118)" fill="#ec5252"/>
    <circle id="Ellipse_160" data-name="Ellipse 160" cx="2.288" cy="2.288" r="2.288" transform="translate(0 18.235)" fill="#ec5252"/>
    <circle id="Ellipse_161" data-name="Ellipse 161" cx="2.288" cy="2.288" r="2.288" transform="translate(9.552)" fill="#ec5252"/>
    <circle id="Ellipse_162" data-name="Ellipse 162" cx="2.288" cy="2.288" r="2.288" transform="translate(9.552 9.118)" fill="#ec5252"/>
    <circle id="Ellipse_163" data-name="Ellipse 163" cx="2.288" cy="2.288" r="2.288" transform="translate(9.552 18.235)" fill="#ec5252"/>
    <circle id="Ellipse_164" data-name="Ellipse 164" cx="2.288" cy="2.288" r="2.288" transform="translate(19.103)" fill="#ec5252"/>
    <circle id="Ellipse_165" data-name="Ellipse 165" cx="2.288" cy="2.288" r="2.288" transform="translate(19.103 9.118)" fill="#ec5252"/>
    <circle id="Ellipse_166" data-name="Ellipse 166" cx="2.288" cy="2.288" r="2.288" transform="translate(19.103 18.235)" fill="#ec5252"/>
    <circle id="Ellipse_167" data-name="Ellipse 167" cx="2.288" cy="2.288" r="2.288" transform="translate(28.654)" fill="#ec5252"/>
    <circle id="Ellipse_168" data-name="Ellipse 168" cx="2.288" cy="2.288" r="2.288" transform="translate(28.654 9.118)" fill="#ec5252"/>
    <circle id="Ellipse_169" data-name="Ellipse 169" cx="2.288" cy="2.288" r="2.288" transform="translate(28.654 18.235)" fill="#ec5252"/>
  </g>
</svg>
