<svg xmlns="http://www.w3.org/2000/svg" width="19.312" height="19.312" viewBox="0 0 19.312 19.312">
  <path id="noun-time-management-3484882" d="M88.559,17.5A1.06,1.06,0,0,0,87.5,18.56V30.6a.322.322,0,0,0,.091.226l3.863,3.956a.322.322,0,0,0,.231.1h6.436a4.828,4.828,0,1,0,2.255-7.449V18.56A1.062,1.062,0,0,0,99.31,17.5Zm0,.644H99.31a.415.415,0,0,1,.418.416v9.154a4.81,4.81,0,0,0-1.612,1.375c-1.61,0-3.215,0-4.826,0a.322.322,0,1,0,0,.644h4.421a4.829,4.829,0,0,0,0,4.505H92V30.7a.322.322,0,0,0-.321-.321h-3.54V18.56a.412.412,0,0,1,.418-.416Zm.869.964a.322.322,0,0,0-.323.323v2.252a.322.322,0,0,0,.323.321h2.252a.322.322,0,0,0,.32-.321v-.321a.322.322,0,1,0-.641,0H89.749V19.752h.644a.322.322,0,1,0,0-.644Zm2.076.411-.784.748-.1-.1a.322.322,0,0,0-.456.456l.323.321a.322.322,0,0,0,.449.007l1.012-.967a.322.322,0,1,0-.444-.466Zm1.785.555a.322.322,0,1,0,0,.644h3.54a.322.322,0,1,0,0-.644Zm0,1.287a.322.322,0,1,0,0,.644h5.151a.322.322,0,1,0,0-.644Zm-3.861,1.61a.322.322,0,0,0-.323.321v2.255a.322.322,0,0,0,.323.321h2.252a.322.322,0,0,0,.321-.32v-.324a.322.322,0,1,0-.641,0H89.749V23.616h.644a.322.322,0,1,0,0-.644Zm2.076.411-.784.749-.1-.1a.323.323,0,0,0-.456.456l.323.321a.322.322,0,0,0,.449.005l1.012-.965a.322.322,0,1,0-.444-.466Zm1.785.554a.322.322,0,1,0,0,.644h3.54a.322.322,0,1,0,0-.644Zm0,1.287a.322.322,0,1,0,0,.644h5.151a.322.322,0,1,0,0-.644Zm-3.861,1.609a.322.322,0,0,0-.323.323v2.252a.322.322,0,0,0,.323.323h2.252A.322.322,0,0,0,92,29.408v-.321a.322.322,0,1,0-.641,0H89.749V27.476h.644a.322.322,0,0,0,0-.644Zm1.292,1.16-.1-.1a.322.322,0,1,0-.456.454l.323.323a.322.322,0,0,0,.449,0l1.012-.967a.316.316,0,0,0,0-.463.32.32,0,0,0-.446,0ZM93.29,27.8a.322.322,0,1,0,0,.644h3.54a.322.322,0,1,0,0-.644Zm8.691,0A4.184,4.184,0,1,1,97.8,31.984,4.184,4.184,0,0,1,101.981,27.8Zm-.323.964v3.219a.322.322,0,0,0,.323.321h1.932a.322.322,0,0,0,0-.644H102.3v-2.9a.322.322,0,0,0-.644,0ZM88.677,31.019h2.684v2.75Z" transform="translate(-87.497 -17.5)" fill="#fff"/>
</svg>
