<svg id="plan" xmlns="http://www.w3.org/2000/svg" width="229.003" height="202.679" viewBox="0 0 229.003 202.679">
  <ellipse id="Ellipse_273" data-name="Ellipse 273" cx="114.501" cy="4.93" rx="114.501" ry="4.93" transform="translate(0 192.818)" fill="#f1f1f1"/>
  <g id="Time_management-cuate" data-name="Time management-cuate" transform="translate(97.484)">
    <g id="freepik--Clock--inject-5" transform="translate(0 0)">
      <circle id="Ellipse_277" data-name="Ellipse 277" cx="39.736" cy="39.736" r="39.736" transform="translate(0 56.196) rotate(-45)" fill="#ffb8b8"/>
      <circle id="Ellipse_278" data-name="Ellipse 278" cx="37.917" cy="37.917" r="37.917" transform="translate(17.794 17.626)" fill="#ec5252"/>
      <circle id="Ellipse_279" data-name="Ellipse 279" cx="35.522" cy="35.522" r="35.522" transform="translate(5.958 56.027) rotate(-45)" fill="#fff"/>
      <rect id="Rectangle_4719" data-name="Rectangle 4719" width="0.685" height="5.385" transform="translate(55.851 23.082)" fill="#c7c7c7"/>
      <rect id="Rectangle_4720" data-name="Rectangle 4720" width="0.688" height="5.385" transform="translate(39.426 27.664) rotate(-30)" fill="#c7c7c7"/>
      <rect id="Rectangle_4721" data-name="Rectangle 4721" width="0.685" height="5.385" transform="translate(27.492 39.846) rotate(-60)" fill="#c7c7c7"/>
      <rect id="Rectangle_4722" data-name="Rectangle 4722" width="5.385" height="0.685" transform="translate(23.251 55.682)" fill="#c7c7c7"/>
      <rect id="Rectangle_4723" data-name="Rectangle 4723" width="5.385" height="0.685" transform="translate(27.488 72.203) rotate(-30)" fill="#c7c7c7"/>
      <rect id="Rectangle_4724" data-name="Rectangle 4724" width="5.385" height="0.688" transform="translate(39.427 84.391) rotate(-60.03)" fill="#c7c7c7"/>
      <rect id="Rectangle_4725" data-name="Rectangle 4725" width="0.685" height="5.385" transform="translate(55.851 83.585)" fill="#c7c7c7"/>
      <rect id="Rectangle_4726" data-name="Rectangle 4726" width="0.688" height="5.385" transform="translate(69.678 80.064) rotate(-30)" fill="#c7c7c7"/>
      <rect id="Rectangle_4727" data-name="Rectangle 4727" width="0.685" height="5.385" transform="translate(79.889 70.097) rotate(-60)" fill="#c7c7c7"/>
      <rect id="Rectangle_4728" data-name="Rectangle 4728" width="5.385" height="0.685" transform="translate(83.753 55.682)" fill="#c7c7c7"/>
      <rect id="Rectangle_4729" data-name="Rectangle 4729" width="5.385" height="0.685" transform="translate(79.89 41.956) rotate(-30)" fill="#c7c7c7"/>
      <rect id="Rectangle_4730" data-name="Rectangle 4730" width="5.385" height="0.688" transform="translate(69.681 31.992) rotate(-60.03)" fill="#c7c7c7"/>
      <path id="Path_39023" data-name="Path 39023" d="M276.8,253.287l-34.454.962.042-3.368,34.421,1.491Z" transform="translate(-187.933 -196.803)" fill="#ec5252"/>
      <path id="Path_39024" data-name="Path 39024" d="M244.809,154.942,246.3,181.16l-3.371-.044.966-26.186Z" transform="translate(-188.378 -123.143)" fill="#263238"/>
      <circle id="Ellipse_280" data-name="Ellipse 280" cx="1.15" cy="1.15" r="1.15" transform="translate(55.045 54.876)" fill="#ec5252"/>
    </g>
  </g>
  <g id="freepik--Character--inject-53" transform="translate(30.375 76.506)">
    <path id="Path_40558" data-name="Path 40558" d="M611.78,131.03,622.3,244.184H611.78Z" transform="translate(-459.446 -123.147)" fill="#e1e1e1"/>
    <rect id="Rectangle_4756" data-name="Rectangle 4756" width="151.496" height="113.154" transform="translate(0.83 8.091)" fill="#fafafa"/>
    <rect id="Rectangle_4757" data-name="Rectangle 4757" width="151.496" height="27.85" transform="translate(0.837 7.883)" fill="#ec5252"/>
    <path id="Path_40559" data-name="Path 40559" d="M166.478,130.842l151.5-.082h.075V244.084h-.088l-151.5-.017h-.075V244c.044-68.514.075-112.555.075-113.154,0,.6.027,44.639.071,113.154l-.071-.071,151.5-.017-.089.089h0V130.855l.082.078Z" transform="translate(-165.641 -122.969)" fill="none"/>
    <path id="Path_40560" data-name="Path 40560" d="M316.663,211.418c0,.051-34.133.089-76.237.089s-76.237-.037-76.237-.089,34.126-.088,76.237-.088S316.663,211.371,316.663,211.418Z" transform="translate(-164.19 -176.118)" fill="#263238"/>
    <rect id="Rectangle_4758" data-name="Rectangle 4758" width="95.218" height="16.265" rx="8.132" transform="translate(45.02 71.118)" fill="#ec5252"/>
    <rect id="Rectangle_4759" data-name="Rectangle 4759" width="37.822" height="16.265" rx="8.132" transform="translate(7.198 88.449)" fill="#ec5252"/>
    <circle id="Ellipse_287" data-name="Ellipse 287" cx="3.094" cy="3.094" r="3.094" transform="translate(21.904 9.816)" fill="#fff"/>
    <circle id="Ellipse_288" data-name="Ellipse 288" cx="3.094" cy="3.094" r="3.094" transform="translate(47.41 9.816)" fill="#fff"/>
    <circle id="Ellipse_289" data-name="Ellipse 289" cx="3.094" cy="3.094" r="3.094" transform="translate(72.915 9.816)" fill="#fff"/>
    <circle id="Ellipse_290" data-name="Ellipse 290" cx="3.094" cy="3.094" r="3.094" transform="translate(98.424 9.816)" fill="#fff"/>
    <path id="Path_40564" data-name="Path 40564" d="M456.137,142.738a3.264,3.264,0,1,1,3.26-3.264A3.264,3.264,0,0,1,456.137,142.738Zm0-6.184a2.924,2.924,0,1,0,2.92,2.92A2.924,2.924,0,0,0,456.137,136.554Z" transform="translate(-354.62 -126.564)" fill="none"/>
    <circle id="Ellipse_291" data-name="Ellipse 291" cx="3.094" cy="3.094" r="3.094" transform="translate(123.929 9.816)" fill="#fff"/>
    <path id="Path_40565" data-name="Path 40565" d="M531.084,142.738a3.264,3.264,0,1,1,3.264-3.264,3.264,3.264,0,0,1-3.264,3.264Zm0-6.184a2.924,2.924,0,1,0,2.924,2.92A2.924,2.924,0,0,0,531.084,136.554Z" transform="translate(-404.061 -126.564)" fill="none"/>
    <path id="Path_40583" data-name="Path 40583" d="M204.49,229.3v6.153h-.871v-5.388H202.23V229.3Z" transform="translate(-189.283 -187.972)" fill="#263238"/>
    <path id="Path_40584" data-name="Path 40584" d="M263.225,234.568v.766H258.8v-.6l2.5-2.42c.654-.633.776-1.021.776-1.406,0-.633-.449-1.021-1.31-1.021a1.943,1.943,0,0,0-1.576.681l-.6-.517a2.839,2.839,0,0,1,2.25-.933c1.283,0,2.11.66,2.11,1.7a2.479,2.479,0,0,1-1.021,1.933l-1.882,1.811Z" transform="translate(-226.468 -187.853)" fill="#263238"/>
    <path id="Path_40585" data-name="Path 40585" d="M317.878,233.643c0,1.038-.766,1.882-2.328,1.882a3.482,3.482,0,0,1-2.26-.749l.4-.681a2.774,2.774,0,0,0,1.858.66c.922,0,1.45-.422,1.45-1.089s-.466-1.076-1.521-1.076h-.493v-.613l1.549-1.9h-2.964V229.3h4.064v.6l-1.61,1.984C317.255,232,317.878,232.693,317.878,233.643Z" transform="translate(-262.545 -187.972)" fill="#263238"/>
    <path id="Path_40586" data-name="Path 40586" d="M377,233.942h-1.171v1.511h-.851v-1.511H371.56v-.616l3.148-4.026h.95l-3.015,3.887h2.365v-1.338h.824v1.338H377Z" transform="translate(-300.983 -187.972)" fill="#263238"/>
    <path id="Path_40587" data-name="Path 40587" d="M431.271,233.675c0,1.062-.756,1.916-2.331,1.916a3.522,3.522,0,0,1-2.26-.749l.4-.681a2.76,2.76,0,0,0,1.848.66c.929,0,1.457-.432,1.457-1.1s-.439-1.127-1.862-1.127h-1.4l.34-3.216h3.472v.766h-2.723l-.17,1.7h.681C430.55,231.807,431.271,232.569,431.271,233.675Z" transform="translate(-337.344 -188.025)" fill="#263238"/>
    <path id="Path_40588" data-name="Path 40588" d="M488.365,233.453a1.992,1.992,0,0,1-2.182,1.943c-1.651,0-2.583-1.109-2.583-3.063,0-2.1,1.188-3.226,2.91-3.226a2.971,2.971,0,0,1,1.528.361l-.34.681a2.134,2.134,0,0,0-1.177-.293c-1.249,0-2.042.783-2.042,2.321a1.652,1.652,0,0,0,0,.221,2.042,2.042,0,0,1,1.766-.81A1.9,1.9,0,0,1,488.365,233.453Zm-.854.034c0-.721-.545-1.184-1.406-1.184a1.257,1.257,0,0,0-1.416,1.191c0,.681.511,1.188,1.46,1.188a1.212,1.212,0,0,0,1.361-1.188Z" transform="translate(-374.891 -187.843)" fill="#263238"/>
    <path id="Path_40589" data-name="Path 40589" d="M543.642,229.3v.6l-2.488,5.554h-.932l2.433-5.388h-2.811v1.1H539V229.3Z" transform="translate(-411.436 -187.972)" fill="#263238"/>
    <path id="Path_40590" data-name="Path 40590" d="M208.05,281.312c0,1.116-.95,1.811-2.454,1.811s-2.437-.681-2.437-1.811a1.528,1.528,0,0,1,1.082-1.487,1.388,1.388,0,0,1-.861-1.327c0-1.021.888-1.668,2.216-1.668s2.233.64,2.233,1.668a1.392,1.392,0,0,1-.871,1.327A1.532,1.532,0,0,1,208.05,281.312Zm-.882-.027c0-.681-.6-1.1-1.572-1.1s-1.555.422-1.555,1.1.579,1.127,1.555,1.127,1.572-.446,1.572-1.14Zm-2.917-2.75c0,.606.5.984,1.344.984s1.361-.378,1.361-.984-.545-.994-1.361-.994-1.344.368-1.344.98Z" transform="translate(-189.896 -219.325)" fill="#263238"/>
    <path id="Path_40591" data-name="Path 40591" d="M263.738,279.863c0,2.1-1.188,3.226-2.913,3.226a2.937,2.937,0,0,1-1.528-.361l.34-.681a2.168,2.168,0,0,0,1.188.289c1.249,0,2.042-.783,2.042-2.321V279.8a2.042,2.042,0,0,1-1.777.81,1.892,1.892,0,0,1-2.1-1.865,2.01,2.01,0,0,1,2.171-1.94C262.805,276.8,263.738,277.889,263.738,279.863Zm-1.082-1.167c0-.633-.511-1.188-1.47-1.188a1.217,1.217,0,0,0-1.361,1.195c0,.728.534,1.188,1.4,1.188A1.282,1.282,0,0,0,262.655,278.7Z" transform="translate(-226.726 -219.306)" fill="#263238"/>
    <path id="Path_40592" data-name="Path 40592" d="M315.62,277v6.157h-.868v-5.394H313.36V277Z" transform="translate(-262.591 -219.438)" fill="#263238"/>
    <path id="Path_40593" data-name="Path 40593" d="M324,279.9c0-2,1.072-3.145,2.512-3.145s2.508,1.14,2.508,3.145-1.075,3.148-2.508,3.148S324,281.92,324,279.9Zm4.139,0c0-1.572-.681-2.365-1.627-2.365s-1.634.793-1.634,2.365.681,2.382,1.634,2.382,1.613-.8,1.613-2.382Z" transform="translate(-269.61 -219.279)" fill="#263238"/>
    <path id="Path_40594" data-name="Path 40594" d="M373.04,277v6.157h-.868v-5.394H370.78V277Z" transform="translate(-300.469 -219.438)" fill="#263238"/>
    <path id="Path_40595" data-name="Path 40595" d="M382.62,277v6.157h-.871v-5.394H380.36V277Z" transform="translate(-306.788 -219.438)" fill="#263238"/>
    <path id="Path_40596" data-name="Path 40596" d="M428.71,277v6.157h-.871v-5.394H426.45V277Z" transform="translate(-337.192 -219.438)" fill="#263238"/>
    <path id="Path_40597" data-name="Path 40597" d="M440.779,282.261v.766h-4.424v-.6l2.5-2.42c.65-.633.773-1.021.773-1.406,0-.633-.446-1.021-1.31-1.021a1.93,1.93,0,0,0-1.572.681l-.6-.521a2.842,2.842,0,0,1,2.253-.929c1.283,0,2.11.657,2.11,1.7a2.485,2.485,0,0,1-1.021,1.937l-1.882,1.811Z" transform="translate(-343.591 -219.311)" fill="#263238"/>
    <path id="Path_40598" data-name="Path 40598" d="M484.827,277v6.157h-.868v-5.394H482.57V277Z" transform="translate(-374.212 -219.438)" fill="#263238"/>
    <path id="Path_40599" data-name="Path 40599" d="M496.638,281.339c0,1.038-.766,1.882-2.328,1.882a3.482,3.482,0,0,1-2.26-.745l.4-.681a2.788,2.788,0,0,0,1.858.657c.922,0,1.45-.422,1.45-1.089s-.466-1.072-1.521-1.072h-.5v-.616l1.549-1.9h-2.964V277h4.064v.6l-1.61,1.988C496.015,279.7,496.638,280.4,496.638,281.339Z" transform="translate(-380.466 -219.438)" fill="#263238"/>
    <path id="Path_40600" data-name="Path 40600" d="M540.69,277v6.157h-.871v-5.394H538.43V277Z" transform="translate(-411.06 -219.438)" fill="#263238"/>
    <path id="Path_40601" data-name="Path 40601" d="M554.235,281.639h-1.167v1.515h-.854v-1.515h-3.4v-.616L551.938,277h.95l-3.015,3.887h2.365v-1.338h.827v1.338h1.167Z" transform="translate(-417.908 -219.438)" fill="#263238"/>
    <path id="Path_40602" data-name="Path 40602" d="M204.49,329.63v6.157h-.871V330.4H202.23v-.766Z" transform="translate(-189.283 -254.155)" fill="#263238"/>
    <path id="Path_40603" data-name="Path 40603" d="M216.611,333.965c0,1.065-.756,1.916-2.331,1.916a3.53,3.53,0,0,1-2.26-.745l.4-.681a2.78,2.78,0,0,0,1.848.657c.933,0,1.46-.429,1.46-1.1s-.442-1.123-1.865-1.123h-1.4l.34-3.22h3.471v.766h-2.723l-.167,1.7h.681C215.89,332.11,216.611,332.876,216.611,333.965Z" transform="translate(-195.741 -254.182)" fill="#263238"/>
    <path id="Path_40604" data-name="Path 40604" d="M260.7,329.63v6.157h-.871V330.4H258.44v-.766Z" transform="translate(-226.363 -254.155)" fill="#263238"/>
    <path id="Path_40605" data-name="Path 40605" d="M273.765,333.782a1.992,1.992,0,0,1-2.182,1.943c-1.654,0-2.583-1.106-2.583-3.063,0-2.1,1.184-3.226,2.91-3.226a2.936,2.936,0,0,1,1.528.361l-.34.681a2.134,2.134,0,0,0-1.178-.289c-1.249,0-2.042.783-2.042,2.321v.218a2.042,2.042,0,0,1,1.77-.807A1.9,1.9,0,0,1,273.765,333.782Zm-.854.037c0-.721-.545-1.188-1.406-1.188a1.261,1.261,0,0,0-1.416,1.195c0,.677.51,1.188,1.46,1.188a1.222,1.222,0,0,0,1.375-1.195Z" transform="translate(-233.329 -254.026)" fill="#263238"/>
    <path id="Path_40606" data-name="Path 40606" d="M315.62,329.63v6.157h-.868V330.4H313.36v-.766Z" transform="translate(-262.591 -254.155)" fill="#fff"/>
    <path id="Path_40607" data-name="Path 40607" d="M328.152,329.63v.6l-2.488,5.558h-.933l2.437-5.391h-2.8v1.1h-.844V329.63Z" transform="translate(-269.293 -254.155)" fill="#fff"/>
    <path id="Path_40608" data-name="Path 40608" d="M373.04,329.63v6.157h-.868V330.4H370.78v-.766Z" transform="translate(-300.469 -254.155)" fill="#fff"/>
    <path id="Path_40609" data-name="Path 40609" d="M386.16,333.912c0,1.116-.95,1.811-2.454,1.811s-2.437-.681-2.437-1.811a1.521,1.521,0,0,1,1.082-1.484,1.4,1.4,0,0,1-.861-1.331c0-1.021.888-1.668,2.216-1.668s2.233.64,2.233,1.668a1.4,1.4,0,0,1-.871,1.331A1.528,1.528,0,0,1,386.16,333.912Zm-.882-.027c0-.681-.6-1.1-1.572-1.1s-1.555.422-1.555,1.1.579,1.126,1.555,1.126,1.572-.432,1.572-1.127Zm-2.917-2.75c0,.606.5.984,1.344.984s1.361-.378,1.361-.984-.545-.994-1.361-.994S382.362,330.519,382.362,331.135Z" transform="translate(-307.388 -254.023)" fill="#fff"/>
    <path id="Path_40610" data-name="Path 40610" d="M428.71,329.63v6.157h-.871V330.4H426.45v-.766Z" transform="translate(-337.192 -254.155)" fill="#fff"/>
    <path id="Path_40611" data-name="Path 40611" d="M441.3,332.5c0,2.1-1.188,3.227-2.91,3.227a2.938,2.938,0,0,1-1.528-.361l.34-.681a2.161,2.161,0,0,0,1.188.289c1.246,0,2.042-.783,2.042-2.321v-.218a2.042,2.042,0,0,1-1.777.807,1.892,1.892,0,0,1-2.1-1.862,1.983,1.983,0,0,1,2.171-1.943C440.372,329.437,441.3,330.543,441.3,332.5Zm-1.082-1.171c0-.633-.507-1.188-1.467-1.188a1.217,1.217,0,0,0-1.361,1.195c0,.728.538,1.188,1.4,1.188A1.272,1.272,0,0,0,440.222,331.332Z" transform="translate(-343.861 -254.03)" fill="#fff"/>
    <path id="Path_40612" data-name="Path 40612" d="M487.339,334.928v.766h-4.424v-.585l2.5-2.416c.65-.633.773-1.021.773-1.409,0-.633-.449-1.021-1.31-1.021a1.933,1.933,0,0,0-1.572.681l-.6-.521a2.838,2.838,0,0,1,2.25-.929c1.286,0,2.11.657,2.11,1.7a2.474,2.474,0,0,1-1.021,1.937l-1.879,1.8Z" transform="translate(-374.304 -254.062)" fill="#fff"/>
    <path id="Path_40613" data-name="Path 40613" d="M498.35,332.575c0-2,1.072-3.145,2.515-3.145s2.505,1.14,2.505,3.145-1.072,3.148-2.5,3.148S498.35,334.579,498.35,332.575Zm4.142,0c0-1.572-.681-2.362-1.627-2.362s-1.637.79-1.637,2.362.681,2.365,1.637,2.365S502.492,334.151,502.492,332.575Z" transform="translate(-384.621 -254.023)" fill="#fff"/>
    <path id="Path_40614" data-name="Path 40614" d="M543.2,334.928v.766h-4.424v-.585l2.5-2.416c.65-.633.773-1.021.773-1.409,0-.633-.446-1.021-1.307-1.021a1.94,1.94,0,0,0-1.576.681l-.6-.521a2.842,2.842,0,0,1,2.253-.929c1.283,0,2.11.657,2.11,1.7a2.484,2.484,0,0,1-1.021,1.936l-1.882,1.811Z" transform="translate(-411.153 -254.062)" fill="#fff"/>
    <path id="Path_40615" data-name="Path 40615" d="M555.52,329.63v6.157h-.871V330.4H553.26v-.766Z" transform="translate(-420.843 -254.155)" fill="#fff"/>
    <path id="Path_40616" data-name="Path 40616" d="M207.035,387.052v.766h-4.424v-.6l2.5-2.416c.653-.633.776-1.021.776-1.409,0-.633-.449-1.021-1.31-1.021a1.944,1.944,0,0,0-1.576.681l-.6-.517a2.838,2.838,0,0,1,2.25-.933c1.283,0,2.11.66,2.11,1.7a2.483,2.483,0,0,1-1.021,1.933l-1.882,1.811Z" transform="translate(-189.402 -288.437)" fill="#fff"/>
    <path id="Path_40617" data-name="Path 40617" d="M221.845,387.052v.766h-4.424v-.6l2.5-2.416c.653-.633.776-1.021.776-1.409,0-.633-.449-1.021-1.31-1.021a1.94,1.94,0,0,0-1.576.681l-.6-.517a2.832,2.832,0,0,1,2.25-.933c1.283,0,2.11.66,2.11,1.7a2.484,2.484,0,0,1-1.021,1.933l-1.882,1.811Z" transform="translate(-199.172 -288.437)" fill="#fff"/>
    <path id="Path_40618" data-name="Path 40618" d="M263.225,387.052v.766H258.8v-.6l2.5-2.416c.654-.633.776-1.021.776-1.409,0-.633-.449-1.021-1.31-1.021a1.944,1.944,0,0,0-1.576.681l-.6-.517a2.839,2.839,0,0,1,2.25-.933c1.283,0,2.11.66,2.11,1.7a2.484,2.484,0,0,1-1.021,1.933l-1.882,1.811Z" transform="translate(-226.468 -288.437)" fill="#fff"/>
    <path id="Path_40619" data-name="Path 40619" d="M277.781,386.159c0,1.038-.766,1.882-2.331,1.882a3.5,3.5,0,0,1-2.26-.749l.4-.681a2.787,2.787,0,0,0,1.855.66c.926,0,1.453-.422,1.453-1.093s-.466-1.072-1.521-1.072h-.493v-.616l1.549-1.9h-2.971v-.762h4.084v.6l-1.61,1.988C277.158,384.515,277.781,385.21,277.781,386.159Z" transform="translate(-236.093 -288.589)" fill="#fff"/>
    <path id="Path_40620" data-name="Path 40620" d="M318.145,387.052v.766h-4.424v-.6l2.508-2.416c.65-.633.773-1.021.773-1.409,0-.633-.449-1.021-1.31-1.021a1.933,1.933,0,0,0-1.572.681l-.6-.517a2.838,2.838,0,0,1,2.25-.933c1.283,0,2.11.66,2.11,1.7a2.473,2.473,0,0,1-1.021,1.933l-1.882,1.811Z" transform="translate(-262.697 -288.437)" fill="#263238"/>
    <path id="Path_40621" data-name="Path 40621" d="M333.935,386.432h-1.181v1.511H331.9v-1.511h-3.4v-.616l3.148-4.026h.949l-3.019,3.883h2.382v-1.334h.793v1.334h1.171Z" transform="translate(-272.578 -288.563)" fill="#263238"/>
    <path id="Path_40622" data-name="Path 40622" d="M207.035,433.325v.762h-4.424v-.6l2.5-2.42c.653-.633.776-1.021.776-1.406,0-.633-.449-1.021-1.31-1.021a1.936,1.936,0,0,0-1.576.681l-.6-.521a2.839,2.839,0,0,1,2.25-.933c1.283,0,2.11.66,2.11,1.7a2.479,2.479,0,0,1-1.021,1.933l-1.882,1.814Z" transform="translate(-189.402 -318.96)" fill="#263238"/>
    <path id="Path_40623" data-name="Path 40623" d="M222.354,430.927c0,2.1-1.184,3.226-2.91,3.226a2.971,2.971,0,0,1-1.528-.361l.34-.681a2.168,2.168,0,0,0,1.188.289c1.249,0,2.042-.783,2.042-2.321v-.221a2.042,2.042,0,0,1-1.777.81,1.892,1.892,0,0,1-2.1-1.865,2.013,2.013,0,0,1,2.171-1.943C221.425,427.857,222.354,428.966,222.354,430.927Zm-1.079-1.171c0-.633-.51-1.184-1.47-1.184a1.217,1.217,0,0,0-1.361,1.195c0,.728.538,1.188,1.4,1.188A1.28,1.28,0,0,0,221.275,429.756Z" transform="translate(-199.429 -318.953)" fill="#263238"/>
    <path id="Path_40624" data-name="Path 40624" d="M262.958,432.429c0,1.038-.766,1.882-2.331,1.882a3.479,3.479,0,0,1-2.257-.749l.4-.681a2.771,2.771,0,0,0,1.855.66c.926,0,1.453-.422,1.453-1.089s-.466-1.072-1.521-1.072h-.494v-.616l1.549-1.9h-2.964V428.1h4.064v.6l-1.61,1.988C262.328,430.789,262.958,431.469,262.958,432.429Z" transform="translate(-226.317 -319.112)" fill="#263238"/>
    <path id="Path_40625" data-name="Path 40625" d="M274.25,431c0-2,1.076-3.148,2.515-3.148s2.5,1.143,2.5,3.148-1.072,3.148-2.5,3.148S274.25,433.006,274.25,431Zm4.142,0c0-1.572-.681-2.382-1.627-2.382s-1.634.793-1.634,2.382.681,2.365,1.634,2.365S278.392,432.574,278.392,431Z" transform="translate(-236.792 -318.947)" fill="#263238"/>
    <path id="Path_40626" data-name="Path 40626" d="M317.878,432.429c0,1.038-.766,1.882-2.328,1.882a3.482,3.482,0,0,1-2.26-.749l.4-.681a2.774,2.774,0,0,0,1.858.66c.922,0,1.45-.422,1.45-1.089s-.466-1.072-1.521-1.072h-.493v-.616l1.549-1.9h-2.964V428.1h4.064v.6l-1.61,1.988C317.255,430.789,317.878,431.469,317.878,432.429Z" transform="translate(-262.545 -319.112)" fill="#263238"/>
    <path id="Path_40627" data-name="Path 40627" d="M330.4,428.06v6.153h-.871v-5.388H328.14v-.766Z" transform="translate(-272.341 -319.085)" fill="#263238"/>
    <path id="Path_40628" data-name="Path 40628" d="M375.565,387.052v.766h-4.424v-.6l2.508-2.416c.65-.633.773-1.021.773-1.409,0-.633-.449-1.021-1.31-1.021a1.933,1.933,0,0,0-1.572.681l-.6-.517a2.838,2.838,0,0,1,2.25-.933c1.283,0,2.11.66,2.11,1.7a2.484,2.484,0,0,1-1.021,1.933l-1.882,1.811Z" transform="translate(-300.574 -288.437)" fill="#263238"/>
    <path id="Path_40629" data-name="Path 40629" d="M390.438,386.122c0,1.065-.756,1.92-2.331,1.92a3.519,3.519,0,0,1-2.256-.749l.4-.681a2.784,2.784,0,0,0,1.848.66c.933,0,1.46-.432,1.46-1.1s-.439-1.127-1.865-1.127h-1.4l.34-3.216h3.471v.739h-2.723l-.167,1.7h.681C389.716,384.27,390.438,385.033,390.438,386.122Z" transform="translate(-310.41 -288.589)" fill="#263238"/>
    <path id="Path_40630" data-name="Path 40630" d="M431.225,387.052v.766H426.8v-.6l2.5-2.416c.65-.633.776-1.021.776-1.409,0-.633-.449-1.021-1.31-1.021a1.94,1.94,0,0,0-1.576.681l-.6-.517a2.832,2.832,0,0,1,2.25-.933c1.283,0,2.11.66,2.11,1.7a2.484,2.484,0,0,1-1.021,1.933l-1.882,1.811Z" transform="translate(-337.291 -288.437)" fill="#263238"/>
    <path id="Path_40631" data-name="Path 40631" d="M447,385.942a1.994,1.994,0,0,1-2.182,1.943c-1.654,0-2.583-1.11-2.583-3.063,0-2.1,1.184-3.227,2.91-3.227a2.938,2.938,0,0,1,1.528.361l-.34.681a2.133,2.133,0,0,0-1.178-.289c-1.249,0-2.042.783-2.042,2.321a1.673,1.673,0,0,0,0,.221,2.042,2.042,0,0,1,1.766-.81A1.9,1.9,0,0,1,447,385.942Zm-.854.034c0-.721-.545-1.188-1.406-1.188a1.264,1.264,0,0,0-1.416,1.2c0,.677.511,1.184,1.46,1.184A1.213,1.213,0,0,0,446.151,385.976Z" transform="translate(-347.608 -288.434)" fill="#263238"/>
    <path id="Path_40632" data-name="Path 40632" d="M487.339,387.052v.766h-4.424v-.6l2.5-2.417c.65-.633.773-1.021.773-1.409,0-.633-.449-1.021-1.31-1.021a1.933,1.933,0,0,0-1.572.681l-.6-.517a2.841,2.841,0,0,1,2.25-.932c1.286,0,2.11.66,2.11,1.7a2.473,2.473,0,0,1-1.021,1.933l-1.879,1.814Z" transform="translate(-374.304 -288.438)" fill="#263238"/>
    <path id="Path_40633" data-name="Path 40633" d="M502.532,381.77v.6l-2.488,5.558h-.933l2.433-5.4h-2.811v1.1h-.844V381.76Z" transform="translate(-384.318 -288.543)" fill="#263238"/>
    <path id="Path_40634" data-name="Path 40634" d="M543.205,387.052v.766h-4.424v-.6l2.5-2.416c.65-.633.776-1.021.776-1.409,0-.633-.449-1.021-1.31-1.021a1.94,1.94,0,0,0-1.576.681l-.6-.517a2.832,2.832,0,0,1,2.25-.933c1.283,0,2.11.66,2.11,1.7a2.484,2.484,0,0,1-1.021,1.933l-1.882,1.811Z" transform="translate(-411.159 -288.437)" fill="#263238"/>
    <path id="Path_40635" data-name="Path 40635" d="M559.077,386.062c0,1.116-.949,1.814-2.45,1.814s-2.437-.7-2.437-1.814a1.524,1.524,0,0,1,1.082-1.484,1.389,1.389,0,0,1-.861-1.327c0-1.021.885-1.671,2.216-1.671s2.233.64,2.233,1.671a1.4,1.4,0,0,1-.871,1.327A1.528,1.528,0,0,1,559.077,386.062Zm-.878-.024c0-.681-.6-1.1-1.572-1.1s-1.559.422-1.559,1.1.582,1.123,1.559,1.123,1.583-.429,1.583-1.123Zm-2.92-2.753c0,.606.5.984,1.361.984s1.361-.378,1.361-.984-.545-.994-1.361-.994-1.361.378-1.361.994Z" transform="translate(-421.456 -288.425)" fill="#263238"/>
    <g id="Group_15609" data-name="Group 15609" transform="translate(23.135 0)">
      <path id="Path_40636" data-name="Path 40636" d="M234.032,121.052h0a1.858,1.858,0,0,1-1.862-1.858v-9.155a1.862,1.862,0,0,1,1.862-1.858h0a1.862,1.862,0,0,1,1.858,1.858v9.155A1.858,1.858,0,0,1,234.032,121.052Z" transform="translate(-232.17 -108.075)" fill="#e1e1e1"/>
      <path id="Path_40638" data-name="Path 40638" d="M308.978,121.052h0a1.855,1.855,0,0,1-1.858-1.858v-9.155a1.858,1.858,0,0,1,1.858-1.858h0a1.858,1.858,0,0,1,1.858,1.858v9.155a1.855,1.855,0,0,1-1.858,1.858Z" transform="translate(-281.611 -108.075)" fill="#e1e1e1"/>
      <path id="Path_40640" data-name="Path 40640" d="M383.918,121.052h0a1.858,1.858,0,0,1-1.858-1.858v-9.155a1.862,1.862,0,0,1,1.858-1.858h0a1.862,1.862,0,0,1,1.862,1.858v9.155a1.858,1.858,0,0,1-1.862,1.858Z" transform="translate(-331.045 -108.075)" fill="#e1e1e1"/>
      <path id="Path_40642" data-name="Path 40642" d="M458.862,121.052h0A1.858,1.858,0,0,1,457,119.193v-9.155a1.862,1.862,0,0,1,1.862-1.858h0a1.862,1.862,0,0,1,1.858,1.858v9.155A1.858,1.858,0,0,1,458.862,121.052Z" transform="translate(-380.481 -108.075)" fill="#e1e1e1"/>
      <path id="Path_40644" data-name="Path 40644" d="M533.808,121.052h0a1.855,1.855,0,0,1-1.858-1.858v-9.155a1.858,1.858,0,0,1,1.858-1.858h0a1.858,1.858,0,0,1,1.858,1.858v9.155a1.855,1.855,0,0,1-1.858,1.858Z" transform="translate(-429.963 -108.18)" fill="#e1e1e1"/>
    </g>
  </g>
</svg>
