<svg id="ppt" xmlns="http://www.w3.org/2000/svg" xmlns:xlink="http://www.w3.org/1999/xlink" width="309.335" height="386.369" viewBox="0 0 309.335 386.369">
  <defs>
    <linearGradient id="linear-gradient" x1="0.5" x2="0.5" y2="1" gradientUnits="objectBoundingBox">
      <stop offset="0" stop-color="#4781c6"/>
      <stop offset="1" stop-color="#1957a1"/>
    </linearGradient>
  </defs>
  <g id="Group_290" data-name="Group 290" transform="translate(-247.818 -149.631)">
    <g id="Group_284" data-name="Group 284">
      <path id="Path_171" data-name="Path 171" d="M557.153,254.641v54.5c0,208.063-309.335,208.063-309.335,0V191.99a42.355,42.355,0,0,1,42.359-42.359H452.115l83.052,83.024Z" fill="url(#linear-gradient)"/>
    </g>
    <g id="Group_289" data-name="Group 289">
      <path id="Path_176" data-name="Path 176" d="M557.153,254.641H494.447a42.334,42.334,0,0,1-38.112-23.894,40.951,40.951,0,0,1-3.252-9.461,41.441,41.441,0,0,1-.968-9V149.631l83.052,83.024Z" fill="#306cb4"/>
    </g>
    <g id="Group_15102" data-name="Group 15102">
      <path id="Rectangle_4604" data-name="Rectangle 4604" d="M0,0H309a0,0,0,0,1,0,0V174a41,41,0,0,1-41,41H41A41,41,0,0,1,0,174V0A0,0,0,0,1,0,0Z" transform="translate(248 321)" fill="#eee"/>
    </g>
    <g id="Group_14841" data-name="Group 14841" transform="translate(290.665 206.029)">
      <g id="Group_14912" data-name="Group 14912" transform="translate(-4.459 0)">
        <path id="Path_38371" data-name="Path 38371" d="M3490.4,1735.66a95.268,95.268,0,0,1,15.745-1.07c7.181,0,12.3,1.377,15.745,4.128a15.064,15.064,0,0,1,5.5,11.925c0,5.041-1.678,9.324-4.739,12.228-3.973,3.745-9.858,5.428-16.738,5.428a29.517,29.517,0,0,1-3.975-.23v18.419H3490.4Zm11.539,23.388a17.792,17.792,0,0,0,3.9.307c6.189,0,10.011-3.135,10.011-8.408,0-4.738-3.287-7.566-9.1-7.566a19.846,19.846,0,0,0-4.815.458Z" transform="translate(-3490.403 -1734.59)" fill="#fff"/>
        <path id="Path_38372" data-name="Path 38372" d="M3525.447,1735.66a95.406,95.406,0,0,1,15.748-1.07c7.184,0,12.305,1.377,15.745,4.128a15.052,15.052,0,0,1,5.506,11.925c0,5.041-1.684,9.324-4.744,12.228-3.973,3.745-9.858,5.428-16.736,5.428a29.5,29.5,0,0,1-3.978-.23v18.419h-11.542Zm11.542,23.388a17.747,17.747,0,0,0,3.9.307c6.194,0,10.019-3.135,10.019-8.408,0-4.738-3.29-7.566-9.1-7.566a19.832,19.832,0,0,0-4.817.458Z" transform="translate(-3481.033 -1734.59)" fill="#fff"/>
        <path id="Path_38373" data-name="Path 38373" d="M3571.252,1744.674h-13.838v-9.783h39.592v9.783h-14.062v41.733h-11.692Z" transform="translate(-3472.483 -1734.51)" fill="#fff"/>
      </g>
    </g>
    <g id="Group_14898" data-name="Group 14898" transform="translate(-3223.214 -1471.61)">
      <g id="Group_14824" data-name="Group 14824" transform="translate(3562.913 1834.015)">
        <g id="Group_14823" data-name="Group 14823" transform="translate(0 0)">
          <path id="Path_38333" data-name="Path 38333" d="M3624.07,1836.9a59.424,59.424,0,0,0-59.777,46.423,59.243,59.243,0,0,0,35.4,67.711,59.24,59.24,0,0,0,81.462-48.314,56.623,56.623,0,0,0,.392-6.542,5.3,5.3,0,0,0-5.229-5.228H3624.07l5.229,5.228v-54.05a5.229,5.229,0,0,0-10.459,0v54.05a5.306,5.306,0,0,0,5.229,5.231h52.244q-2.609-2.615-5.226-5.231a56.25,56.25,0,0,1-.372,6.364c-.079.64.237.741.027-.144a3.071,3.071,0,0,1-.106.708q-.107.706-.237,1.409-.284,1.571-.66,3.121a54.482,54.482,0,0,1-1.791,5.87c-.182.486-.368.974-.561,1.461a3.358,3.358,0,0,1-.265.642c.06-.075.506-1.142.115-.292-.431.945-.862,1.887-1.332,2.812a53.761,53.761,0,0,1-3.036,5.2c-.534.81-1.1,1.607-1.668,2.389a2.768,2.768,0,0,1-.415.547c.063-.03.782-.984.189-.249-.36.445-.715.891-1.083,1.328a54.328,54.328,0,0,1-3.977,4.235q-1.05,1-2.154,1.953c-.387.332-.783.662-1.178.984-.178.144-.36.286-.534.431-.806.644.874-.638-.028.016a57.962,57.962,0,0,1-10.2,6.034c-.178.081-.613.374-.794.35.067.008,1.189-.48.292-.121-.431.172-.862.346-1.3.51-.98.369-1.968.715-2.968,1.03a54.544,54.544,0,0,1-5.984,1.508c-.522.1-1.052.192-1.577.279-.237.038-.471.071-.708.111-.589.087-.249.275.324-.044a4.686,4.686,0,0,1-1.431.164c-.6.061-1.206.109-1.811.152a55.051,55.051,0,0,1-6.226.059q-1.63-.074-3.253-.251c-.241-.024-.479-.051-.719-.081-.581-.063-.328.205.324.051a5.67,5.67,0,0,1-1.771-.281,53.86,53.86,0,0,1-5.85-1.364q-1.429-.418-2.83-.913c-.494-.176-.984-.356-1.471-.545-.217-.087-.435-.17-.644-.257l-.324-.128q-.789-.326.289.121c-.3.03-.977-.433-1.265-.567-.423-.192-.834-.389-1.249-.595q-1.387-.691-2.735-1.458a54.088,54.088,0,0,1-5.051-3.251c-.186-.135-.364-.273-.554-.407-.419-.308-.842-.284.107.087a4.91,4.91,0,0,1-1.067-.854c-.794-.65-1.565-1.326-2.32-2.022a53.659,53.659,0,0,1-4.17-4.287,9.331,9.331,0,0,1-1.85-2.245c.032.085.743,1,.194.243-.134-.182-.273-.364-.407-.548-.34-.464-.668-.927-.992-1.4a54.9,54.9,0,0,1-3.032-4.992c-.49-.915-.949-1.842-1.387-2.783-.115-.255-.609-.988-.565-1.263-.012.053.482,1.19.123.289-.13-.322-.261-.644-.387-.97a57.047,57.047,0,0,1-3.075-11.742c-.126-.783.15,1.354.023.144-.027-.239-.059-.478-.083-.719-.047-.476-.095-.957-.134-1.439-.091-1.091-.142-2.182-.166-3.279a54.669,54.669,0,0,1,.249-6.386,5.266,5.266,0,0,1,.178-1.613c-.04.067-.193,1.293-.04.322.036-.235.071-.47.111-.706q.249-1.583.6-3.144a54.738,54.738,0,0,1,1.676-5.917c.324-.931.684-1.85,1.047-2.767.245-.613-.166-.146-.123.291a2.658,2.658,0,0,1,.281-.638c.237-.524.478-1.047.731-1.565a53.424,53.424,0,0,1,2.846-5.117c.514-.822,1.056-1.628,1.617-2.421.3-.421.6-.834.909-1.247.285-.393.107-.522-.194.241a3.831,3.831,0,0,1,.641-.8,53.265,53.265,0,0,1,3.9-4.311,58.488,58.488,0,0,1,4.466-3.979c.522-.423.257-.6-.114.081a2.975,2.975,0,0,1,.553-.409c.364-.273.735-.542,1.111-.8.838-.591,1.7-1.158,2.577-1.7a53.9,53.9,0,0,1,5.292-2.887c.415-.2.834-.385,1.253-.577s.8-.619-.13.047a3.331,3.331,0,0,1,.645-.263c.964-.393,1.949-.753,2.937-1.089a53.576,53.576,0,0,1,5.767-1.581c1.044-.225,2.1-.421,3.15-.581.237-.038.482-.057.711-.109-.126.028-1.257.152-.324.052.6-.067,1.2-.135,1.8-.188a54.08,54.08,0,0,1,6.6-.158,5.273,5.273,0,0,0,5.229-5.228A5.332,5.332,0,0,0,3624.07,1836.9Z" transform="translate(-3562.912 -1836.867)" fill="url(#linear-gradient)"/>
        </g>
      </g>
      <g id="Group_14826" data-name="Group 14826" transform="translate(3633.726 1827.351)">
        <g id="Group_14825" data-name="Group 14825" transform="translate(0 0)">
          <path id="Path_38334" data-name="Path 38334" d="M3664.037,1832.583v45.86a5.306,5.306,0,0,0,5.229,5.229h44.326a5.306,5.306,0,0,0,5.229-5.229,51.091,51.091,0,0,0-8.953-28.873,52.463,52.463,0,0,0-23.582-18.722,50.538,50.538,0,0,0-17.021-3.492,5.27,5.27,0,0,0-5.229,5.228,5.336,5.336,0,0,0,5.229,5.228c1.095.042,2.186.113,3.273.225a4.6,4.6,0,0,1,1.079.126c-.091-.038-1.277-.192-.32-.036.589.1,1.182.192,1.767.306a45.66,45.66,0,0,1,6.475,1.753c.557.2,1.1.4,1.64.615.217.085.431.19.648.261-1.17-.393-.573-.249-.285-.115,1.051.48,2.095.972,3.123,1.516a46.6,46.6,0,0,1,5.538,3.492c.083.063,1.023.7.3.212s.189.158.28.229q.54.43,1.056.877,1.3,1.118,2.526,2.328c.727.727,1.435,1.478,2.115,2.251.379.429.751.865,1.11,1.31.146.178.289.358.431.535.755.941-.684-.947.016.036a50.576,50.576,0,0,1,3.526,5.518c.5.915.96,1.846,1.4,2.793.119.265.229.533.352.794.332.688-.478-1.221-.055-.123.209.545.427,1.083.621,1.633a44.991,44.991,0,0,1,1.925,7.166c.056.294.1.589.154.881.028.172.221,1.435.091.552-.138-.913.028.273.04.379.04.362.079.723.107,1.085.119,1.342.17,2.684.178,4.03q2.609-2.615,5.226-5.228h-44.326l5.226,5.228v-45.86a5.228,5.228,0,1,0-10.455,0Z" transform="translate(-3664.033 -1827.351)" fill="url(#linear-gradient)"/>
        </g>
      </g>
    </g>
  </g>
</svg>
