<svg xmlns="http://www.w3.org/2000/svg" width="18.773" height="18.038" viewBox="0 0 18.773 18.038">
  <g id="message-question" transform="translate(0.75 0.75)">
    <g id="Group_14212" data-name="Group 14212">
      <path id="Path_37999" data-name="Path 37999" d="M14.955,16.248H11.5L7.657,18.8a.861.861,0,0,1-1.339-.717v-1.84A4.08,4.08,0,0,1,2,11.93V6.748A4.08,4.08,0,0,1,6.318,2.43h8.636a4.08,4.08,0,0,1,4.318,4.318V11.93A4.08,4.08,0,0,1,14.955,16.248Z" transform="translate(-2 -2.43)" fill="none" stroke="#999" stroke-linecap="round" stroke-linejoin="round" stroke-miterlimit="10" stroke-width="1.5"/>
      <path id="Path_38000" data-name="Path 38000" d="M11.774,10.746v-.181A1.353,1.353,0,0,1,12.5,9.416a1.324,1.324,0,0,0,.708-1.123,1.434,1.434,0,0,0-2.867,0" transform="translate(-3.137 -3.034)" fill="none" stroke="#999" stroke-linecap="round" stroke-linejoin="round" stroke-width="1.5"/>
      <path id="Path_38001" data-name="Path 38001" d="M11.995,13.75H12" transform="translate(-3.363 -3.974)" fill="none" stroke="#999" stroke-linecap="round" stroke-linejoin="round" stroke-width="1.5"/>
    </g>
  </g>
</svg>
