<svg xmlns="http://www.w3.org/2000/svg" width="16.127" height="16.127" viewBox="0 0 16.127 16.127">
  <g id="vuesax_outline_video" data-name="vuesax/outline/video" transform="translate(-108 -252)">
    <g id="video" transform="translate(108 252)">
      <path id="Vector" d="M7.311,11.907H3.232A3,3,0,0,1,0,8.675V3.232C0,.907.907,0,3.232,0H7.311c2.325,0,3.232.907,3.232,3.232V8.675C10.543,11,9.636,11.907,7.311,11.907ZM3.232,1.021c-1.754,0-2.211.457-2.211,2.211V8.675a2,2,0,0,0,2.211,2.211H7.311c1.754,0,2.211-.457,2.211-2.211V3.232c0-1.754-.457-2.211-2.211-2.211Z" transform="translate(1.344 2.11)" fill="#999"/>
      <path id="Vector-2" data-name="Vector" d="M3.091,8.213a1.9,1.9,0,0,1-1.082-.39L.215,6.566A.507.507,0,0,1,0,6.15V2.064a.507.507,0,0,1,.215-.417L2.009.391A1.551,1.551,0,0,1,3.669.136a1.548,1.548,0,0,1,.746,1.505V6.566a1.54,1.54,0,0,1-.746,1.505A1.174,1.174,0,0,1,3.091,8.213ZM1.015,5.881l1.579,1.1c.3.208.517.228.6.181s.195-.235.195-.6V1.648c0-.37-.108-.551-.195-.6s-.3-.027-.6.181l-1.579,1.1Z" transform="translate(10.872 3.957)" fill="#999"/>
      <path id="Vector-3" data-name="Vector" d="M1.512,3.024A1.512,1.512,0,1,1,3.024,1.512,1.514,1.514,0,0,1,1.512,3.024Zm0-2.016a.5.5,0,1,0,.5.5A.508.508,0,0,0,1.512,1.008Z" transform="translate(6.216 4.872)" fill="#999"/>
      <path id="Vector-4" data-name="Vector" d="M0,0H16.127V16.127H0Z" fill="none" opacity="0"/>
    </g>
  </g>
</svg>
