<svg xmlns="http://www.w3.org/2000/svg" width="205.802" height="134.251" viewBox="0 0 205.802 134.251">
  <g id="Group_15824" data-name="Group 15824" transform="translate(-140.776 -212.656)">
    <ellipse id="Ellipse_119" data-name="Ellipse 119" cx="99.442" cy="6.125" rx="99.442" ry="6.125" transform="translate(147.694 334.656)" fill="#f1f1f1"/>
    <g id="Group_15818" data-name="Group 15818" transform="translate(-140.775 -1179.794)">
      <g id="Group_15591" data-name="Group 15591" transform="translate(270.677 1408.852)">
        <path id="Path_39337" data-name="Path 39337" d="M1853.975,3787.809l-.566-.022" transform="translate(-1774.228 -3677.032)" fill="none" stroke="#e6e6e6" stroke-linecap="round" stroke-linejoin="round" stroke-width="1.8" stroke-dasharray="6 7"/>
        <path id="Path_39338" data-name="Path 39338" d="M349.814,1510.046c-21.149-1.233-42.394-11.474-53.905-27.862a21.91,21.91,0,0,1-3.745-14.735c.588-4.991,5.3-9.821,10.7-9.266s8.7,5.774,10.082,10.624c1.583,5.566,1.523,12.158-2.8,16.3-4.834,4.633-13.494,4.253-19.163.511a30.015,30.015,0,0,1-11.718-16.362,35.224,35.224,0,0,1,.936-20.651,23.826,23.826,0,0,1,14.65-15.163c11.559-3.854,23.844,2.327,35.072,6.939,33.658,13.826,73.547,14.092,107.417.714,9.386-3.707,18.567-8.606,24.759-16.1a16.175,16.175,0,0,0,3.958-7.893,7.954,7.954,0,0,0-3.327-7.787c-3.031-1.922-7.314-1.3-10.359.607a37.376,37.376,0,0,0-9.251,8.753c-7.242,10.666-12.424,20.8-14.32,33.265-1.811,11.91.16,25.472,9.7,35.22,9.294,9.494,26.025,25.039,40.787,25.394" transform="translate(-266.335 -1403.71)" fill="none" stroke="#e6e6e6" stroke-linecap="round" stroke-linejoin="round" stroke-width="1.8" stroke-dasharray="6 7"/>
      </g>
    </g>
    <g id="Group_15803" data-name="Group 15803" transform="translate(167.687 219.426)">
      <path id="Path_41000" data-name="Path 41000" d="M448.523,434.8H369.806a7.966,7.966,0,0,1-7.957-7.957V322.617a7.966,7.966,0,0,1,7.957-7.957h78.717a7.966,7.966,0,0,1,7.957,7.957v104.23A7.966,7.966,0,0,1,448.523,434.8Z" transform="translate(-328.841 -314.66)" fill="#e1e1e1"/>
      <path id="Path_41001" data-name="Path 41001" d="M431.573,441.879h-43.14a7.253,7.253,0,0,1-7.245-7.245v-92.75a7.253,7.253,0,0,1,7.245-7.245h67.65a7.253,7.253,0,0,1,7.245,7.245v68.24A31.792,31.792,0,0,1,431.573,441.879Z" transform="translate(-337.79 -328.188)" fill="#fff"/>
    </g>
    <g id="vuesax_linear_save-minus" data-name="vuesax/linear/save-minus" transform="translate(175.26 303.365)">
      <g id="save-minus" transform="translate(0)">
        <path id="Vector" d="M0,0H33.176V33.176H0Z" fill="none" opacity="0"/>
      </g>
    </g>
    <g id="Group_15811" data-name="Group 15811">
      <path id="Path_41002" data-name="Path 41002" d="M466.438,382.373H420.545a1.79,1.79,0,0,1,0-3.532h45.9a1.79,1.79,0,0,1,0,3.532Z" transform="translate(-187.779 -141.072)" fill="#ec5252"/>
      <path id="Path_41004" data-name="Path 41004" d="M444.292,425.594H420.818a1.766,1.766,0,0,1,0-3.532h23.474a1.766,1.766,0,0,1,0,3.532Z" transform="translate(-187.783 -177.311)" fill="#ec5252"/>
      <g id="Group_15806" data-name="Group 15806" transform="translate(215.465 237.014)">
        <g id="Rectangle_4875" data-name="Rectangle 4875" transform="translate(0.48 0.104)" fill="none" stroke="#ec5252" stroke-width="0.2">
          <rect width="12" height="12" rx="6" stroke="none"/>
          <rect x="0.1" y="0.1" width="11.8" height="11.8" rx="5.9" fill="none"/>
        </g>
        <g id="Group_15805" data-name="Group 15805" transform="translate(3.606 2.796)">
          <path id="Vector-2" data-name="Vector" d="M5.745,1.276V5.938c0,.6-.427.845-.948.558L3.184,5.6a.722.722,0,0,0-.624,0L.948,6.5C.427,6.783,0,6.533,0,5.938V1.276A1.28,1.28,0,0,1,1.276,0H4.469A1.28,1.28,0,0,1,5.745,1.276Z" transform="translate(0 0)" fill="none" stroke="#ec5252" stroke-linecap="round" stroke-linejoin="round" stroke-width="0.5"/>
        </g>
      </g>
    </g>
    <g id="Group_15812" data-name="Group 15812" transform="translate(0 22)">
      <path id="Path_41002-2" data-name="Path 41002" d="M466.438,382.373H420.545a1.79,1.79,0,0,1,0-3.532h45.9a1.79,1.79,0,0,1,0,3.532Z" transform="translate(-187.779 -141.072)" fill="#ec5252"/>
      <path id="Path_41004-2" data-name="Path 41004" d="M444.292,425.594H420.818a1.766,1.766,0,0,1,0-3.532h23.474a1.766,1.766,0,0,1,0,3.532Z" transform="translate(-187.783 -177.311)" fill="#ec5252"/>
      <g id="Group_15806-2" data-name="Group 15806" transform="translate(215.465 237.014)">
        <g id="Rectangle_4875-2" data-name="Rectangle 4875" transform="translate(0.48 0.104)" fill="none" stroke="#ec5252" stroke-width="0.2">
          <rect width="12" height="12" rx="6" stroke="none"/>
          <rect x="0.1" y="0.1" width="11.8" height="11.8" rx="5.9" fill="none"/>
        </g>
        <g id="Group_15805-2" data-name="Group 15805" transform="translate(3.606 2.796)">
          <path id="Vector-3" data-name="Vector" d="M5.745,1.276V5.938c0,.6-.427.845-.948.558L3.184,5.6a.722.722,0,0,0-.624,0L.948,6.5C.427,6.783,0,6.533,0,5.938V1.276A1.28,1.28,0,0,1,1.276,0H4.469A1.28,1.28,0,0,1,5.745,1.276Z" transform="translate(0 0)" fill="none" stroke="#ec5252" stroke-linecap="round" stroke-linejoin="round" stroke-width="0.5"/>
        </g>
      </g>
    </g>
    <g id="Group_15814" data-name="Group 15814" transform="translate(0 44)">
      <path id="Path_41002-3" data-name="Path 41002" d="M466.438,382.373H420.545a1.79,1.79,0,0,1,0-3.532h45.9a1.79,1.79,0,0,1,0,3.532Z" transform="translate(-187.779 -141.072)" fill="#e1e1e1"/>
      <path id="Path_41004-3" data-name="Path 41004" d="M444.292,425.594H420.818a1.766,1.766,0,0,1,0-3.532h23.474a1.766,1.766,0,0,1,0,3.532Z" transform="translate(-187.783 -177.311)" fill="#e1e1e1"/>
      <g id="Group_15806-3" data-name="Group 15806" transform="translate(215.465 237.014)">
        <g id="Rectangle_4875-3" data-name="Rectangle 4875" transform="translate(0.48 0.104)" fill="none" stroke="#999" stroke-width="0.2">
          <rect width="12" height="12" rx="6" stroke="none"/>
          <rect x="0.1" y="0.1" width="11.8" height="11.8" rx="5.9" fill="none"/>
        </g>
        <g id="Group_15805-3" data-name="Group 15805" transform="translate(3.606 2.796)">
          <path id="Vector-4" data-name="Vector" d="M5.745,1.276V5.938c0,.6-.427.845-.948.558L3.184,5.6a.722.722,0,0,0-.624,0L.948,6.5C.427,6.783,0,6.533,0,5.938V1.276A1.28,1.28,0,0,1,1.276,0H4.469A1.28,1.28,0,0,1,5.745,1.276Z" transform="translate(0 0)" fill="none" stroke="#999" stroke-linecap="round" stroke-linejoin="round" stroke-width="0.5"/>
          <path id="Vector-5" data-name="Vector" d="M0,0H1.641" transform="translate(2.052 2.511)" fill="none" stroke="#999" stroke-linecap="round" stroke-linejoin="round" stroke-width="0.5"/>
          <path id="Vector-6" data-name="Vector" d="M0,0H1.641" transform="translate(2.872 1.69) rotate(90)" fill="none" stroke="#999" stroke-linecap="round" stroke-linejoin="round" stroke-width="0.5"/>
        </g>
      </g>
    </g>
    <g id="Group_15815" data-name="Group 15815" transform="translate(0 66)">
      <path id="Path_41002-4" data-name="Path 41002" d="M466.438,382.373H420.545a1.79,1.79,0,0,1,0-3.532h45.9a1.79,1.79,0,0,1,0,3.532Z" transform="translate(-187.779 -141.072)" fill="#e1e1e1"/>
      <path id="Path_41004-4" data-name="Path 41004" d="M444.292,425.594H420.818a1.766,1.766,0,0,1,0-3.532h23.474a1.766,1.766,0,0,1,0,3.532Z" transform="translate(-187.783 -177.311)" fill="#e1e1e1"/>
      <g id="Group_15806-4" data-name="Group 15806" transform="translate(215.465 237.014)">
        <g id="Rectangle_4875-4" data-name="Rectangle 4875" transform="translate(0.48 0.104)" fill="none" stroke="#999" stroke-width="0.2">
          <rect width="12" height="12" rx="6" stroke="none"/>
          <rect x="0.1" y="0.1" width="11.8" height="11.8" rx="5.9" fill="none"/>
        </g>
        <g id="Group_15805-4" data-name="Group 15805" transform="translate(3.606 2.796)">
          <path id="Vector-7" data-name="Vector" d="M5.745,1.276V5.938c0,.6-.427.845-.948.558L3.184,5.6a.722.722,0,0,0-.624,0L.948,6.5C.427,6.783,0,6.533,0,5.938V1.276A1.28,1.28,0,0,1,1.276,0H4.469A1.28,1.28,0,0,1,5.745,1.276Z" transform="translate(0 0)" fill="none" stroke="#999" stroke-linecap="round" stroke-linejoin="round" stroke-width="0.5"/>
          <path id="Vector-8" data-name="Vector" d="M0,0H1.641" transform="translate(2.052 2.511)" fill="none" stroke="#999" stroke-linecap="round" stroke-linejoin="round" stroke-width="0.5"/>
          <path id="Vector-9" data-name="Vector" d="M0,0H1.641" transform="translate(2.872 1.69) rotate(90)" fill="none" stroke="#999" stroke-linecap="round" stroke-linejoin="round" stroke-width="0.5"/>
        </g>
      </g>
    </g>
    <g id="Group_15819" data-name="Group 15819" transform="translate(178.205 201.262)">
      <circle id="Ellipse_293" data-name="Ellipse 293" cx="11.603" cy="11.603" r="11.603" transform="translate(97.033 11.395)" fill="#ec5252"/>
      <path id="Path_40691" data-name="Path 40691" d="M583.354,326.88a11.6,11.6,0,0,1-11.572-10.785c-.019.269-.032.54-.032.815a11.6,11.6,0,0,0,23.207,0c0-.275-.013-.547-.032-.817A11.6,11.6,0,0,1,583.354,326.88Z" transform="translate(-474.77 -293.438)" fill="#231f20" opacity="0.16"/>
      <g id="Group_15823" data-name="Group 15823" transform="translate(-0.188 -0.268)">
        <g id="favorite_icon" data-name="favorite icon" transform="translate(104.221 16.984)">
          <path id="Vector-10" data-name="Vector" d="M8.017,0H2.292A2.3,2.3,0,0,0,0,2.292v8.367c0,1.069.766,1.52,1.7,1l2.9-1.609a1.258,1.258,0,0,1,1.11,0l2.9,1.609c.938.523,1.7.071,1.7-1V2.292A2.306,2.306,0,0,0,8.017,0Z" transform="translate(0 0)" fill="#fff"/>
        </g>
        <g id="Group_15822" data-name="Group 15822" transform="translate(105.375 18.195)">
          <path id="Vector-11" data-name="Vector" d="M0,0H3.9" transform="translate(2.051 3.64)" fill="none" stroke="#ec5252" stroke-linecap="round" stroke-linejoin="round" stroke-width="1.5"/>
          <path id="Vector-12" data-name="Vector" d="M0,0H3.9" transform="translate(4.001 1.689) rotate(90)" fill="none" stroke="#ec5252" stroke-linecap="round" stroke-linejoin="round" stroke-width="1.5"/>
        </g>
      </g>
    </g>
  </g>
</svg>
