<svg id="Component_445_1" data-name="Component 445 – 1" xmlns="http://www.w3.org/2000/svg" width="184.397" height="183.887" viewBox="0 0 184.397 183.887">
  <ellipse id="Ellipse_231" data-name="Ellipse 231" cx="92.198" cy="8.937" rx="92.198" ry="8.937" transform="translate(0 166.013)" fill="#f1f1f1"/>
  <g id="Group_15193" data-name="Group 15193" transform="translate(143.766 60.74)">
    <path id="Path_38445" data-name="Path 38445" d="M594.256,550.5h-3.323l-1.58-12.819h4.9Z" transform="translate(-564.325 -442.111)" fill="#ffd1a6"/>
    <path id="Path_38446" data-name="Path 38446" d="M576.776,578.511h6.41v4.036H572.74A4.036,4.036,0,0,1,576.776,578.511Z" transform="translate(-552.543 -471.071)" fill="#2f2e41"/>
    <path id="Path_38447" data-name="Path 38447" d="M548.756,550.5h-3.323l-1.58-12.819h4.9Z" transform="translate(-532.053 -442.111)" fill="#ffd1a6"/>
    <path id="Path_38448" data-name="Path 38448" d="M531.276,578.511h6.409v4.036H527.24A4.036,4.036,0,0,1,531.276,578.511Z" transform="translate(-520.27 -471.071)" fill="#2f2e41"/>
    <path id="Path_38449" data-name="Path 38449" d="M897.564,553.519a2.726,2.726,0,0,1,.574-4.14l-1.029-6.144,3.581-1.536,1.332,8.7a2.741,2.741,0,0,1-4.458,3.124Z" transform="translate(-865.074 -489.448)" fill="#ffd1a6"/>
    <path id="Path_38450" data-name="Path 38450" d="M791.979,542.669a2.726,2.726,0,0,0,.117-4.178l2.03-5.889-3.278-2.107-2.75,8.357a2.741,2.741,0,0,0,3.881,3.817Z" transform="translate(-787.524 -481.501)" fill="#ffd1a6"/>
    <circle id="Ellipse_228" data-name="Ellipse 228" cx="7.14" cy="7.14" r="7.14" transform="translate(14.336 3.502)" fill="#ffd1a6"/>
    <path id="Path_38451" data-name="Path 38451" d="M793.817,472.712a1.306,1.306,0,0,1-.362-.051l-2.081-.6a1.31,1.31,0,0,1-.9-1.614l4.295-15.164,5.989-14.7a3.818,3.818,0,0,1,3.247-2.5,3.327,3.327,0,0,1,3.133,1.825h0a4.541,4.541,0,0,1,.1,4L800.437,458.8,795.025,471.9A1.308,1.308,0,0,1,793.817,472.712Z" transform="translate(-789.583 -415.951)" fill="#3f3d56"/>
    <path id="Path_38452" data-name="Path 38452" d="M845.437,378.6l-3.967.071a2.638,2.638,0,0,1-2.586-3.369,6.141,6.141,0,0,0,.19-.876,4.425,4.425,0,0,0,.026-.975,1.44,1.44,0,0,0-2.778-.409h0c-.667.01-2.088-.208-2.755-.2-1.417-3.631,1.67-8.382,4.993-10.167a6.531,6.531,0,0,1,9.082,3.823c1.8.032,3.266,1.81,3.5,3.81a7.768,7.768,0,0,1-1.85,5.623C848.032,377.462,846.379,378.58,845.437,378.6Z" transform="translate(-819.932 -361.967)" fill="#2f2e41"/>
    <path id="Path_38453" data-name="Path 38453" d="M823.644,607.1a1.312,1.312,0,0,1-1.3-1.166l-1.472-49.49,18.544,1.32.014.119c4.191,35.078,2.758,47.221,2.743,47.339a1.308,1.308,0,0,1-1.475,1.222l-4.1.1a1.307,1.307,0,0,1-1.16-1.249l-3.829-35.845a.409.409,0,0,0-.426-.307.425.425,0,0,0-.418.342l-1.479,35.962a1.3,1.3,0,0,1-1.175,1.358l-4.341.289A1.285,1.285,0,0,1,823.644,607.1Z" transform="translate(-811.179 -499.908)" fill="#2f2e41"/>
    <path id="Path_38454" data-name="Path 38454" d="M829.2,473.235c-.111,0-.222,0-.333-.005-5.332-.161-9.5-4.195-10.655-5.427a1.3,1.3,0,0,1-.314-1.191l3.076-13.014-.816-11.314a11.154,11.154,0,0,1,3.054-8.615,9.2,9.2,0,0,1,7.089-2.868c5.191.248,9.286,4.887,9.323,10.562.057,8.79-.2,9.394-.286,9.592-2.591,6.046-1.176,14.533-.68,16.99a1.313,1.313,0,0,1-.389,1.217C835.424,471.866,832.374,473.235,829.2,473.235Z" transform="translate(-809.045 -410.783)" fill="#3f3d56"/>
    <path id="Path_38455" data-name="Path 38455" d="M881.32,477.738a1.307,1.307,0,0,1-1.273-1.016L876.873,462.9l-4.253-15.8a4.541,4.541,0,0,1,.764-3.931,3.33,3.33,0,0,1,3.392-1.282,3.819,3.819,0,0,1,2.789,3l3.475,15.474,1.733,15.681a1.311,1.311,0,0,1-1.152,1.443l-2.151.245A1.329,1.329,0,0,1,881.32,477.738Z" transform="translate(-847.769 -418.595)" fill="#3f3d56"/>
  </g>
  <g id="Group_15192" data-name="Group 15192" transform="translate(0 55.4)">
    <path id="Path_38456" data-name="Path 38456" d="M303.056,492.931a3.123,3.123,0,0,0,.46-4.767l1.211-27.041-6.168.692.358,26.45a3.14,3.14,0,0,0,4.138,4.666Z" transform="translate(-296.633 -426.957)" fill="#ffd1a6"/>
    <path id="Path_38457" data-name="Path 38457" d="M69.534,541.932l3.51.617L76.514,529.3l-4.6-.911Z" transform="translate(-51.859 -430.182)" fill="#ffd1a6"/>
    <path id="Path_38458" data-name="Path 38458" d="M0,0H11.2V4.328H4.328A4.328,4.328,0,0,1,0,0Z" transform="translate(27.383 116.815) rotate(-170.029)" fill="#2f2e41"/>
    <path id="Path_38459" data-name="Path 38459" d="M36.391,547.469h3.564l1.7-13.747H36.39Z" transform="translate(-28.35 -433.963)" fill="#ffd1a6"/>
    <path id="Path_38460" data-name="Path 38460" d="M0,0H11.2V4.328H4.328A4.328,4.328,0,0,1,0,0H0Z" transform="translate(18.477 116.816) rotate(179.997)" fill="#2f2e41"/>
    <path id="Path_38461" data-name="Path 38461" d="M334.748,605.1a1.366,1.366,0,0,1-.166-.01l-4.2-.345a1.419,1.419,0,0,1-1.233-1.645l3.874-21.711-2.617-13.8a.473.473,0,0,0-.936.047L326.2,604.45a1.431,1.431,0,0,1-1.515,1.29l-3.952-.147a1.421,1.421,0,0,1-1.319-1.346l-.266-44.121,20.49-2.561,1.431,22.106-.006.023-4.939,24.325A1.42,1.42,0,0,1,334.748,605.1Z" transform="translate(-311.546 -495.361)" fill="#3f3d56"/>
    <circle id="Ellipse_229" data-name="Ellipse 229" cx="7.14" cy="7.14" r="7.14" transform="translate(7.219 2.363)" fill="#ffd1a6"/>
    <path id="Path_38462" data-name="Path 38462" d="M321.068,458.76a5.847,5.847,0,0,1-3.156-.9c-3.459-2.162-7.387-1.3-9.421-.6a1.419,1.419,0,0,1-1.227-.14,1.4,1.4,0,0,1-.647-1.033l-3.7-33.032a11.575,11.575,0,0,1,7.927-12.373h0q.294-.092.6-.175a11.5,11.5,0,0,1,9.585,1.664,11.688,11.688,0,0,1,4.991,8.533l3.114,33.254a1.4,1.4,0,0,1-.444,1.165C327.6,456.132,324.429,458.76,321.068,458.76Z" transform="translate(-299.981 -390.771)" fill="#ec5252"/>
    <path id="Path_38463" data-name="Path 38463" d="M302.818,441.963l-8.345-.917a1.662,1.662,0,0,1-1.426-2.074l2.124-8.1a4.616,4.616,0,0,1,9.174,1.036l.315,8.336a1.662,1.662,0,0,1-1.843,1.715Z" transform="translate(-292.993 -402.596)" fill="#ec5252"/>
    <path id="Path_38464" data-name="Path 38464" d="M373.106,489.022a3.123,3.123,0,0,0-.118-4.787l-2.056-26.99-6.043,1.36,3.547,26.284a3.14,3.14,0,0,0,4.67,4.133Z" transform="translate(-343.988 -424.205)" fill="#ffd1a6"/>
    <path id="Path_38465" data-name="Path 38465" d="M355.626,437.189a1.66,1.66,0,0,1-.529-1.279l.315-8.336a4.616,4.616,0,1,1,9.174-1.036l2.124,8.1a1.662,1.662,0,0,1-1.426,2.074l-8.344.917A1.661,1.661,0,0,1,355.626,437.189Z" transform="translate(-337.042 -399.519)" fill="#ec5252"/>
    <path id="Path_38466" data-name="Path 38466" d="M320.2,360.509a1.654,1.654,0,0,1-.377-.044l-.036-.009c-6.278-.96-7.665-4.6-7.97-6.115-.315-1.572.044-3.09.855-3.679a4.526,4.526,0,0,1,.211-3.681,5.953,5.953,0,0,1,3.517-2.519,4.358,4.358,0,0,1,4.252-.256c3.407-1.26,4.709-.211,4.944.023,1.523.274,2.451.862,2.759,1.749.579,1.666-1.252,3.738-1.33,3.826l-.041.045-2.727.13a1.848,1.848,0,0,0-1.739,2.127h0a8.593,8.593,0,0,0,.279.975c.466,1.455.815,2.7.365,3.171a.73.73,0,0,1-.763.132c-.426-.114-.716-.09-.86.071-.224.25-.156.882.192,1.781a1.668,1.668,0,0,1-.3,1.7A1.619,1.619,0,0,1,320.2,360.509Z" transform="translate(-306.262 -343.597)" fill="#131313"/>
  </g>
  <path id="Path_38469" data-name="Path 38469" d="M516.5,276.292H446.146a10.187,10.187,0,0,1-10.175-10.175V163.2a10.187,10.187,0,0,1,10.175-10.175H516.5A10.187,10.187,0,0,1,526.673,163.2V266.117A10.186,10.186,0,0,1,516.5,276.292Z" transform="translate(-394.406 -153.03)" fill="#fff"/>
  <g id="Group_15191" data-name="Group 15191" transform="translate(41.564 0.001)">
    <g id="Group_15190" data-name="Group 15190" transform="translate(17.517 13.654)">
      <path id="Path_38470" data-name="Path 38470" d="M548.191,415.617H499.933c-4.93-.024-4.95-7.533,0-7.559h48.258C553.117,408.082,553.144,415.592,548.191,415.617Z" transform="translate(-496.228 -347.574)" fill="#e1e1e1"/>
      <path id="Path_38471" data-name="Path 38471" d="M548.191,207.559H499.933c-4.93-.024-4.95-7.533,0-7.559h48.258C553.117,200.023,553.144,207.533,548.191,207.559Z" transform="translate(-496.228 -200)" fill="#e1e1e1"/>
      <path id="Path_38472" data-name="Path 38472" d="M548.191,463.617H499.933c-4.93-.024-4.95-7.533,0-7.559h48.258C553.117,456.082,553.144,463.592,548.191,463.617Z" transform="translate(-496.228 -381.619)" fill="#e1e1e1"/>
      <path id="Path_38473" data-name="Path 38473" d="M548.191,511.618H499.933c-4.93-.024-4.95-7.533,0-7.559h48.258C553.117,504.082,553.144,511.592,548.191,511.618Z" transform="translate(-496.228 -415.665)" fill="#e1e1e1"/>
    </g>
    <path id="Path_38474" data-name="Path 38474" d="M546.782,289.9H500.268a4.8,4.8,0,0,1-4.8-4.8V259.056a4.8,4.8,0,0,1,4.8-4.8h46.514a4.8,4.8,0,0,1,4.8,4.8V285.1a4.8,4.8,0,0,1-4.8,4.8Z" transform="translate(-478.174 -224.831)" fill="#ec5252"/>
    <path id="Path_38475" data-name="Path 38475" d="M516.5,276.292H446.146a10.187,10.187,0,0,1-10.175-10.175V163.2a10.187,10.187,0,0,1,10.175-10.175H516.5A10.187,10.187,0,0,1,526.673,163.2V266.117A10.186,10.186,0,0,1,516.5,276.292ZM446.146,154.774a8.44,8.44,0,0,0-8.431,8.431V266.117a8.44,8.44,0,0,0,8.431,8.431H516.5a8.44,8.44,0,0,0,8.431-8.431V163.2a8.44,8.44,0,0,0-8.431-8.431Z" transform="translate(-435.971 -153.03)" fill="#f4f4f7"/>
  </g>
  <g id="Group_16051" data-name="Group 16051" transform="translate(93.117 66.703)">
    <circle id="Ellipse_266" data-name="Ellipse 266" cx="10.771" cy="10.771" r="10.771" transform="translate(33.417 54.587)" fill="#ec5252"/>
    <rect id="Rectangle_4668" data-name="Rectangle 4668" width="2.212" height="13.305" transform="translate(43.086 58.704)" fill="#fff"/>
    <rect id="Rectangle_4669" data-name="Rectangle 4669" width="2.212" height="13.305" transform="translate(50.845 64.254) rotate(90)" fill="#fff"/>
  </g>
</svg>
