<svg id="db" xmlns="http://www.w3.org/2000/svg" xmlns:xlink="http://www.w3.org/1999/xlink" width="309.541" height="386" viewBox="0 0 309.541 386">
  <defs>
    <linearGradient id="linear-gradient" x1="0.5" x2="0.5" y2="1" gradientUnits="objectBoundingBox">
      <stop offset="0" stop-color="#a8a8ab"/>
      <stop offset="1" stop-color="#565656"/>
    </linearGradient>
    <linearGradient id="linear-gradient-2" x1="-0.468" y1="-0.148" x2="-0.045" y2="-0.148" gradientUnits="objectBoundingBox">
      <stop offset="0" stop-color="#c6c6c6"/>
      <stop offset="0.205" stop-color="#e3e3e3"/>
      <stop offset="1" stop-color="#a5a5a8"/>
    </linearGradient>
    <linearGradient id="linear-gradient-3" x1="0.372" y1="0.21" x2="0.5" y2="1" gradientUnits="objectBoundingBox">
      <stop offset="0" stop-color="#e3e3e3"/>
      <stop offset="1" stop-color="#a5a5a8"/>
    </linearGradient>
    <linearGradient id="linear-gradient-4" x1="0.511" y1="0.815" x2="1" y2="0.462" gradientUnits="objectBoundingBox">
      <stop offset="0" stop-color="#fff"/>
      <stop offset="1" stop-color="#fff" stop-opacity="0"/>
    </linearGradient>
    <linearGradient id="linear-gradient-5" x1="0.511" y1="-1.002" x2="1" y2="-1.354" xlink:href="#linear-gradient-4"/>
    <linearGradient id="linear-gradient-6" x1="0.511" y1="-2.548" x2="1" y2="-2.9" xlink:href="#linear-gradient-4"/>
  </defs>
  <g id="Group_284" data-name="Group 284" transform="translate(-247.818 -149.631)">
    <path id="Path_171" data-name="Path 171" d="M557.153,254.641v54.5c0,208.063-309.335,208.063-309.335,0V191.99a42.355,42.355,0,0,1,42.359-42.359H452.115l83.052,83.024Z" fill="url(#linear-gradient)"/>
  </g>
  <g id="Group_289" data-name="Group 289" transform="translate(-247.818 -149.631)">
    <path id="Path_176" data-name="Path 176" d="M557.153,254.641H494.447a42.334,42.334,0,0,1-38.112-23.894,40.951,40.951,0,0,1-3.252-9.461,41.441,41.441,0,0,1-.968-9V149.631l83.052,83.024Z" fill="#7f7f81"/>
  </g>
  <g id="Group_15102" data-name="Group 15102" transform="translate(-248 -149.631)">
    <path id="Rectangle_4604" data-name="Rectangle 4604" d="M0,0H309a0,0,0,0,1,0,0V174a41,41,0,0,1-41,41H41A41,41,0,0,1,0,174V0A0,0,0,0,1,0,0Z" transform="translate(248.541 320.631)" fill="#eee"/>
    <g id="layer1" transform="translate(36.816 -162.952)">
      <g id="g6097" transform="translate(296.405 510.647)">
        <path id="path5488" d="M1211.091,2173.086v106.848h.444a7.873,7.873,0,0,0-.444,2.552c0,12.876,31.277,23.3,69.906,23.3s69.906-10.426,69.906-23.3a7.847,7.847,0,0,0-.444-2.552h.444V2173.086H1211.095Z" transform="translate(-1210.985 -2148.869)" fill="url(#linear-gradient-2)"/>
        <path id="path5460" d="M1479.613,2585.135c0,12.876-31.314,23.313-69.943,23.313s-69.943-10.438-69.943-23.313,31.313-23.313,69.943-23.313S1479.613,2572.26,1479.613,2585.135Z" transform="translate(-1339.676 -2561.822)" fill="url(#linear-gradient-3)"/>
        <path id="path6026" d="M1210.965,2263.747c.523,12.726,31.714,22.969,70.017,22.969,38.192,0,69.211-10.182,69.906-22.858-12.255,10.425-38.912,17.643-69.906,17.643-31.055,0-57.8-7.295-70.017-17.754Z" transform="translate(-1210.965 -2162.87)" fill="#565656"/>
        <path id="path6030" d="M1210.965,2172.414c.523,12.726,31.714,22.969,70.017,22.969,38.192,0,69.211-10.182,69.906-22.858-.766.652-1.565,1.261-2.441,1.886-.032.042-.077.07-.111.111-8.139,9.862-35.165,17.088-67.354,17.088-32.39,0-59.6-7.353-67.574-17.31-.088-.064-.135-.159-.222-.222-.777-.567-1.532-1.077-2.219-1.665Z" transform="translate(-1210.965 -2148.766)" fill="url(#linear-gradient-4)"/>
        <g id="g6071" transform="translate(0 63.512)">
          <g id="g6067" transform="translate(0 0)">
            <path id="path6022" d="M1210.965,2221.755c.523,12.726,31.714,22.969,70.017,22.969,38.192,0,69.211-10.182,69.906-22.857-12.255,10.424-38.912,17.643-69.906,17.643-31.055,0-57.8-7.294-70.017-17.754Z" transform="translate(-1210.965 -2221.755)" fill="#565656"/>
            <path id="path6043" d="M1210.965,2221.755c.523,12.726,31.714,22.969,70.017,22.969,38.192,0,69.211-10.182,69.906-22.857-.177.15-.375.3-.555.444-4.411,11.458-33.769,20.306-69.349,20.306-35.908,0-65.574-8.916-69.573-20.527-.142-.113-.306-.216-.444-.333Z" transform="translate(-1210.965 -2221.755)" fill="url(#linear-gradient-5)"/>
          </g>
          <path id="path6054" d="M1210.965,2263.747c.523,12.726,31.714,22.969,70.017,22.969,38.192,0,69.211-10.182,69.906-22.858-.177.15-.375.3-.555.444-4.411,11.457-33.769,20.306-69.349,20.306-35.908,0-65.574-8.916-69.573-20.527-.142-.113-.306-.216-.444-.333Z" transform="translate(-1210.965 -2226.382)" fill="url(#linear-gradient-6)"/>
        </g>
        <path id="path6060" d="M1211.469,2309.308c4,11.611,33.664,20.527,69.573,20.527,35.582,0,64.939-8.848,69.349-20.306-12.485,10.183-38.806,17.2-69.349,17.2C1250.336,2326.729,1223.875,2319.579,1211.469,2309.308Z" transform="translate(-1211.043 -2169.906)" fill="#565656"/>
      </g>
    </g>
  </g>
  <g id="Group_15164" data-name="Group 15164" transform="translate(-1296.175 -1181.809)">
    <g id="Group_15194" data-name="Group 15194" transform="translate(-7)">
      <path id="Path_211" data-name="Path 211" d="M1391.289,1232.486a91.9,91.9,0,0,1,13.924-.947c8.65,0,14.26,1.555,18.654,4.867,4.73,3.513,7.7,9.122,7.7,17.167,0,8.718-3.177,14.732-7.571,18.449-4.8,3.987-12.1,5.88-21.018,5.88a89.6,89.6,0,0,1-11.693-.675Zm10.34,37.17a18.881,18.881,0,0,0,3.584.2c9.325.067,15.408-5.068,15.408-15.95.068-9.463-5.474-14.463-14.328-14.463a21.422,21.422,0,0,0-4.664.406Z" transform="translate(-62.868 7.592)" fill="#fff"/>
      <path id="alphabet-b-icon" d="M34.54,31.06H60.832q6.571,0,10.085,3.259a10.524,10.524,0,0,1,3.521,8.059,10.116,10.116,0,0,1-2.519,6.908,11.117,11.117,0,0,1-4.9,3.043c3.267.785,5.659,2.123,7.2,4.037a11.154,11.154,0,0,1,2.3,7.2,12.51,12.51,0,0,1-1.637,6.354,12.2,12.2,0,0,1-4.493,4.463,14.871,14.871,0,0,1-5.338,1.48,62.093,62.093,0,0,1-6.294.62H34.54V31.06ZM48.684,48.889h6.123c2.19,0,3.723-.381,4.575-1.129a4.138,4.138,0,0,0,1.293-3.274,3.868,3.868,0,0,0-1.293-3.095Q58.092,40.27,54.9,40.27h-6.22v8.619h.007Zm0,17.822h7.154q3.633,0,5.121-1.293a4.307,4.307,0,0,0,1.488-3.446,3.979,3.979,0,0,0-1.473-3.237c-.987-.815-2.706-1.226-5.173-1.226H48.676v9.2h.007Z" transform="translate(1340.804 1208.071)" fill="#fff" fill-rule="evenodd"/>
    </g>
  </g>
</svg>
