<svg xmlns="http://www.w3.org/2000/svg" width="15.287" height="9.554" viewBox="0 0 15.287 9.554">
  <path id="noun-show-4646188" d="M77.626,104.994c2.864,0,5.538,1.637,7.557,4.5a.478.478,0,0,1,0,.55c-2.02,2.865-4.693,4.5-7.557,4.5s-5.537-1.637-7.556-4.5a.478.478,0,0,1,0-.55c2.018-2.865,4.692-4.5,7.556-4.5Zm0,.955a8.228,8.228,0,0,0-6.384,3.57l-.192.251.192.253a8.335,8.335,0,0,0,6.124,3.564l.261.005a8.231,8.231,0,0,0,6.385-3.57l.191-.253-.191-.251a8.336,8.336,0,0,0-6.124-3.564Zm0,.955a2.866,2.866,0,1,1-2.866,2.866A2.866,2.866,0,0,1,77.627,106.9Zm0,.955a1.911,1.911,0,1,0,1.911,1.911A1.911,1.911,0,0,0,77.627,107.86Z" transform="translate(-69.983 -104.994)" fill="#131313" fill-rule="evenodd"/>
</svg>
