<svg xmlns="http://www.w3.org/2000/svg" width="40" height="40" viewBox="0 0 40 40">
  <g id="Group_13031" data-name="Group 13031" transform="translate(0.341 0)">
    <g id="Polygon_5" data-name="Polygon 5" transform="translate(39.659 40) rotate(180)" fill="#fff">
      <path d="M 28.41164016723633 39 L 11.58835983276367 39 L 1.078361630439758 25.48195457458496 L 4.833378791809082 8.607043266296387 L 20 1.115344762802124 L 35.16661071777344 8.607033729553223 L 38.92163848876953 25.48195457458496 L 28.41164016723633 39 Z" stroke="none"/>
      <path d="M 20 2.230693817138672 L 5.70550537109375 9.291599273681641 L 2.156715393066406 25.23973083496094 L 12.07755661010742 38 L 27.92244338989258 38 L 37.84328460693359 25.23972320556641 L 34.29448699951172 9.291589736938477 L 20 2.230693817138672 M 20 0 L 36.03874969482422 7.922489166259766 L 40 25.72415924072266 L 28.90084075927734 40 L 11.09915924072266 40 L 0 25.72417068481445 L 3.961238861083984 7.922500610351562 L 20 0 Z" stroke="none" fill="#fb0"/>
    </g>
    <path id="Polygon_6" data-name="Polygon 6" d="M16.384,0,29.523,6.394l3.245,14.368L23.676,32.285H9.092L0,20.762,3.245,6.394Z" transform="translate(36.384 36.142) rotate(180)" fill="#fb0"/>
  </g>
</svg>
