<svg id="json" xmlns="http://www.w3.org/2000/svg" xmlns:xlink="http://www.w3.org/1999/xlink" width="309.541" height="386" viewBox="0 0 309.541 386">
  <defs>
    <linearGradient id="linear-gradient" x1="0.5" x2="0.5" y2="1" gradientUnits="objectBoundingBox">
      <stop offset="0" stop-color="#878787"/>
      <stop offset="1" stop-color="#2c2c2c"/>
    </linearGradient>
  </defs>
  <g id="Group_284" data-name="Group 284" transform="translate(-247.818 -149.631)">
    <path id="Path_171" data-name="Path 171" d="M557.153,254.641v54.5c0,208.063-309.335,208.063-309.335,0V191.99a42.355,42.355,0,0,1,42.359-42.359H452.115l83.052,83.024Z" fill="url(#linear-gradient)"/>
    <g id="Group_15204" data-name="Group 15204" transform="translate(1.382 5.949)">
      <path id="Path_104" data-name="Path 104" d="M849.831,1770.885a27,27,0,0,0,11.732,2.916c4.862,0,7.43-2.015,7.43-5.067,0-2.916-2.223-4.583-7.845-6.6-7.776-2.708-12.844-7.014-12.844-13.817,0-7.984,6.664-14.094,17.7-14.094a28.681,28.681,0,0,1,11.941,2.36l-2.36,8.54a22.268,22.268,0,0,0-9.79-2.22c-4.581,0-6.8,2.082-6.8,4.511,0,2.986,2.639,4.306,8.679,6.6,8.262,3.055,12.15,7.361,12.15,13.956,0,7.844-6.039,14.51-18.884,14.51-5.345,0-10.622-1.387-13.26-2.847Z" transform="translate(-545.604 -1528.878)" fill="#fff"/>
      <path id="Path_38506" data-name="Path 38506" d="M250.287,220.705H261v30.007c0,13.526-6.48,18.244-16.906,18.244a27.956,27.956,0,0,1-7.818-1.127l1.2-8.664a17.639,17.639,0,0,0,5.494.847c4.509,0,7.325-2.044,7.325-9.441Z" transform="translate(38.088 -15.356)" fill="#fff"/>
      <path id="Path_38556" data-name="Path 38556" d="M865.829,243.2c0,15.008-9.042,24.108-22.335,24.108-13.495,0-21.39-10.254-21.39-23.294,0-13.72,8.705-23.974,22.133-23.974C858.2,220.042,865.829,230.569,865.829,243.2Zm-32.861.61c0,8.964,4.184,15.282,11.066,15.282,6.949,0,10.929-6.657,10.929-15.554,0-8.217-3.911-15.279-11-15.279C837.016,228.26,832.968,234.916,832.968,243.812Z" transform="translate(-482.839 -13.975)" fill="#fff"/>
      <path id="Path_38557" data-name="Path 38557" d="M3525.448,271.342V220.705h13.285l10.453,18.555a148.261,148.261,0,0,1,8.21,17.355h.22a189.731,189.731,0,0,1-.968-21.11v-14.8h10.45v50.637h-11.943l-10.749-19.535a187.575,187.575,0,0,1-8.733-17.88l-.227.075c.3,6.686.45,13.823.45,22.089v15.252Z" transform="translate(-3139.108 -16.074)" fill="#fff"/>
    </g>
  </g>
  <g id="Group_289" data-name="Group 289" transform="translate(-247.818 -149.631)">
    <path id="Path_176" data-name="Path 176" d="M557.153,254.641H494.447a42.334,42.334,0,0,1-38.112-23.894,40.951,40.951,0,0,1-3.252-9.461,41.441,41.441,0,0,1-.968-9V149.631l83.052,83.024Z" fill="#5c5c5c"/>
  </g>
  <g id="Group_15102" data-name="Group 15102" transform="translate(-248 -149.631)">
    <path id="Rectangle_4604" data-name="Rectangle 4604" d="M0,0H309a0,0,0,0,1,0,0V174a41,41,0,0,1-41,41H41A41,41,0,0,1,0,174V0A0,0,0,0,1,0,0Z" transform="translate(248.541 320.631)" fill="#eee"/>
  </g>
  <g id="Group_82" data-name="Group 82" transform="translate(-2381.002 -108.186)">
    <g id="Group_65" data-name="Group 65" transform="translate(2460.225 326.909)">
      <g id="Group_64" data-name="Group 64">
        <path id="Path_61" data-name="Path 61" d="M2492.791,430.941a32.02,32.02,0,0,1-3.432-.087l2.063.277a12.947,12.947,0,0,1-3.026-.794l1.854.782a12.631,12.631,0,0,1-1.82-.947c-1.391-.887.38.446.467.416-.118.042-.78-.7-.883-.8-.241-.241-.449-.518-.691-.754-.535-.522,1.158,1.8.4.473a18.823,18.823,0,0,1-1.047-1.985l.783,1.854a29.381,29.381,0,0,1-1.331-6.872l.277,2.063a64.68,64.68,0,0,1-.815-12.324c.22-3.753.616-7.5,1.022-11.234q.274-2.531.572-5.058a11.828,11.828,0,0,0,.05-4.782c-1.213-4.337-4.75-5.584-8.291-7.365l-4.506-2.265-1.565-.787c-.957-.482-1-.884.688.686l2,3.425-.065-.242v4.126l.065-.241-2,3.424c-1.55,1.437-1.76,1.226-.905.8l1.329-.668,3.929-1.976a37.889,37.889,0,0,0,6.282-3.372,8.088,8.088,0,0,0,3.279-6.871c-.038-.525-.127-1.051-.189-1.574q-.27-2.271-.523-4.544c-.421-3.787-.824-7.579-1.093-11.38a66.457,66.457,0,0,1,.736-13.54q-.138,1.032-.277,2.063a29.358,29.358,0,0,1,1.331-6.872l-.783,1.854a12.72,12.72,0,0,1,.953-1.841c.883-1.388-.444.353-.412.46-.039-.13.691-.775.8-.884.24-.24.516-.448.752-.69.525-.538-1.8,1.162-.478.4a18.555,18.555,0,0,1,1.962-1.041l-1.854.782a12.949,12.949,0,0,1,3.026-.794l-2.063.277a32.212,32.212,0,0,1,3.432-.087c4.06,0,7.949-3.57,7.761-7.76a7.9,7.9,0,0,0-7.761-7.761c-4.633,0-9.187.658-13.031,3.474a19.29,19.29,0,0,0-6.206,7,26.5,26.5,0,0,0-2.271,8.439c-.641,4.674-1.478,9.465-1.274,14.2.155,3.6.534,7.189.911,10.77q.493,4.679,1.067,9.35.138-1.031.276-2.063l-.052.281,2-3.425c1.462-1.423,1.8-1.209,1.033-.847-.328.155-.648.326-.972.489l-3.049,1.534-6.123,3.078a8.775,8.775,0,0,0-4.511,5.2,8.3,8.3,0,0,0,4.094,9.6c1.847.992,3.753,1.887,5.626,2.829l3.556,1.788,1.241.624c.875.44.507.588-.9-.778l-2-3.424.052.28q-.138-1.031-.276-2.062c-.776,6.316-1.547,12.657-1.922,19.011a61.712,61.712,0,0,0,.725,11.636c.385,2.947.5,6.3,1.512,9.133a20.018,20.018,0,0,0,4.981,7.988,19.549,19.549,0,0,0,8.8,4.882,29.261,29.261,0,0,0,6.707.579c4.06,0,7.949-3.57,7.761-7.76a7.9,7.9,0,0,0-7.761-7.761Z" transform="translate(-2460.224 -326.909)" fill="url(#linear-gradient)"/>
      </g>
    </g>
    <g id="Group_81" data-name="Group 81" transform="translate(2495.185 326.909)">
      <g id="Group_67" data-name="Group 67" transform="translate(75.768)">
        <g id="Group_66" data-name="Group 66">
          <path id="Path_62" data-name="Path 62" d="M2627.768,446.463c4.634,0,9.188-.658,13.031-3.474a19.281,19.281,0,0,0,6.205-7,26.5,26.5,0,0,0,2.271-8.438c.641-4.675,1.478-9.465,1.274-14.2-.155-3.6-.534-7.189-.911-10.769q-.493-4.68-1.067-9.35-.138,1.031-.277,2.062l.053-.28-2,3.424c-1.462,1.423-1.8,1.209-1.033.847.327-.155.648-.326.972-.489l3.049-1.533,6.122-3.079a8.777,8.777,0,0,0,4.512-5.2,8.3,8.3,0,0,0-4.094-9.6c-1.847-.992-3.753-1.887-5.626-2.829l-3.556-1.788-1.241-.624c-.875-.44-.507-.589.9.778l2,3.425-.053-.281q.139,1.031.277,2.063c.775-6.316,1.547-12.657,1.921-19.012a61.661,61.661,0,0,0-.724-11.635c-.385-2.948-.5-6.3-1.512-9.133a20.025,20.025,0,0,0-4.981-7.988,19.563,19.563,0,0,0-8.8-4.882,29.306,29.306,0,0,0-6.707-.579c-4.06,0-7.949,3.57-7.761,7.761a7.9,7.9,0,0,0,7.761,7.76,32.21,32.21,0,0,1,3.432.087l-2.063-.277a12.984,12.984,0,0,1,3.026.794l-1.854-.782a12.781,12.781,0,0,1,1.82.947c1.391.887-.38-.446-.467-.416.119-.041.78.7.883.8.24.241.448.518.691.753.535.522-1.158-1.8-.4-.473a18.616,18.616,0,0,1,1.046,1.985l-.781-1.854a29.42,29.42,0,0,1,1.33,6.872q-.139-1.031-.277-2.063a64.7,64.7,0,0,1,.815,12.324c-.221,3.753-.616,7.5-1.022,11.235q-.274,2.53-.572,5.058a11.823,11.823,0,0,0-.049,4.782c1.212,4.336,4.75,5.584,8.291,7.364l4.506,2.266,1.564.787c.958.482,1.006.883-.687-.687l-2-3.424.065.241v-4.126l-.065.242,2-3.425c1.55-1.437,1.76-1.226.906-.8l-1.329.668-3.93,1.976a37.817,37.817,0,0,0-6.282,3.371,8.089,8.089,0,0,0-3.279,6.871c.037.525.127,1.051.189,1.574q.27,2.271.523,4.544c.421,3.787.824,7.58,1.092,11.38a66.436,66.436,0,0,1-.735,13.54q.138-1.031.277-2.063a29.374,29.374,0,0,1-1.33,6.872l.781-1.854a12.649,12.649,0,0,1-.952,1.841c-.882,1.387.445-.353.412-.461.039.13-.691.775-.8.885-.24.24-.516.448-.753.69-.524.538,1.8-1.162.479-.4a18.549,18.549,0,0,1-1.962,1.04l1.854-.782a12.949,12.949,0,0,1-3.026.794l2.063-.277a32.018,32.018,0,0,1-3.432.087c-4.06,0-7.949,3.57-7.761,7.761a7.9,7.9,0,0,0,7.761,7.76Z" transform="translate(-2620.001 -326.909)" fill="url(#linear-gradient)"/>
        </g>
      </g>
      <g id="Group_80" data-name="Group 80" transform="translate(0 48.719)">
        <g id="Group_71" data-name="Group 71">
          <g id="Group_68" data-name="Group 68">
            <circle id="Ellipse_1" data-name="Ellipse 1" cx="7.819" cy="7.819" r="7.819" transform="translate(0 11.058) rotate(-45)" fill="url(#linear-gradient)"/>
          </g>
          <g id="Group_70" data-name="Group 70" transform="translate(0.679 0.651)">
            <g id="Group_69" data-name="Group 69">
              <path id="Path_63" data-name="Path 63" d="M2527.262,408.554c0,.218-.016.435-.027.652-.025.493-.006.048.013-.051a9.543,9.543,0,0,1-.242,1.024c-.061.2-.132.394-.208.588.037-.094.233-.464.009-.053-.2.363-.4.708-.629,1.053-.334.507.25-.172-.034.038a3.543,3.543,0,0,0-.343.376c-.121.125-.894.776-.393.4a7.769,7.769,0,0,1-.856.557c-.119.067-.245.124-.363.192-.427.245.383-.093-.238.1-.335.1-.663.21-1.008.281-.151.032-.627.082-.047.025-.179.018-.358.033-.538.04-.366.015-.723-.016-1.087-.03-.415-.015.6.137-.051-.013-.207-.048-.411-.089-.615-.146s-.4-.128-.594-.193c-.138-.044-.4-.22.045.023-.3-.165-.609-.306-.9-.491-.143-.09-.277-.2-.421-.288-.325-.193.411.4-.033-.04-.288-.288-.566-.584-.852-.874.341.347.113.162.032.039-.113-.171-.23-.337-.335-.513-.092-.154-.517-1.076-.286-.487a8.1,8.1,0,0,1-.32-.991c-.035-.137-.06-.274-.092-.412-.116-.508.016.421-.031-.266a8,8,0,0,1-.007-.98c.007-.125.13-.8,0-.166.029-.139.05-.278.081-.415.075-.342.187-.669.294-1,.2-.631-.262.432.066-.141.1-.177.189-.363.295-.54.087-.147.185-.286.276-.43s.392-.453.026-.045c.228-.254.45-.505.7-.737.008-.007.5-.455.2-.193s.214-.149.231-.16a9.719,9.719,0,0,1,1.071-.6c-.084.042-.5.177-.045.023.2-.066.393-.136.594-.192q.2-.057.408-.1c.014,0,.7-.127.284-.064s.283-.017.3-.018c.182-.01.364-.013.546-.01s.361.019.543.025c.6.021-.375-.11.158.024.41.1.808.208,1.209.338.588.19-.238-.2.048.022a6.666,6.666,0,0,0,.633.339c.117.07.232.143.346.219s.224.155.333.236q-.382-.3-.049-.019l.719.719c.463.462-.259-.431.1.116.112.171.229.337.335.514s.193.362.294.54c.264.463-.114-.414.066.141.13.4.234.8.337,1.209.032.128.046.49,0-.056.022.29.044.576.048.866a2.587,2.587,0,1,0,5.174,0,10.574,10.574,0,0,0-6.915-9.8,10.4,10.4,0,0,0-11.394,3.042,10.4,10.4,0,1,0,18.308,6.753,2.587,2.587,0,1,0-5.174,0Z" transform="translate(-2511.65 -398.147)" fill="url(#linear-gradient)"/>
            </g>
          </g>
        </g>
        <g id="Group_75" data-name="Group 75" transform="translate(30.191 0.651)">
          <g id="Group_72" data-name="Group 72" transform="translate(1.409 1.437)">
            <circle id="Ellipse_2" data-name="Ellipse 2" cx="7.819" cy="7.819" r="7.819" transform="matrix(0.16, -0.987, 0.987, 0.16, 0, 15.436)" fill="url(#linear-gradient)"/>
          </g>
          <g id="Group_74" data-name="Group 74">
            <g id="Group_73" data-name="Group 73">
              <path id="Path_64" data-name="Path 64" d="M2569.847,408.554c0,.218-.015.435-.026.652-.026.493-.006.048.013-.051a9.784,9.784,0,0,1-.242,1.024c-.061.2-.132.394-.208.588.037-.094.233-.464.008-.053-.2.363-.4.708-.629,1.053-.333.507.25-.172-.035.038a3.533,3.533,0,0,0-.342.376c-.122.125-.894.776-.394.4a7.783,7.783,0,0,1-.855.557c-.119.067-.245.124-.363.192-.426.245.384-.093-.238.1-.335.1-.664.21-1.008.281-.151.032-.628.082-.048.025-.18.018-.358.033-.539.04-.365.015-.723-.016-1.087-.03-.414-.015.6.137-.051-.013-.206-.048-.41-.089-.614-.146s-.4-.128-.595-.193c-.137-.044-.4-.22.045.023-.3-.165-.609-.306-.9-.491-.143-.09-.277-.2-.422-.288-.325-.193.412.4-.033-.04-.288-.288-.566-.584-.851-.874.341.347.113.162.032.039-.113-.171-.23-.337-.335-.513-.092-.154-.518-1.076-.286-.487a7.978,7.978,0,0,1-.321-.991c-.034-.137-.06-.274-.091-.412-.117-.508.016.421-.031-.266a7.907,7.907,0,0,1-.008-.98c.007-.125.13-.8,0-.166.028-.139.05-.278.081-.415.076-.342.188-.669.295-1,.2-.631-.263.432.066-.141.1-.177.188-.363.294-.54.087-.147.184-.286.277-.43s.391-.453.026-.045c.227-.254.449-.505.7-.737.008-.007.505-.455.2-.193s.214-.149.231-.16a9.731,9.731,0,0,1,1.071-.6c-.084.042-.5.177-.045.023.2-.066.393-.136.595-.192.135-.038.271-.072.407-.1.014,0,.7-.127.283-.064s.283-.017.3-.018c.181-.01.364-.013.545-.01s.362.019.542.025c.6.021-.374-.11.159.024.409.1.808.208,1.209.338.588.19-.239-.2.047.022a6.738,6.738,0,0,0,.633.339c.116.07.232.143.345.219s.224.155.333.236q-.381-.3-.049-.019l.72.719c.462.462-.259-.431.1.116.113.171.229.337.335.514s.193.362.294.54c.265.463-.113-.414.066.141.13.4.234.8.338,1.209.032.128.045.49,0-.056.022.29.043.576.047.866a2.587,2.587,0,0,0,5.174,0,10.575,10.575,0,0,0-6.915-9.8,10.4,10.4,0,0,0-11.394,3.042,10.4,10.4,0,1,0,18.309,6.753,2.587,2.587,0,0,0-5.174,0Z" transform="translate(-2554.236 -398.147)" fill="url(#linear-gradient)"/>
            </g>
          </g>
        </g>
        <g id="Group_79" data-name="Group 79" transform="translate(59.705 0.651)">
          <g id="Group_76" data-name="Group 76" transform="translate(1.408 1.437)">
            <circle id="Ellipse_3" data-name="Ellipse 3" cx="7.819" cy="7.819" r="7.819" transform="matrix(0.16, -0.987, 0.987, 0.16, 0, 15.436)" fill="url(#linear-gradient)"/>
          </g>
          <g id="Group_78" data-name="Group 78">
            <g id="Group_77" data-name="Group 77">
              <path id="Path_65" data-name="Path 65" d="M2612.433,408.554c0,.218-.016.435-.027.652-.025.493-.006.048.013-.051a9.485,9.485,0,0,1-.242,1.024c-.061.2-.132.394-.207.588.037-.094.233-.464.008-.053-.2.363-.4.708-.629,1.053-.334.507.25-.172-.034.038a3.436,3.436,0,0,0-.342.376c-.122.125-.894.776-.394.4a7.813,7.813,0,0,1-.855.557c-.119.067-.245.124-.363.192-.426.245.384-.093-.238.1-.335.1-.663.21-1.007.281-.152.032-.628.082-.048.025-.179.018-.358.033-.539.04-.365.015-.723-.016-1.087-.03-.415-.015.6.137-.051-.013-.206-.048-.41-.089-.615-.146s-.4-.128-.594-.193c-.137-.044-.4-.22.045.023-.3-.165-.609-.306-.9-.491-.143-.09-.277-.2-.421-.288-.325-.193.411.4-.033-.04-.288-.288-.566-.584-.852-.874.342.347.113.162.032.039-.113-.171-.229-.337-.335-.513-.091-.154-.517-1.076-.286-.487a8.1,8.1,0,0,1-.32-.991c-.035-.137-.06-.274-.092-.412-.117-.508.015.421-.032-.266a7.955,7.955,0,0,1-.008-.98c.007-.125.13-.8,0-.166.028-.139.05-.278.08-.415.076-.342.187-.669.294-1,.2-.631-.263.432.066-.141.1-.177.189-.363.294-.54.088-.147.185-.286.277-.43s.392-.453.026-.045c.228-.254.45-.505.7-.737.008-.007.5-.455.2-.193s.215-.149.231-.16a9.764,9.764,0,0,1,1.071-.6c-.084.042-.5.177-.045.023.2-.066.393-.136.594-.192q.2-.057.408-.1c.014,0,.7-.127.283-.064s.283-.017.3-.018c.181-.01.363-.013.545-.01s.362.019.542.025c.6.021-.374-.11.158.024.41.1.807.208,1.208.338.588.19-.238-.2.048.022a6.7,6.7,0,0,0,.633.339c.117.07.233.143.346.219s.224.155.333.236c-.255-.2-.271-.2-.049-.019l.719.719c.462.462-.259-.431.1.116.113.171.23.337.335.514s.193.362.294.54c.264.463-.113-.414.066.141.13.4.234.8.337,1.209.033.128.046.49,0-.056.022.29.043.576.047.866a2.587,2.587,0,0,0,5.174,0,10.575,10.575,0,0,0-6.915-9.8A10.4,10.4,0,0,0,2599.3,401.8a10.4,10.4,0,1,0,18.309,6.753,2.587,2.587,0,0,0-5.174,0Z" transform="translate(-2596.822 -398.147)" fill="url(#linear-gradient)"/>
            </g>
          </g>
        </g>
      </g>
    </g>
  </g>
</svg>
