<svg xmlns="http://www.w3.org/2000/svg" width="16.401" height="19.681" viewBox="0 0 16.401 19.681">
  <g id="lessons" transform="translate(-359.6 -308.16)">
    <path id="document" d="M14.3,11.48a.82.82,0,0,1-.82.82H6.92a.82.82,0,1,1,0-1.64h6.56A.82.82,0,0,1,14.3,11.48Zm-3.28,2.46H6.92a.82.82,0,1,0,0,1.64h4.1a.82.82,0,0,0,0-1.64ZM18.4,8.6V15.58a4.105,4.105,0,0,1-4.1,4.1H6.1A4.105,4.105,0,0,1,2,15.58V4.1A4.105,4.105,0,0,1,6.1,0H9.8a5.706,5.706,0,0,1,4.059,1.681L16.719,4.54A5.7,5.7,0,0,1,18.4,8.6ZM12.7,2.841a4.108,4.108,0,0,0-.862-.64V5.74a.82.82,0,0,0,.82.82H16.2a4.086,4.086,0,0,0-.64-.861ZM16.76,8.6c0-.135-.026-.265-.039-.4H12.66A2.46,2.46,0,0,1,10.2,5.74V1.679c-.133-.012-.263-.039-.4-.039H6.1A2.46,2.46,0,0,0,3.64,4.1V15.58a2.46,2.46,0,0,0,2.46,2.46h8.2a2.46,2.46,0,0,0,2.46-2.46Z" transform="translate(357.6 308.16)" fill="#999"/>
  </g>
</svg>
