<svg xmlns="http://www.w3.org/2000/svg" width="17.5" height="21.5" viewBox="0 0 17.5 21.5">
  <g id="mobile" transform="translate(-3.25 -1.25)">
    <g id="Group_13972" data-name="Group 13972">
      <path id="Path_37964" data-name="Path 37964" d="M15,22.75H9c-4.41,0-5.75-1.34-5.75-5.75V7C3.25,2.59,4.59,1.25,9,1.25h6c4.41,0,5.75,1.34,5.75,5.75V17C20.75,21.41,19.41,22.75,15,22.75Zm-6-20c-3.58,0-4.25.68-4.25,4.25V17c0,3.57.67,4.25,4.25,4.25h6c3.58,0,4.25-.68,4.25-4.25V7c0-3.57-.67-4.25-4.25-4.25Z" fill="#999"/>
      <path id="Path_37965" data-name="Path 37965" d="M14,6.25H10a.75.75,0,0,1,0-1.5h4a.75.75,0,0,1,0,1.5Z" fill="#999"/>
      <path id="Path_37966" data-name="Path 37966" d="M12,19.862a2.3,2.3,0,1,1,2.3-2.3,2.3,2.3,0,0,1-2.3,2.3Zm0-3.11a.8.8,0,1,0,.8.8A.8.8,0,0,0,12,16.752Z" fill="#999"/>
    </g>
  </g>
</svg>
