<svg xmlns="http://www.w3.org/2000/svg" width="16.663" height="18.387" viewBox="0 0 16.663 18.387">
  <g id="not" transform="translate(-0.972 -106.974)">
    <path id="bell_3_" data-name="bell(3)" d="M17.509,10.466,16.053,5.229A7.14,7.14,0,0,0,2.2,5.593L1.077,10.66a3.83,3.83,0,0,0,3.739,4.661h.853a3.83,3.83,0,0,0,7.507,0h.642a3.83,3.83,0,0,0,3.691-4.855ZM9.423,16.853a2.3,2.3,0,0,1-2.157-1.532H11.58A2.3,2.3,0,0,1,9.423,16.853Zm6.225-3.972a2.28,2.28,0,0,1-1.83.908h-9a2.3,2.3,0,0,1-2.243-2.8L3.7,5.924a5.608,5.608,0,0,1,10.878-.285l1.455,5.237a2.28,2.28,0,0,1-.385,2.005Z" transform="translate(-0.014 106.971)" fill="#797979"/>
  </g>
</svg>
