<svg id="q_A" data-name="q&amp;A" xmlns="http://www.w3.org/2000/svg" xmlns:xlink="http://www.w3.org/1999/xlink" width="309" height="388" viewBox="0 0 309 388">
  <defs>
    <linearGradient id="linear-gradient" x1="0.5" x2="0.5" y2="1" gradientUnits="objectBoundingBox">
      <stop offset="0" stop-color="#1fb5d3"/>
      <stop offset="1" stop-color="#047e97"/>
    </linearGradient>
  </defs>
  <g id="Group_15102" data-name="Group 15102" transform="translate(-248.153 -149)">
    <rect id="Rectangle_4604" data-name="Rectangle 4604" width="309" height="388" rx="41" transform="translate(248.153 149)" fill="url(#linear-gradient)"/>
  </g>
  <g id="question" transform="translate(-106.477 -88.44)">
    <path id="Path_38006" data-name="Path 38006" d="M232.457,250.619q0-13.5,8.671-27.347,8.656-13.849,25.264-22.919,16.615-9.1,38.775-9.106,20.569,0,36.338,7.6,15.74,7.611,24.343,20.666a50.624,50.624,0,0,1,8.611,28.412,43.59,43.59,0,0,1-4.918,21.137,64.808,64.808,0,0,1-11.643,15.7c-4.506,4.4-12.54,11.8-24.2,22.213a94.02,94.02,0,0,0-7.726,7.757,30.32,30.32,0,0,0-4.334,6.083,26.948,26.948,0,0,0-2.205,5.548c-.525,1.837-1.33,5.092-2.347,9.73q-2.716,14.756-16.916,14.775a17.363,17.363,0,0,1-12.4-4.813q-5.079-4.866-5.073-14.362c0-7.952,1.221-14.852,3.706-20.656a52.425,52.425,0,0,1,9.8-15.331q6.125-6.6,16.476-15.687c6.066-5.314,10.439-9.29,13.13-12a40.5,40.5,0,0,0,6.835-9.026,21.68,21.68,0,0,0,2.769-10.791,25.085,25.085,0,0,0-8.44-19.163q-8.489-7.824-21.8-7.823-15.656,0-23.015,7.876-7.415,7.892-12.5,23.252-4.823,16.014-18.322,16.02a18.007,18.007,0,0,1-13.425-5.6Q232.451,257.15,232.457,250.619Zm69.314,155.62a22.284,22.284,0,0,1-15.153-5.6q-6.457-5.606-6.456-15.711A20.217,20.217,0,0,1,286.4,369.9a21.15,21.15,0,0,1,15.37-6.11,20.863,20.863,0,0,1,21.145,21.139c0,6.638-2.159,11.865-6.4,15.618A21.54,21.54,0,0,1,301.771,406.238Z" transform="translate(-42.481 -16.303)" fill="#fff"/>
  </g>
</svg>
