<svg xmlns="http://www.w3.org/2000/svg" width="24" height="24" viewBox="0 0 24 24">
  <g id="vuesax_outline_sms" data-name="vuesax/outline/sms" transform="translate(-556 -252)">
    <g id="sms">
      <g id="Group_13382" data-name="Group 13382" transform="translate(2.313 1.991)">
        <path id="Vector" d="M12.36,14.519H4.513C1.648,14.519,0,12.871,0,10.006V4.513C0,1.648,1.648,0,4.513,0H12.36c2.864,0,4.513,1.648,4.513,4.513v5.494C16.873,12.871,15.225,14.519,12.36,14.519ZM4.513,1.177c-2.245,0-3.335,1.091-3.335,3.335v5.494c0,2.245,1.091,3.335,3.335,3.335H12.36c2.245,0,3.335-1.091,3.335-3.335V4.513c0-2.245-1.091-3.335-3.335-3.335Z" transform="translate(557.25 254.75)" fill="#292d32"/>
        <path id="Vector-2" data-name="Vector" d="M4.515,3.63a2.917,2.917,0,0,1-1.836-.62L.222,1.048A.586.586,0,1,1,.952.13L3.408,2.092a1.873,1.873,0,0,0,2.205,0L8.07.13a.579.579,0,0,1,.824.094.579.579,0,0,1-.094.824L6.343,3.01A2.88,2.88,0,0,1,4.515,3.63Z" transform="translate(561.172 259.062)" fill="#292d32"/>
      </g>
      <path id="Vector-3" data-name="Vector" d="M0,0H24V24H0Z" transform="translate(556 252)" fill="none" opacity="0"/>
    </g>
  </g>
</svg>
