 <svg xmlns="http://www.w3.org/2000/svg" width="24" height="24" viewBox="0 0 24 24">
  <g id="vuesax_outline_security-safe" data-name="vuesax/outline/security-safe" transform="translate(-364 -316)">
    <g id="security-safe">
      <path id="Vector" d="M9.66,21.513a2.437,2.437,0,0,1-.71-.1A12.233,12.233,0,0,1,0,9.872V5.482a3.183,3.183,0,0,1,1.85-2.76L7.42.442a5.891,5.891,0,0,1,4.48,0l5.57,2.28a3.183,3.183,0,0,1,1.85,2.76v4.39a12.264,12.264,0,0,1-8.95,11.54A2.437,2.437,0,0,1,9.66,21.513Zm0-20a4.4,4.4,0,0,0-1.67.33L2.42,4.122a1.682,1.682,0,0,0-.92,1.37v4.39a10.722,10.722,0,0,0,7.85,10.09,1.09,1.09,0,0,0,.62,0,10.722,10.722,0,0,0,7.85-10.09V5.492a1.682,1.682,0,0,0-.92-1.37l-5.57-2.28A4.4,4.4,0,0,0,9.66,1.513Z" transform="translate(366.34 317.238)" fill="#2660a4"/>
      <path id="Vector-2" data-name="Vector" d="M2.75,5.5A2.75,2.75,0,1,1,5.5,2.75,2.748,2.748,0,0,1,2.75,5.5Zm0-4A1.25,1.25,0,1,0,4,2.75,1.25,1.25,0,0,0,2.75,1.5Z" transform="translate(373.25 323.75)" fill="#2660a4"/>
      <path id="Vector-3" data-name="Vector" d="M.75,4.5A.755.755,0,0,1,0,3.75v-3A.755.755,0,0,1,.75,0,.755.755,0,0,1,1.5.75v3A.755.755,0,0,1,.75,4.5Z" transform="translate(375.25 327.75)" fill="#2660a4"/>
      <path id="Vector-4" data-name="Vector" d="M0,0H24V24H0Z" transform="translate(388 340) rotate(180)" fill="none" opacity="0"/>
    </g>
  </g>
</svg>
