<svg xmlns="http://www.w3.org/2000/svg" width="18.054" height="18.054" viewBox="0 0 18.054 18.054">
  <g id="warning-2" transform="translate(-174.492 -702.445)">
    <g id="vuesax_outline_forbidden-2" data-name="vuesax/outline/forbidden-2" transform="translate(66.492 2.445)">
      <g id="forbidden-2" transform="translate(108 700)">
        <path id="Vector" d="M9.875,15.554h-4.2a2.99,2.99,0,0,1-1.917-.8L.8,11.792A3.021,3.021,0,0,1,0,9.875v-4.2A2.989,2.989,0,0,1,.8,3.762L3.762.8A3.021,3.021,0,0,1,5.679,0h4.2a2.99,2.99,0,0,1,1.917.8l2.966,2.966a3.021,3.021,0,0,1,.8,1.917v4.2a2.989,2.989,0,0,1-.8,1.917l-2.966,2.966A3.005,3.005,0,0,1,9.875,15.554ZM5.679,1.085a1.929,1.929,0,0,0-1.15.477L1.563,4.529a1.994,1.994,0,0,0-.477,1.15v4.2a1.929,1.929,0,0,0,.477,1.15l2.966,2.966a1.994,1.994,0,0,0,1.15.477h4.2a1.929,1.929,0,0,0,1.15-.477l2.966-2.966a1.994,1.994,0,0,0,.477-1.15v-4.2a1.929,1.929,0,0,0-.477-1.15L11.025,1.563a1.994,1.994,0,0,0-1.15-.477Z" transform="translate(1.25 1.25)" fill="#ff6877"/>
        <path id="Vector-2" data-name="Vector" d="M.747,8.5a.742.742,0,0,1-.53-.22.754.754,0,0,1,0-1.06l7-7a.75.75,0,0,1,1.06,1.06l-7,7A.742.742,0,0,1,.747,8.5Z" transform="translate(4.779 4.779)" fill="#ff6877"/>
        <path id="Vector-3" data-name="Vector" d="M7.747,8.5a.742.742,0,0,1-.53-.22l-7-7A.75.75,0,0,1,1.277.218l7,7a.754.754,0,0,1,0,1.06A.742.742,0,0,1,7.747,8.5Z" transform="translate(4.779 4.779)" fill="#ff6877"/>
        <path id="Vector-4" data-name="Vector" d="M0,0H18.054V18.054H0Z" fill="none" opacity="0"/>
      </g>
    </g>
  </g>
</svg>
