<svg xmlns="http://www.w3.org/2000/svg" width="26.35" height="28.35" viewBox="0 0 26.35 28.35">
  <g id="subscribe" transform="translate(-558.249 -189.25)">
    <path id="Vector" d="M0,0H22.089" transform="translate(559.638 198.997)" fill="none" stroke="#999" stroke-linecap="round" stroke-linejoin="round" stroke-width="1.5"/>
    <g id="Group_12631" data-name="Group 12631" transform="translate(558.999 190)">
      <path id="Vector-2" data-name="Vector" d="M0,0V3.833" transform="translate(6.484)" fill="none" stroke="#999" stroke-linecap="round" stroke-linejoin="round" stroke-width="1.5"/>
      <path id="Vector-3" data-name="Vector" d="M0,0V3.833" transform="translate(16.858)" fill="none" stroke="#999" stroke-linecap="round" stroke-linejoin="round" stroke-width="1.5"/>
      <path id="Subtraction_14" data-name="Subtraction 14" d="M16.056,23.451H6.489C1.125,23.451,0,20.005,0,17.116V6.345C0,3.45,1.125,0,6.489,0H16.876c5.364,0,6.489,3.45,6.489,6.345v9.963a5.241,5.241,0,0,0-3.892-1.727,5.138,5.138,0,0,0-5.193,5.072,4.912,4.912,0,0,0,.748,2.614,4.53,4.53,0,0,0,1.024,1.18Z" transform="translate(0 1.915)" fill="none" stroke="#999" stroke-linecap="round" stroke-linejoin="round" stroke-width="1.5"/>
      <path id="Vector-4" data-name="Vector" d="M.495.5H.506" transform="translate(11.171 14.347)" fill="none" stroke="#999" stroke-linecap="round" stroke-linejoin="round" stroke-width="2"/>
      <path id="Vector-5" data-name="Vector" d="M.495.5H.506" transform="translate(6.371 14.347)" fill="none" stroke="#999" stroke-linecap="round" stroke-linejoin="round" stroke-width="2"/>
      <path id="Vector-6" data-name="Vector" d="M.495.5H.506" transform="translate(6.371 18.154)" fill="none" stroke="#999" stroke-linecap="round" stroke-linejoin="round" stroke-width="2"/>
      <g id="Group" transform="translate(14.071 16.071)">
        <path id="Vector-7" data-name="Vector" d="M10.929,5.464a5.356,5.356,0,0,1-.792,2.814,5.423,5.423,0,0,1-4.672,2.65A5.335,5.335,0,0,1,1.872,9.563,4.909,4.909,0,0,1,.792,8.279,5.356,5.356,0,0,1,0,5.464a5.464,5.464,0,0,1,10.929,0Z" transform="translate(0)" fill="#fff" stroke="#999" stroke-linecap="round" stroke-linejoin="round" stroke-width="1.2"/>
        <path id="clock-five" d="M6.12,8.387A.834.834,0,0,0,6.351,7.23L5.379,5.773V2.69a.834.834,0,1,0-1.668,0V6.025a.836.836,0,0,0,.14.463L4.964,8.155a.834.834,0,0,0,1.156.231Z" transform="translate(0.362 0.273)" fill="#999"/>
      </g>
    </g>
  </g>
</svg>
