<svg id="eps" xmlns="http://www.w3.org/2000/svg" xmlns:xlink="http://www.w3.org/1999/xlink" width="310" height="386.369" viewBox="0 0 310 386.369">
  <defs>
    <linearGradient id="linear-gradient" x1="0.5" y1="-0.155" x2="0.5" y2="1" gradientUnits="objectBoundingBox">
      <stop offset="0" stop-color="#ff9a00"/>
      <stop offset="1" stop-color="#300"/>
    </linearGradient>
  </defs>
  <g id="Group_284" data-name="Group 284" transform="translate(-247.818 -149.631)">
    <path id="Path_171" data-name="Path 171" d="M557.153,254.641v54.5c0,208.063-309.335,208.063-309.335,0V191.99a42.355,42.355,0,0,1,42.359-42.359H452.115l83.052,83.024Z" fill="url(#linear-gradient)"/>
  </g>
  <g id="Group_289" data-name="Group 289" transform="translate(-247.818 -149.631)">
    <path id="Path_176" data-name="Path 176" d="M557.153,254.641H494.447a42.334,42.334,0,0,1-38.112-23.894,40.951,40.951,0,0,1-3.252-9.461,41.441,41.441,0,0,1-.968-9V149.631l83.052,83.024Z" fill="#914700"/>
  </g>
  <g id="Group_15102" data-name="Group 15102" transform="translate(-248 -149.631)">
    <path id="Rectangle_4604" data-name="Rectangle 4604" d="M0,0H309a0,0,0,0,1,0,0V174a41,41,0,0,1-41,41H41A41,41,0,0,1,0,174V0A0,0,0,0,1,0,0Z" transform="translate(249 321)" fill="#eee"/>
    <g id="Layer_2_1_" transform="translate(321 348)">
      <g id="Surfaces">
        <g id="Drawing_Surface">
          <g id="Outline_no_shadow">
            <path id="Path_38494" data-name="Path 38494" d="M29.085,0H135.161a29.061,29.061,0,0,1,29.085,29.085v101.97a29.061,29.061,0,0,1-29.085,29.085H29.085A29.061,29.061,0,0,1,0,131.055V29.085A29.061,29.061,0,0,1,29.085,0Z" fill="#300"/>
          </g>
        </g>
      </g>
      <g id="Outlined_Mnemonics_Logos" transform="translate(33.938 35.518)">
        <g id="Ai">
          <path id="Path_38495" data-name="Path 38495" d="M95.244,114.991H69.786l-5.2,16.083a1.2,1.2,0,0,1-1.3.958H50.418c-.753,0-.958-.411-.753-1.232L71.7,67.36c.205-.684.411-1.437.684-2.258a23.9,23.9,0,0,0,.411-4.448.678.678,0,0,1,.547-.753H91.069c.547,0,.821.205.89.547l24.979,70.489c.205.753,0,1.095-.684,1.095h-14.3a1.033,1.033,0,0,1-1.095-.753ZM73.755,101.1H91.138c-.411-1.437-.958-3.148-1.574-4.927-.616-1.848-1.232-3.832-1.848-5.886-.684-2.122-1.3-4.175-1.985-6.3s-1.3-4.106-1.848-6.091c-.547-1.916-1.027-3.7-1.506-5.338h-.137a84.027,84.027,0,0,1-2.327,8.828c-1.027,3.285-2.053,6.707-3.148,10.129-.958,3.49-1.985,6.707-3.011,9.581Z" transform="translate(-49.59 -54.425)" fill="#ff9a00"/>
          <path id="Path_38496" data-name="Path 38496" d="M165.916,69.077a8.47,8.47,0,0,1-6.091-2.4,8.891,8.891,0,0,1-2.327-6.3,8.052,8.052,0,0,1,2.464-6.091,8.765,8.765,0,0,1,6.091-2.4,8.2,8.2,0,0,1,6.228,2.4,9.408,9.408,0,0,1-.137,12.387A8.047,8.047,0,0,1,165.916,69.077Zm-7.665,59.4v-52.7c0-.684.274-.958.89-.958h13.55c.616,0,.89.342.89.958v52.7c0,.753-.274,1.095-.89,1.095H159.278A.958.958,0,0,1,158.251,128.48Z" transform="translate(-83.649 -51.9)" fill="#ff9a00"/>
        </g>
      </g>
    </g>
  </g>
  <g id="Group_145" data-name="Group 145" transform="translate(-757.684 -1689.52)">
    <path id="Path_102" data-name="Path 102" d="M820.775,1772.511H796.788v15.471h26.789v12.089H781.992V1734.89h40.232v12.089H796.788v13.539h23.986Z" transform="translate(0 0.4)" fill="#fff"/>
    <path id="Path_103" data-name="Path 103" d="M814.2,1735.943a120.549,120.549,0,0,1,19.921-1.354c9.091,0,15.571,1.742,19.923,5.223a19.059,19.059,0,0,1,6.963,15.086c0,6.381-2.128,11.8-6,15.473-5.029,4.739-12.476,6.867-21.18,6.867a37.277,37.277,0,0,1-5.029-.29v23.306H814.2Zm14.6,29.592a22.522,22.522,0,0,0,4.934.388c7.832,0,12.668-3.966,12.668-10.638,0-6-4.16-9.573-11.509-9.573a25.113,25.113,0,0,0-6.094.58Z" transform="translate(19.442 0.218)" fill="#fff"/>
    <path id="Path_104" data-name="Path 104" d="M850.676,1785.29a37.61,37.61,0,0,0,16.342,4.062c6.772,0,10.349-2.806,10.349-7.059,0-4.062-3.1-6.384-10.928-9.187-10.832-3.772-17.891-9.771-17.891-19.246,0-11.121,9.283-19.633,24.66-19.633a39.948,39.948,0,0,1,16.634,3.287l-3.287,11.9a31.017,31.017,0,0,0-13.637-3.093c-6.381,0-9.477,2.9-9.477,6.284,0,4.16,3.675,6,12.089,9.187,11.509,4.256,16.924,10.253,16.924,19.44,0,10.927-8.412,20.211-26.305,20.211-7.445,0-14.8-1.932-18.47-3.966Z" transform="translate(39.647)" fill="#fff"/>
  </g>
</svg>
