<svg id="file-upload-" xmlns="http://www.w3.org/2000/svg" width="20.315" height="20.315" viewBox="0 0 20.315 20.315">
  <path id="Path_36869" data-name="Path 36869" d="M100.533,46.137h6.717a.359.359,0,1,0,0-.719h-6.717A1.82,1.82,0,0,1,98.715,43.6V30.536a1.82,1.82,0,0,1,1.818-1.818H111.42a1.82,1.82,0,0,1,1.818,1.818v6.173a.359.359,0,0,0,.719,0V30.536A2.54,2.54,0,0,0,111.42,28H100.533A2.54,2.54,0,0,0,98,30.536V43.6a2.54,2.54,0,0,0,2.537,2.537Z" transform="translate(-97.996 -27.999)" fill="#ec5252"/>
  <path id="Path_36870" data-name="Path 36870" d="M346.348,271.09a5.258,5.258,0,1,0,5.259,5.258A5.264,5.264,0,0,0,346.348,271.09Zm0,9.8a4.54,4.54,0,1,1,4.54-4.54A4.545,4.545,0,0,1,346.348,280.888Z" transform="translate(-331.291 -261.291)" fill="#ec5252"/>
  <path id="Path_36871" data-name="Path 36871" d="M196.3,136.04h-7.991a.359.359,0,1,0,0,.718H196.3a.359.359,0,0,0,0-.718Z" transform="translate(-184.32 -131.685)" fill="#ec5252"/>
  <path id="Path_36872" data-name="Path 36872" d="M196.651,230.928a.359.359,0,0,0-.359-.36H188.3a.359.359,0,0,0,0,.719h7.991a.36.36,0,0,0,.359-.359Z" transform="translate(-184.316 -222.403)" fill="#ec5252"/>
  <path id="Path_36873" data-name="Path 36873" d="M188.305,325.11a.359.359,0,0,0,0,.719h4.725a.359.359,0,0,0,0-.719Z" transform="translate(-184.32 -313.134)" fill="#ec5252"/>
  <path id="Path_36874" data-name="Path 36874" d="M411.395,338.71l-.006,0a.419.419,0,0,0-.049-.04c-.01-.006-.02-.011-.03-.016a.273.273,0,0,0-.032-.017c-.012-.005-.025-.008-.038-.012l-.029-.009a.371.371,0,0,0-.141,0l-.029.009c-.013,0-.026.007-.038.012a.276.276,0,0,0-.032.017.292.292,0,0,0-.03.016.407.407,0,0,0-.049.04l-.006,0-2.177,2.177a.359.359,0,0,0,.508.508l1.564-1.564v3.487a.36.36,0,1,0,.719,0v-3.487l1.564,1.564a.359.359,0,0,0,.508-.508Z" transform="translate(-396.084 -326.086)" fill="#ec5252"/>
</svg>
