<svg id="Add_files" data-name="Add files" xmlns="http://www.w3.org/2000/svg" width="261.323" height="145.503" viewBox="0 0 261.323 145.503">
  <ellipse id="Ellipse_273" data-name="Ellipse 273" cx="130.662" cy="5.893" rx="130.662" ry="5.893" transform="translate(0 133.717)" fill="#f1f1f1"/>
  <g id="freepik--Folder--inject-5" transform="translate(94.01 21.552)">
    <rect id="Rectangle_4638" data-name="Rectangle 4638" width="106.989" height="69.173" transform="translate(0 48.885)" fill="#ec5252"/>
    <path id="Path_38724" data-name="Path 38724" d="M542.439,246.13h33.715v7.165H540.5Z" transform="translate(-469.165 -204.41)" fill="#ec5252"/>
    <g id="Group_15556" data-name="Group 15556" transform="translate(0 41.72)" opacity="0.1">
      <rect id="Rectangle_4639" data-name="Rectangle 4639" width="106.989" height="69.173" transform="translate(0 7.165)"/>
      <path id="Path_38725" data-name="Path 38725" d="M542.439,246.13h33.715v7.165H540.5Z" transform="translate(-469.165 -246.13)"/>
    </g>
    <path id="Path_38726" data-name="Path 38726" d="M398.62,141.279a7.52,7.52,0,0,1,0-3.4,6.554,6.554,0,0,1,.193,1.7A6.723,6.723,0,0,1,398.62,141.279Z" transform="translate(-381.847 -137.88)" fill="#263238"/>
    <path id="Path_38727" data-name="Path 38727" d="M407.91,144.595a6.714,6.714,0,0,1,.682-1.569,6.605,6.605,0,0,1,1.014-1.376,6.554,6.554,0,0,1-.682,1.569A6.664,6.664,0,0,1,407.91,144.595Z" transform="translate(-387.676 -140.197)" fill="#263238"/>
    <path id="Path_38728" data-name="Path 38728" d="M414.4,153.3a6.7,6.7,0,0,1,1.372-1.018,6.89,6.89,0,0,1,1.557-.678,7.535,7.535,0,0,1-2.929,1.7Z" transform="translate(-391.665 -146.312)" fill="#263238"/>
    <path id="Path_38729" data-name="Path 38729" d="M416.65,164.781a6.856,6.856,0,0,1,1.7-.193,6.551,6.551,0,0,1,1.7.193,6.878,6.878,0,0,1-1.7.193A6.73,6.73,0,0,1,416.65,164.781Z" transform="translate(-393.048 -154.294)" fill="#263238"/>
    <path id="Path_38730" data-name="Path 38730" d="M414.06,174.08a6.7,6.7,0,0,1,1.569.678A6.827,6.827,0,0,1,417,175.776,7.624,7.624,0,0,1,414.06,174.08Z" transform="translate(-391.456 -160.128)" fill="#263238"/>
    <path id="Path_38731" data-name="Path 38731" d="M407.33,180.56a6.867,6.867,0,0,1,1.017,1.376,6.691,6.691,0,0,1,.682,1.565A7.519,7.519,0,0,1,407.33,180.56Z" transform="translate(-387.32 -164.111)" fill="#263238"/>
    <path id="Path_38732" data-name="Path 38732" d="M397.941,182.81a7.52,7.52,0,0,1,0,3.4,6.554,6.554,0,0,1-.193-1.7A6.724,6.724,0,0,1,397.941,182.81Z" transform="translate(-381.43 -165.494)" fill="#263238"/>
    <path id="Path_38733" data-name="Path 38733" d="M386.566,180.22a6.712,6.712,0,0,1-.682,1.569,6.588,6.588,0,0,1-1.014,1.38,6.741,6.741,0,0,1,.682-1.572A6.958,6.958,0,0,1,386.566,180.22Z" transform="translate(-373.516 -163.902)" fill="#263238"/>
    <path id="Path_38734" data-name="Path 38734" d="M378.095,173.49a6.827,6.827,0,0,1-1.376,1.017,6.552,6.552,0,0,1-1.569.686A7.642,7.642,0,0,1,378.095,173.49Z" transform="translate(-367.542 -159.766)" fill="#263238"/>
    <path id="Path_38735" data-name="Path 38735" d="M375.119,164.112a6.908,6.908,0,0,1-1.7.193,6.727,6.727,0,0,1-1.7-.189,6.734,6.734,0,0,1,1.7-.2A6.912,6.912,0,0,1,375.119,164.112Z" transform="translate(-365.434 -153.883)" fill="#263238"/>
    <path id="Path_38736" data-name="Path 38736" d="M378.424,152.736a6.784,6.784,0,0,1-1.569-.682,6.956,6.956,0,0,1-1.376-1.014,6.708,6.708,0,0,1,1.569.678A6.619,6.619,0,0,1,378.424,152.736Z" transform="translate(-367.745 -145.968)" fill="#263238"/>
    <path id="Path_38737" data-name="Path 38737" d="M387.143,144.311a6.7,6.7,0,0,1-1.017-1.372,6.551,6.551,0,0,1-.686-1.569,6.615,6.615,0,0,1,1.018,1.376A6.861,6.861,0,0,1,387.143,144.311Z" transform="translate(-373.866 -140.025)" fill="#263238"/>
    <rect id="Rectangle_4640" data-name="Rectangle 4640" width="69.585" height="89.322" transform="translate(29.877 15.146)" fill="#ebebeb"/>
    <path id="Path_38738" data-name="Path 38738" d="M502.21,266.2l-69.581.123h-.123V266.2l-.066-89.322v-.189h.189l69.581.042h.146v.146Zm0,0-.143-89.322.143.143-69.581.046.189-.189-.069,89.322-.119-.119Z" transform="translate(-402.752 -161.732)" fill="#dbdbdb"/>
    <path id="Path_38739" data-name="Path 38739" d="M452.68,226.6l27.179-.069,27.179.069-27.179.069Z" transform="translate(-415.192 -192.364)" fill="#c7c7c7"/>
    <path id="Path_38740" data-name="Path 38740" d="M452.68,232.349l27.179-.069,27.179.069-27.179.069Z" transform="translate(-415.192 -195.898)" fill="#c7c7c7"/>
    <path id="Path_38741" data-name="Path 38741" d="M452.68,238.109l27.179-.069,27.179.069-27.179.066Z" transform="translate(-415.192 -199.438)" fill="#c7c7c7"/>
    <path id="Path_38742" data-name="Path 38742" d="M452.68,243.859l27.179-.069,27.179.069-27.179.069Z" transform="translate(-415.192 -202.972)" fill="#c7c7c7"/>
    <path id="Path_38743" data-name="Path 38743" d="M452.68,249.609l27.179-.069,27.179.069-27.179.069Z" transform="translate(-415.192 -206.506)" fill="#c7c7c7"/>
    <path id="Path_38744" data-name="Path 38744" d="M452.68,255.359l27.179-.069,27.179.069-27.179.069Z" transform="translate(-415.192 -210.04)" fill="#c7c7c7"/>
    <path id="Path_38745" data-name="Path 38745" d="M452.68,261.109l27.179-.069,27.179.069-27.179.069Z" transform="translate(-415.192 -213.573)" fill="#c7c7c7"/>
    <path id="Path_38746" data-name="Path 38746" d="M452.68,266.865l27.179-.065,27.179.065-27.179.069Z" transform="translate(-415.192 -217.113)" fill="#c7c7c7"/>
    <path id="Path_38747" data-name="Path 38747" d="M452.68,272.619l27.179-.069,27.179.069-27.179.066Z" transform="translate(-415.192 -220.647)" fill="#c7c7c7"/>
    <path id="Path_38748" data-name="Path 38748" d="M452.68,278.369l27.179-.069,27.179.069-27.179.066Z" transform="translate(-415.192 -224.181)" fill="#c7c7c7"/>
    <path id="Path_38749" data-name="Path 38749" d="M452.68,284.119l27.179-.069,27.179.069-27.179.069Z" transform="translate(-415.192 -227.715)" fill="#c7c7c7"/>
    <path id="Path_38750" data-name="Path 38750" d="M452.68,289.869l27.179-.069,27.179.069-27.179.069Z" transform="translate(-415.192 -231.249)" fill="#c7c7c7"/>
    <path id="Path_38751" data-name="Path 38751" d="M452.68,295.619l27.179-.069,27.179.069-27.179.069Z" transform="translate(-415.192 -234.783)" fill="#c7c7c7"/>
    <path id="Path_38752" data-name="Path 38752" d="M452.68,301.376l27.179-.066,27.179.066-27.179.069Z" transform="translate(-415.192 -238.323)" fill="#c7c7c7"/>
    <path id="Path_38753" data-name="Path 38753" d="M452.68,307.126l27.179-.066,27.179.066-27.179.069Z" transform="translate(-415.192 -241.857)" fill="#c7c7c7"/>
    <rect id="Rectangle_4641" data-name="Rectangle 4641" width="4.124" height="9.304" transform="translate(43.235 58.551)" fill="#ec5252"/>
    <rect id="Rectangle_4642" data-name="Rectangle 4642" width="4.124" height="14.264" transform="translate(50.881 53.591)" fill="#ec5252"/>
    <rect id="Rectangle_4643" data-name="Rectangle 4643" width="4.124" height="19.821" transform="translate(58.528 48.033)" fill="#ec5252"/>
    <rect id="Rectangle_4644" data-name="Rectangle 4644" width="4.124" height="22.207" transform="translate(66.178 45.647)" fill="#ec5252"/>
    <rect id="Rectangle_4645" data-name="Rectangle 4645" width="4.124" height="26.458" transform="translate(73.824 41.396)" fill="#ec5252"/>
    <rect id="Rectangle_4646" data-name="Rectangle 4646" width="4.124" height="30.659" transform="translate(81.471 37.196)" fill="#ec5252"/>
    <path id="Path_38754" data-name="Path 38754" d="M456.094,222.68l.108,8.791.073,8.795c.05,5.862.065,11.724.077,17.586l-.258-.254h13.223l13.219.031,13.223.085,13.219.15-13.219.15-13.223.085-13.219.031H455.84v-.254q0-8.793.073-17.586l.077-8.795Z" transform="translate(-417.134 -189.998)" fill="#c7c7c7"/>
    <rect id="Rectangle_4647" data-name="Rectangle 4647" width="4.124" height="0.374" transform="translate(43.235 69.712)" fill="#c7c7c7"/>
    <rect id="Rectangle_4648" data-name="Rectangle 4648" width="4.124" height="0.374" transform="translate(50.881 69.712)" fill="#c7c7c7"/>
    <rect id="Rectangle_4649" data-name="Rectangle 4649" width="4.124" height="0.374" transform="translate(58.528 69.712)" fill="#c7c7c7"/>
    <rect id="Rectangle_4650" data-name="Rectangle 4650" width="4.124" height="0.374" transform="translate(66.178 69.712)" fill="#c7c7c7"/>
    <rect id="Rectangle_4651" data-name="Rectangle 4651" width="4.124" height="0.374" transform="translate(73.824 69.712)" fill="#c7c7c7"/>
    <rect id="Rectangle_4652" data-name="Rectangle 4652" width="4.124" height="0.374" transform="translate(81.471 69.712)" fill="#c7c7c7"/>
    <path id="Path_38755" data-name="Path 38755" d="M468.788,258.254a49.862,49.862,0,0,0,6.02-.459,59.161,59.161,0,0,0,5.931-1.068,51.32,51.32,0,0,0,11.327-3.989A40.3,40.3,0,0,0,501.96,246l.559-.5.528-.536,1.052-1.075c.648-.771,1.345-1.488,1.927-2.312a41.026,41.026,0,0,0,3.376-5.01h.035a35.963,35.963,0,0,1-7.165,9.739,35.461,35.461,0,0,1-4.71,3.854,40.2,40.2,0,0,1-5.245,3.083,51.258,51.258,0,0,1-23.537,5.01Z" transform="translate(-425.087 -198.528)" fill="#263238"/>
    <path id="Path_38756" data-name="Path 38756" d="M570.519,238.6l-.57.143-.7-2.813-2.756.906-.181-.559,3.353-1.1Z" transform="translate(-485.028 -197.674)" fill="#263238"/>
    <rect id="Rectangle_4653" data-name="Rectangle 4653" width="56.685" height="2.293" transform="translate(93.01 83.98) rotate(180)" fill="#dbdbdb"/>
    <rect id="Rectangle_4654" data-name="Rectangle 4654" width="31.912" height="2.293" transform="translate(68.24 89.769) rotate(180)" fill="#dbdbdb"/>
    <rect id="Rectangle_4655" data-name="Rectangle 4655" width="31.912" height="2.293" transform="translate(80.623 27.31) rotate(180)" fill="#dbdbdb"/>
    <path id="Path_38757" data-name="Path 38757" d="M468.175,254.046l-69.585-.035.046-89.322,51.664.027,17.91,17.027Z" transform="translate(-381.948 -154.357)" fill="#ec5252"/>
    <path id="Path_38758" data-name="Path 38758" d="M468.175,254.046l-69.585-.035.046-89.322,51.664.027,17.91,17.027Z" transform="translate(-381.948 -154.357)" fill="#fff" opacity="0.6"/>
    <path id="Path_38759" data-name="Path 38759" d="M532.748,164.76l17.91,17.027-17.918-.008Z" transform="translate(-464.396 -154.4)" fill="#ec5252"/>
    <path id="Path_38760" data-name="Path 38760" d="M532.748,164.76l17.91,17.027-17.918-.008Z" transform="translate(-464.396 -154.4)" fill="#fff" opacity="0.4"/>
    <rect id="Rectangle_4656" data-name="Rectangle 4656" width="38.687" height="2.293" transform="translate(62.116 27.718) rotate(180)" fill="#fff"/>
    <rect id="Rectangle_4657" data-name="Rectangle 4657" width="38.687" height="2.293" transform="translate(62.156 33.424) rotate(-179.97)" fill="#fff"/>
    <rect id="Rectangle_4658" data-name="Rectangle 4658" width="38.687" height="2.293" transform="translate(62.147 39.213) rotate(-179.97)" fill="#fff"/>
    <rect id="Rectangle_4659" data-name="Rectangle 4659" width="56.685" height="2.293" transform="translate(80.141 45.009) rotate(-179.97)" fill="#fff"/>
    <rect id="Rectangle_4660" data-name="Rectangle 4660" width="56.685" height="2.293" transform="translate(80.14 50.802) rotate(-179.97)" fill="#fff"/>
    <rect id="Rectangle_4661" data-name="Rectangle 4661" width="56.685" height="2.293" transform="translate(80.139 56.59) rotate(-179.97)" fill="#fff"/>
    <rect id="Rectangle_4662" data-name="Rectangle 4662" width="56.685" height="2.293" transform="translate(80.135 62.379) rotate(-179.97)" fill="#fff"/>
    <rect id="Rectangle_4663" data-name="Rectangle 4663" width="56.685" height="2.293" transform="translate(80.13 68.168) rotate(-179.97)" fill="#fff"/>
    <rect id="Rectangle_4664" data-name="Rectangle 4664" width="56.685" height="2.293" transform="translate(80.129 73.961) rotate(-179.97)" fill="#fff"/>
    <rect id="Rectangle_4665" data-name="Rectangle 4665" width="56.685" height="2.293" transform="translate(80.128 79.75) rotate(-179.97)" fill="#fff"/>
    <rect id="Rectangle_4666" data-name="Rectangle 4666" width="56.685" height="2.293" transform="translate(80.124 85.534) rotate(-179.97)" fill="#fff"/>
    <rect id="Rectangle_4667" data-name="Rectangle 4667" width="56.685" height="2.293" transform="translate(80.119 91.323) rotate(-179.97)" fill="#fff"/>
    <path id="Path_38761" data-name="Path 38761" d="M356.06,343.044H463.049l7.361-63.434H363.421Z" transform="translate(-355.81 -224.986)" fill="#ec5252"/>
    <path id="Path_38762" data-name="Path 38762" d="M562.948,262.56h33.719l-.763,6.571H560.25Z" transform="translate(-481.304 -214.508)" fill="#ec5252"/>
  </g>
  <g id="freepik--Clips--inject-5" transform="translate(173.805)">
    <path id="Path_38763" data-name="Path 38763" d="M609.441,187.224A7.813,7.813,0,0,1,607,183.069a7.917,7.917,0,0,1,.964-5.719,7.234,7.234,0,0,1,4.652-3.407l10.545-2.312.3,1.364-10.541,2.312a5.839,5.839,0,0,0-3.754,2.76,6.552,6.552,0,0,0-.794,4.7,6.267,6.267,0,0,0,7.246,4.879l19.964-4.371a4.8,4.8,0,1,0-2.054-9.385l-19.309,4.239a3.889,3.889,0,0,0-2.363,1.5,3.218,3.218,0,0,0-.509,2.609,3.434,3.434,0,0,0,4.324,2.536l16.6-3.634.3,1.368-16.6,3.631a4.811,4.811,0,1,1-2.054-9.385l19.313-4.239a6.2,6.2,0,1,1,2.652,12.122l-19.964,4.369A7.407,7.407,0,0,1,609.441,187.224Z" transform="translate(-589.724 -137.071)" fill="#131313"/>
    <path id="Path_38764" data-name="Path 38764" d="M575.018,114.492a7.816,7.816,0,0,1-4.555,1.572,7.92,7.92,0,0,1-5.419-2.077,7.215,7.215,0,0,1-2.417-5.234l-.177-10.791,1.4-.023.177,10.791a5.812,5.812,0,0,0,1.962,4.22,6.5,6.5,0,0,0,4.451,1.711,6.266,6.266,0,0,0,6.217-6.14L576.321,88.1a4.8,4.8,0,1,0-9.6.154l.32,19.767a3.877,3.877,0,0,0,1.006,2.609,3.21,3.21,0,0,0,2.455,1.014,3.43,3.43,0,0,0,3.341-3.735l-.278-17,1.4-.023.274,17a4.809,4.809,0,1,1-9.6.146l-.32-19.764a6.2,6.2,0,1,1,12.407-.2l.33,20.427A7.4,7.4,0,0,1,575.018,114.492Z" transform="translate(-562.45 -81.96)" fill="#131313"/>
  </g>
  <g id="Group_15562" data-name="Group 15562" transform="translate(25.584 50.389)">
    <g id="Group_15562-2" data-name="Group 15562" transform="translate(0 0)">
      <path id="Path_38792" data-name="Path 38792" d="M256,121.786q-31.218-7.3-61.784-14.326c-7.662,25.121-5.6,54.342-16.341,78.16q31.218,7.3,61.781,14.326C247.316,174.825,245.251,145.615,256,121.786Z" transform="translate(-177.87 -107.46)" fill="#f4f4f7"/>
      <path id="Path_38793" data-name="Path 38793" d="M202.94,282.189Q219.9,286.082,236.7,289.9c.15-.663.3-1.33.443-2q-16.769-3.812-33.669-7.681C203.3,280.906,203.125,281.542,202.94,282.189Z" transform="translate(-193.279 -213.636)" fill="#dbdbdb"/>
      <path id="Path_38794" data-name="Path 38794" d="M206.29,269.269q16.831,3.854,33.53,7.627.189-1.01.385-2.027-16.68-3.769-33.461-7.589C206.6,267.943,206.448,268.61,206.29,269.269Z" transform="translate(-195.337 -205.684)" fill="#dbdbdb"/>
      <path id="Path_38795" data-name="Path 38795" d="M209.14,256.12q16.727,3.8,33.353,7.55.17-1.021.331-2.046-16.611-3.746-33.3-7.523Q209.337,255.114,209.14,256.12Z" transform="translate(-197.089 -197.584)" fill="#dbdbdb"/>
      <path id="Path_38796" data-name="Path 38796" d="M211.57,242.813q24.392,5.511,48.631,10.957.146-1.037.281-2.066-24.238-5.446-48.561-10.934C211.8,241.452,211.686,242.131,211.57,242.813Z" transform="translate(-198.581 -189.391)" fill="#dbdbdb"/>
      <path id="Path_38797" data-name="Path 38797" d="M213.7,229.378q24.281,5.477,48.507,10.907l.266-2.073Q238.258,232.777,214,227.32,213.854,228.353,213.7,229.378Z" transform="translate(-199.89 -181.124)" fill="#dbdbdb"/>
      <path id="Path_38798" data-name="Path 38798" d="M215.6,215.866q24.246,5.454,48.449,10.88.135-1.037.27-2.07L215.877,213.8Z" transform="translate(-201.057 -172.815)" fill="#dbdbdb"/>
      <path id="Path_38799" data-name="Path 38799" d="M217.38,202.31l48.453,10.884c.092-.69.189-1.376.285-2.066L217.65,200.24C217.561,200.918,217.469,201.62,217.38,202.31Z" transform="translate(-202.154 -164.482)" fill="#dbdbdb"/>
      <path id="Path_38800" data-name="Path 38800" d="M219.14,188.75q24.227,5.442,48.507,10.911.158-1.029.316-2.05-24.346-5.492-48.561-10.93Q219.275,187.717,219.14,188.75Z" transform="translate(-203.234 -156.148)" fill="#dbdbdb"/>
      <path id="Path_38801" data-name="Path 38801" d="M221,175.232q24.281,5.45,48.65,10.965.177-1.017.362-2.031-24.45-5.531-48.719-11Q221.127,174.2,221,175.232Z" transform="translate(-204.379 -147.845)" fill="#dbdbdb"/>
      <path id="Path_38802" data-name="Path 38802" d="M222.94,161.787q24.331,5.484,48.846,11.05.2-1.006.424-2.008-24.581-5.592-48.939-11.088C223.156,160.422,223.048,161.1,222.94,161.787Z" transform="translate(-205.568 -139.591)" fill="#dbdbdb"/>
      <path id="Path_38803" data-name="Path 38803" d="M225.19,148.463q24.431,5.531,49.1,11.157.243-.987.5-1.973-24.751-5.665-49.22-11.208C225.437,147.114,225.313,147.789,225.19,148.463Z" transform="translate(-206.951 -131.416)" fill="#dbdbdb"/>
      <path id="Path_38804" data-name="Path 38804" d="M227.79,135.313Q252.352,140.9,277.2,146.6c.193-.647.385-1.291.59-1.927q-24.959-5.746-49.571-11.354C228.079,133.967,227.933,134.642,227.79,135.313Z" transform="translate(-208.549 -123.353)" fill="#dbdbdb"/>
      <circle id="Ellipse_266" data-name="Ellipse 266" cx="12.745" cy="12.745" r="12.745" transform="translate(39.542 64.591)" fill="#ec5252"/>
    </g>
    <rect id="Rectangle_4668" data-name="Rectangle 4668" width="2.617" height="15.744" transform="translate(50.983 69.463)" fill="#fff"/>
    <rect id="Rectangle_4669" data-name="Rectangle 4669" width="2.617" height="15.744" transform="translate(60.163 76.03) rotate(90)" fill="#fff"/>
  </g>
</svg>
