<svg xmlns="http://www.w3.org/2000/svg" width="40" height="40" viewBox="0 0 40 40">
  <g id="Group_13031" data-name="Group 13031" transform="translate(0.3 0)">
    <g id="Polygon_5" data-name="Polygon 5" transform="translate(39.7 40) rotate(180)" fill="#f9f9f9">
      <path d="M 28.41164016723633 39 L 11.58835983276367 39 L 1.078361630439758 25.48195457458496 L 4.833378791809082 8.607043266296387 L 20 1.115344762802124 L 35.16661071777344 8.607033729553223 L 38.92163848876953 25.48195457458496 L 28.41164016723633 39 Z" stroke="none"/>
      <path d="M 20 2.230693817138672 L 5.70550537109375 9.291599273681641 L 2.156715393066406 25.23973083496094 L 12.07755661010742 38 L 27.92244338989258 38 L 37.84328460693359 25.23972320556641 L 34.29448699951172 9.291589736938477 L 20 2.230693817138672 M 20 0 L 36.03874969482422 7.922489166259766 L 40 25.72415924072266 L 28.90084075927734 40 L 11.09915924072266 40 L 0 25.72417068481445 L 3.961238861083984 7.922500610351562 L 20 0 Z" stroke="none" fill="#77d14b"/>
    </g>
    <g id="Polygon_6" data-name="Polygon 6" transform="translate(37.036 36.785) rotate(180)" fill="#77d14b">
      <path d="M 9.938906669616699 32.56915664672852 L 1.080519199371338 21.34346389770508 L 4.243738651275635 7.337718486785889 L 17.03582000732422 1.112135171890259 L 29.82790184020996 7.337708950042725 L 32.99111938476562 21.34345436096191 L 24.13273239135742 32.56914520263672 L 9.938906669616699 32.56915664672852 Z" stroke="none"/>
      <path d="M 17.03582572937012 2.224275588989258 L 5.11332893371582 8.026655197143555 L 2.161039352416992 21.09846496582031 L 10.42364311218262 31.56915664672852 L 23.64799499511719 31.56914710998535 L 31.91060066223145 21.09845352172852 L 28.95830917358398 8.026639938354492 L 17.03582572937012 2.224275588989258 M 17.03582000732422 -3.814697265625e-06 L 30.69749069213867 6.648777008056641 L 34.07164001464844 21.58845520019531 L 24.61746978759766 33.56914520263672 L 9.454170227050781 33.56915664672852 L 0 21.58846664428711 L 3.374149322509766 6.648786544799805 L 17.03582000732422 -3.814697265625e-06 Z" stroke="none" fill="#77d14b"/>
    </g>
  </g>
</svg>
