<svg xmlns="http://www.w3.org/2000/svg" width="17.854" height="17.153" viewBox="0 0 17.854 17.153">
  <g id="vuesax_outline_logout" data-name="vuesax/outline/logout" transform="translate(-754.146 -447.423)">
    <g id="logout">
      <g id="Group_13411" data-name="Group 13411" transform="translate(2.912 0)">
        <path id="Vector" d="M5.923,17.153H5.814c-3.708,0-5.5-1.461-5.8-4.735a.628.628,0,0,1,.568-.685.638.638,0,0,1,.685.568c.242,2.622,1.478,3.6,4.56,3.6h.109c3.4,0,4.6-1.2,4.6-4.6V5.854c0-3.4-1.2-4.6-4.6-4.6H5.822c-3.1,0-4.334.994-4.56,3.666A.633.633,0,0,1,0,4.81C.286,1.487,2.081,0,5.814,0h.109c4.1,0,5.854,1.754,5.854,5.854V11.3C11.777,15.4,10.023,17.153,5.923,17.153Z" transform="translate(757.311 447.424)" fill="#ec5252"/>
        <g id="Group_13410" data-name="Group 13410" transform="translate(1.48 0.867)">
          <path id="Vector-2" data-name="Vector" d="M9.565,1.183H.591A.6.6,0,0,1,0,.591.6.6,0,0,1,.591,0H9.565a.6.6,0,0,1,.591.591A.6.6,0,0,1,9.565,1.183Z" transform="translate(750.634 454.542)" fill="#ec5252"/>
          <path id="Vector-3" data-name="Vector" d="M3.231,6.464a.585.585,0,0,1-.418-.173L.172,3.649a.6.6,0,0,1,0-.836L2.813.172a.591.591,0,0,1,.836.836L1.425,3.231,3.649,5.455a.6.6,0,0,1,0,.836A.572.572,0,0,1,3.231,6.464Z" transform="translate(749.753 451.902)" fill="#ec5252"/>
        </g>
      </g>
    </g>
  </g>
</svg>
