<svg xmlns="http://www.w3.org/2000/svg" xmlns:xlink="http://www.w3.org/1999/xlink" width="142.838" height="99.197" viewBox="0 0 142.838 99.197">
  <defs>
    <linearGradient id="linear-gradient" x1="0.5" x2="0.5" y2="1" gradientUnits="objectBoundingBox">
      <stop offset="0" stop-color="#f1891b"/>
      <stop offset="1" stop-color="#fabe2c"/>
    </linearGradient>
    <linearGradient id="linear-gradient-23" x1="0.428" y1="0.275" x2="0.931" y2="0.085" gradientUnits="objectBoundingBox">
      <stop offset="0" stop-color="#fabe2c"/>
      <stop offset="1" stop-color="#ffda2d"/>
    </linearGradient>
    <linearGradient id="linear-gradient-24" x1="0.5" y1="0" x2="0.5" y2="1" xlink:href="#linear-gradient-23"/>
    <linearGradient id="linear-gradient-25" x1="0.5" y1="-0.735" x2="0.5" y2="1" gradientUnits="objectBoundingBox">
      <stop offset="0" stop-color="#fabe2c"/>
      <stop offset="1" stop-color="#fff" stop-opacity="0"/>
    </linearGradient>
  </defs>
  <g id="error_answer" data-name="error answer" transform="translate(-61.863 -24.803)">
    <g id="icon" transform="translate(61.863 24.803)">
      <g id="Group_12990" data-name="Group 12990" transform="matrix(0.996, -0.087, 0.087, 0.996, 61.186, 46.166)">
        <path id="Path_37009" data-name="Path 37009" d="M9.579,10.163C13.5,6.391,14.182.327,13.833,0A45.015,45.015,0,0,1,4.326,5.009C-.706,7,.039,14.594.039,14.594A18.46,18.46,0,0,0,9.579,10.163Z" transform="translate(24.561 22.265)" fill="url(#linear-gradient)"/>
        <path id="Path_37010" data-name="Path 37010" d="M11.115,13.331a16.024,16.024,0,0,0-5.449.382,15.079,15.079,0,0,0,3.54-3.121C12.621,6.382,12.538.283,12.15,0A44.6,44.6,0,0,1,3.344,6.1C-1.4,8.675.294,16.123.294,16.123s.276-.067.742-.217c.962,1.3,4.722,5.88,9.218,4.632a45.852,45.852,0,0,1,10.661-1.761C20.981,18.31,16.593,13.949,11.115,13.331Z" transform="translate(11.164 27.188)" fill="url(#linear-gradient)"/>
        <path id="Path_37011" data-name="Path 37011" d="M10.32.088A18.6,18.6,0,0,0,0,2.324S4.235,8.746,9.459,7.295A45.853,45.853,0,0,1,20.12,5.534C20.187,5.067,15.8.706,10.32.088Z" transform="translate(24.952 35.097)" fill="url(#linear-gradient)"/>
        <path id="Path_37012" data-name="Path 37012" d="M8.751,11.264a13.277,13.277,0,0,0-5.227.538A11.645,11.645,0,0,0,6.867,8.29C8.935,4.776,8.079.176,7.745,0A32.368,32.368,0,0,1,1.793,5.468C-.992,7.5.187,11.707.623,12.97c-.294.154-.457.254-.457.254s3.5,5.516,7.844,4.248a37,37,0,0,1,8.867-1.553C16.933,15.517,13.3,11.777,8.751,11.264Z" transform="translate(38.677 19.83)" fill="url(#linear-gradient)"/>
        <path id="Path_37013" data-name="Path 37013" d="M9.411,12.506a12.5,12.5,0,0,0-5.046.552,11.832,11.832,0,0,0,2.3-4.687C7.548,4.3,5.217.07,4.833,0A32.412,32.412,0,0,1,.792,7.17c-1.756,2.419-.19,5.5.83,7.037-.146.081-.227.13-.227.13S4.659,19.486,8.718,18.3A34.548,34.548,0,0,1,17,16.853C17.05,16.477,13.66,12.986,9.411,12.506Z" transform="translate(48.226 13.299)" fill="url(#linear-gradient)"/>
        <path id="Path_37014" data-name="Path 37014" d="M8.593,10.484A10.936,10.936,0,0,0,3.737,11.7,10.381,10.381,0,0,0,5.458,6.777C5.649,3.259,3.13.01,2.8,0A27.2,27.2,0,0,1,.378,6.516c-1.237,2.427.871,5.005,1.878,6.039-.156.107-.246.175-.246.175s3.228,4.052,6.538,2.7a29.162,29.162,0,0,1,6.84-1.947C15.4,13.161,12.218,10.516,8.593,10.484Z" transform="translate(55.287 10.339)" fill="url(#linear-gradient)"/>
        <path id="Path_37015" data-name="Path 37015" d="M7.116,7.812A8.886,8.886,0,0,0,3.723,9.183a8.37,8.37,0,0,0,.816-3.617C4.473,2.581,2.134-.012,1.854,0A22.968,22.968,0,0,1,.227,5.656C-.618,7.677,1.1,9.63,2.06,10.516c-.067.068-.1.107-.1.107s3.305,2.925,5.866,1.324a24.493,24.493,0,0,1,5.418-2.6C13.2,9.079,10.147,7.323,7.116,7.812Z" transform="translate(61.216 7.296)" fill="url(#linear-gradient)"/>
        <path id="Path_37016" data-name="Path 37016" d="M2.251,8.566,2.2,8.622s2.786,2.682,4.964,1.3A19.862,19.862,0,0,1,11.77,7.705a7.019,7.019,0,0,0-5.183-1.5A7.5,7.5,0,0,0,3.21,7.72a6.762,6.762,0,0,0,.569-3.472A6.421,6.421,0,0,0,1,0,17.78,17.78,0,0,1,.108,4.7C-.469,6.513,1.406,8,2.251,8.566Z" transform="translate(65.536 3.282)" fill="url(#linear-gradient)"/>
        <g id="Group_12989" data-name="Group 12989" transform="translate(0 5.693)">
          <path id="Path_37017" data-name="Path 37017" d="M71.344,0a51.676,51.676,0,0,1-2.756,4.643,47.711,47.711,0,0,1-3.236,4.325,46.268,46.268,0,0,1-7.8,7.472,49.026,49.026,0,0,1-4.481,3.038A76.221,76.221,0,0,1,38.106,26c-3.473,1.158-7.007,2.174-10.536,3.274-.44.137-.88.281-1.32.423a76.731,76.731,0,0,0-9.095,3.51C15.472,34,13.8,34.849,12.2,35.8a44.25,44.25,0,0,0-4.64,3.1l-1.095.862A29.924,29.924,0,0,0,0,46.923c.087.124.627.354.731.243a44.922,44.922,0,0,1,6.617-6.3l1.129-.739c1.516-.96,3.064-1.868,4.673-2.675s3.249-1.608,4.925-2.29c1.661-.718,3.355-1.371,5.058-2.011l1.279-.478,1.286-.466c.858-.309,1.719-.619,2.584-.921,3.452-1.228,6.944-2.41,10.422-3.667,2.608-.943,5.212-1.965,7.728-3.121l.632-.29a57.874,57.874,0,0,0,5.528-2.937l1.177-.74a50.068,50.068,0,0,0,4.487-3.26A49.242,49.242,0,0,0,68.987,4.883,51.849,51.849,0,0,0,71.544.092Z" transform="translate(0.183 0.196)" fill="url(#linear-gradient)"/>
          <g id="Group_12988" data-name="Group 12988" transform="translate(0 0)">
            <path id="Path_37018" data-name="Path 37018" d="M.816,47.54H.783A1.294,1.294,0,0,1,.057,47.2L0,47.123l.053-.083a30.065,30.065,0,0,1,6.5-7.2l1.095-.862a44.583,44.583,0,0,1,4.658-3.116c1.407-.833,2.985-1.657,4.965-2.591a75.975,75.975,0,0,1,9.113-3.517l.176-.057c.382-.124.764-.248,1.146-.367,1.22-.38,2.441-.751,3.66-1.12,2.263-.686,4.6-1.4,6.873-2.153a77.6,77.6,0,0,0,14.937-6.512,48.977,48.977,0,0,0,4.467-3.028,46.009,46.009,0,0,0,7.773-7.447,47.136,47.136,0,0,0,3.226-4.313A51.772,51.772,0,0,0,71.391.129L71.459,0l.469.218L71.866.35a52.472,52.472,0,0,1-2.564,4.8A49.071,49.071,0,0,1,58.535,17.581a50.372,50.372,0,0,1-4.5,3.271l-1.178.741A57.736,57.736,0,0,1,47.31,24.54v0c-.058.03-.209.1-.631.293-2.256,1.036-4.788,2.058-7.74,3.126-2,.722-4.031,1.43-6,2.115q-2.219.773-4.425,1.552c-.8.278-1.59.564-2.381.848l-1.487.538-1.277.478c-1.523.572-3.315,1.258-5.051,2.007-1.586.646-3.112,1.381-4.917,2.287-1.452.729-2.976,1.6-4.66,2.668l-1.128.738A39.945,39.945,0,0,0,1.6,46.843l-.574.619A.275.275,0,0,1,.816,47.54Zm-.434-.45a1.308,1.308,0,0,0,.435.154l.556-.6a40.783,40.783,0,0,1,6.066-5.7L8.574,40.2c1.694-1.073,3.227-1.951,4.688-2.684,1.812-.909,3.344-1.647,4.936-2.3,1.739-.751,3.535-1.439,5.062-2.012l2.768-1.017c.792-.286,1.585-.571,2.383-.849q2.2-.783,4.426-1.552c1.965-.685,4-1.392,5.994-2.114,2.943-1.064,5.467-2.083,7.716-3.116l.631-.29a57.3,57.3,0,0,0,5.514-2.93l1.174-.739a50.078,50.078,0,0,0,4.471-3.249A48.767,48.767,0,0,0,69.037,5c.612-1.016,1.193-2.058,1.736-3.117C70.183,2.92,69.557,3.934,68.9,4.92a47.536,47.536,0,0,1-3.245,4.338,46.3,46.3,0,0,1-7.823,7.495A49.328,49.328,0,0,1,53.337,19.8a77.935,77.935,0,0,1-15,6.54c-2.275.759-4.617,1.469-6.882,2.155-1.218.369-2.438.739-3.657,1.119-.381.119-.762.242-1.142.366l-.176.057a75.6,75.6,0,0,0-9.076,3.5c-1.971.93-3.542,1.75-4.942,2.579a44.242,44.242,0,0,0-4.625,3.094l-1.093.86A29.755,29.755,0,0,0,.382,47.09Z" fill="url(#linear-gradient)"/>
          </g>
        </g>
        <path id="Path_37019" data-name="Path 37019" d="M5.923.3A.3.3,0,0,0,5.811.086L5.678,0,5.595.134A11.715,11.715,0,0,1,2.422,2.849C.191,4.349.015,8.336.008,8.505L0,8.728.214,8.65a9.958,9.958,0,0,0,4.2-3.155A8.329,8.329,0,0,0,5.923.3Z" transform="translate(70.115 0)" fill="url(#linear-gradient)"/>
      </g>
      <g id="Group_12993" data-name="Group 12993" transform="matrix(0.995, 0.105, -0.105, 0.995, 5.564, 37.504)">
        <path id="Path_37020" data-name="Path 37020" d="M4.333,10.163C.415,6.391-.269.328.08,0A45.018,45.018,0,0,0,9.587,5.009c5.032,1.992,4.287,9.586,4.287,9.586A18.459,18.459,0,0,1,4.333,10.163Z" transform="translate(38.833 22.265)" fill="url(#linear-gradient)"/>
        <path id="Path_37021" data-name="Path 37021" d="M9.8,13.331a16.022,16.022,0,0,1,5.449.383,15.088,15.088,0,0,1-3.54-3.122C8.295,6.383,8.378.284,8.765,0a44.589,44.589,0,0,0,8.806,6.1c4.744,2.575,3.05,10.023,3.05,10.023s-.276-.067-.741-.216c-.963,1.3-4.722,5.88-9.218,4.632A45.828,45.828,0,0,0,0,18.778C-.066,18.31,4.322,13.95,9.8,13.331Z" transform="translate(45.226 27.188)" fill="url(#linear-gradient)"/>
        <path id="Path_37022" data-name="Path 37022" d="M9.8.088a18.6,18.6,0,0,1,10.32,2.236s-4.234,6.422-9.459,4.971A45.844,45.844,0,0,0,0,5.534C-.066,5.067,4.322.706,9.8.088Z" transform="translate(32.233 35.097)" fill="url(#linear-gradient)"/>
        <path id="Path_37023" data-name="Path 37023" d="M8.126,11.263a13.276,13.276,0,0,1,5.227.539A11.643,11.643,0,0,1,10.01,8.289C7.941,4.776,8.8.176,9.131,0a32.357,32.357,0,0,0,5.953,5.467c2.785,2.032,1.606,6.239,1.17,7.5.294.154.458.254.458.254s-3.5,5.516-7.844,4.248A37.007,37.007,0,0,0,0,15.919C-.057,15.517,3.575,11.777,8.126,11.263Z" transform="translate(21.753 19.83)" fill="url(#linear-gradient)"/>
        <path id="Path_37024" data-name="Path 37024" d="M7.586,12.506a12.5,12.5,0,0,1,5.046.552,11.837,11.837,0,0,1-2.3-4.687C9.45,4.3,11.78.07,12.164,0a32.41,32.41,0,0,0,4.041,7.17c1.755,2.419.19,5.5-.83,7.037.146.08.227.129.227.129s-3.264,5.15-7.323,3.966A34.555,34.555,0,0,0,0,16.853C-.053,16.477,3.337,12.986,7.586,12.506Z" transform="translate(12.083 13.299)" fill="url(#linear-gradient)"/>
        <path id="Path_37025" data-name="Path 37025" d="M6.795,10.484A10.925,10.925,0,0,1,11.652,11.7,10.381,10.381,0,0,1,9.93,6.776C9.739,3.258,12.258.01,12.589,0A27.205,27.205,0,0,0,15.01,6.516c1.236,2.427-.871,5.005-1.878,6.039.156.107.246.175.246.175s-3.228,4.052-6.538,2.7A29.17,29.17,0,0,0,0,13.482C-.01,13.161,3.171,10.516,6.795,10.484Z" transform="translate(6.631 10.339)" fill="url(#linear-gradient)"/>
        <path id="Path_37026" data-name="Path 37026" d="M6.124,7.812A8.884,8.884,0,0,1,9.517,9.183,8.37,8.37,0,0,1,8.7,5.567C8.767,2.581,11.107-.012,11.387,0a22.971,22.971,0,0,0,1.627,5.656c.844,2.021-.873,3.974-1.834,4.861.067.068.1.107.1.107s-3.305,2.925-5.865,1.325A24.509,24.509,0,0,0,0,9.349C.04,9.079,3.094,7.323,6.124,7.812Z" transform="translate(2.85 7.296)" fill="url(#linear-gradient)"/>
        <path id="Path_37027" data-name="Path 37027" d="M9.519,8.567l.052.055S6.784,11.3,4.606,9.923A19.863,19.863,0,0,0,0,7.705a7.017,7.017,0,0,1,5.183-1.5A7.505,7.505,0,0,1,8.56,7.72a6.767,6.767,0,0,1-.568-3.472A6.418,6.418,0,0,1,10.767,0a17.775,17.775,0,0,0,.895,4.7C12.239,6.513,10.363,8,9.519,8.567Z" transform="translate(0 3.282)" fill="url(#linear-gradient)"/>
        <g id="Group_12992" data-name="Group 12992" transform="translate(5.378 5.693)">
          <path id="Path_37028" data-name="Path 37028" d="M.2,0A51.823,51.823,0,0,0,2.955,4.643,47.667,47.667,0,0,0,6.191,8.968a46.264,46.264,0,0,0,7.8,7.472,49.026,49.026,0,0,0,4.481,3.038A76.219,76.219,0,0,0,33.438,26c3.473,1.158,7.007,2.174,10.536,3.273.44.138.88.281,1.321.424a76.644,76.644,0,0,1,9.095,3.51c1.683.794,3.357,1.639,4.954,2.585a44.282,44.282,0,0,1,4.64,3.1l1.095.862a29.922,29.922,0,0,1,6.466,7.162c-.088.123-.627.354-.731.242a44.9,44.9,0,0,0-6.617-6.3l-1.129-.739c-1.516-.96-3.064-1.868-4.673-2.675s-3.249-1.608-4.926-2.29c-1.661-.718-3.355-1.371-5.058-2.01l-1.278-.478-1.286-.465c-.859-.309-1.719-.62-2.584-.921-3.452-1.228-6.944-2.41-10.421-3.667-2.609-.943-5.212-1.965-7.728-3.121l-.632-.29a57.8,57.8,0,0,1-5.527-2.937l-1.177-.741a50.035,50.035,0,0,1-4.487-3.26A49.245,49.245,0,0,1,2.557,4.883,51.96,51.96,0,0,1,0,.092Z" transform="translate(0.201 0.196)" fill="url(#linear-gradient)"/>
          <g id="Group_12991" data-name="Group 12991" transform="translate(0 0)">
            <path id="Path_37029" data-name="Path 37029" d="M70.9,47.462l-.574-.618a39.948,39.948,0,0,0-6.014-5.657l-1.128-.738a53.675,53.675,0,0,0-4.66-2.667c-1.8-.905-3.331-1.64-4.918-2.287-1.736-.75-3.527-1.436-5.051-2.008l-1.277-.477-1.487-.538c-.791-.285-1.584-.57-2.381-.848q-2.2-.784-4.425-1.552c-1.966-.685-4-1.393-6-2.115-2.952-1.067-5.484-2.09-7.74-3.126-.422-.194-.573-.263-.631-.293v0a57.635,57.635,0,0,1-5.545-2.947l-1.179-.741a50.357,50.357,0,0,1-4.5-3.271A49.078,49.078,0,0,1,2.627,5.154,52.351,52.351,0,0,1,.062.35L0,.218.469,0,.537.129A51.742,51.742,0,0,0,3.285,4.759,47.136,47.136,0,0,0,6.512,9.072a46,46,0,0,0,7.773,7.447,49,49,0,0,0,4.467,3.028,77.6,77.6,0,0,0,14.937,6.512c2.27.758,4.61,1.467,6.873,2.153,1.218.37,2.439.74,3.659,1.12.382.119.764.243,1.146.367l.176.057a75.96,75.96,0,0,1,9.113,3.517c1.98.935,3.558,1.758,4.965,2.591a44.655,44.655,0,0,1,4.658,3.115l1.095.862a30.059,30.059,0,0,1,6.5,7.2l.053.083-.057.08a1.29,1.29,0,0,1-.726.335h-.033A.276.276,0,0,1,70.9,47.462Zm-5.718-7.389-1.093-.86a44.334,44.334,0,0,0-4.626-3.094c-1.4-.829-2.971-1.648-4.942-2.578a75.515,75.515,0,0,0-9.076-3.5l-.176-.057c-.381-.124-.762-.247-1.142-.366-1.219-.38-2.44-.75-3.657-1.119-2.265-.687-4.607-1.4-6.882-2.156a77.9,77.9,0,0,1-15-6.539A49.322,49.322,0,0,1,14.1,16.753,46.3,46.3,0,0,1,6.273,9.258,47.579,47.579,0,0,1,3.028,4.92c-.657-.986-1.284-2-1.873-3.032C1.7,2.946,2.278,3.988,2.89,5a48.76,48.76,0,0,0,10.7,12.35A50.136,50.136,0,0,0,18.061,20.6l1.174.739a57.3,57.3,0,0,0,5.514,2.93l.631.29c2.248,1.032,4.772,2.052,7.716,3.116,2,.721,4.028,1.43,5.994,2.114q2.221.774,4.426,1.553c.8.278,1.591.564,2.383.849l2.768,1.017c1.527.573,3.323,1.261,5.062,2.012,1.592.649,3.125,1.387,4.936,2.3,1.461.733,2.994,1.61,4.689,2.684l1.134.742a40.815,40.815,0,0,1,6.066,5.7l.556.6a1.315,1.315,0,0,0,.435-.154A29.756,29.756,0,0,0,65.183,40.072Z" fill="url(#linear-gradient)"/>
          </g>
        </g>
        <path id="Path_37030" data-name="Path 37030" d="M.028.3A.3.3,0,0,1,.14.087L.273,0,.356.134A11.733,11.733,0,0,0,3.529,2.849c2.232,1.5,2.407,5.487,2.414,5.656l.008.222L5.737,8.65a9.958,9.958,0,0,1-4.2-3.155A8.326,8.326,0,0,1,.028.3Z" transform="translate(1.239 0)" fill="url(#linear-gradient)"/>
      </g>
      <g id="Group_13022" data-name="Group 13022" transform="translate(47.71 19.914)">
        <path id="Subtraction_8" data-name="Subtraction 8" d="M34.48,39.642H12.554a2.772,2.772,0,0,1-2.409-1.7L.489,10.929C-.081,9.32-.156,8.094.281,7.474a1.116,1.116,0,0,1,.968-.454A5.385,5.385,0,0,1,4.037,8.245l9.1,6.512a2.823,2.823,0,0,0,1.6.537,2.471,2.471,0,0,0,2.3-1.729l4.1-10.941C21.765.93,22.615,0,23.526,0s1.76.93,2.39,2.625l4.1,10.941a2.466,2.466,0,0,0,2.291,1.729,2.758,2.758,0,0,0,1.582-.537l8.541-6.092a5.875,5.875,0,0,1,3.048-1.338,1.23,1.23,0,0,1,1.066.5c.479.676.4,2.022-.219,3.782L36.906,37.989A2.857,2.857,0,0,1,34.48,39.642Zm-19.737-8.7c-.631,0-1.144.786-1.144,1.756s.513,1.746,1.144,1.746H31.5c.627,0,1.138-.784,1.138-1.746s-.51-1.756-1.138-1.756Z" fill="url(#linear-gradient-23)"/>
        <path id="Vector" d="M26.659,2.749H1A1.75,1.75,0,0,1,1-.75H26.659a1.75,1.75,0,1,1,0,3.5Z" transform="translate(9.686 45.688)" fill="url(#linear-gradient-24)"/>
      </g>
      <circle id="Ellipse_81" data-name="Ellipse 81" cx="43.783" cy="43.783" r="43.783" transform="translate(26.718)" fill="url(#linear-gradient-25)"/>
    </g>
  </g>
</svg>
