<svg id="bag" xmlns="http://www.w3.org/2000/svg" width="24" height="24" viewBox="0 0 24 24">
  <rect id="frame" width="24" height="24" fill="#fff" opacity="0"/>
  <g id="bag-2" data-name="bag" transform="translate(-142.844 -83.081)">
    <path id="Path_24818" data-name="Path 24818" d="M263.878,158.189a.689.689,0,0,0-1.378,0v.46a3.446,3.446,0,1,0,6.892,0v-.46a.689.689,0,1,0-1.378,0v.46a2.068,2.068,0,1,1-4.135,0Z" transform="translate(-111.103 -67.243)" fill="#131313"/>
    <path id="Path_24819" data-name="Path 24819" d="M153.651,87.5a23.609,23.609,0,0,0-2.725.091,3.089,3.089,0,0,0-2.92,2.557,23.561,23.561,0,0,0-.45,2.689l-.381,2.857a27.2,27.2,0,0,0-.332,3.431,3.085,3.085,0,0,0,2.989,3.414,27.238,27.238,0,0,0,3.444.124h3.135a27.24,27.24,0,0,0,3.444-.124,3.085,3.085,0,0,0,2.989-3.414,27.2,27.2,0,0,0-.332-3.431l-.381-2.857a23.561,23.561,0,0,0-.45-2.689,3.089,3.089,0,0,0-2.92-2.557,23.609,23.609,0,0,0-2.725-.091Zm-3.729,1.89a2.063,2.063,0,0,1,1.177-.432,23.034,23.034,0,0,1,2.6-.08h2.292a23.033,23.033,0,0,1,2.6.08,1.746,1.746,0,0,1,1.761,1.542,23.027,23.027,0,0,1,.423,2.565l.368,2.757a26.768,26.768,0,0,1,.327,3.292,1.749,1.749,0,0,1-1.8,2.059,26.758,26.758,0,0,1-3.307.111H153.33a26.757,26.757,0,0,1-3.307-.111,1.748,1.748,0,0,1-1.8-2.059,26.735,26.735,0,0,1,.327-3.292l.368-2.757a23.06,23.06,0,0,1,.422-2.565A2.063,2.063,0,0,1,149.922,89.39Z" fill="#131313" fill-rule="evenodd"/>
  </g>
</svg>
