<svg id="vuesax_outline_call" data-name="vuesax/outline/call" xmlns="http://www.w3.org/2000/svg" width="24" height="24" viewBox="0 0 24 24">
  <g id="call">
    <path id="Vector" d="M4.141,16.927A7.2,7.2,0,0,0,6.936,16.3a14.782,14.782,0,0,0,2.826-1.622,24.575,24.575,0,0,0,2.653-2.26,23.522,23.522,0,0,0,2.26-2.645,14.692,14.692,0,0,0,1.606-2.8A7.29,7.29,0,0,0,16.9,4.165a4.744,4.744,0,0,0-.323-1.74A4.205,4.205,0,0,0,15.518.9,2.859,2.859,0,0,0,13.479,0a2.129,2.129,0,0,0-.89.2,1.8,1.8,0,0,0-.756.638L10.007,3.409a3.05,3.05,0,0,0-.378.669,1.769,1.769,0,0,0-.157.7,1.67,1.67,0,0,0,.252.866,3.149,3.149,0,0,0,.527.669l.535.559a.384.384,0,0,1-.024.055,6.055,6.055,0,0,1-.646.874c-.386.441-.748.842-1.11,1.212-.465.457-.85.819-1.212,1.118a5.128,5.128,0,0,1-.913.653l.016.039-.575-.567a2.94,2.94,0,0,0-.709-.543,1.662,1.662,0,0,0-1.535-.087,3.584,3.584,0,0,0-.661.37L.8,11.857a1.692,1.692,0,0,0-.63.748,2.278,2.278,0,0,0-.173.85,2.626,2.626,0,0,0,.252,1.11,3.667,3.667,0,0,0,.63.945,4.038,4.038,0,0,0,1.5,1.079A4.648,4.648,0,0,0,4.141,16.927ZM13.479,1.181a1.726,1.726,0,0,1,1.22.567,3.02,3.02,0,0,1,.772,1.11,3.445,3.445,0,0,1,.244,1.307,6.07,6.07,0,0,1-.52,2.346,13.142,13.142,0,0,1-1.48,2.567,21.782,21.782,0,0,1-2.134,2.5A22.168,22.168,0,0,1,9.07,13.723a12.792,12.792,0,0,1-2.59,1.488,4.7,4.7,0,0,1-3.645.276,2.907,2.907,0,0,1-1.079-.779,2.553,2.553,0,0,1-.441-.661,1.4,1.4,0,0,1-.142-.606.94.94,0,0,1,.087-.394.6.6,0,0,1,.22-.236l2.614-1.858a2.257,2.257,0,0,1,.433-.244.414.414,0,0,1,.512.024,1.8,1.8,0,0,1,.457.354l.6.59a1.122,1.122,0,0,0,1.142.236l.213-.094a6.711,6.711,0,0,0,1.118-.8c.378-.323.787-.7,1.283-1.189.386-.394.772-.811,1.173-1.275a6.717,6.717,0,0,0,.8-1.11l.094-.236a1.47,1.47,0,0,0,.063-.394,1.01,1.01,0,0,0-.3-.732l-.59-.614a2.28,2.28,0,0,1-.354-.441.5.5,0,0,1-.087-.268.732.732,0,0,1,.063-.252,2.258,2.258,0,0,1,.252-.417l1.827-2.582a.726.726,0,0,1,.291-.244A.986.986,0,0,1,13.479,1.181ZM6.9,10.833l.126.535-.213-.551A.1.1,0,0,1,6.9,10.833Z" transform="translate(3.572 3.537)" fill="#292d32"/>
    <path id="Vector-2" data-name="Vector" d="M24,0H0V24H24Z" fill="none" opacity="0"/>
  </g>
</svg>
