<svg xmlns="http://www.w3.org/2000/svg" width="16.846" height="21.277" viewBox="0 0 16.846 21.277">
  <g id="certificate_icon" data-name="certificate icon" transform="translate(-175.577 -189.361)">
    <path id="diploma" d="M10.093,10.639a.887.887,0,0,1,0,1.773H7.433a.887.887,0,1,1,0-1.773Zm5.32-2.66a.887.887,0,0,0-.887-.887H7.433a.887.887,0,1,0,0,1.773h7.093A.887.887,0,0,0,15.412,7.979ZM7.433,5.32h7.093a.887.887,0,1,0,0-1.773H7.433a.887.887,0,1,0,0,1.773Zm10.639,11.92v3.4a.639.639,0,0,1-1.091.452l-.682-.681-.682.681a.639.639,0,0,1-1.091-.452v-3.4a3.535,3.535,0,0,1,1.773-6.6,3.492,3.492,0,0,1,.887.126V4.433a2.66,2.66,0,0,0-2.66-2.66H7.433a2.66,2.66,0,0,0-2.66,2.66V15.072a2.66,2.66,0,0,0,2.66,2.66h4.433a.887.887,0,0,1,0,1.773H7.433A4.438,4.438,0,0,1,3,15.072V4.433A4.438,4.438,0,0,1,7.433,0h7.093a4.438,4.438,0,0,1,4.433,4.433v7.432a3.5,3.5,0,0,1-.887,5.375Zm0-3.053A1.773,1.773,0,1,0,16.3,15.959,1.773,1.773,0,0,0,18.072,14.186Z" transform="translate(172.577 189.361)" fill="#999"/>
  </g>
</svg>
