<svg xmlns="http://www.w3.org/2000/svg" width="40" height="40" viewBox="0 0 40 40">
  <g id="Group_13031" data-name="Group 13031" transform="translate(-0.488 0)">
    <g id="Polygon_5" data-name="Polygon 5" transform="translate(40.488 40) rotate(180)" fill="none">
      <path d="M20,0,36.039,7.922,40,25.724,28.9,40H11.1L0,25.724l3.961-17.8Z" stroke="none"/>
      <path d="M 20 2.230693817138672 L 5.70550537109375 9.291599273681641 L 2.156715393066406 25.23973083496094 L 12.07755661010742 38 L 27.92244338989258 38 L 37.84328460693359 25.23972320556641 L 34.29448699951172 9.291589736938477 L 20 2.230693817138672 M 20 0 L 36.03874969482422 7.922489166259766 L 40 25.72415924072266 L 28.90084075927734 40 L 11.09915924072266 40 L 0 25.72417068481445 L 3.961238861083984 7.922500610351562 L 20 0 Z" stroke="none" fill="#2fbffc"/>
    </g>
    <g id="Polygon_6" data-name="Polygon 6" transform="translate(36.495 36.252) rotate(180)" fill="#2fbffc">
      <path d="M 23.35186958312988 31.50435638427734 L 9.63902473449707 31.50435638427734 L 1.080516338348389 20.65868377685547 L 4.136705875396729 7.126828193664551 L 16.49544715881348 1.112135291099548 L 28.85417938232422 7.126818180084229 L 31.91037750244141 20.65868377685547 L 23.35186958312988 31.50435638427734 Z" stroke="none"/>
      <path d="M 16.49544143676758 2.224275588989258 L 5.006298065185547 7.815750122070312 L 2.161037445068359 20.4136848449707 L 10.1237621307373 30.50435638427734 L 22.86713409423828 30.50435638427734 L 30.82985687255859 20.4136848449707 L 27.98458862304688 7.815753936767578 L 16.49544143676758 2.224275588989258 M 16.49544715881348 -3.814697265625e-06 L 29.7237663269043 6.437887191772461 L 32.99089813232422 20.9036865234375 L 23.83660697937012 32.50435638427734 L 9.154287338256836 32.50435638427734 L -3.814697265625e-06 20.9036865234375 L 3.267116546630859 6.437887191772461 L 16.49544715881348 -3.814697265625e-06 Z" stroke="none" fill="#2fbffc"/>
    </g>
  </g>
</svg>
