<svg xmlns="http://www.w3.org/2000/svg" width="14.639" height="14.611" viewBox="0 0 14.639 14.611">
  <path id="Icon_awesome-linkedin" data-name="Icon awesome-linkedin" d="M6.147,19.748H3.115V9.986H6.152v9.762ZM4.631,8.653A1.758,1.758,0,1,1,6.389,6.895,1.759,1.759,0,0,1,4.631,8.653Zm12.881,11.1H14.48V15c0-1.132-.023-2.589-1.575-2.589-1.58,0-1.822,1.233-1.822,2.507v4.831H8.051V9.986H10.96v1.333H11a3.193,3.193,0,0,1,2.872-1.575c3.068,0,3.639,2.023,3.639,4.653Z" transform="translate(-2.873 -5.137)" fill="#131313"/>
</svg>
