<svg xmlns="http://www.w3.org/2000/svg" width="37.854" height="22.713" viewBox="0 0 37.854 22.713">
  <g id="mastercard" transform="translate(-7.431 -4.752)">
    <g id="mastercard-2" data-name="mastercard" transform="translate(7.431 4.752)">
      <g id="Group_10930" data-name="Group 10930" transform="translate(15.142 0)">
        <g id="Group_10929" data-name="Group 10929">
          <path id="Path_21992" data-name="Path 21992" d="M48.413,24.456a11.356,11.356,0,1,1-22.713,0h0a11.356,11.356,0,1,1,22.713,0Z" transform="translate(-25.7 -13.1)" fill="#ffb600"/>
        </g>
      </g>
      <g id="Group_10932" data-name="Group 10932" transform="translate(15.142 0)">
        <g id="Group_10931" data-name="Group 10931">
          <path id="Path_21993" data-name="Path 21993" d="M37.056,13.1A11.386,11.386,0,0,1,48.413,24.456h0a11.356,11.356,0,1,1-22.713,0" transform="translate(-25.7 -13.1)" fill="#f7981d"/>
        </g>
      </g>
      <g id="Group_10934" data-name="Group 10934" transform="translate(26.498 0)">
        <g id="Group_10933" data-name="Group 10933">
          <path id="Path_21994" data-name="Path 21994" d="M44.6,13.1A11.386,11.386,0,0,1,55.956,24.456h0A11.347,11.347,0,0,1,44.6,35.813" transform="translate(-44.6 -13.1)" fill="#ff8500"/>
        </g>
      </g>
      <g id="Group_10936" data-name="Group 10936" transform="translate(0 0)">
        <g id="Group_10935" data-name="Group 10935">
          <path id="Path_21995" data-name="Path 21995" d="M11.736,13.1a11.357,11.357,0,0,0,.12,22.713,11.489,11.489,0,0,0,7.631-2.944h0a10.8,10.8,0,0,0,1.142-1.2H18.286a13.862,13.862,0,0,1-.841-1.142H21.47a7.7,7.7,0,0,0,.661-1.2H16.783a7.161,7.161,0,0,1-.481-1.2h6.249a11.931,11.931,0,0,0,.6-3.605,15.51,15.51,0,0,0-.24-2.4h-6.97a8.783,8.783,0,0,1,.3-1.2h6.249a7.162,7.162,0,0,0-.481-1.2H16.723a11.916,11.916,0,0,1,.661-1.2H21.41a5.714,5.714,0,0,0-.9-1.2H18.286a10.242,10.242,0,0,1,1.142-1.142A11.088,11.088,0,0,0,11.8,13.22C11.8,13.1,11.8,13.1,11.736,13.1Z" transform="translate(-0.5 -13.1)" fill="#ff5050"/>
        </g>
      </g>
      <g id="Group_10938" data-name="Group 10938" transform="translate(0 0.12)">
        <g id="Group_10937" data-name="Group 10937">
          <path id="Path_21996" data-name="Path 21996" d="M.5,24.536A11.347,11.347,0,0,0,11.856,35.892a11.489,11.489,0,0,0,7.631-2.944h0a10.8,10.8,0,0,0,1.142-1.2H18.286a13.861,13.861,0,0,1-.841-1.142H21.47a7.7,7.7,0,0,0,.661-1.2H16.783a7.161,7.161,0,0,1-.481-1.2h6.249a11.931,11.931,0,0,0,.6-3.605,15.51,15.51,0,0,0-.24-2.4h-6.97a8.783,8.783,0,0,1,.3-1.2h6.249a7.162,7.162,0,0,0-.481-1.2H16.723a11.915,11.915,0,0,1,.661-1.2H21.41a5.714,5.714,0,0,0-.9-1.2H18.286a10.242,10.242,0,0,1,1.142-1.142A11.088,11.088,0,0,0,11.8,13.3h-.06" transform="translate(-0.5 -13.3)" fill="#e52836"/>
        </g>
      </g>
      <g id="Group_10940" data-name="Group 10940" transform="translate(11.236 0.12)">
        <g id="Group_10939" data-name="Group 10939">
          <path id="Path_21997" data-name="Path 21997" d="M19.32,35.892a11.489,11.489,0,0,0,7.631-2.944h0a10.8,10.8,0,0,0,1.142-1.2H25.749a13.861,13.861,0,0,1-.841-1.142h4.026a7.7,7.7,0,0,0,.661-1.2H24.247a7.161,7.161,0,0,1-.481-1.2h6.249a11.931,11.931,0,0,0,.6-3.605,15.508,15.508,0,0,0-.24-2.4h-6.97a8.784,8.784,0,0,1,.3-1.2h6.249a7.162,7.162,0,0,0-.481-1.2H24.187a11.916,11.916,0,0,1,.661-1.2h4.026a5.714,5.714,0,0,0-.9-1.2H25.749a10.242,10.242,0,0,1,1.142-1.142A11.088,11.088,0,0,0,19.26,13.3H19.2" transform="translate(-19.2 -13.3)" fill="#cb2026"/>
        </g>
      </g>
      <g id="Group_10961" data-name="Group 10961" transform="translate(1.082 8.412)">
        <g id="Group_10942" data-name="Group 10942" transform="translate(12.558 0.541)">
          <g id="Group_10941" data-name="Group 10941">
            <path id="Path_21998" data-name="Path 21998" d="M24.942,33.288l.18-1.021a2.6,2.6,0,0,1-.3.06c-.421,0-.481-.24-.421-.361l.361-2.1h.661l.18-1.142H25l.12-.721h-1.2s-.721,3.966-.721,4.446a.9.9,0,0,0,.961,1.021A1.844,1.844,0,0,0,24.942,33.288Z" transform="translate(-23.2 -28)" fill="#fff"/>
          </g>
        </g>
        <g id="Group_10944" data-name="Group 10944" transform="translate(14.721 1.194)">
          <g id="Group_10943" data-name="Group 10943">
            <path id="Path_21999" data-name="Path 21999" d="M26.8,31.8a1.911,1.911,0,0,0,2.1,2.1,3.12,3.12,0,0,0,1.262-.18l.24-1.142a3.6,3.6,0,0,1-1.262.3c-1.322,0-1.082-.961-1.082-.961h2.464a7.791,7.791,0,0,0,.18-1.082,1.628,1.628,0,0,0-1.743-1.743C27.7,28.975,26.8,30.3,26.8,31.8Zm2.1-1.742c.661,0,.541.781.541.841H28.122C28.122,30.837,28.242,30.056,28.9,30.056Z" transform="translate(-26.8 -29.087)" fill="#fff"/>
          </g>
        </g>
        <g id="Group_10946" data-name="Group 10946" transform="translate(21.15)">
          <g id="Group_10945" data-name="Group 10945">
            <path id="Path_22000" data-name="Path 22000" d="M40.8,32.928l.24-1.322a2.953,2.953,0,0,1-1.021.3c-.841,0-1.2-.661-1.2-1.382,0-1.442.721-2.223,1.562-2.223a2.007,2.007,0,0,1,1.082.361l.18-1.262a4.225,4.225,0,0,0-1.382-.3c-1.382,0-2.764,1.2-2.764,3.485,0,1.5.721,2.524,2.163,2.524A5.393,5.393,0,0,0,40.8,32.928Z" transform="translate(-37.5 -27.1)" fill="#fff"/>
          </g>
        </g>
        <g id="Group_10948" data-name="Group 10948" transform="translate(5.408 1.082)">
          <g id="Group_10947" data-name="Group 10947">
            <path id="Path_22001" data-name="Path 22001" d="M13.583,28.9a4.256,4.256,0,0,0-1.442.24l-.18,1.021a3.552,3.552,0,0,1,1.322-.24c.421,0,.781.06.781.421,0,.24-.06.3-.06.3h-.541c-1.021,0-2.163.421-2.163,1.8,0,1.082.721,1.322,1.142,1.322a1.805,1.805,0,0,0,1.262-.541l-.06.481h1.082l.481-3.3A1.424,1.424,0,0,0,13.583,28.9Zm.24,2.7c0,.18-.12,1.142-.841,1.142a.469.469,0,0,1-.481-.481c0-.3.18-.721,1.082-.721A.948.948,0,0,0,13.824,31.6Z" transform="translate(-11.3 -28.9)" fill="#fff"/>
          </g>
        </g>
        <g id="Group_10950" data-name="Group 10950" transform="translate(9.073 1.021)">
          <g id="Group_10949" data-name="Group 10949">
            <path id="Path_22002" data-name="Path 22002" d="M18.782,33.727a1.54,1.54,0,0,0,1.8-1.562c0-1.5-1.442-1.2-1.442-1.8,0-.3.24-.421.661-.421.18,0,.841.06.841.06l.18-1.082a4.564,4.564,0,0,0-1.142-.12c-.9,0-1.8.361-1.8,1.562,0,1.382,1.5,1.262,1.5,1.8,0,.361-.421.421-.721.421a3.93,3.93,0,0,1-1.082-.18l-.18,1.082C17.46,33.607,17.761,33.727,18.782,33.727Z" transform="translate(-17.4 -28.8)" fill="#fff"/>
          </g>
        </g>
        <g id="Group_10952" data-name="Group 10952" transform="translate(31.004 0.12)">
          <g id="Group_10951" data-name="Group 10951">
            <path id="Path_22003" data-name="Path 22003" d="M57.325,27.3l-.24,1.622a1.666,1.666,0,0,0-1.142-.6c-1.082,0-2.043,1.322-2.043,2.884,0,.961.481,1.983,1.5,1.983a1.6,1.6,0,0,0,1.142-.481l-.06.421h1.2l.9-5.768Zm-.541,3.185c0,.661-.3,1.5-.961,1.5-.421,0-.661-.361-.661-.961,0-.961.421-1.562.961-1.562C56.544,29.463,56.784,29.764,56.784,30.485Z" transform="translate(-53.9 -27.3)" fill="#fff"/>
          </g>
        </g>
        <g id="Group_10954" data-name="Group 10954" transform="translate(0 0.12)">
          <g id="Group_10953" data-name="Group 10953">
            <path id="Path_22004" data-name="Path 22004" d="M3.442,33.068l.721-4.326.12,4.326h.841l1.562-4.326-.661,4.326H7.287L8.249,27.3H6.266l-1.2,3.545L5,27.3H3.261L2.3,33.068Z" transform="translate(-2.3 -27.3)" fill="#fff"/>
          </g>
        </g>
        <g id="Group_10956" data-name="Group 10956" transform="translate(18.446 1.202)">
          <g id="Group_10955" data-name="Group 10955">
            <path id="Path_22005" data-name="Path 22005" d="M34.322,33.787c.361-1.983.421-3.605,1.262-3.3A4.716,4.716,0,0,1,36,29.1h-.24c-.541,0-.961.721-.961.721l.12-.661H33.781L33,33.847h1.322Z" transform="translate(-33 -29.1)" fill="#fff"/>
          </g>
        </g>
        <g id="Group_10958" data-name="Group 10958" transform="translate(24.936 1.082)">
          <g id="Group_10957" data-name="Group 10957">
            <path id="Path_22006" data-name="Path 22006" d="M46.083,28.9a4.256,4.256,0,0,0-1.442.24l-.18,1.021a3.552,3.552,0,0,1,1.322-.24c.421,0,.781.06.781.421,0,.24-.06.3-.06.3h-.541c-1.021,0-2.163.421-2.163,1.8,0,1.082.721,1.322,1.142,1.322a1.805,1.805,0,0,0,1.262-.541l-.06.481h1.082l.481-3.3A1.4,1.4,0,0,0,46.083,28.9Zm.3,2.7c0,.18-.12,1.142-.841,1.142a.469.469,0,0,1-.481-.481c0-.3.18-.721,1.082-.721C46.324,31.6,46.324,31.6,46.384,31.6Z" transform="translate(-43.8 -28.9)" fill="#fff"/>
          </g>
        </g>
        <g id="Group_10960" data-name="Group 10960" transform="translate(28.541 1.202)">
          <g id="Group_10959" data-name="Group 10959">
            <path id="Path_22007" data-name="Path 22007" d="M51.122,33.787c.361-1.983.421-3.605,1.262-3.3A4.716,4.716,0,0,1,52.8,29.1h-.24c-.541,0-.961.721-.961.721l.12-.661H50.581L49.8,33.847h1.322Z" transform="translate(-49.8 -29.1)" fill="#fff"/>
          </g>
        </g>
      </g>
      <g id="Group_10982" data-name="Group 10982" transform="translate(1.082 8.412)">
        <g id="Group_10963" data-name="Group 10963" transform="translate(12.438 0.541)">
          <g id="Group_10962" data-name="Group 10962">
            <path id="Path_22008" data-name="Path 22008" d="M23,32.446a.9.9,0,0,0,.961,1.021,2.287,2.287,0,0,0,.9-.18l.18-1.021a2.6,2.6,0,0,1-.3.06c-.421,0-.481-.24-.421-.361l.361-2.1h.661l.18-1.142h-.6l.12-.721" transform="translate(-23 -28)" fill="#dce5e5"/>
          </g>
        </g>
        <g id="Group_10965" data-name="Group 10965" transform="translate(15.322 1.194)">
          <g id="Group_10964" data-name="Group 10964">
            <path id="Path_22009" data-name="Path 22009" d="M27.8,31.8c0,1.682.541,2.1,1.5,2.1a3.12,3.12,0,0,0,1.262-.18l.24-1.142a3.6,3.6,0,0,1-1.262.3c-1.322,0-1.082-.961-1.082-.961h2.464a7.791,7.791,0,0,0,.18-1.082,1.628,1.628,0,0,0-1.743-1.743C28.1,28.975,27.8,30.3,27.8,31.8Zm1.5-1.742c.661,0,.781.781.781.841H28.521C28.521,30.837,28.641,30.056,29.3,30.056Z" transform="translate(-27.8 -29.087)" fill="#dce5e5"/>
          </g>
        </g>
        <g id="Group_10967" data-name="Group 10967" transform="translate(21.751)">
          <g id="Group_10966" data-name="Group 10966">
            <path id="Path_22010" data-name="Path 22010" d="M41.2,32.928l.24-1.322a2.953,2.953,0,0,1-1.021.3c-.841,0-1.2-.661-1.2-1.382,0-1.442.721-2.223,1.562-2.223a2.006,2.006,0,0,1,1.082.361l.18-1.262a4.225,4.225,0,0,0-1.382-.3c-1.382,0-2.163,1.2-2.163,3.485,0,1.5.12,2.524,1.562,2.524A5.393,5.393,0,0,0,41.2,32.928Z" transform="translate(-38.5 -27.1)" fill="#dce5e5"/>
          </g>
        </g>
        <g id="Group_10969" data-name="Group 10969" transform="translate(5.408 1.202)">
          <g id="Group_10968" data-name="Group 10968">
            <path id="Path_22011" data-name="Path 22011" d="M11.961,30.3a3.552,3.552,0,0,1,1.322-.24c.421,0,.781.06.781.421,0,.24-.06.3-.06.3h-.541c-1.021,0-2.163.421-2.163,1.8,0,1.082.721,1.322,1.142,1.322a1.805,1.805,0,0,0,1.262-.541l-.06.481h1.082l.481-3.3c0-1.382-1.2-1.442-1.682-1.442m.9,2.584a1.967,1.967,0,0,1-1.442,1.142.469.469,0,0,1-.481-.481c0-.3.18-.721,1.082-.721A4.91,4.91,0,0,0,14.424,31.684Z" transform="translate(-11.3 -29.1)" fill="#dce5e5"/>
          </g>
        </g>
        <g id="Group_10971" data-name="Group 10971" transform="translate(9.133 1.021)">
          <g id="Group_10970" data-name="Group 10970">
            <path id="Path_22012" data-name="Path 22012" d="M17.5,33.607a5.085,5.085,0,0,0,1.382.12,1.54,1.54,0,0,0,1.8-1.562c0-1.5-1.442-1.2-1.442-1.8,0-.3.24-.421.661-.421.18,0,.841.06.841.06l.18-1.082a4.564,4.564,0,0,0-1.142-.12c-.9,0-1.2.361-1.2,1.562,0,1.382.9,1.262.9,1.8,0,.361-.421.421-.721.421" transform="translate(-17.5 -28.8)" fill="#dce5e5"/>
          </g>
        </g>
        <g id="Group_10973" data-name="Group 10973" transform="translate(31.601 0.18)">
          <g id="Group_10972" data-name="Group 10972">
            <path id="Path_22013" data-name="Path 22013" d="M57.481,28.962a1.666,1.666,0,0,0-1.142-.6c-1.082,0-1.442,1.322-1.442,2.884,0,.961-.12,1.983.9,1.983a1.6,1.6,0,0,0,1.142-.481l-.06.421h1.2l.9-5.768m-1.562,3.124c0,.661-.541,1.5-1.2,1.5-.421,0-.661-.361-.661-.961,0-.961.421-1.562.961-1.562A.918.918,0,0,1,57.421,30.524Z" transform="translate(-54.893 -27.4)" fill="#dce5e5"/>
          </g>
        </g>
        <g id="Group_10975" data-name="Group 10975" transform="translate(0 0.12)">
          <g id="Group_10974" data-name="Group 10974">
            <path id="Path_22014" data-name="Path 22014" d="M3.442,33.068l.721-4.326.12,4.326h.841l1.562-4.326-.661,4.326H7.287L8.249,27.3h-1.5L5.064,30.845,5,27.3H4.343L2.3,33.068Z" transform="translate(-2.3 -27.3)" fill="#dce5e5"/>
          </g>
        </g>
        <g id="Group_10977" data-name="Group 10977" transform="translate(18.507 1.202)">
          <g id="Group_10976" data-name="Group 10976">
            <path id="Path_22015" data-name="Path 22015" d="M33.1,33.787h1.262c.36-1.983.421-3.605,1.262-3.3a4.716,4.716,0,0,1,.421-1.382H35.8c-.541,0-.961.721-.961.721l.12-.661" transform="translate(-33.1 -29.1)" fill="#dce5e5"/>
          </g>
        </g>
        <g id="Group_10979" data-name="Group 10979" transform="translate(24.936 1.202)">
          <g id="Group_10978" data-name="Group 10978">
            <path id="Path_22016" data-name="Path 22016" d="M44.461,30.3a3.552,3.552,0,0,1,1.322-.24c.421,0,.781.06.781.421,0,.24-.06.3-.06.3h-.541c-1.021,0-2.163.421-2.163,1.8,0,1.082.721,1.322,1.142,1.322a1.805,1.805,0,0,0,1.262-.541l-.06.481h1.082l.481-3.3c0-1.382-1.2-1.442-1.682-1.442m.9,2.584a1.967,1.967,0,0,1-1.442,1.142A.469.469,0,0,1,45,32.345c0-.3.18-.721,1.082-.721A5.287,5.287,0,0,0,46.924,31.684Z" transform="translate(-43.8 -29.1)" fill="#dce5e5"/>
          </g>
        </g>
        <g id="Group_10981" data-name="Group 10981" transform="translate(28.601 1.202)">
          <g id="Group_10980" data-name="Group 10980">
            <path id="Path_22017" data-name="Path 22017" d="M49.9,33.787h1.262c.361-1.983.421-3.605,1.262-3.3a4.717,4.717,0,0,1,.421-1.382H52.6c-.541,0-.961.721-.961.721l.12-.661" transform="translate(-49.9 -29.1)" fill="#dce5e5"/>
          </g>
        </g>
      </g>
    </g>
  </g>
</svg>
