<svg id="notification_icon" data-name="notification icon" xmlns="http://www.w3.org/2000/svg" width="24" height="24" viewBox="0 0 24 24">
  <rect id="frame" width="24" height="24" fill="#fff" opacity="0"/>
  <g id="not" transform="translate(2.926 -103.915)">
    <path id="bell_3_" data-name="bell(3)" d="M16.851,10.05l-1.4-5.028a6.856,6.856,0,0,0-13.3.349L1.073,10.236a3.678,3.678,0,0,0,3.59,4.476h.819a3.678,3.678,0,0,0,7.208,0h.616a3.678,3.678,0,0,0,3.544-4.662ZM9.087,16.183a2.207,2.207,0,0,1-2.071-1.471h4.143a2.207,2.207,0,0,1-2.071,1.471Zm5.977-3.814a2.19,2.19,0,0,1-1.757.872H4.664A2.207,2.207,0,0,1,2.51,10.555L3.591,5.689a5.385,5.385,0,0,1,10.445-.274l1.4,5.028a2.19,2.19,0,0,1-.369,1.926Z" transform="translate(-0.014 106.971)" fill="#131313"/>
  </g>
</svg>
