<svg xmlns="http://www.w3.org/2000/svg" width="170.068" height="14.964" viewBox="0 0 170.068 14.964">
  <g id="payment" transform="translate(-165.237 -572.456)">
    <g id="mastercard" transform="translate(292.567 565.845)">
      <g id="_1156753_finance_payment_visa_icon" data-name="1156753_finance_payment_visa_icon" transform="translate(7.67 8.611)">
        <g id="Group_11006" data-name="Group 11006" transform="translate(0 0)">
          <g id="Group_10985" data-name="Group 10985" transform="translate(12.858 0.334)">
            <g id="Group_10984" data-name="Group 10984">
              <path id="Path_22018" data-name="Path 22018" d="M23.6,33.02,25.381,23h2.783L26.439,33.02Z" transform="translate(-23.6 -23)" fill="#3c58bf"/>
            </g>
          </g>
          <g id="Group_10987" data-name="Group 10987" transform="translate(12.858 0.334)">
            <g id="Group_10986" data-name="Group 10986">
              <path id="Path_22019" data-name="Path 22019" d="M23.6,33.02,25.882,23h2.282L26.439,33.02Z" transform="translate(-23.6 -23)" fill="#293688"/>
            </g>
          </g>
          <g id="Group_10989" data-name="Group 10989" transform="translate(17.256)">
            <g id="Group_10988" data-name="Group 10988">
              <path id="Path_22020" data-name="Path 22020" d="M40.017,22.845a7.06,7.06,0,0,0-2.561-.445c-2.783,0-4.787,1.392-4.787,3.4,0,1.5,1.392,2.282,2.5,2.783s1.447.835,1.447,1.28c0,.668-.891,1-1.67,1a6.05,6.05,0,0,1-2.672-.557l-.39-.167L31.5,32.42a9.025,9.025,0,0,0,3.173.557c2.95,0,4.9-1.392,4.9-3.507,0-1.169-.724-2.06-2.394-2.783-1-.5-1.614-.779-1.614-1.28,0-.445.5-.891,1.614-.891a5.106,5.106,0,0,1,2.115.39l.278.111.445-2.171Z" transform="translate(-31.5 -22.4)" fill="#3c58bf"/>
            </g>
          </g>
          <g id="Group_10991" data-name="Group 10991" transform="translate(17.256)">
            <g id="Group_10990" data-name="Group 10990">
              <path id="Path_22021" data-name="Path 22021" d="M40.017,22.845a7.06,7.06,0,0,0-2.561-.445c-2.783,0-4.286,1.392-4.286,3.4a2.91,2.91,0,0,0,2,2.783c1.113.5,1.447.835,1.447,1.28,0,.668-.891,1-1.67,1a6.05,6.05,0,0,1-2.672-.557l-.39-.167L31.5,32.42a9.025,9.025,0,0,0,3.173.557c2.95,0,4.9-1.392,4.9-3.507,0-1.169-.724-2.06-2.394-2.783-1-.5-1.614-.779-1.614-1.28,0-.445.5-.891,1.614-.891a5.106,5.106,0,0,1,2.115.39l.278.111.445-2.171Z" transform="translate(-31.5 -22.4)" fill="#293688"/>
            </g>
          </g>
          <g id="Group_10993" data-name="Group 10993" transform="translate(24.938 0.334)">
            <g id="Group_10992" data-name="Group 10992">
              <path id="Path_22022" data-name="Path 22022" d="M50.922,23c-.668,0-1.169.056-1.447.724L45.3,33.02h3.006l.557-1.67h3.563l.334,1.67h2.672L53.093,23Zm-1.28,6.68c.167-.5,1.113-2.95,1.113-2.95s.223-.612.39-1l.167.946s.557,2.5.668,3.062H49.642Z" transform="translate(-45.3 -23)" fill="#3c58bf"/>
            </g>
          </g>
          <g id="Group_10995" data-name="Group 10995" transform="translate(24.938 0.334)">
            <g id="Group_10994" data-name="Group 10994">
              <path id="Path_22023" data-name="Path 22023" d="M51.59,23c-.668,0-1.169.056-1.447.724L45.3,33.02h3.006l.557-1.67h3.563l.334,1.67h2.672L53.093,23Zm-1.948,6.68c.223-.557,1.113-2.95,1.113-2.95s.223-.612.39-1l.167.946s.557,2.5.668,3.062H49.642Z" transform="translate(-45.3 -23)" fill="#293688"/>
            </g>
          </g>
          <g id="Group_10997" data-name="Group 10997" transform="translate(3.563 0.39)">
            <g id="Group_10996" data-name="Group 10996">
              <path id="Path_22024" data-name="Path 22024" d="M11.075,30.058,10.8,28.611a8.069,8.069,0,0,0-3.9-4.4L9.4,33.12h3.006L16.92,23.1H13.914Z" transform="translate(-6.9 -23.1)" fill="#3c58bf"/>
            </g>
          </g>
          <g id="Group_10999" data-name="Group 10999" transform="translate(3.563 0.39)">
            <g id="Group_10998" data-name="Group 10998">
              <path id="Path_22025" data-name="Path 22025" d="M11.075,30.058,10.8,28.611a8.069,8.069,0,0,0-3.9-4.4L9.4,33.12h3.006L16.92,23.1H14.47Z" transform="translate(-6.9 -23.1)" fill="#293688"/>
            </g>
          </g>
          <g id="Group_11001" data-name="Group 11001" transform="translate(0 0.334)">
            <g id="Group_11000" data-name="Group 11000">
              <path id="Path_22026" data-name="Path 22026" d="M.5,23l.5.111c3.563.835,6.012,2.95,6.958,5.455l-1-4.731C6.79,23.167,6.289,23,5.677,23Z" transform="translate(-0.5 -23)" fill="#ffbc00"/>
            </g>
          </g>
          <g id="Group_11003" data-name="Group 11003" transform="translate(0 0.334)">
            <g id="Group_11002" data-name="Group 11002">
              <path id="Path_22027" data-name="Path 22027" d="M.5,23h0c3.563.835,6.513,3.006,7.459,5.511l-.946-3.952A1.359,1.359,0,0,0,5.677,23.5Z" transform="translate(-0.5 -23)" fill="#f7981d"/>
            </g>
          </g>
          <g id="Group_11005" data-name="Group 11005" transform="translate(0 0.334)">
            <g id="Group_11004" data-name="Group 11004">
              <path id="Path_22028" data-name="Path 22028" d="M.5,23h0c3.563.835,6.513,3.006,7.459,5.511L7.291,26.34a1.963,1.963,0,0,0-1.169-1.614Z" transform="translate(-0.5 -23)" fill="#ed7c00"/>
            </g>
          </g>
        </g>
        <g id="Group_11007" data-name="Group 11007" transform="translate(3.618 1.447)">
          <path id="Path_22029" data-name="Path 22029" d="M13.9,30.566,12.01,28.674l-.891,2.115L10.9,29.4A8.069,8.069,0,0,0,7,25l2.5,8.906h3.006Z" transform="translate(-7 -25)" fill="#051244"/>
        </g>
        <g id="Group_11008" data-name="Group 11008" transform="translate(12.858 7.904)">
          <path id="Path_22030" data-name="Path 22030" d="M26.439,39.049,24.045,36.6,23.6,39.049Z" transform="translate(-23.6 -36.6)" fill="#051244"/>
        </g>
        <g id="Group_11009" data-name="Group 11009" transform="translate(17.256 6.902)">
          <path id="Path_22031" data-name="Path 22031" d="M36.343,34.8h0c.223.223.334.39.278.612,0,.668-.891,1-1.67,1a6.05,6.05,0,0,1-2.672-.557l-.39-.167-.39,2.282a9.026,9.026,0,0,0,3.173.557,5.511,5.511,0,0,0,4.063-1.392Z" transform="translate(-31.5 -34.8)" fill="#051244"/>
        </g>
        <g id="Group_11010" data-name="Group 11010" transform="translate(25.327 3.062)">
          <path id="Path_22032" data-name="Path 22032" d="M46,35.192h2.616l.557-1.67h3.563l.334,1.67h2.672l-.946-4.063L51.455,27.9l.167.891s.557,2.5.668,3.062H49.952c.223-.557,1.113-2.95,1.113-2.95s.223-.612.39-1" transform="translate(-46 -27.9)" fill="#051244"/>
        </g>
      </g>
    </g>
    <g id="mastercard-2" data-name="mastercard" transform="translate(204.806 567.704)">
      <g id="mastercard-3" data-name="mastercard" transform="translate(7.431 4.752)">
        <g id="Group_10930" data-name="Group 10930" transform="translate(9.976 0)">
          <g id="Group_10929" data-name="Group 10929">
            <path id="Path_21992" data-name="Path 21992" d="M40.664,20.582a7.482,7.482,0,1,1-14.964,0h0a7.482,7.482,0,1,1,14.964,0Z" transform="translate(-25.7 -13.1)" fill="#ffb600"/>
          </g>
        </g>
        <g id="Group_10932" data-name="Group 10932" transform="translate(9.976 0)">
          <g id="Group_10931" data-name="Group 10931">
            <path id="Path_21993" data-name="Path 21993" d="M33.182,13.1a7.5,7.5,0,0,1,7.482,7.482h0a7.482,7.482,0,1,1-14.964,0" transform="translate(-25.7 -13.1)" fill="#f7981d"/>
          </g>
        </g>
        <g id="Group_10934" data-name="Group 10934" transform="translate(17.457 0)">
          <g id="Group_10933" data-name="Group 10933">
            <path id="Path_21994" data-name="Path 21994" d="M44.6,13.1a7.5,7.5,0,0,1,7.482,7.482h0A7.476,7.476,0,0,1,44.6,28.064" transform="translate(-44.6 -13.1)" fill="#ff8500"/>
          </g>
        </g>
        <g id="Group_10936" data-name="Group 10936" transform="translate(0 0)">
          <g id="Group_10935" data-name="Group 10935">
            <path id="Path_21995" data-name="Path 21995" d="M7.9,13.1a7.482,7.482,0,0,0,.079,14.964,7.569,7.569,0,0,0,5.027-1.94h0a7.113,7.113,0,0,0,.752-.792H12.217a9.132,9.132,0,0,1-.554-.752h2.652a5.071,5.071,0,0,0,.435-.792H11.228A4.718,4.718,0,0,1,10.911,23h4.117a7.86,7.86,0,0,0,.4-2.375,10.218,10.218,0,0,0-.158-1.583H10.674a5.786,5.786,0,0,1,.2-.792h4.117a4.718,4.718,0,0,0-.317-.792H11.188a7.851,7.851,0,0,1,.435-.792h2.652a3.764,3.764,0,0,0-.594-.792H12.217a6.747,6.747,0,0,1,.752-.752,7.3,7.3,0,0,0-5.027-1.94C7.942,13.1,7.942,13.1,7.9,13.1Z" transform="translate(-0.5 -13.1)" fill="#ff5050"/>
          </g>
        </g>
        <g id="Group_10938" data-name="Group 10938" transform="translate(0 0.079)">
          <g id="Group_10937" data-name="Group 10937">
            <path id="Path_21996" data-name="Path 21996" d="M.5,20.7a7.476,7.476,0,0,0,7.482,7.482,7.569,7.569,0,0,0,5.027-1.94h0a7.114,7.114,0,0,0,.752-.792H12.217a9.131,9.131,0,0,1-.554-.752h2.652a5.071,5.071,0,0,0,.435-.792H11.228a4.718,4.718,0,0,1-.317-.792h4.117a7.861,7.861,0,0,0,.4-2.375,10.218,10.218,0,0,0-.158-1.583H10.674a5.787,5.787,0,0,1,.2-.792h4.117a4.718,4.718,0,0,0-.317-.792H11.188a7.85,7.85,0,0,1,.435-.792h2.652a3.764,3.764,0,0,0-.594-.792H12.217a6.748,6.748,0,0,1,.752-.752A7.3,7.3,0,0,0,7.942,13.3H7.9" transform="translate(-0.5 -13.3)" fill="#e52836"/>
          </g>
        </g>
        <g id="Group_10940" data-name="Group 10940" transform="translate(7.403 0.079)">
          <g id="Group_10939" data-name="Group 10939">
            <path id="Path_21997" data-name="Path 21997" d="M19.279,28.184a7.569,7.569,0,0,0,5.027-1.94h0a7.114,7.114,0,0,0,.752-.792H23.515a9.132,9.132,0,0,1-.554-.752h2.652a5.071,5.071,0,0,0,.435-.792H22.525a4.718,4.718,0,0,1-.317-.792h4.117a7.86,7.86,0,0,0,.4-2.375,10.217,10.217,0,0,0-.158-1.583H21.971a5.787,5.787,0,0,1,.2-.792h4.117a4.718,4.718,0,0,0-.317-.792H22.486a7.85,7.85,0,0,1,.435-.792h2.652a3.764,3.764,0,0,0-.594-.792H23.515a6.748,6.748,0,0,1,.752-.752A7.3,7.3,0,0,0,19.24,13.3H19.2" transform="translate(-19.2 -13.3)" fill="#cb2026"/>
          </g>
        </g>
        <g id="Group_10961" data-name="Group 10961" transform="translate(0.713 5.542)">
          <g id="Group_10942" data-name="Group 10942" transform="translate(8.273 0.356)">
            <g id="Group_10941" data-name="Group 10941">
              <path id="Path_21998" data-name="Path 21998" d="M24.348,31.484l.119-.673a1.714,1.714,0,0,1-.2.04c-.277,0-.317-.158-.277-.238l.238-1.386h.435l.119-.752h-.4L24.467,28h-.792s-.475,2.613-.475,2.929a.594.594,0,0,0,.633.673A1.215,1.215,0,0,0,24.348,31.484Z" transform="translate(-23.2 -28)" fill="#fff"/>
            </g>
          </g>
          <g id="Group_10944" data-name="Group 10944" transform="translate(9.699 0.787)">
            <g id="Group_10943" data-name="Group 10943">
              <path id="Path_21999" data-name="Path 21999" d="M26.8,30.874a1.259,1.259,0,0,0,1.386,1.386,2.055,2.055,0,0,0,.831-.119l.158-.752a2.373,2.373,0,0,1-.831.2c-.871,0-.713-.633-.713-.633h1.623a5.133,5.133,0,0,0,.119-.713,1.073,1.073,0,0,0-1.148-1.148C27.394,29.013,26.8,29.884,26.8,30.874Zm1.386-1.148c.435,0,.356.515.356.554h-.871C27.671,30.24,27.75,29.726,28.186,29.726Z" transform="translate(-26.8 -29.087)" fill="#fff"/>
            </g>
          </g>
          <g id="Group_10946" data-name="Group 10946" transform="translate(13.934)">
            <g id="Group_10945" data-name="Group 10945">
              <path id="Path_22000" data-name="Path 22000" d="M39.677,30.94l.158-.871a1.945,1.945,0,0,1-.673.2c-.554,0-.792-.435-.792-.91,0-.95.475-1.465,1.029-1.465a1.322,1.322,0,0,1,.713.238l.119-.831a2.783,2.783,0,0,0-.91-.2c-.91,0-1.821.792-1.821,2.3,0,.99.475,1.663,1.425,1.663A3.553,3.553,0,0,0,39.677,30.94Z" transform="translate(-37.5 -27.1)" fill="#fff"/>
            </g>
          </g>
          <g id="Group_10948" data-name="Group 10948" transform="translate(3.563 0.713)">
            <g id="Group_10947" data-name="Group 10947">
              <path id="Path_22001" data-name="Path 22001" d="M12.8,28.9a2.8,2.8,0,0,0-.95.158l-.119.673a2.34,2.34,0,0,1,.871-.158c.277,0,.515.04.515.277,0,.158-.04.2-.04.2h-.356c-.673,0-1.425.277-1.425,1.188,0,.713.475.871.752.871a1.189,1.189,0,0,0,.831-.356l-.04.317h.713l.317-2.177A.938.938,0,0,0,12.8,28.9Zm.158,1.781c0,.119-.079.752-.554.752a.309.309,0,0,1-.317-.317c0-.2.119-.475.713-.475A.624.624,0,0,0,12.963,30.681Z" transform="translate(-11.3 -28.9)" fill="#fff"/>
            </g>
          </g>
          <g id="Group_10950" data-name="Group 10950" transform="translate(5.977 0.673)">
            <g id="Group_10949" data-name="Group 10949">
              <path id="Path_22002" data-name="Path 22002" d="M18.31,32.046A1.015,1.015,0,0,0,19.5,31.017c0-.99-.95-.792-.95-1.188,0-.2.158-.277.435-.277.119,0,.554.04.554.04l.119-.713A3.007,3.007,0,0,0,18.9,28.8c-.594,0-1.188.238-1.188,1.029,0,.91.99.831.99,1.188,0,.238-.277.277-.475.277a2.589,2.589,0,0,1-.713-.119l-.119.713C17.44,31.967,17.638,32.046,18.31,32.046Z" transform="translate(-17.4 -28.8)" fill="#fff"/>
            </g>
          </g>
          <g id="Group_10952" data-name="Group 10952" transform="translate(20.426 0.079)">
            <g id="Group_10951" data-name="Group 10951">
              <path id="Path_22003" data-name="Path 22003" d="M56.156,27.3,56,28.369a1.1,1.1,0,0,0-.752-.4c-.713,0-1.346.871-1.346,1.9,0,.633.317,1.306.99,1.306a1.057,1.057,0,0,0,.752-.317l-.04.277h.792l.594-3.8ZM55.8,29.4c0,.435-.2.99-.633.99-.277,0-.435-.238-.435-.633,0-.633.277-1.029.633-1.029C55.642,28.725,55.8,28.923,55.8,29.4Z" transform="translate(-53.9 -27.3)" fill="#fff"/>
            </g>
          </g>
          <g id="Group_10954" data-name="Group 10954" transform="translate(0 0.079)">
            <g id="Group_10953" data-name="Group 10953">
              <path id="Path_22004" data-name="Path 22004" d="M3.052,31.1l.475-2.85.079,2.85h.554L5.19,28.25,4.754,31.1h.831l.633-3.8H4.913l-.792,2.336L4.081,27.3H2.933L2.3,31.1Z" transform="translate(-2.3 -27.3)" fill="#fff"/>
            </g>
          </g>
          <g id="Group_10956" data-name="Group 10956" transform="translate(12.153 0.792)">
            <g id="Group_10955" data-name="Group 10955">
              <path id="Path_22005" data-name="Path 22005" d="M33.871,32.188c.238-1.306.277-2.375.831-2.177a3.107,3.107,0,0,1,.277-.91h-.158c-.356,0-.633.475-.633.475l.079-.435h-.752L33,32.227h.871Z" transform="translate(-33 -29.1)" fill="#fff"/>
            </g>
          </g>
          <g id="Group_10958" data-name="Group 10958" transform="translate(16.428 0.713)">
            <g id="Group_10957" data-name="Group 10957">
              <path id="Path_22006" data-name="Path 22006" d="M45.3,28.9a2.8,2.8,0,0,0-.95.158l-.119.673a2.34,2.34,0,0,1,.871-.158c.277,0,.515.04.515.277,0,.158-.04.2-.04.2h-.356c-.673,0-1.425.277-1.425,1.188,0,.713.475.871.752.871a1.189,1.189,0,0,0,.831-.356l-.04.317h.713l.317-2.177A.924.924,0,0,0,45.3,28.9Zm.2,1.781c0,.119-.079.752-.554.752a.309.309,0,0,1-.317-.317c0-.2.119-.475.713-.475C45.463,30.681,45.463,30.681,45.5,30.681Z" transform="translate(-43.8 -28.9)" fill="#fff"/>
            </g>
          </g>
          <g id="Group_10960" data-name="Group 10960" transform="translate(18.803 0.792)">
            <g id="Group_10959" data-name="Group 10959">
              <path id="Path_22007" data-name="Path 22007" d="M50.671,32.188c.238-1.306.277-2.375.831-2.177a3.107,3.107,0,0,1,.277-.91h-.158c-.356,0-.633.475-.633.475l.079-.435h-.752L49.8,32.227h.871Z" transform="translate(-49.8 -29.1)" fill="#fff"/>
            </g>
          </g>
        </g>
        <g id="Group_10982" data-name="Group 10982" transform="translate(0.713 5.542)">
          <g id="Group_10963" data-name="Group 10963" transform="translate(8.194 0.356)">
            <g id="Group_10962" data-name="Group 10962">
              <path id="Path_22008" data-name="Path 22008" d="M23,30.929a.594.594,0,0,0,.633.673,1.507,1.507,0,0,0,.594-.119l.119-.673a1.714,1.714,0,0,1-.2.04c-.277,0-.317-.158-.277-.238l.238-1.386h.435l.119-.752h-.4L24.346,28" transform="translate(-23 -28)" fill="#dce5e5"/>
            </g>
          </g>
          <g id="Group_10965" data-name="Group 10965" transform="translate(10.094 0.787)">
            <g id="Group_10964" data-name="Group 10964">
              <path id="Path_22009" data-name="Path 22009" d="M27.8,30.874c0,1.108.356,1.386.99,1.386a2.055,2.055,0,0,0,.831-.119l.158-.752a2.373,2.373,0,0,1-.831.2c-.871,0-.713-.633-.713-.633h1.623a5.133,5.133,0,0,0,.119-.713,1.073,1.073,0,0,0-1.148-1.148C28,29.013,27.8,29.884,27.8,30.874Zm.99-1.148c.435,0,.515.515.515.554H28.275C28.275,30.24,28.354,29.726,28.79,29.726Z" transform="translate(-27.8 -29.087)" fill="#dce5e5"/>
            </g>
          </g>
          <g id="Group_10967" data-name="Group 10967" transform="translate(14.33)">
            <g id="Group_10966" data-name="Group 10966">
              <path id="Path_22010" data-name="Path 22010" d="M40.281,30.94l.158-.871a1.945,1.945,0,0,1-.673.2c-.554,0-.792-.435-.792-.91,0-.95.475-1.465,1.029-1.465a1.322,1.322,0,0,1,.713.238l.119-.831a2.783,2.783,0,0,0-.91-.2c-.91,0-1.425.792-1.425,2.3,0,.99.079,1.663,1.029,1.663A3.553,3.553,0,0,0,40.281,30.94Z" transform="translate(-38.5 -27.1)" fill="#dce5e5"/>
            </g>
          </g>
          <g id="Group_10969" data-name="Group 10969" transform="translate(3.563 0.792)">
            <g id="Group_10968" data-name="Group 10968">
              <path id="Path_22011" data-name="Path 22011" d="M11.735,29.892a2.34,2.34,0,0,1,.871-.158c.277,0,.515.04.515.277,0,.158-.04.2-.04.2h-.356c-.673,0-1.425.277-1.425,1.188,0,.713.475.871.752.871a1.189,1.189,0,0,0,.831-.356l-.04.317h.713l.317-2.177c0-.91-.792-.95-1.108-.95m.594,1.7a1.3,1.3,0,0,1-.95.752.309.309,0,0,1-.317-.317c0-.2.119-.475.713-.475A3.234,3.234,0,0,0,13.358,30.8Z" transform="translate(-11.3 -29.1)" fill="#dce5e5"/>
            </g>
          </g>
          <g id="Group_10971" data-name="Group 10971" transform="translate(6.017 0.673)">
            <g id="Group_10970" data-name="Group 10970">
              <path id="Path_22012" data-name="Path 22012" d="M17.5,31.967a3.35,3.35,0,0,0,.91.079A1.015,1.015,0,0,0,19.6,31.017c0-.99-.95-.792-.95-1.188,0-.2.158-.277.435-.277.119,0,.554.04.554.04l.119-.713A3.007,3.007,0,0,0,19,28.8c-.594,0-.792.238-.792,1.029,0,.91.594.831.594,1.188,0,.238-.277.277-.475.277" transform="translate(-17.5 -28.8)" fill="#dce5e5"/>
            </g>
          </g>
          <g id="Group_10973" data-name="Group 10973" transform="translate(20.819 0.119)">
            <g id="Group_10972" data-name="Group 10972">
              <path id="Path_22013" data-name="Path 22013" d="M56.6,28.429a1.1,1.1,0,0,0-.752-.4c-.713,0-.95.871-.95,1.9,0,.633-.079,1.306.594,1.306a1.057,1.057,0,0,0,.752-.317l-.04.277h.792l.594-3.8m-1.029,2.058c0,.435-.356.99-.792.99-.277,0-.435-.238-.435-.633,0-.633.277-1.029.633-1.029A.6.6,0,0,1,56.558,29.458Z" transform="translate(-54.893 -27.4)" fill="#dce5e5"/>
            </g>
          </g>
          <g id="Group_10975" data-name="Group 10975" transform="translate(0 0.079)">
            <g id="Group_10974" data-name="Group 10974">
              <path id="Path_22014" data-name="Path 22014" d="M3.052,31.1l.475-2.85.079,2.85h.554L5.19,28.25,4.754,31.1h.831l.633-3.8h-.99L4.121,29.636,4.081,27.3H3.646L2.3,31.1Z" transform="translate(-2.3 -27.3)" fill="#dce5e5"/>
            </g>
          </g>
          <g id="Group_10977" data-name="Group 10977" transform="translate(12.193 0.792)">
            <g id="Group_10976" data-name="Group 10976">
              <path id="Path_22015" data-name="Path 22015" d="M33.1,32.188h.831c.238-1.306.277-2.375.831-2.177a3.107,3.107,0,0,1,.277-.91h-.158c-.356,0-.633.475-.633.475l.079-.435" transform="translate(-33.1 -29.1)" fill="#dce5e5"/>
            </g>
          </g>
          <g id="Group_10979" data-name="Group 10979" transform="translate(16.428 0.792)">
            <g id="Group_10978" data-name="Group 10978">
              <path id="Path_22016" data-name="Path 22016" d="M44.235,29.892a2.34,2.34,0,0,1,.871-.158c.277,0,.515.04.515.277,0,.158-.04.2-.04.2h-.356c-.673,0-1.425.277-1.425,1.188,0,.713.475.871.752.871a1.189,1.189,0,0,0,.831-.356l-.04.317h.713l.317-2.177c0-.91-.792-.95-1.108-.95m.594,1.7a1.3,1.3,0,0,1-.95.752.309.309,0,0,1-.317-.317c0-.2.119-.475.713-.475A3.483,3.483,0,0,0,45.858,30.8Z" transform="translate(-43.8 -29.1)" fill="#dce5e5"/>
            </g>
          </g>
          <g id="Group_10981" data-name="Group 10981" transform="translate(18.843 0.792)">
            <g id="Group_10980" data-name="Group 10980">
              <path id="Path_22017" data-name="Path 22017" d="M49.9,32.188h.831c.238-1.306.277-2.375.831-2.177a3.107,3.107,0,0,1,.277-.91h-.158c-.356,0-.633.475-.633.475l.079-.435" transform="translate(-49.9 -29.1)" fill="#dce5e5"/>
            </g>
          </g>
        </g>
      </g>
    </g>
    <g id="mastercard-4" data-name="mastercard" transform="translate(163.075 566.975)">
      <g id="american_express" transform="translate(2.163 6.481)">
        <g id="Group_11022" data-name="Group 11022" transform="translate(0)">
          <g id="Group_11015" data-name="Group 11015">
            <g id="Group_11011" data-name="Group 11011" transform="translate(3.197 1.539)">
              <path id="Path_22033" data-name="Path 22033" d="M5.9,25.358H7.2L6.551,23.7Z" transform="translate(-5.9 -23.7)" fill="#246ea9"/>
            </g>
            <g id="Group_11012" data-name="Group 11012" transform="translate(17.7 1.717)">
              <path id="Path_22034" data-name="Path 22034" d="M32.058,24.059A1.154,1.154,0,0,0,31.584,24H30.4v.947h1.184a1.154,1.154,0,0,0,.474-.059.461.461,0,0,0,.178-.414A.329.329,0,0,0,32.058,24.059Z" transform="translate(-30.4 -24)" fill="#246ea9"/>
            </g>
            <g id="Group_11013" data-name="Group 11013">
              <path id="Path_22035" data-name="Path 22035" d="M32.525,21.1v.71l-.355-.71H29.388v.71l-.355-.71H25.244a3.6,3.6,0,0,0-1.658.355V21.1H20.923v.355A1.707,1.707,0,0,0,19.8,21.1H10.267l-.651,1.48L8.965,21.1H5.946v.71l-.355-.71H3.045L1.862,23.882.5,26.96H3.519l.355-.947H4.7l.355.947H8.492v-.71l.3.71H10.5l.3-.71v.71h8.228V25.421h.118c.118,0,.118,0,.118.178v1.3h4.262v-.355a3.546,3.546,0,0,0,1.6.355H26.9l.355-.947h.829l.355.947h3.433v-.888l.533.888h2.782V21.1ZM12.517,26.073H11.511V22.817L10.09,26.073H9.2L7.781,22.817v3.256H5.769l-.414-.888H3.341l-.355.947H1.862l1.776-4.2h1.48l1.658,3.966V21.929h1.6l1.3,2.841,1.184-2.841h1.658Zm4.025-3.256H14.234v.77h2.249v.829H14.234v.829h2.309v.888H13.227v-4.2h3.315Zm4.44,1.717a1.481,1.481,0,0,1,.178.77v.829H20.153V25.6a1.41,1.41,0,0,0-.178-.829c-.178-.178-.355-.178-.71-.178H18.2v1.539H17.193v-4.2h2.249a2.269,2.269,0,0,1,1.184.178,1.009,1.009,0,0,1,.474.947,1.178,1.178,0,0,1-.71,1.125A1.126,1.126,0,0,1,20.982,24.533Zm1.776,1.539H21.752v-4.2h1.006Zm11.662,0H33L31.1,22.935v3.137H29.092l-.355-.888H26.665l-.355.947H25.185a1.78,1.78,0,0,1-1.953-2.072,2.426,2.426,0,0,1,.533-1.658,1.866,1.866,0,0,1,1.48-.474h.947v.888h-.947a1.092,1.092,0,0,0-.77.237,1.39,1.39,0,0,0-.3.947,1.288,1.288,0,0,0,.3,1.006.944.944,0,0,0,.71.237H25.6l1.362-3.256h1.48L30.1,25.954V21.988h1.48l1.717,2.9v-2.9H34.3v4.085Z" transform="translate(-0.5 -21.1)" fill="#246ea9"/>
            </g>
            <g id="Group_11014" data-name="Group 11014" transform="translate(26.52 1.539)">
              <path id="Path_22036" data-name="Path 22036" d="M45.3,25.358h1.362L46.01,23.7Z" transform="translate(-45.3 -23.7)" fill="#246ea9"/>
            </g>
          </g>
          <g id="Group_11021" data-name="Group 11021" transform="translate(8.228 7.104)">
            <g id="Group_11016" data-name="Group 11016" transform="translate(6.689 1.243)">
              <path id="Path_22037" data-name="Path 22037" d="M27.239,38.574V35.2L25.7,36.858Z" transform="translate(-25.7 -35.2)" fill="#246ea9"/>
            </g>
            <g id="Group_11017" data-name="Group 11017" transform="translate(1.894 1.658)">
              <path id="Path_22038" data-name="Path 22038" d="M17.6,35.9v.77h2.19V37.5H17.6v.888h2.427l1.125-1.243L20.086,35.9Z" transform="translate(-17.6 -35.9)" fill="#246ea9"/>
            </g>
            <g id="Group_11018" data-name="Group 11018" transform="translate(9.235 1.658)">
              <path id="Path_22039" data-name="Path 22039" d="M31.243,35.9H30v1.066h1.3c.355,0,.592-.178.592-.533A.6.6,0,0,0,31.243,35.9Z" transform="translate(-30 -35.9)" fill="#246ea9"/>
            </g>
            <g id="Group_11019" data-name="Group 11019">
              <path id="Path_22040" data-name="Path 22040" d="M43.17,35.764V33.1H40.683a1.942,1.942,0,0,0-1.243.355V33.1H36.717a1.878,1.878,0,0,0-1.184.355V33.1H30.738v.355a2.288,2.288,0,0,0-1.3-.355h-3.2v.355a2.246,2.246,0,0,0-1.362-.355H21.326l-.829.888-.77-.888H14.4v5.8h5.209l.829-.888.77.888h3.2V37.54h.414a3.6,3.6,0,0,0,1.362-.178v1.6h2.664V37.421h.118c.178,0,.178,0,.178.178V38.96h8.051a2.321,2.321,0,0,0,1.362-.355v.355H41.1a2.659,2.659,0,0,0,1.421-.3h0a2.015,2.015,0,0,0,.947-1.776A2.267,2.267,0,0,0,43.17,35.764Zm-18.351.947H23.635v1.421H21.74L20.556,36.77l-1.243,1.362H15.406v-4.2h3.966l1.184,1.362L21.8,33.929h3.137c.77,0,1.658.237,1.658,1.362C26.535,36.474,25.707,36.711,24.819,36.711Zm5.92-.237a1.343,1.343,0,0,1,.178.77v.829H29.91V37.54a1.322,1.322,0,0,0-.178-.829c-.118-.178-.355-.178-.71-.178H27.956v1.539H26.95v-4.2H29.2a2.383,2.383,0,0,1,1.184.178,1.047,1.047,0,0,1,.533.947,1.178,1.178,0,0,1-.71,1.125A1.013,1.013,0,0,1,30.738,36.474Zm4.085-1.717H32.514v.77h2.249v.829H32.514v.829h2.309v.888H31.508v-4.2h3.315Zm2.486,3.315H35.415v-.888h1.894a.5.5,0,0,0,.414-.118.429.429,0,0,0,0-.592.5.5,0,0,0-.355-.118c-.947-.059-2.072,0-2.072-1.3,0-.592.355-1.243,1.421-1.243h1.953v1.006H36.836a.878.878,0,0,0-.414.059c-.118.059-.118.178-.118.3,0,.178.118.237.237.3a.751.751,0,0,0,.355.059h.533a1.507,1.507,0,0,1,1.125.355,1.225,1.225,0,0,1,.3.888C38.848,37.658,38.315,38.073,37.309,38.073Zm5.091-.414a1.726,1.726,0,0,1-1.243.414H39.263v-.888h1.894a.5.5,0,0,0,.414-.118.429.429,0,0,0,0-.592.5.5,0,0,0-.355-.118c-.947-.059-2.072,0-2.072-1.3,0-.592.355-1.243,1.421-1.243h1.953v1.006H40.743a.878.878,0,0,0-.414.059c-.118.059-.118.178-.118.3,0,.178.059.237.237.3a.751.751,0,0,0,.355.059h.533a1.507,1.507,0,0,1,1.125.355.058.058,0,0,1,.059.059,1.359,1.359,0,0,1,.237.829A1.2,1.2,0,0,1,42.4,37.658Z" transform="translate(-14.4 -33.1)" fill="#246ea9"/>
            </g>
            <g id="Group_11020" data-name="Group 11020" transform="translate(13.615 1.717)">
              <path id="Path_22041" data-name="Path 22041" d="M39.058,36.059A1.154,1.154,0,0,0,38.584,36H37.4v.947h1.184a1.154,1.154,0,0,0,.474-.059.461.461,0,0,0,.178-.414A.329.329,0,0,0,39.058,36.059Z" transform="translate(-37.4 -36)" fill="#246ea9"/>
            </g>
          </g>
        </g>
        <g id="Group_11030" data-name="Group 11030" transform="translate(14.918 1.539)">
          <g id="Group_11025" data-name="Group 11025" transform="translate(2.782 0)">
            <g id="Group_11023" data-name="Group 11023" transform="translate(0 0.178)">
              <path id="Path_22042" data-name="Path 22042" d="M32.058,24.059A1.154,1.154,0,0,0,31.584,24H30.4v.947h1.184a1.154,1.154,0,0,0,.474-.059.461.461,0,0,0,.178-.414A.329.329,0,0,0,32.058,24.059Z" transform="translate(-30.4 -24)" fill="#246ea9"/>
            </g>
            <g id="Group_11024" data-name="Group 11024" transform="translate(8.82)">
              <path id="Path_22043" data-name="Path 22043" d="M45.3,25.358h1.362L46.01,23.7Z" transform="translate(-45.3 -23.7)" fill="#246ea9"/>
            </g>
          </g>
          <g id="Group_11029" data-name="Group 11029" transform="translate(0 6.808)">
            <g id="Group_11026" data-name="Group 11026">
              <path id="Path_22044" data-name="Path 22044" d="M27.239,38.574V35.2L25.7,36.858Z" transform="translate(-25.7 -35.2)" fill="#246ea9"/>
            </g>
            <g id="Group_11027" data-name="Group 11027" transform="translate(2.545 0.414)">
              <path id="Path_22045" data-name="Path 22045" d="M31.243,35.9H30v1.066h1.3c.355,0,.592-.178.592-.533A.6.6,0,0,0,31.243,35.9Z" transform="translate(-30 -35.9)" fill="#246ea9"/>
            </g>
            <g id="Group_11028" data-name="Group 11028" transform="translate(6.926 0.474)">
              <path id="Path_22046" data-name="Path 22046" d="M39.058,36.059A1.154,1.154,0,0,0,38.584,36H37.4v.947h1.184a1.154,1.154,0,0,0,.474-.059.461.461,0,0,0,.178-.414A.329.329,0,0,0,39.058,36.059Z" transform="translate(-37.4 -36)" fill="#246ea9"/>
            </g>
          </g>
        </g>
        <g id="Group_11031" data-name="Group 11031" transform="translate(8.228 7.104)">
          <path id="Path_22047" data-name="Path 22047" d="M24.463,37.954l-.829-.888v1.006H21.681L20.5,36.711l-1.3,1.362H15.288V33.929h3.966L20.5,35.29l.592-.71-1.48-1.48H14.4v5.8h5.209l.888-.888.77.888h3.2Z" transform="translate(-14.4 -33.1)" fill="#246ea9"/>
        </g>
        <g id="Group_11034" data-name="Group 11034" transform="translate(0 0)">
          <g id="Group_11032" data-name="Group 11032">
            <path id="Path_22048" data-name="Path 22048" d="M12.635,26.9l-.77-.829h-.355v-.355l-.888-.888-.592,1.243H9.2L7.781,22.817v3.256H5.769l-.414-.888H3.341l-.414.888H1.862l1.776-4.144h1.48l1.658,3.966V21.929h.888L6.834,21.1H5.946v.71l-.3-.71h-2.6L1.862,23.882.5,26.9H3.578l.355-.888h.829l.414.888H8.492v-.71l.3.71H10.5l.3-.71v.71Z" transform="translate(-0.5 -21.1)" fill="#246ea9"/>
          </g>
          <g id="Group_11033" data-name="Group 11033" transform="translate(8.465 2.131)">
            <path id="Path_22049" data-name="Path 22049" d="M15.747,25.647,14.8,24.7l.71,1.539Z" transform="translate(-14.8 -24.7)" fill="#246ea9"/>
          </g>
        </g>
        <g id="Group_11037" data-name="Group 11037" transform="translate(12.905 6.926)">
          <g id="Group_11035" data-name="Group 11035" transform="translate(0 0)">
            <path id="Path_22050" data-name="Path 22050" d="M45.742,38.483a2.165,2.165,0,0,0,.947-1.6l-.829-.829a1.751,1.751,0,0,1,.118.592,1.2,1.2,0,0,1-.355.888,1.726,1.726,0,0,1-1.243.414H42.486v-.888H44.38a.5.5,0,0,0,.414-.118.429.429,0,0,0,0-.592.5.5,0,0,0-.355-.118c-.947-.059-2.072,0-2.072-1.3,0-.592.355-1.125,1.243-1.243l-.651-.651c-.118.059-.178.118-.237.118V32.8H40a1.878,1.878,0,0,0-1.184.355V32.8H33.962v.355a2.288,2.288,0,0,0-1.3-.355h-3.2v.355A2.246,2.246,0,0,0,28.1,32.8H24.549l-.829.888-.77-.888H22.3l1.776,1.776.888-.947H28.1c.77,0,1.658.237,1.658,1.362,0,1.184-.829,1.421-1.717,1.421H26.858V37.3l.888.888V37.3h.3a3.6,3.6,0,0,0,1.362-.178v1.6h2.664V37.181h.118c.178,0,.178,0,.178.178V38.72h8.051a2.321,2.321,0,0,0,1.362-.355v.355h2.545a2.349,2.349,0,0,0,1.421-.237Zm-11.78-2.131a1.343,1.343,0,0,1,.178.77v.829H33.133v-.533a1.321,1.321,0,0,0-.178-.829c-.118-.178-.355-.178-.71-.178H31.179V37.95H30.173v-4.2h2.249a2.383,2.383,0,0,1,1.184.178,1.047,1.047,0,0,1,.533.947A1.179,1.179,0,0,1,33.429,36,1.012,1.012,0,0,1,33.962,36.352Zm4.085-1.717H35.738v.77h2.249v.829H35.738v.829h2.309v.888H34.731v-4.2h3.315Zm2.486,3.315H38.638v-.888h1.894a.5.5,0,0,0,.414-.118.429.429,0,0,0,0-.592.5.5,0,0,0-.355-.118c-.947-.059-2.072,0-2.072-1.3,0-.592.355-1.243,1.421-1.243h1.953v1.006H40.059a.878.878,0,0,0-.414.059c-.118.059-.118.178-.118.3,0,.178.118.237.237.3a.751.751,0,0,0,.355.059h.533a1.507,1.507,0,0,1,1.125.355,1.225,1.225,0,0,1,.3.888C42.072,37.536,41.539,37.95,40.533,37.95Z" transform="translate(-22.3 -32.8)" fill="#246ea9"/>
          </g>
          <g id="Group_11036" data-name="Group 11036" transform="translate(21.074 1.894)">
            <path id="Path_22051" data-name="Path 22051" d="M57.9,36.355c0,.178.059.237.237.3a.751.751,0,0,0,.355.059h.533a1.719,1.719,0,0,1,.829.178L58.966,36h-.533a.878.878,0,0,0-.414.059A.452.452,0,0,0,57.9,36.355Z" transform="translate(-57.9 -36)" fill="#246ea9"/>
          </g>
        </g>
        <g id="Group_11041" data-name="Group 11041" transform="translate(5.86 0.059)">
          <g id="Group_11038" data-name="Group 11038" transform="translate(26.047 5.564)">
            <path id="Path_22052" data-name="Path 22052" d="M54.4,30.6l.118.178h.059Z" transform="translate(-54.4 -30.6)" fill="#246ea9"/>
          </g>
          <g id="Group_11039" data-name="Group 11039" transform="translate(22.791 2.309)">
            <path id="Path_22053" data-name="Path 22053" d="M48.9,25.1l1.006,2.427V26.106Z" transform="translate(-48.9 -25.1)" fill="#246ea9"/>
          </g>
          <g id="Group_11040" data-name="Group 11040">
            <path id="Path_22054" data-name="Path 22054" d="M23.068,25.462h.118c.118,0,.118,0,.118.178v1.3h4.262v-.355a3.546,3.546,0,0,0,1.6.355h1.776l.355-.947h.829l.355.947h3.433V26.35l-.829-.829v.651H33.072l-.3-.947H30.7l-.355.947H29.225A1.78,1.78,0,0,1,27.271,24.1a2.426,2.426,0,0,1,.533-1.658,1.866,1.866,0,0,1,1.48-.474h.947v.888h-.947a1.092,1.092,0,0,0-.77.237,1.39,1.39,0,0,0-.3.947,1.288,1.288,0,0,0,.3,1.006.944.944,0,0,0,.71.237h.414L31,22.029h.592l-.829-.829H29.225a3.6,3.6,0,0,0-1.658.355V21.2h-2.6v.355a1.707,1.707,0,0,0-1.125-.355H14.307l-.651,1.48L13,21.2H10.4l.829.829h1.184l1.006,2.19.355.355,1.066-2.6H16.5v4.2H15.491V22.917l-1.006,2.368L16.2,27h6.808Zm2.723-3.493H26.8v4.2H25.791Zm-5.209.888H18.273v.77h2.249v.829H18.273v.829h2.309v.888H17.267v-4.2h3.315Zm1.658,3.256H21.233v-4.2h2.249a2.269,2.269,0,0,1,1.184.178,1.009,1.009,0,0,1,.474.947,1.179,1.179,0,0,1-.71,1.125.775.775,0,0,1,.474.355,1.481,1.481,0,0,1,.178.77v.829H24.074v-.533a1.41,1.41,0,0,0-.178-.829c-.059-.118-.237-.118-.592-.118H22.239v1.48Z" transform="translate(-10.4 -21.2)" fill="#246ea9"/>
          </g>
        </g>
      </g>
    </g>
    <g id="Group_12724" data-name="Group 12724" transform="translate(196.237 434.816)">
      <path id="Path_36808" data-name="Path 36808" d="M51.981,141.795H50v6.9h1.955a3.531,3.531,0,0,0,2.47-.8,3.489,3.489,0,0,0,1.261-2.65A3.423,3.423,0,0,0,51.981,141.795Zm1.569,5.2a2.7,2.7,0,0,1-1.852.54h-.36v-4.554h.36a2.618,2.618,0,0,1,1.852.54,2.329,2.329,0,0,1,.746,1.724A2.388,2.388,0,0,1,53.551,146.992Zm2.753,1.7h1.338v-6.9H56.3Zm4.631-4.245c-.823-.309-1.055-.489-1.055-.875,0-.437.437-.746,1-.746a1.348,1.348,0,0,1,1.081.54l.72-.9a3.04,3.04,0,0,0-2.033-.772,2.028,2.028,0,0,0-2.161,1.981c0,.952.437,1.415,1.7,1.878a4.788,4.788,0,0,1,.926.386.828.828,0,0,1,.411.72.982.982,0,0,1-1.055.978A1.632,1.632,0,0,1,59,146.709l-.849.849a2.7,2.7,0,0,0,2.393,1.312,2.217,2.217,0,0,0,2.367-2.264C62.915,145.5,62.452,145.01,60.934,144.445Zm2.393.8a3.576,3.576,0,0,0,3.653,3.6,3.683,3.683,0,0,0,1.672-.386v-1.6a2.152,2.152,0,0,1-1.621.772,2.278,2.278,0,0,1-2.315-2.393,2.308,2.308,0,0,1,2.264-2.367,2.213,2.213,0,0,1,1.672.772v-1.569a3.227,3.227,0,0,0-1.647-.437A3.646,3.646,0,0,0,63.327,145.242Z" fill-rule="evenodd"/>
      <path id="Path_36809" data-name="Path 36809" d="M254.574,141.643a3.62,3.62,0,0,0-3.679,3.55,3.681,3.681,0,1,0,3.679-3.55Z" transform="translate(-181.728 -0.003)" fill="#db8135" fill-rule="evenodd"/>
      <path id="Path_36810" data-name="Path 36810" d="M328.369,147.891l-1.827-4.631H325.05l2.933,7.075h.72l2.984-7.075h-1.467Zm3.937,2.264h3.808V149h-2.47v-1.852h2.367v-1.183h-2.367v-1.518h2.47V143.26h-3.808Zm9.133-4.863c0-1.286-.875-2.033-2.444-2.033h-1.981v6.9h1.338V147.4h.18l1.852,2.753h1.647l-2.161-2.908A1.841,1.841,0,0,0,341.439,145.292Zm-2.7,1.158h-.386v-2.11h.412c.849,0,1.286.36,1.286,1.029C340.049,146.064,339.612,146.451,338.737,146.451Zm3.488-2.579c0,.053-.036.081-.11.081h-.025v-.158h.027C342.19,143.795,342.225,143.82,342.225,143.872Zm.215.418-.2-.251a.167.167,0,0,0,.135-.17c0-.119-.083-.186-.232-.186h-.194v.608h.143v-.235l.17.235Zm.256-.3a.529.529,0,0,0-.522-.529h0a.53.53,0,0,0-.527.527v0a.527.527,0,1,0,1.053,0Zm-.107,0a.421.421,0,1,1-.418-.434A.427.427,0,0,1,342.589,143.986Z" transform="translate(-248.808 -1.465)" fill-rule="evenodd"/>
    </g>
  </g>
</svg>
