<svg id="pdf_icon" data-name="pdf icon" xmlns="http://www.w3.org/2000/svg" width="20.421" height="22.57" viewBox="0 0 20.421 22.57">
  <g id="pdf">
    <g id="pdf-2" data-name="pdf">
      <path id="Path_36788" data-name="Path 36788" d="M175,36.612A1.612,1.612,0,0,1,176.612,35h9.673a.537.537,0,1,1,0,1.075h-9.673a.538.538,0,0,0-.537.537v9.673a.537.537,0,1,1-1.075,0Zm17.734,4.837a.538.538,0,0,1,.537.537v8.6a.537.537,0,1,1-1.075,0v-8.6A.537.537,0,0,1,192.734,41.449Zm0,11.823a.537.537,0,0,1,.537.537v2.15a1.612,1.612,0,0,1-1.612,1.612H177.687a.537.537,0,0,1,0-1.075h13.972a.537.537,0,0,0,.537-.537v-2.15A.537.537,0,0,1,192.734,53.271Z" transform="translate(-172.85 -35)" fill="#999" fill-rule="evenodd"/>
      <path id="Path_36789" data-name="Path 36789" d="M408.667,35.041a.538.538,0,0,1,.586.117l6.449,6.449a.537.537,0,0,1-.38.917h-5.374a1.612,1.612,0,0,1-1.612-1.612V35.537a.538.538,0,0,1,.332-.5Zm.743,1.794v4.076a.537.537,0,0,0,.537.537h4.077Z" transform="translate(-395.438 -35)" fill="#999" fill-rule="evenodd"/>
      <path id="Path_36790" data-name="Path 36790" d="M128.33,338.869a.538.538,0,0,1,.537-.537h1.612a1.612,1.612,0,0,1,0,3.224H129.4v1.612a.537.537,0,0,1-1.075,0Zm1.075,1.612h1.075a.537.537,0,1,0,0-1.075H129.4Z" transform="translate(-128.33 -324.36)" fill="#ec5252" fill-rule="evenodd"/>
      <path id="Path_36791" data-name="Path 36791" d="M245,338.869a.538.538,0,0,1,.537-.537h1.075a2.687,2.687,0,0,1,0,5.374h-1.075a.537.537,0,0,1-.537-.537Zm1.075.537v3.224h.537a1.612,1.612,0,1,0,0-3.224Z" transform="translate(-239.626 -324.36)" fill="#ec5252" fill-rule="evenodd"/>
      <path id="Path_36792" data-name="Path 36792" d="M373.33,338.869a.538.538,0,0,1,.537-.537h2.687a.537.537,0,1,1,0,1.075H374.4v1.612h1.612a.537.537,0,0,1,0,1.075H374.4v1.075a.537.537,0,0,1-1.075,0Z" transform="translate(-362.045 -324.36)" fill="#ec5252" fill-rule="evenodd"/>
    </g>
  </g>
</svg>
