<svg id="pdf" xmlns="http://www.w3.org/2000/svg" xmlns:xlink="http://www.w3.org/1999/xlink" width="309.335" height="386.369" viewBox="0 0 309.335 386.369">
  <defs>
    <linearGradient id="linear-gradient" x1="0.5" x2="0.5" y2="1" gradientUnits="objectBoundingBox">
      <stop offset="0" stop-color="#68caf8"/>
      <stop offset="0" stop-color="#f32153"/>
      <stop offset="1" stop-color="#a6002c"/>
    </linearGradient>
  </defs>
  <g id="Group_290" data-name="Group 290" transform="translate(-247.818 -149.631)">
    <g id="Group_284" data-name="Group 284">
      <path id="Path_171" data-name="Path 171" d="M557.153,254.641v54.5c0,208.063-309.335,208.063-309.335,0V191.99a42.355,42.355,0,0,1,42.359-42.359H452.115l83.052,83.024Z" fill="url(#linear-gradient)"/>
    </g>
    <g id="Group_289" data-name="Group 289">
      <path id="Path_176" data-name="Path 176" d="M557.153,254.641H494.447a42.334,42.334,0,0,1-38.112-23.894,40.951,40.951,0,0,1-3.252-9.461,41.441,41.441,0,0,1-.968-9V149.631l83.052,83.024Z" fill="#cc1140"/>
    </g>
    <g id="Group_15102" data-name="Group 15102">
      <path id="Rectangle_4604" data-name="Rectangle 4604" d="M0,0H309a0,0,0,0,1,0,0V174a41,41,0,0,1-41,41H41A41,41,0,0,1,0,174V0A0,0,0,0,1,0,0Z" transform="translate(248 321)" fill="#eee"/>
      <g id="Group_14737" data-name="Group 14737" transform="translate(336 353)">
        <g id="Group_14734" data-name="Group 14734" transform="translate(0 0)">
          <path id="Path_38280" data-name="Path 38280" d="M898.983,923.839c9.777-22.291,18.961-45.073,25.6-68.517,2.594-9.17,4.992-18.7,5.4-28.266.27-6.3-.659-14.607-7.1-17.7-4.032-1.934-8.719-1.382-12.636.61-4.6,2.334-6.646,7.2-7,12.1-.36,5.023,1.1,10.282,2.7,14.994a159.361,159.361,0,0,0,8.352,19.351c3.5,7.031,7.278,13.927,11.117,20.777a111.411,111.411,0,0,0,10.462,15.45c7.146,8.869,15.773,17.106,25.6,22.954,7.753,4.618,18.47,8.562,26.331,2.047,4.588-3.8,7.29-11.6,3.947-17.01-2.358-3.819-6.887-5.626-11.127-6.355a66.011,66.011,0,0,0-16.135-.514c-14.294,1.059-28.495,4.187-42.216,8.232-14.124,4.166-28.276,9.388-41.05,16.786a67.245,67.245,0,0,0-14.432,10.693c-3.367,3.429-6.516,7.795-7.242,12.661-.893,6.011,1.249,13.19,6.778,16.459,4.672,2.763,9.687.8,13.476-2.419,4.032-3.432,7-8.355,9.612-12.9a202.728,202.728,0,0,0,9.568-19.439c1.195-2.718.887-6.239-2.039-7.787-2.467-1.3-6.506-.867-7.786,2.044a205.758,205.758,0,0,1-9.352,19.062,77.124,77.124,0,0,1-4.416,6.981c-.313.435-1.563,1.655-.327.462-.363.351-.66.815-.994,1.2a23,23,0,0,1-2.031,2.087c-.152.134-.318.266-.47.4-.709.634,1.081-.7.5-.385-.313.172-.6.415-.912.6-.146.083-.306.151-.446.239-.734.448,1.347-.441.74-.3a4.583,4.583,0,0,0-.947.265c.924-.491,1.611-.147.841-.133-.1,0-.228-.018-.332,0-.53.066,1.763.4.55.019-.53-.166,1.554.819.43.141-.959-.579,1.2,1.147.121.053a4.687,4.687,0,0,0-.354-.39c-.49-.4.9,1.313.405.529-.121-.2-.265-.387-.393-.583a13.755,13.755,0,0,1-.732-1.29c-.1-.191-.172-.4-.275-.588.974,1.771.488,1.243.293.655-.136-.43-.278-.855-.377-1.3-.044-.2-.07-.4-.112-.592-.2-.957.151,1.794.11.8-.016-.42-.051-.83-.042-1.248.023-.85.348-1.841-.086.205.086-.416.146-.836.254-1.247s.239-.794.374-1.186c.188-.551.682-1.252-.292.645.12-.228.211-.476.325-.71a19.139,19.139,0,0,1,1.47-2.483c.137-.2.281-.393.423-.589.615-.862-1.044,1.282-.348.445.36-.436.716-.869,1.094-1.29.729-.809,1.5-1.585,2.3-2.326.912-.839,1.86-1.633,2.826-2.41.148-.118.295-.223.435-.344.084-.069-1.32,1-.7.55.253-.184.5-.38.755-.563.571-.421,1.152-.836,1.738-1.238a108.773,108.773,0,0,1,15.855-8.852q2.3-1.073,4.63-2.073c.42-.183,1.95-.8,0,0,.379-.159.758-.319,1.142-.476.847-.348,1.693-.691,2.545-1.031q4.858-1.927,9.806-3.615a230.3,230.3,0,0,1,40.511-10.073c.739-.112,1.479-.208,2.22-.317.077-.012-1.683.218-.853.115.217-.025.432-.054.651-.084l1.185-.144c1.427-.171,2.853-.319,4.286-.437,2.654-.229,5.32-.375,7.987-.375a58.1,58.1,0,0,1,6.558.375c.7.081-1.891-.288-.669-.084.225.039.45.07.676.112.474.081.943.175,1.41.288a23.443,23.443,0,0,1,2.362.705c1.028.353-1.339-.621-.766-.331.154.08.314.141.465.22a8.935,8.935,0,0,1,.929.516c.129.082.25.18.378.256.715.438-1.319-1.157-.735-.561.2.2.417.422.629.614.642.59-.934-1.406-.59-.772.062.113.158.212.214.328s.12.234.188.344c.466.732-.528-1.668-.379-.893a6.756,6.756,0,0,0,.2.762c-.37-1.118-.159-1.649-.143-.523,0,.144-.031.292-.031.437,0,.6.365-1.918.118-.973-.162.62-.375,1.227-.547,1.844-.218.791.264-.615.294-.651a4.765,4.765,0,0,0-.315.662,10.383,10.383,0,0,1-.573,1.008c-.079.125-.174.244-.25.369-.478.8,1.012-1.114.359-.471-.293.289-.589.59-.875.885-.463.474,1.4-.944.188-.168-.282.176-.581.316-.867.476-.581.326,1.633-.573.239-.137-.358.111-.727.174-1.089.266-1.033.264,1.713-.076.255-.051-.369.006-.732.031-1.1.023s-.76-.046-1.141-.075c-.512-.038-.986-.312.686.1-.233-.055-.483-.079-.722-.126a22.472,22.472,0,0,1-2.5-.639q-.653-.211-1.3-.448c-.264-.1-.527-.208-.793-.3-.941-.342,1.276.573.286.121a52.8,52.8,0,0,1-5.853-3.121c-.977-.6-1.936-1.237-2.88-1.893-.488-.338-.97-.68-1.451-1.033-.2-.144-.39-.282-.582-.43s-.39-.289-.584-.437c-.48-.365-.388-.295.278.218a6.573,6.573,0,0,1-1.458-1.158q-.732-.6-1.456-1.209c-1.027-.873-2.041-1.77-3.035-2.683A110.668,110.668,0,0,1,943.92,884.6c-.413-.513-.837-1.024-1.229-1.554.966,1.314-.348-.477-.536-.732q-1.27-1.709-2.458-3.482c-1.607-2.391-3.049-4.868-4.455-7.379-3.637-6.479-7.21-13-10.547-19.637-1.544-3.065-3.033-6.161-4.432-9.3-.31-.7-.616-1.405-.921-2.105-.585-1.351.306.756-.034-.086-.139-.342-.283-.678-.418-1.019-.578-1.427-1.131-2.867-1.646-4.321a60.709,60.709,0,0,1-2.132-7.277c-.116-.533-.223-1.066-.314-1.605-.045-.26-.085-.516-.126-.775-.186-1.116.107,1.221.064.455-.056-.982-.171-1.948-.148-2.937.009-.427.059-.846.079-1.275.05-1.013-.318,1.523-.065.558.036-.148.056-.309.092-.46.082-.365.2-.721.3-1.082.2-.662.567-.506-.247.558a5.106,5.106,0,0,0,.284-.558c.1-.183.228-.348.332-.528.234-.42.642-.285-.522.659a7.112,7.112,0,0,0,.712-.74c.6-.665-1.284.824-.5.371.121-.07.235-.16.356-.232.187-.117.381-.214.571-.321.509-.289,1.006-.093-.525.2.766-.15,1.584-.4,2.346-.592-1.882.481-1.234.138-.544.113.3-.014.6.008.9.011,1.047.016-1.669-.407-.676-.084.207.067.432.123.645.174.949.227-1.464-.816-.643-.27a6.693,6.693,0,0,0,.6.362c-.258-.131-1.268-1.161-.556-.406.148.157.294.332.449.477-.23-.208-.941-1.419-.407-.5.13.227.272.445.392.678.588,1.14-.008-.455-.2-.538.112.047.221.615.265.745a15.127,15.127,0,0,1,.449,1.846c.106.567.132,1.772-.032-.394.026.327.073.658.1.986.066.783.094,1.568.1,2.353a48.3,48.3,0,0,1-.257,5.126c-.044.446-.09.891-.143,1.335-.056.5-.326,2.186-.009.144-.156,1.012-.3,2.022-.469,3.033-.363,2.137-.792,4.26-1.266,6.374a280.016,280.016,0,0,1-8.937,30.424c-3.809,11.028-8.006,21.916-12.448,32.7q-.783,1.909-1.58,3.813c-.134.315-.266.63-.4.946-.034.072-.555,1.316-.188.446s-.154.364-.186.441l-.4.929q-1.581,3.723-3.209,7.425c-1.193,2.717-.89,6.235,2.043,7.782C893.663,927.179,897.708,926.745,898.983,923.839Z" transform="translate(-859.353 -808.159)" fill="url(#linear-gradient)"/>
        </g>
      </g>
    </g>
    <g id="Group_14738" data-name="Group 14738" transform="translate(290.665 206.029)">
      <path id="Path_38275" data-name="Path 38275" d="M781.993,729.632a102.654,102.654,0,0,1,16.9-1.145c7.715,0,13.214,1.474,16.906,4.428a16.168,16.168,0,0,1,5.908,12.8c0,5.412-1.8,10.009-5.086,13.132-4.269,4.019-10.59,5.822-17.974,5.822a31.778,31.778,0,0,1-4.266-.244V784.2H781.993Zm12.392,25.117a19.408,19.408,0,0,0,4.185.323c6.647,0,10.752-3.369,10.752-9.027,0-5.087-3.528-8.125-9.768-8.125a21.52,21.52,0,0,0-5.169.491Z" transform="translate(-781.993 -728.487)" fill="#fff"/>
      <path id="Path_38276" data-name="Path 38276" d="M817.037,729.632a111.645,111.645,0,0,1,16.908-1.145c10.5,0,17.315,1.884,22.646,5.9,5.75,4.269,9.36,11.081,9.36,20.849,0,10.581-3.86,17.888-9.192,22.4-5.83,4.837-14.69,7.139-25.523,7.139a108.3,108.3,0,0,1-14.2-.824Zm12.557,45.135a22.645,22.645,0,0,0,4.351.25c11.324.081,18.709-6.158,18.709-19.374.086-11.484-6.647-17.557-17.4-17.557a25.852,25.852,0,0,0-5.662.5Z" transform="translate(-769.352 -728.487)" fill="#fff"/>
      <path id="Path_38277" data-name="Path 38277" d="M859.018,728.789h33.81v10.256H871.571v12.64h19.862v10.173H871.571V784.1H859.018Z" transform="translate(-754.209 -728.377)" fill="#fff"/>
    </g>
  </g>
</svg>
