<svg xmlns="http://www.w3.org/2000/svg" width="17.589" height="17.475" viewBox="0 0 17.589 17.475">
  <g id="edit-4084235" transform="translate(-72.823 -18.51)">
    <path id="Path_38671" data-name="Path 38671" d="M89.6,35.984H87.149A2.956,2.956,0,0,1,84,33.281V21.213a2.955,2.955,0,0,1,3.149-2.7H98.024a2.955,2.955,0,0,1,3.149,2.7v2.825a.92.92,0,1,1-1.839,0V21.213c0-.409-.538-.864-1.31-.864H87.149c-.772,0-1.31.455-1.31.864V33.281c0,.409.538.864,1.31.864H89.6a.92.92,0,0,1,0,1.84Z" transform="translate(-11.177 0)" fill="#fff"/>
    <g id="Group_15471" data-name="Group 15471" transform="translate(80.36 25.593)">
      <path id="Path_36886" data-name="Path 36886" d="M331.843,203.432a.591.591,0,0,1-.573-.734l.835-3.341a.59.59,0,0,1,.155-.275l5.011-5.011h0a2.362,2.362,0,0,1,3.341,3.341l-5.011,5.011a.593.593,0,0,1-.275.155l-3.34.835a.577.577,0,0,1-.143.018Zm1.368-3.629-.557,2.227,2.227-.557,4.9-4.9a1.181,1.181,0,1,0-1.671-1.671Z" transform="translate(-331.252 -193.381)" fill="#fff"/>
      <path id="Path_36887" data-name="Path 36887" d="M495.037,224.631a.588.588,0,0,1-.418-.173l-2.506-2.506a.591.591,0,1,1,.835-.835l2.506,2.506h0a.59.59,0,0,1-.417,1.008Z" transform="translate(-486.511 -220.008)" fill="#fff"/>
      <path id="Path_36888" data-name="Path 36888" d="M359.144,360.984a.589.589,0,0,1-.418-.173l-2.506-2.506h0a.591.591,0,0,1,.835-.835l2.506,2.506a.591.591,0,0,1-.418,1.008Z" transform="translate(-355.213 -351.769)" fill="#fff"/>
    </g>
    <g id="noteblock-text-line" transform="translate(68.533 13.203)">
      <g id="Group_15456" data-name="Group 15456" transform="translate(7.899 10.798)">
        <path id="Path_38631" data-name="Path 38631" d="M7.9,10.8h9.19M7.9,15.393h4.595" transform="translate(-7.899 -10.798)" fill="none" stroke="#fff" stroke-linecap="round" stroke-linejoin="round" stroke-width="1.5"/>
      </g>
    </g>
  </g>
</svg>
