<svg xmlns="http://www.w3.org/2000/svg" width="20" height="20" viewBox="0 0 20 20">
  <path id="Icon_simple-whatsapp" data-name="Icon simple-whatsapp" d="M14.582,11.985c-.251-.125-1.473-.722-1.7-.8s-.394-.125-.561.125-.642.8-.787.968-.291.175-.538.063a6.763,6.763,0,0,1-2-1.237A7.56,7.56,0,0,1,7.61,9.373c-.145-.25-.016-.387.108-.512s.251-.288.376-.436a2.112,2.112,0,0,0,.248-.413.458.458,0,0,0-.021-.437c-.063-.125-.56-1.35-.768-1.838s-.406-.425-.56-.425S6.683,5.3,6.517,5.3a.939.939,0,0,0-.664.3,2.782,2.782,0,0,0-.871,2.063A4.876,4.876,0,0,0,6,10.223a11.112,11.112,0,0,0,4.25,3.738c.595.25,1.058.4,1.42.524a3.448,3.448,0,0,0,1.567.1,2.565,2.565,0,0,0,1.68-1.188,2.063,2.063,0,0,0,.15-1.188c-.062-.112-.225-.175-.475-.287m-4.538,6.2h-.013a8.336,8.336,0,0,1-4.212-1.15l-.3-.178L2.4,17.609l.838-3.038-.2-.312a8.265,8.265,0,0,1,12.873-10.2,8.157,8.157,0,0,1,2.424,5.825,8.275,8.275,0,0,1-8.279,8.238M17.1,2.874A10.118,10.118,0,0,0,10.037,0,9.908,9.908,0,0,0,1.413,14.865L0,20l5.279-1.377a10.052,10.052,0,0,0,4.758,1.206h.005A9.95,9.95,0,0,0,20,9.916a9.829,9.829,0,0,0-2.913-7.009" fill="#77d14b"/>
</svg>
